<svg width="66" height="59" viewBox="0 0 66 59" fill="none" xmlns="http://www.w3.org/2000/svg">
<path d="M30 31C38.2843 31 45 24.2843 45 16C45 7.71573 38.2843 1 30 1C21.7157 1 15 7.71573 15 16C15 24.2843 21.7157 31 30 31Z" stroke="black" stroke-width="2"/>
<path d="M29.25 8.5H30" stroke="black" stroke-width="2" stroke-linecap="round"/>
<path d="M27 14.5H30V22" stroke="black" stroke-width="2" stroke-linecap="round" stroke-linejoin="round"/>
<path d="M27 22H33" stroke="black" stroke-width="2" stroke-linecap="round" stroke-linejoin="round"/>
<path d="M11.88 51H5.38L4.14 54H0.82L7.06 40H10.26L16.52 54H13.12L11.88 51ZM10.86 48.54L8.64 43.18L6.42 48.54H10.86ZM24.1125 43.08C25.1125 43.08 26.0192 43.3133 26.8325 43.78C27.6592 44.2333 28.3058 44.88 28.7725 45.72C29.2392 46.5467 29.4725 47.5133 29.4725 48.62C29.4725 49.7267 29.2392 50.7 28.7725 51.54C28.3058 52.3667 27.6592 53.0133 26.8325 53.48C26.0192 53.9333 25.1125 54.16 24.1125 54.16C22.6325 54.16 21.5058 53.6933 20.7325 52.76V54H17.7525V39.16H20.8725V44.38C21.6592 43.5133 22.7392 43.08 24.1125 43.08ZM23.5725 51.6C24.3725 51.6 25.0258 51.3333 25.5325 50.8C26.0525 50.2533 26.3125 49.5267 26.3125 48.62C26.3125 47.7133 26.0525 46.9933 25.5325 46.46C25.0258 45.9133 24.3725 45.64 23.5725 45.64C22.7725 45.64 22.1125 45.9133 21.5925 46.46C21.0858 46.9933 20.8325 47.7133 20.8325 48.62C20.8325 49.5267 21.0858 50.2533 21.5925 50.8C22.1125 51.3333 22.7725 51.6 23.5725 51.6ZM36.6811 54.16C35.5478 54.16 34.5278 53.9267 33.6211 53.46C32.7278 52.98 32.0278 52.32 31.5211 51.48C31.0144 50.64 30.7611 49.6867 30.7611 48.62C30.7611 47.5533 31.0144 46.6 31.5211 45.76C32.0278 44.92 32.7278 44.2667 33.6211 43.8C34.5278 43.32 35.5478 43.08 36.6811 43.08C37.8144 43.08 38.8278 43.32 39.7211 43.8C40.6144 44.2667 41.3144 44.92 41.8211 45.76C42.3278 46.6 42.5811 47.5533 42.5811 48.62C42.5811 49.6867 42.3278 50.64 41.8211 51.48C41.3144 52.32 40.6144 52.98 39.7211 53.46C38.8278 53.9267 37.8144 54.16 36.6811 54.16ZM36.6811 51.6C37.4811 51.6 38.1344 51.3333 38.6411 50.8C39.1611 50.2533 39.4211 49.5267 39.4211 48.62C39.4211 47.7133 39.1611 46.9933 38.6411 46.46C38.1344 45.9133 37.4811 45.64 36.6811 45.64C35.8811 45.64 35.2211 45.9133 34.7011 46.46C34.1811 46.9933 33.9211 47.7133 33.9211 48.62C33.9211 49.5267 34.1811 50.2533 34.7011 50.8C35.2211 51.3333 35.8811 51.6 36.6811 51.6ZM55.5066 43.24V54H52.5466V52.72C52.1332 53.1867 51.6399 53.5467 51.0666 53.8C50.4932 54.04 49.8732 54.16 49.2066 54.16C47.7932 54.16 46.6732 53.7533 45.8466 52.94C45.0199 52.1267 44.6066 50.92 44.6066 49.32V43.24H47.7266V48.86C47.7266 50.5933 48.4532 51.46 49.9066 51.46C50.6532 51.46 51.2532 51.22 51.7066 50.74C52.1599 50.2467 52.3866 49.52 52.3866 48.56V43.24H55.5066ZM65.337 53.48C65.0304 53.7067 64.6504 53.88 64.197 54C63.757 54.1067 63.2904 54.16 62.797 54.16C61.517 54.16 60.5237 53.8333 59.817 53.18C59.1237 52.5267 58.777 51.5667 58.777 50.3V45.88H57.117V43.48H58.777V40.86H61.897V43.48H64.577V45.88H61.897V50.26C61.897 50.7133 62.0104 51.0667 62.237 51.32C62.477 51.56 62.8104 51.68 63.237 51.68C63.7304 51.68 64.1504 51.5467 64.497 51.28L65.337 53.48Z" fill="black"/>
</svg>
