<svg width="49" height="57" viewBox="0 0 49 57" fill="none" xmlns="http://www.w3.org/2000/svg">
<path d="M11.94 44.72C12.74 44.9733 13.3667 45.4 13.82 46C14.2733 46.5867 14.5 47.3133 14.5 48.18C14.5 49.4067 14.02 50.3533 13.06 51.02C12.1133 51.6733 10.7267 52 8.9 52H1.66V38H8.5C10.2067 38 11.5133 38.3267 12.42 38.98C13.34 39.6333 13.8 40.52 13.8 41.64C13.8 42.32 13.6333 42.9267 13.3 43.46C12.98 43.9933 12.5267 44.4133 11.94 44.72ZM4.88 40.44V43.74H8.1C8.9 43.74 9.50667 43.6 9.92 43.32C10.3333 43.04 10.54 42.6267 10.54 42.08C10.54 41.5333 10.3333 41.1267 9.92 40.86C9.50667 40.58 8.9 40.44 8.1 40.44H4.88ZM8.66 49.56C9.51333 49.56 10.1533 49.42 10.58 49.14C11.02 48.86 11.24 48.4267 11.24 47.84C11.24 46.68 10.38 46.1 8.66 46.1H4.88V49.56H8.66ZM16.733 37.16H19.853V52H16.733V37.16ZM27.8686 52.16C26.7353 52.16 25.7153 51.9267 24.8086 51.46C23.9153 50.98 23.2153 50.32 22.7086 49.48C22.2019 48.64 21.9486 47.6867 21.9486 46.62C21.9486 45.5533 22.2019 44.6 22.7086 43.76C23.2153 42.92 23.9153 42.2667 24.8086 41.8C25.7153 41.32 26.7353 41.08 27.8686 41.08C29.0019 41.08 30.0153 41.32 30.9086 41.8C31.8019 42.2667 32.5019 42.92 33.0086 43.76C33.5153 44.6 33.7686 45.5533 33.7686 46.62C33.7686 47.6867 33.5153 48.64 33.0086 49.48C32.5019 50.32 31.8019 50.98 30.9086 51.46C30.0153 51.9267 29.0019 52.16 27.8686 52.16ZM27.8686 49.6C28.6686 49.6 29.3219 49.3333 29.8286 48.8C30.3486 48.2533 30.6086 47.5267 30.6086 46.62C30.6086 45.7133 30.3486 44.9933 29.8286 44.46C29.3219 43.9133 28.6686 43.64 27.8686 43.64C27.0686 43.64 26.4086 43.9133 25.8886 44.46C25.3686 44.9933 25.1086 45.7133 25.1086 46.62C25.1086 47.5267 25.3686 48.2533 25.8886 48.8C26.4086 49.3333 27.0686 49.6 27.8686 49.6ZM46.9541 41.24V50.2C46.9541 52.1733 46.4407 53.64 45.4141 54.6C44.3874 55.56 42.8874 56.04 40.9141 56.04C39.8741 56.04 38.8874 55.9133 37.9541 55.66C37.0207 55.4067 36.2474 55.04 35.6341 54.56L36.8741 52.32C37.3274 52.6933 37.9007 52.9867 38.5941 53.2C39.2874 53.4267 39.9807 53.54 40.6741 53.54C41.7541 53.54 42.5474 53.2933 43.0541 52.8C43.5741 52.32 43.8341 51.5867 43.8341 50.6V50.14C43.0207 51.0333 41.8874 51.48 40.4341 51.48C39.4474 51.48 38.5407 51.2667 37.7141 50.84C36.9007 50.4 36.2541 49.7867 35.7741 49C35.2941 48.2133 35.0541 47.3067 35.0541 46.28C35.0541 45.2533 35.2941 44.3467 35.7741 43.56C36.2541 42.7733 36.9007 42.1667 37.7141 41.74C38.5407 41.3 39.4474 41.08 40.4341 41.08C41.9941 41.08 43.1807 41.5933 43.9941 42.62V41.24H46.9541ZM41.0541 48.92C41.8807 48.92 42.5541 48.68 43.0741 48.2C43.6074 47.7067 43.8741 47.0667 43.8741 46.28C43.8741 45.4933 43.6074 44.86 43.0741 44.38C42.5541 43.8867 41.8807 43.64 41.0541 43.64C40.2274 43.64 39.5474 43.8867 39.0141 44.38C38.4807 44.86 38.2141 45.4933 38.2141 46.28C38.2141 47.0667 38.4807 47.7067 39.0141 48.2C39.5474 48.68 40.2274 48.92 41.0541 48.92Z" fill="black"/>
<path d="M16.7656 20.5312L20.4688 24.2344L17.6094 28.9688C17.6094 28.9688 14.6094 28.6406 11.75 30L16.4375 25.3125C16.6719 25.3125 16.8594 25.2656 17.0469 25.0781C17.375 24.75 17.375 24.2813 17.0469 23.9531C16.7187 23.625 16.25 23.625 15.9219 23.9531C15.7344 24.1406 15.6875 24.375 15.6875 24.5625L11 29.25C12.3594 26.3438 12.0312 23.3906 12.0312 23.3906L16.7656 20.5312Z" fill="#94989B"/>
<path d="M39.8281 1.17194C41.375 2.71882 41.375 5.20319 39.8281 6.75007L37.6718 8.90632C37.6718 8.90632 36.8281 11.2501 32.5625 15.5157C28.25 19.7813 25.9062 20.6251 25.9062 20.6251L21.3593 25.1719L15.8281 19.5938L20.375 15.0469C20.375 15.0469 21.2187 12.7032 25.4843 8.43757C29.75 4.17194 32.0937 3.32819 32.0937 3.32819L34.2968 1.12507C35.8437 -0.374932 38.3281 -0.374932 39.8281 1.17194Z" fill="#3E4347"/>
<path d="M32.0974 3.3512L32.8263 2.62183L38.3951 8.19058L37.6657 8.91948L32.0974 3.3512Z" fill="#94989B"/>
<path d="M19.6268 15.8214L20.3553 15.0916L25.9287 20.6556L25.2007 21.385L19.6268 15.8214Z" fill="#94989B"/>
</svg>
