<svg width="102" height="45" viewBox="0 0 102 45" fill="none" xmlns="http://www.w3.org/2000/svg">
<path d="M95.7485 25.8688C94.1787 25.8796 92.8142 26.3838 91.6718 27.1291C91.2525 26.0221 90.8333 25.0358 90.7594 24.3124C90.6771 23.4686 90.5786 22.9534 90.6771 21.945C90.7758 20.9367 91.2197 19.5008 91.2114 19.3913C91.2033 19.2817 91.1127 18.7665 90.2086 18.7557C89.3045 18.7447 88.5236 18.9858 88.4332 19.3036C88.3428 19.6214 88.1702 20.3448 88.0551 21.0899C87.899 22.1862 86.247 26.0987 85.3018 28.1483C84.9976 27.3484 84.7346 26.6468 84.677 26.0879C84.5948 25.2441 84.4961 24.7289 84.5948 23.7205C84.6935 22.7122 85.1374 21.2766 85.1291 21.1668C85.1208 21.0573 85.0304 20.542 84.1263 20.5312C83.222 20.5202 82.4412 20.7613 82.3509 21.0791C82.2605 21.3971 82.1618 22.1422 81.9728 22.8657C81.7837 23.5891 79.5892 30.1215 79.0138 31.8091C78.7813 32.4921 78.5374 33.1682 78.2823 33.8368C78.2823 33.8368 78.274 33.8697 78.2493 33.9245C78.1692 34.1341 78.087 34.3424 78.0029 34.5492V34.56C77.8795 34.8562 77.748 35.13 77.6823 35.13C77.6329 35.13 77.5425 34.341 77.6987 33.2668C78.0274 30.9982 78.8083 27.469 78.8002 27.3484C78.8002 27.2826 78.9481 26.6689 78.2906 26.3509C77.6493 26.0331 77.4193 26.5592 77.3617 26.5592C77.3042 26.5592 77.2629 26.7455 77.2629 26.7455C77.2629 26.7455 77.9782 22.778 75.8986 22.778C74.6001 22.778 72.8081 24.6741 71.9204 26.3838C70.9113 27.1161 69.9031 27.8504 68.8957 28.5869C68.4109 28.9486 67.9095 29.3103 67.4409 29.65C67.408 29.6063 67.3752 29.5513 67.3422 29.5075C64.8271 25.9236 60.175 23.3917 60.3722 18.5804C60.4463 16.8267 60.8982 12.2234 69.3067 6.63384C76.2274 2.08528 81.7345 3.34558 82.6879 6.14048C84.0523 10.1301 79.7372 17.5391 72.5862 18.613C69.8574 19.0187 68.4272 17.6158 68.0656 17.0897C67.6875 16.5416 67.6299 16.5087 67.4901 16.6185C67.2601 16.783 67.408 17.2761 67.4901 17.561C67.7039 18.3061 68.5833 19.6214 70.071 20.2682C71.3862 20.838 74.5835 21.156 78.4549 19.1612C82.7865 16.9252 86.1729 10.7109 85.1784 5.50492C84.1838 0.222093 77.6083 -1.52052 71.3862 1.42763C67.6875 3.18152 63.6764 5.94328 60.7914 9.53826C57.3639 13.8125 56.8213 17.5281 57.0432 19.0845C57.8407 24.6083 63.5532 28.2033 65.8381 30.8665C65.723 30.9542 65.616 31.0311 65.5258 31.0969C64.3832 31.853 60.0269 34.8888 58.942 38.1002C57.7092 41.7389 59.1394 44.3477 60.0846 44.6981C63.0189 45.7833 66.0354 43.8325 67.6546 40.61C69.2738 37.3878 69.0765 33.201 68.3286 31.283C68.3203 31.2612 68.3122 31.2391 68.2957 31.2172C68.5916 30.9871 68.8957 30.746 69.1916 30.5159C69.7356 30.0871 70.2864 29.6741 70.8438 29.2772C70.5642 30.2966 70.3587 31.5132 70.2602 33.2668C70.1368 35.3274 70.7696 38.0015 71.5998 39.0536C71.9698 39.5143 72.4054 39.5251 72.6849 39.5251C73.6547 39.5251 74.0905 38.4509 74.5754 37.1796C75.1671 35.6234 75.7014 33.8149 75.7014 33.8149C75.7014 33.8149 75.0356 38.7031 76.844 38.7031C77.5014 38.7031 78.1672 37.5632 78.4632 36.9824V36.9932C78.4632 36.9932 78.4795 36.9603 78.5125 36.8837C78.5783 36.7412 78.6193 36.6533 78.6193 36.6533V36.6317C78.8823 36.0178 79.4742 34.6258 80.3536 32.3132C81.4879 29.3322 82.5811 25.6058 82.5811 25.6058C82.5811 25.6058 82.6798 26.5154 83.0167 28.0279C83.2141 28.9157 83.6248 29.8911 83.9537 30.8336C83.6907 31.327 83.5263 31.6008 83.5263 31.6008L83.5346 31.6119C83.3207 31.9844 83.0907 32.3899 82.8358 32.7847C81.9399 34.2093 80.8715 35.8427 80.7234 36.3137C80.5507 36.8726 80.5919 37.2783 80.9209 37.6071C81.1592 37.8483 81.5864 37.8809 82.0222 37.8483C82.8277 37.7714 83.3948 37.5084 83.6742 37.3441C84.1099 37.1359 84.6195 36.8178 85.0961 36.3466C85.9757 35.4807 86.5098 34.2422 86.4606 32.6094C86.4359 31.7106 86.214 30.8118 85.9427 29.9678C86.025 29.8145 86.0989 29.661 86.1812 29.5075C87.5702 26.8003 88.647 23.8301 88.647 23.8301C88.647 23.8301 88.7457 24.7397 89.0826 26.2524C89.2471 27.0196 89.5841 27.8526 89.8799 28.6635C88.573 30.0775 87.7675 31.7214 87.4798 32.7955C86.9621 34.7904 87.3647 35.6889 88.1292 35.8972C88.4743 35.9959 88.9675 35.7766 89.3292 35.5684C89.7894 35.3712 90.332 35.0315 90.8499 34.5271C91.7294 33.6614 92.5759 32.4557 92.5265 30.8228C92.5018 30.0775 92.354 29.343 92.1484 28.6306C93.258 28.0171 94.6883 27.6773 96.5128 27.9621C100.425 28.5758 101.198 31.8309 101.05 33.2012C100.902 34.5711 100.08 35.3164 99.809 35.5465C99.5376 35.7768 99.4473 35.8535 99.472 36.0178C99.5048 36.2589 99.6363 36.2481 99.8665 36.2041C100.187 36.1275 101.921 35.0971 101.995 32.5763C102.119 29.354 99.8171 25.8359 95.7485 25.8688ZM65.5669 39.4374C64.2681 41.3224 62.46 42.0349 61.6791 41.4322C60.8408 40.7854 61.1695 38.0015 62.764 36.0069C63.7339 34.7904 64.9832 33.6612 65.8135 32.9709C66.0024 32.8174 66.282 32.5984 66.619 32.3243C66.6765 32.2803 66.7094 32.2585 66.7094 32.2585L66.9067 32.0939C67.4901 34.9436 66.9314 37.4536 65.5669 39.4374ZM75.0192 30.8665C74.5671 32.3353 73.622 36.0946 73.0466 35.8864C72.5534 35.711 72.2492 32.8614 72.9479 30.0446C73.3013 28.6306 74.0492 26.9427 74.485 26.2853C75.1918 25.233 75.9727 24.8821 76.1616 25.3099C76.4001 25.8688 75.2986 29.9459 75.0192 30.8665ZM82.8194 35.8424C82.6303 35.974 82.4496 36.0617 82.3673 35.9959C82.3099 35.9519 82.4496 35.7766 82.4496 35.7766C82.4496 35.7766 83.4277 34.3739 83.8139 33.7381C84.036 33.3655 84.2989 32.9272 84.5784 32.4338V32.5763C84.5784 34.2533 83.362 35.3822 82.8194 35.8424ZM88.836 34.0121C88.6962 33.8805 88.7209 33.4422 89.1894 32.0721C89.3703 31.535 89.7975 30.6364 90.5292 29.7705C90.6114 30.1212 90.669 30.4611 90.6607 30.7789C90.6524 32.8943 89.5183 33.6833 88.836 34.0121Z" fill="#CD6799"/>
<path d="M0 39.1976C0 42.4025 2.59787 45 5.80236 45H39.1975C42.4025 45 45 42.4021 45 39.1976V5.80254C45 2.59752 42.4021 0 39.1976 0H5.80254C2.59752 0 0 2.59787 0 5.80236V39.1975V39.1976Z" fill="#563D7C"/>
<path d="M18.6606 19.9051V13.5325H24.2699C24.8043 13.5325 25.3194 13.577 25.8154 13.6661C26.3115 13.7551 26.7504 13.914 27.132 14.143C27.5135 14.3721 27.8188 14.69 28.0478 15.097C28.2767 15.5041 28.3913 16.0256 28.3913 16.6614C28.3913 17.8063 28.0478 18.6332 27.3609 19.1419C26.6741 19.6508 25.7964 19.9051 24.7278 19.9051H18.6606ZM12.6694 8.87695V36.123H25.8727C27.0939 36.123 28.2832 35.9705 29.4407 35.6651C30.5982 35.3598 31.6285 34.8892 32.5317 34.2533C33.4346 33.6173 34.1534 32.7967 34.6876 31.792C35.222 30.787 35.489 29.5977 35.489 28.224C35.489 26.5194 35.0756 25.0631 34.2489 23.8547C33.422 22.6462 32.169 21.8004 30.49 21.317C31.7111 20.732 32.6334 19.9814 33.2568 19.0656C33.8799 18.1498 34.1916 17.0051 34.1916 15.6312C34.1916 14.3592 33.9817 13.2908 33.5619 12.4258C33.1421 11.561 32.5506 10.8677 31.7874 10.3461C31.0243 9.82459 30.1085 9.4493 29.0399 9.22043C27.9715 8.99139 26.7885 8.87695 25.4911 8.87695H12.6694ZM18.6606 31.4675V23.9882H25.1858C26.4832 23.9882 27.5263 24.287 28.315 24.885C29.1036 25.4828 29.498 26.4813 29.498 27.8805C29.498 28.5929 29.3771 29.1779 29.1354 29.6358C28.8937 30.0938 28.5694 30.4564 28.1623 30.7234C27.7553 30.9906 27.2846 31.1813 26.7504 31.2959C26.216 31.4102 25.6565 31.4675 25.0713 31.4675H18.6606Z" fill="white"/>
</svg>
