<svg width="84" height="56" viewBox="0 0 84 56" fill="none" xmlns="http://www.w3.org/2000/svg">
<path d="M50.25 8.33333V6.66667L46.5 10L42.75 6.66667V8.33333L46.5 11.6667L50.25 8.33333ZM51.5 0H26.5C25.125 0 24 1.5 24 3.33333V26.6667C24 28.5 25.125 30 26.5 30H51.5C52.875 30 53.9875 28.5 53.9875 26.6667L54 3.33333C54 1.5 52.875 0 51.5 0ZM34 5C36.075 5 37.75 7.23333 37.75 10C37.75 12.7667 36.075 15 34 15C31.925 15 30.25 12.7667 30.25 10C30.25 7.23333 31.925 5 34 5ZM41.5 25H26.5V23.3333C26.5 20 31.5 18.1667 34 18.1667C36.5 18.1667 41.5 20 41.5 23.3333V25ZM51.5 15H41.5V5H51.5V15Z" fill="black"/>
<path d="M8.36 51.24C6.93333 51.24 5.64 50.9333 4.48 50.32C3.33333 49.6933 2.42667 48.8333 1.76 47.74C1.10667 46.6333 0.78 45.3867 0.78 44C0.78 42.6133 1.10667 41.3733 1.76 40.28C2.42667 39.1733 3.33333 38.3133 4.48 37.7C5.64 37.0733 6.94 36.76 8.38 36.76C9.59333 36.76 10.6867 36.9733 11.66 37.4C12.6467 37.8267 13.4733 38.44 14.14 39.24L12.06 41.16C11.1133 40.0667 9.94 39.52 8.54 39.52C7.67333 39.52 6.9 39.7133 6.22 40.1C5.54 40.4733 5.00667 41 4.62 41.68C4.24667 42.36 4.06 43.1333 4.06 44C4.06 44.8667 4.24667 45.64 4.62 46.32C5.00667 47 5.54 47.5333 6.22 47.92C6.9 48.2933 7.67333 48.48 8.54 48.48C9.94 48.48 11.1133 47.9267 12.06 46.82L14.14 48.74C13.4733 49.5533 12.6467 50.1733 11.66 50.6C10.6733 51.0267 9.57333 51.24 8.36 51.24ZM20.8569 51.16C19.7235 51.16 18.7035 50.9267 17.7969 50.46C16.9035 49.98 16.2035 49.32 15.6969 48.48C15.1902 47.64 14.9369 46.6867 14.9369 45.62C14.9369 44.5533 15.1902 43.6 15.6969 42.76C16.2035 41.92 16.9035 41.2667 17.7969 40.8C18.7035 40.32 19.7235 40.08 20.8569 40.08C21.9902 40.08 23.0035 40.32 23.8969 40.8C24.7902 41.2667 25.4902 41.92 25.9969 42.76C26.5035 43.6 26.7569 44.5533 26.7569 45.62C26.7569 46.6867 26.5035 47.64 25.9969 48.48C25.4902 49.32 24.7902 49.98 23.8969 50.46C23.0035 50.9267 21.9902 51.16 20.8569 51.16ZM20.8569 48.6C21.6569 48.6 22.3102 48.3333 22.8169 47.8C23.3369 47.2533 23.5969 46.5267 23.5969 45.62C23.5969 44.7133 23.3369 43.9933 22.8169 43.46C22.3102 42.9133 21.6569 42.64 20.8569 42.64C20.0569 42.64 19.3969 42.9133 18.8769 43.46C18.3569 43.9933 18.0969 44.7133 18.0969 45.62C18.0969 46.5267 18.3569 47.2533 18.8769 47.8C19.3969 48.3333 20.0569 48.6 20.8569 48.6ZM35.3823 40.08C36.7157 40.08 37.789 40.48 38.6023 41.28C39.429 42.08 39.8423 43.2667 39.8423 44.84V51H36.7223V45.32C36.7223 44.4667 36.5357 43.8333 36.1623 43.42C35.789 42.9933 35.249 42.78 34.5423 42.78C33.7557 42.78 33.129 43.0267 32.6623 43.52C32.1957 44 31.9623 44.72 31.9623 45.68V51H28.8423V40.24H31.8223V41.5C32.2357 41.0467 32.749 40.7 33.3623 40.46C33.9757 40.2067 34.649 40.08 35.3823 40.08ZM49.6105 50.48C49.3038 50.7067 48.9238 50.88 48.4705 51C48.0305 51.1067 47.5638 51.16 47.0705 51.16C45.7905 51.16 44.7971 50.8333 44.0905 50.18C43.3971 49.5267 43.0505 48.5667 43.0505 47.3V42.88H41.3905V40.48H43.0505V37.86H46.1705V40.48H48.8505V42.88H46.1705V47.26C46.1705 47.7133 46.2838 48.0667 46.5105 48.32C46.7505 48.56 47.0838 48.68 47.5105 48.68C48.0038 48.68 48.4238 48.5467 48.7705 48.28L49.6105 50.48ZM55.7019 40.08C57.3685 40.08 58.6485 40.48 59.5419 41.28C60.4352 42.0667 60.8819 43.26 60.8819 44.86V51H57.9619V49.66C57.3752 50.66 56.2819 51.16 54.6819 51.16C53.8552 51.16 53.1352 51.02 52.5219 50.74C51.9219 50.46 51.4619 50.0733 51.1419 49.58C50.8219 49.0867 50.6619 48.5267 50.6619 47.9C50.6619 46.9 51.0352 46.1133 51.7819 45.54C52.5419 44.9667 53.7085 44.68 55.2819 44.68H57.7619C57.7619 44 57.5552 43.48 57.1419 43.12C56.7285 42.7467 56.1085 42.56 55.2819 42.56C54.7085 42.56 54.1419 42.6533 53.5819 42.84C53.0352 43.0133 52.5685 43.2533 52.1819 43.56L51.0619 41.38C51.6485 40.9667 52.3485 40.6467 53.1619 40.42C53.9885 40.1933 54.8352 40.08 55.7019 40.08ZM55.4619 49.06C55.9952 49.06 56.4685 48.94 56.8819 48.7C57.2952 48.4467 57.5885 48.08 57.7619 47.6V46.5H55.6219C54.3419 46.5 53.7019 46.92 53.7019 47.76C53.7019 48.16 53.8552 48.48 54.1619 48.72C54.4819 48.9467 54.9152 49.06 55.4619 49.06ZM69.0228 51.16C67.8761 51.16 66.8428 50.9267 65.9228 50.46C65.0161 49.98 64.3028 49.32 63.7828 48.48C63.2761 47.64 63.0228 46.6867 63.0228 45.62C63.0228 44.5533 63.2761 43.6 63.7828 42.76C64.3028 41.92 65.0161 41.2667 65.9228 40.8C66.8428 40.32 67.8761 40.08 69.0228 40.08C70.1561 40.08 71.1428 40.32 71.9828 40.8C72.8361 41.2667 73.4561 41.94 73.8428 42.82L71.4228 44.12C70.8628 43.1333 70.0561 42.64 69.0028 42.64C68.1895 42.64 67.5161 42.9067 66.9828 43.44C66.4495 43.9733 66.1828 44.7 66.1828 45.62C66.1828 46.54 66.4495 47.2667 66.9828 47.8C67.5161 48.3333 68.1895 48.6 69.0028 48.6C70.0695 48.6 70.8761 48.1067 71.4228 47.12L73.8428 48.44C73.4561 49.2933 72.8361 49.96 71.9828 50.44C71.1428 50.92 70.1561 51.16 69.0228 51.16ZM82.7355 50.48C82.4288 50.7067 82.0488 50.88 81.5955 51C81.1555 51.1067 80.6888 51.16 80.1955 51.16C78.9155 51.16 77.9221 50.8333 77.2155 50.18C76.5221 49.5267 76.1755 48.5667 76.1755 47.3V42.88H74.5155V40.48H76.1755V37.86H79.2955V40.48H81.9755V42.88H79.2955V47.26C79.2955 47.7133 79.4088 48.0667 79.6355 48.32C79.8755 48.56 80.2088 48.68 80.6355 48.68C81.1288 48.68 81.5488 48.5467 81.8955 48.28L82.7355 50.48Z" fill="black"/>
</svg>
