<svg width="30" height="30" viewBox="0 0 30 30" fill="none" xmlns="http://www.w3.org/2000/svg">
<path d="M14.9817 30L2.73023 27.5904L0 5.89575H30L27.2669 27.5871L14.9817 30Z" fill="#264DE4"/>
<path d="M24.9271 26.2059L27.2626 7.66956H15V28.1556L24.9271 26.2059Z" fill="#2965F1"/>
<path d="M6.25903 15.7158L6.59559 18.3766H15.0001V15.7158H6.25903Z" fill="#EBEBEB"/>
<path d="M5.58252 10.3303L5.9239 12.9911H15V10.3303H5.58252Z" fill="#EBEBEB"/>
<path d="M15 22.6261L14.9835 22.6292L10.8009 21.8291L10.5334 19.707H6.76331L7.28943 23.8848L14.9827 25.3978L15 25.3945V22.6261Z" fill="#EBEBEB"/>
<path d="M7.06036 0H11.609V1.34767H8.9626V2.69534H11.6092V4.04293H7.06036V0Z" fill="black"/>
<path d="M12.5189 0H17.0676V1.17188H14.4211V1.40624H17.0676V4.10158H12.519V2.87096H15.1655V2.63661H12.5187V0H12.5189Z" fill="black"/>
<path d="M17.9774 0H22.5262V1.17188H19.8797V1.40624H22.5262V4.10158H17.9774V2.87096H20.6239V2.63661H17.9775V0H17.9774Z" fill="black"/>
<path d="M23.7171 15.7158L24.395 10.3303H14.9871V12.9911H20.2791L19.9374 15.7158H14.9871V18.3765H19.6118L19.1757 21.8273L14.9869 22.6283V25.3965L22.6863 23.8848L22.7428 23.4352L23.6254 16.4302L23.7171 15.7158Z" fill="white"/>
</svg>
