<svg width="23" height="27" viewBox="0 0 23 27" fill="none" xmlns="http://www.w3.org/2000/svg">
<path d="M21.625 26.25H19.75V23.4375C19.7485 22.1948 19.2542 21.0033 18.3754 20.1246C17.4967 19.2458 16.3052 18.7515 15.0625 18.75H9.4375C8.19475 18.7515 7.00334 19.2458 6.12458 20.1246C5.24583 21.0033 4.75149 22.1948 4.75 23.4375V26.25H2.875V23.4375C2.87699 21.6976 3.56903 20.0296 4.7993 18.7993C6.02958 17.569 7.69763 16.877 9.4375 16.875H15.0625C16.8024 16.877 18.4704 17.569 19.7007 18.7993C20.931 20.0296 21.623 21.6976 21.625 23.4375V26.25Z" fill="black"/>
<path d="M1.9375 3.75C1.68886 3.75 1.4504 3.84877 1.27459 4.02459C1.09877 4.2004 1 4.43886 1 4.6875V13.125H2.875V4.6875C2.875 4.43886 2.77623 4.2004 2.60041 4.02459C2.4246 3.84877 2.18614 3.75 1.9375 3.75Z" fill="black"/>
<path d="M0 0V1.875H4.6875V8.4375C4.6875 10.178 5.3789 11.8472 6.60961 13.0779C7.84032 14.3086 9.50952 15 11.25 15C12.9905 15 14.6597 14.3086 15.8904 13.0779C17.1211 11.8472 17.8125 10.178 17.8125 8.4375V1.875H22.5V0H0ZM6.5625 1.875H15.9375V4.6875H6.5625V1.875ZM11.25 13.125C10.0068 13.125 8.81451 12.6311 7.93544 11.7521C7.05636 10.873 6.5625 9.6807 6.5625 8.4375V6.5625H15.9375V8.4375C15.9375 9.6807 15.4436 10.873 14.5646 11.7521C13.6855 12.6311 12.4932 13.125 11.25 13.125Z" fill="black"/>
</svg>
