<svg width="30" height="30" viewBox="0 0 30 30" fill="none" xmlns="http://www.w3.org/2000/svg">
<path d="M6.8182 30V14.5493L3.22348 10.1656L0 7.733V27.2734C0 28.782 0.916992 30 2.04551 30H6.8182Z" fill="#4285F4"/>
<path d="M23.1818 30H27.9545C29.0864 30 30 28.7775 30 27.2734V7.73315L26.3489 10.5195L23.1818 14.5493V30Z" fill="#34A853"/>
<path d="M6.81824 14.5494L6.3291 8.51234L6.81824 2.73431L15 10.9141L23.1818 2.73431L23.7291 8.20039L23.1818 14.5494L15 22.7291L6.81824 14.5494Z" fill="#EA4335"/>
<path d="M23.1818 2.7347V14.5497L30 7.73339V4.09793C30 0.726158 27.1125 -1.196 25.091 0.826131L23.1818 2.7347Z" fill="#FBBC04"/>
<path d="M0 7.733L3.13582 10.8681L6.8182 14.5493V2.73431L4.90898 0.825745C2.88398 -1.19654 0 0.725771 0 4.09739V7.73285V7.733Z" fill="#C5221F"/>
</svg>
