<svg width="30" height="30" viewBox="0 0 30 30" fill="none" xmlns="http://www.w3.org/2000/svg">
<path d="M22.5 20C26.6421 20 30 17.7614 30 15C30 12.2386 26.6421 10 22.5 10C18.3579 10 15 12.2386 15 15C15 17.7614 18.3579 20 22.5 20Z" fill="#19BCFE"/>
<path fill-rule="evenodd" clip-rule="evenodd" d="M7.5 30C9.48912 30 11.3968 29.4732 12.8033 28.5355C14.2098 27.5979 15 26.3261 15 25V20H7.5C5.51088 20 3.60322 20.5268 2.1967 21.4645C0.790176 22.4021 0 23.6739 0 25C0 26.3261 0.790176 27.5979 2.1967 28.5355C3.60322 29.4732 5.51088 30 7.5 30Z" fill="#09CF83"/>
<path fill-rule="evenodd" clip-rule="evenodd" d="M7.5 20H15V10H7.5C5.51088 10 3.60322 10.5268 2.1967 11.4645C0.790176 12.4021 0 13.6739 0 15C0 16.3261 0.790176 17.5979 2.1967 18.5355C3.60322 19.4732 5.51088 20 7.5 20Z" fill="#A259FF"/>
<path fill-rule="evenodd" clip-rule="evenodd" d="M7.5 10H15V0H7.5C5.51088 0 3.60322 0.526784 2.1967 1.46447C0.790176 2.40215 0 3.67392 0 5C0 6.32608 0.790176 7.59785 2.1967 8.53553C3.60322 9.47322 5.51088 10 7.5 10Z" fill="#F24E1E"/>
<path fill-rule="evenodd" clip-rule="evenodd" d="M22.5 10H15V0H22.5C24.4891 0 26.3968 0.526784 27.8033 1.46447C29.2098 2.40215 30 3.67392 30 5C30 6.32608 29.2098 7.59785 27.8033 8.53553C26.3968 9.47322 24.4891 10 22.5 10Z" fill="#FF7262"/>
</svg>
