<svg width="40" height="45" viewBox="0 0 40 45" fill="none" xmlns="http://www.w3.org/2000/svg">
<path d="M30 30C35.5228 30 40 26.6421 40 22.5C40 18.3579 35.5228 15 30 15C24.4772 15 20 18.3579 20 22.5C20 26.6421 24.4772 30 30 30Z" fill="#19BCFE"/>
<path fill-rule="evenodd" clip-rule="evenodd" d="M10 45C12.6522 45 15.1957 44.2098 17.0711 42.8033C18.9464 41.3968 20 39.4891 20 37.5V30H10C7.34784 30 4.8043 30.7902 2.92893 32.1967C1.05357 33.6032 0 35.5109 0 37.5C0 39.4891 1.05357 41.3968 2.92893 42.8033C4.8043 44.2098 7.34784 45 10 45Z" fill="#09CF83"/>
<path fill-rule="evenodd" clip-rule="evenodd" d="M10 30H20V15H10C7.34784 15 4.8043 15.7902 2.92893 17.1967C1.05357 18.6032 0 20.5109 0 22.5C0 24.4891 1.05357 26.3968 2.92893 27.8033C4.8043 29.2098 7.34784 30 10 30Z" fill="#A259FF"/>
<path fill-rule="evenodd" clip-rule="evenodd" d="M10 15H20V0H10C7.34784 0 4.8043 0.790176 2.92893 2.1967C1.05357 3.60322 0 5.51088 0 7.5C0 9.48912 1.05357 11.3968 2.92893 12.8033C4.8043 14.2098 7.34784 15 10 15Z" fill="#F24E1E"/>
<path fill-rule="evenodd" clip-rule="evenodd" d="M30 15H20V0H30C32.6522 0 35.1957 0.790176 37.0711 2.1967C38.9464 3.60322 40 5.51088 40 7.5C40 9.48912 38.9464 11.3968 37.0711 12.8033C35.1957 14.2098 32.6522 15 30 15Z" fill="#FF7262"/>
</svg>
