<svg width="38" height="38" viewBox="0 0 38 38" fill="none" xmlns="http://www.w3.org/2000/svg">
<g filter="url(#filter0_d)">
<path d="M19 0C15.0218 0 11.2064 1.58035 8.3934 4.3934C5.58035 7.20644 4 11.0218 4 15C4 18.9782 5.58035 22.7936 8.3934 25.6066C11.2064 28.4196 15.0218 30 19 30C22.9782 30 26.7936 28.4196 29.6066 25.6066C32.4196 22.7936 34 18.9782 34 15C34 11.0218 32.4196 7.20644 29.6066 4.3934C26.7936 1.58035 22.9782 0 19 0V0ZM22.9538 27.2288H22.8375C22.7502 27.2337 22.6628 27.2207 22.5807 27.1906C22.4985 27.1605 22.4235 27.1139 22.36 27.0537C22.3014 26.9918 22.2557 26.9187 22.2256 26.8389C22.1956 26.759 22.1818 26.674 22.185 26.5887V24.8312C22.1925 24.2475 22.1975 23.6562 22.1975 23.0612C22.1955 22.6262 22.1319 22.1935 22.0087 21.7762C21.8921 21.3544 21.657 20.9748 21.3312 20.6825C22.2025 20.5984 23.059 20.4005 23.8787 20.0938C24.5703 19.8308 25.1958 19.4195 25.7113 18.8888C26.22 18.355 26.5987 17.71 26.8175 17.0062C27.0836 16.1444 27.2102 15.2456 27.1925 14.3438C27.1974 13.7141 27.0872 13.0888 26.8675 12.4987C26.6442 11.904 26.3066 11.3587 25.8738 10.8938C25.9672 10.6592 26.0351 10.4153 26.0762 10.1663C26.1175 9.91625 26.1388 9.66375 26.1388 9.41125C26.1388 9.08625 26.1012 8.76125 26.0263 8.445C25.9581 8.12063 25.8658 7.80182 25.75 7.49125C25.7058 7.47401 25.6587 7.46552 25.6112 7.46625H25.4738C25.1863 7.46875 24.9037 7.51625 24.6312 7.605C24.3311 7.69262 24.0374 7.80122 23.7525 7.93C23.4691 8.05702 23.1933 8.20017 22.9263 8.35875C22.6575 8.5175 22.42 8.67 22.21 8.81125C20.1072 8.22516 17.8841 8.22516 15.7812 8.81125C15.5467 8.65447 15.3083 8.50359 15.0662 8.35875C14.7955 8.19884 14.5149 8.05606 14.2262 7.93125C13.9421 7.7982 13.6473 7.68907 13.345 7.605C13.0779 7.51675 12.7988 7.46996 12.5175 7.46625H12.38C12.333 7.46559 12.2863 7.47408 12.2425 7.49125C12.1251 7.80225 12.029 8.12091 11.955 8.445C11.8875 8.7625 11.855 9.08625 11.8538 9.41125C11.8538 9.66375 11.875 9.91625 11.9175 10.1663C11.9588 10.415 12.025 10.6588 12.1175 10.8938C11.6857 11.3594 11.3494 11.9051 11.1275 12.5C10.9066 13.0899 10.7952 13.7151 10.7987 14.345C10.7813 15.242 10.9044 16.1362 11.1637 16.995C11.39 17.6987 11.7675 18.345 12.2687 18.89C12.7875 19.4175 13.4125 19.8275 14.1013 20.095C14.9175 20.4075 15.7725 20.6075 16.6425 20.69C16.3996 20.9102 16.2069 21.18 16.0775 21.4812C15.9544 21.7792 15.8704 22.0918 15.8275 22.4113C15.3689 22.6308 14.8673 22.7461 14.3587 22.7487C13.8865 22.7676 13.4204 22.6364 13.0275 22.3738C12.6505 22.0944 12.3313 21.7446 12.0875 21.3438C11.9784 21.1754 11.8563 21.0157 11.7225 20.8663C11.5813 20.7091 11.4256 20.5655 11.2575 20.4375C11.0918 20.3137 10.9102 20.2128 10.7175 20.1375C10.5279 20.0544 10.3232 20.0114 10.1163 20.0113C10.0663 20.0125 10.0162 20.0175 9.96625 20.0237C9.89797 20.0235 9.82993 20.0319 9.76375 20.0487C9.70559 20.064 9.65057 20.0894 9.60125 20.1238C9.57883 20.1361 9.56007 20.1542 9.5469 20.1761C9.53373 20.1981 9.5266 20.2231 9.52625 20.2487C9.5315 20.3089 9.54989 20.3672 9.58013 20.4194C9.61037 20.4717 9.65172 20.5167 9.70125 20.5513C9.8175 20.6437 9.91375 20.715 9.99125 20.765L10.0287 20.7912C10.195 20.92 10.355 21.0588 10.5062 21.2075C10.6462 21.33 10.7725 21.4688 10.8813 21.62C10.9938 21.7687 11.0912 21.9275 11.17 22.0963C11.2613 22.2638 11.3575 22.4562 11.4587 22.675C11.6937 23.2675 12.1112 23.7687 12.6512 24.1063C13.2175 24.41 13.8525 24.5612 14.4963 24.545C14.7138 24.545 14.9325 24.5325 15.1487 24.5075C15.3637 24.4725 15.5775 24.4362 15.7925 24.3937V26.5725C15.7964 26.6603 15.7817 26.748 15.7494 26.8298C15.7171 26.9116 15.6679 26.9856 15.605 27.0471C15.5421 27.1086 15.467 27.1561 15.3845 27.1865C15.302 27.217 15.214 27.2296 15.1263 27.2237H15.0487C12.1338 26.2821 9.65083 24.3306 8.04696 21.7208C6.44309 19.1109 5.82371 16.0142 6.30035 12.9882C6.777 9.96225 8.31834 7.20588 10.6468 5.21545C12.9753 3.22502 15.938 2.13134 19.0013 2.13134C22.0645 2.13134 25.0272 3.22502 27.3557 5.21545C29.6842 7.20588 31.2255 9.96225 31.7021 12.9882C32.1788 16.0142 31.5594 19.1109 29.9555 21.7208C28.3517 24.3306 25.8687 26.2821 22.9538 27.2237V27.23V27.2288Z" fill="black"/>
</g>
<defs>
<filter id="filter0_d" x="0" y="0" width="38" height="38" filterUnits="userSpaceOnUse" color-interpolation-filters="sRGB">
<feFlood flood-opacity="0" result="BackgroundImageFix"/>
<feColorMatrix in="SourceAlpha" type="matrix" values="0 0 0 0 0 0 0 0 0 0 0 0 0 0 0 0 0 0 127 0"/>
<feOffset dy="4"/>
<feGaussianBlur stdDeviation="2"/>
<feColorMatrix type="matrix" values="0 0 0 0 0 0 0 0 0 0 0 0 0 0 0 0 0 0 0.25 0"/>
<feBlend mode="normal" in2="BackgroundImageFix" result="effect1_dropShadow"/>
<feBlend mode="normal" in="SourceGraphic" in2="effect1_dropShadow" result="shape"/>
</filter>
</defs>
</svg>
