<svg width="45" height="45" viewBox="0 0 45 45" fill="none" xmlns="http://www.w3.org/2000/svg">
<path d="M32.3991 24.5321C34.7667 21.729 37.128 18.9031 39.5037 16.1294C41.7586 13.4955 44.4115 15.9243 44.9229 21.0493C45.2187 24.014 44.5766 27.2167 43.2781 28.7766C39.021 33.8904 34.7577 38.9838 30.4732 43.9994C29.1471 45.5517 27.7811 45.2661 26.5726 43.3638C25.3449 41.4325 24.958 38.7686 25.246 35.668C25.5747 33.3077 26.327 31.7297 27.3531 30.5492C29.0494 28.5976 30.7184 26.5431 32.3991 24.5321Z" fill="#FABC05"/>
<path d="M34.1373 22.494C31.7757 19.6691 29.408 16.8664 27.0547 14.013C24.8207 11.3041 24.5148 5.35367 26.4122 1.87808C27.5098 -0.131844 29.1764 -0.58731 30.481 0.950838C34.7582 5.99357 39.0297 11.0577 43.279 16.1983C44.5942 17.7893 45.1571 20.371 44.9625 23.4795C44.7647 26.6363 43.8392 28.6589 42.3926 29.6956C41.2364 30.2891 40.1974 29.7347 39.1884 28.4933C37.5202 26.4406 35.8225 24.4883 34.1373 22.494Z" fill="#109D58"/>
<path d="M12.6127 20.4952C11.0973 22.27 9.58098 24.0415 8.06697 25.8217C7.18155 26.8631 6.30563 27.94 5.41564 28.9639C3.62214 31.0275 1.4913 29.818 0.474403 26.1833C-0.496091 22.715 0.0616662 18.2183 1.7889 16.1399C6.01207 11.0587 10.2461 6.01455 14.4955 1.02653C15.7988 -0.502924 17.1509 -0.310519 18.356 1.51823C19.628 3.44843 20.0444 6.16456 19.7588 9.34847C19.5816 10.1192 19.4758 11.0225 19.2103 11.6294C18.779 12.6168 18.2885 13.5622 17.7426 14.2564C16.0529 16.404 14.3253 18.4252 12.6127 20.4952Z" fill="#E94436"/>
<path d="M10.8749 22.486C12.3784 24.3035 13.8808 26.125 15.3857 27.9374C16.2658 28.9976 17.1561 30.0227 18.0314 31.0992C19.7952 33.2697 20.3526 37.6779 19.3339 41.3104C18.3618 44.7773 16.1939 46.0303 14.457 43.9856C10.2106 38.9871 5.97445 33.9512 1.75427 28.8592C0.459986 27.2975 -0.135213 24.7876 0.0305494 21.7218C0.205453 18.4857 1.13833 16.3845 2.61894 15.3021C3.03115 15.2337 3.46358 14.9706 3.85135 15.1409C4.48188 15.4177 5.12437 15.8203 5.68898 16.4479C7.43608 18.39 9.14891 20.4634 10.8749 22.486Z" fill="#4385F3"/>
</svg>
