<svg width="45" height="60" viewBox="0 0 45 60" fill="none" xmlns="http://www.w3.org/2000/svg">
<g clip-path="url(#clip0)">
<path d="M22.6032 38.3547L27.348 40.2707L33.5626 13.2076C33.9608 11.3955 33.2405 9.43177 31.9628 8.91917C30.6229 8.39815 29.216 9.47962 28.8178 11.2917L22.6032 38.3547Z" fill="#D6A57C"/>
<path d="M32.025 8.92761C31.8453 8.81843 31.7211 8.80157 31.5346 8.77628C32.6055 9.51529 33.0977 11.1936 32.7131 12.8379L26.4985 39.901L27.3481 40.2707L33.5627 13.2076C34.0298 11.3201 33.3027 9.44021 32.025 8.92761Z" fill="#B58360"/>
<path d="M17.5641 38.5194L23.4052 39.3117L25.8741 8.85667C26.0577 6.59142 24.9092 4.48475 23.2936 4.2656C21.7401 4.05488 20.2234 5.71521 20.033 8.06436L17.5641 38.5194Z" fill="#D6A57C"/>
<path d="M23.3558 4.27404C23.2315 4.25718 23.0451 4.2319 22.914 4.29894C24.316 4.82839 25.2363 6.64965 25.0663 8.7471L22.5906 39.2861L23.4605 39.4041L25.9363 8.8651C26.1267 6.51595 24.9714 4.49319 23.3558 4.27404Z" fill="#B58360"/>
<path d="M14.4639 38.0141L19.5779 36.9265L16.423 8.4229C16.2066 6.44267 14.8727 5.07423 13.4716 5.30829C12.0637 5.62624 11.0995 7.44633 11.3159 9.42656L14.4639 38.0141Z" fill="#D6A57C"/>
<path d="M13.4716 5.30829L13.0783 5.50941C14.3279 5.59409 15.358 6.83648 15.588 8.64892L18.7429 37.1525L19.64 36.935L16.423 8.4229C16.2066 6.44267 14.8727 5.07423 13.4716 5.30829Z" fill="#B58360"/>
<path d="M5.92706 11.5795C4.6852 12.1745 4.14913 14.1374 4.6345 15.8997L11.0481 39.0775L15.4427 36.7897L9.02907 13.6119C8.54371 11.8496 7.16892 10.9846 5.92706 11.5795Z" fill="#D6A57C"/>
<path d="M5.92714 11.5795C5.79606 11.6466 5.66498 11.7136 5.5271 11.8645C6.61748 11.5883 7.73691 12.5036 8.17373 14.0896L14.5873 37.2674L15.4359 36.8736L9.02915 13.6119C8.54379 11.8496 7.169 10.9846 5.92714 11.5795Z" fill="#B58360"/>
<path d="M40.7 29.7828C39.9166 27.047 36.7961 26.7934 33.2461 31.0618C30.7438 34.0304 30.2204 35.0621 27.9902 34.6748L28.2691 31.2349C28.2691 31.2349 23.872 25.8037 14.1879 26.6955C14.1879 26.6955 8.70018 26.969 8.38732 30.8283C8.38732 30.8283 6.70027 40.0145 8.15049 46.1487C10.3015 55.2618 24.7828 59.5163 30.5849 45.29C31.755 42.48 33.7961 40.5515 35.6983 38.0105C37.8966 34.9158 41.5319 32.6947 40.7 29.7828Z" fill="#D6A57C"/>
<path d="M40.6999 29.7827C40.5543 29.2541 40.333 28.8848 40.0495 28.507C40.1048 28.5993 40.1602 28.6917 40.1466 28.8595C40.9717 31.8553 37.3432 33.9926 35.0205 37.0703C33.1183 39.6114 31.0773 41.5399 29.9072 44.3499C24.8897 56.6469 13.3318 55.0791 8.96101 48.5488C12.8288 55.8591 25.2022 58.2161 30.4606 45.2732C31.6307 42.4632 33.6717 40.5347 35.5739 37.9936C37.8966 34.9158 41.5319 32.6947 40.6999 29.7827Z" fill="#B58360"/>
<path d="M28.6115 34.759C24.7357 32.1976 17.2283 34.9114 17.4267 44.8623C18.1681 35.7174 24.5035 34.2866 27.859 34.7418C28.3629 34.7253 28.6115 34.759 28.6115 34.759Z" fill="#B58360"/>
</g>
<defs>
<clipPath id="clip0">
<rect width="40.1333" height="53.871" fill="white" transform="matrix(0.990925 0.134413 -0.0808025 0.99673 4.35291 0)"/>
</clipPath>
</defs>
</svg>
