<svg width="34" height="32" viewBox="0 0 34 32" fill="none" xmlns="http://www.w3.org/2000/svg">
<g clip-path="url(#clip0)">
<path d="M17.1093 20.8296L20.5634 21.8022L25.6323 6.76672C25.9586 5.76032 25.465 4.69005 24.5348 4.42998C23.5591 4.16636 22.5045 4.78771 22.1783 5.79412L17.1093 20.8296Z" fill="#D6A57C"/>
<path d="M24.5804 4.43353C24.4503 4.37649 24.3592 4.3694 24.2226 4.35875C24.9965 4.74735 25.3275 5.66426 25.0144 6.57788L19.9454 21.6134L20.5634 21.8022L25.6323 6.76673C26.0107 5.71748 25.5106 4.6936 24.5804 4.43353Z" fill="#B58360"/>
<path d="M13.4005 21.0097L17.6814 21.3432L20.0583 4.50334C20.2351 3.25079 19.4294 2.1093 18.2453 2.01705C17.1067 1.92835 15.9607 2.87089 15.7774 4.16983L13.4005 21.0097Z" fill="#D6A57C"/>
<path d="M18.2908 2.0206C18.1997 2.0135 18.0631 2.00286 17.9655 2.04215C18.9867 2.30932 19.63 3.29745 19.4663 4.45722L17.0828 21.3435L17.7204 21.3931L20.1039 4.50689C20.2872 3.20795 19.4749 2.11285 18.2908 2.0206Z" fill="#B58360"/>
<path d="M11.1299 20.7859L14.9108 20.0955L13.116 4.4315C12.9934 3.34323 12.0376 2.61215 11.0029 2.76605C9.96168 2.96634 9.21903 3.9872 9.34168 5.07548L11.1299 20.7859Z" fill="#D6A57C"/>
<path d="M11.0029 2.76605L10.71 2.88393C11.6274 2.9085 12.362 3.57545 12.4978 4.57094L14.2925 20.235L14.9563 20.0991L13.116 4.4315C12.9934 3.34323 12.0376 2.61215 11.0029 2.76605Z" fill="#B58360"/>
<path d="M5.33906 6.35829C4.41483 6.70839 3.98442 7.80048 4.30888 8.76378L8.59831 21.4329L11.8723 20.0933L7.58283 7.42421C7.25837 6.46091 6.26329 6.00818 5.33906 6.35829Z" fill="#D6A57C"/>
<path d="M5.33905 6.35828C5.24141 6.39758 5.14378 6.43687 5.0396 6.52256C5.84656 6.35092 6.65292 6.83585 6.94494 7.70281L11.2344 20.3719L11.8657 20.1397L7.58282 7.4242C7.25836 6.46091 6.26328 6.00818 5.33905 6.35828Z" fill="#B58360"/>
<path d="M30.5757 15.7816C30.05 14.2867 27.7598 14.2021 25.0705 16.619C23.1756 18.3006 22.7717 18.8788 21.1387 18.7047L21.4072 16.8027C21.4072 16.8027 18.2737 13.8852 11.1355 14.5485C11.1355 14.5485 7.09475 14.7965 6.79354 16.9305C6.79354 16.9305 5.38358 22.0267 6.33703 25.384C7.75097 30.3718 18.3221 32.4617 22.8512 24.5131C23.7635 22.9426 25.3 21.8429 26.7457 20.4078C28.4195 18.6622 31.1338 17.3728 30.5757 15.7816Z" fill="#D6A57C"/>
<path d="M30.5757 15.7816C30.4784 15.4926 30.3224 15.2929 30.1209 15.0896C30.1599 15.1395 30.1989 15.1894 30.1858 15.2822C30.7373 16.9198 28.0295 18.1628 26.2647 19.9013C24.819 21.3364 23.2825 22.4362 22.3702 24.0066C18.4537 30.8773 9.98283 30.2174 6.88891 26.6933C9.59856 30.6565 18.6546 31.7372 22.7601 24.506C23.6724 22.9356 25.209 21.8358 26.6547 20.4007C28.4195 18.6622 31.1338 17.3728 30.5757 15.7816Z" fill="#B58360"/>
<path d="M21.5941 18.7402C18.791 17.3962 13.22 19.0258 13.1826 24.5103C13.8963 19.4537 18.5818 18.5524 21.0411 18.744C21.4119 18.726 21.5941 18.7402 21.5941 18.7402Z" fill="#B58360"/>
</g>
<defs>
<clipPath id="clip0">
<rect width="29.2352" height="29.9844" fill="white" transform="matrix(0.996979 0.0776705 -0.139763 0.990185 4.39481 0)"/>
</clipPath>
</defs>
</svg>
