<svg width="152" height="45" viewBox="0 0 152 45" fill="none" xmlns="http://www.w3.org/2000/svg">
<path d="M22.4725 45L4.09535 41.3857L0 8.84363H45L40.9004 41.3807L22.4725 45Z" fill="#264DE4"/>
<path d="M37.3907 39.3088L40.8939 11.5043H22.5V42.2334L37.3907 39.3088Z" fill="#2965F1"/>
<path d="M9.38846 23.5737L9.8933 27.5649H22.5V23.5737H9.38846Z" fill="#EBEBEB"/>
<path d="M8.37378 15.4956L8.88585 19.4868H22.5V15.4956H8.37378Z" fill="#EBEBEB"/>
<path d="M22.5 33.9392L22.4753 33.9439L16.2013 32.7436L15.8002 29.5605H10.145L10.9341 35.8273L22.4741 38.0967L22.5 38.0917V33.9392Z" fill="#EBEBEB"/>
<path d="M10.5906 0H17.4135V2.02151H13.4439V4.04301H17.4139V6.06439H10.5906V0Z" fill="black"/>
<path d="M18.7783 0H25.6014V1.75782H21.6316V2.10936H25.6014V6.15237H18.7784V4.30645H22.7482V3.95491H18.7781V0H18.7783Z" fill="black"/>
<path d="M26.9661 0H33.7893V1.75782H29.8195V2.10936H33.7893V6.15237H26.9661V4.30645H30.9359V3.95491H26.9663V0H26.9661Z" fill="black"/>
<path d="M35.5756 23.5738L36.5925 15.4956H22.4806V19.4868H30.4187L29.9061 23.5738H22.4806V27.5649H29.4177L28.7636 32.7411L22.4804 33.9426V38.0948L34.0295 35.8273L34.1142 35.1529L35.4382 24.6455L35.5756 23.5738Z" fill="white"/>
<path d="M152 8.84363L147.9 41.3807L129.472 45L111.095 41.3857L107 8.84363H152Z" fill="#E44D26"/>
<path d="M129.5 42.2334L144.391 39.3088L147.894 11.5043H129.5V42.2334Z" fill="#F16529"/>
<path d="M121.53 19.4868H129.5V15.4956H115.374L115.509 16.5663L116.893 27.5649H129.5V23.5738H122.045L121.53 19.4868Z" fill="#EBEBEB"/>
<path d="M122.8 29.5605H117.145L117.934 35.8273L129.474 38.0967L129.5 38.0917V33.9392L129.475 33.9439L123.201 32.7436L122.8 29.5605Z" fill="#EBEBEB"/>
<path d="M111.187 0H114.05V2.00389H116.669V0H119.532V6.06827H116.669V4.03626H114.05V6.06827H111.187V0H111.187Z" fill="black"/>
<path d="M123.296 2.01238H120.776V0H128.681V2.01238H126.16V6.06827H123.297V2.01238H123.297H123.296Z" fill="black"/>
<path d="M129.936 0H132.921L134.757 2.13223L136.592 0H139.578V6.06827H136.727V3.0605L134.757 5.2181H134.708L132.737 3.0605V6.06827H129.936V0Z" fill="black"/>
<path d="M141.003 0H143.866V4.06251H147.892V6.06827H141.003V0H141.003Z" fill="black"/>
<path d="M129.481 27.5649H136.418L135.764 32.7411L129.48 33.9426V38.0948L141.029 35.8272L141.114 35.1529L142.438 24.6455L142.576 23.5737H129.481V27.5649Z" fill="white"/>
<path d="M129.481 19.477V19.4868H143.088L143.201 18.5897L143.458 16.5663L143.593 15.4956H129.481V19.4771V19.477Z" fill="white"/>
<path d="M53 0H98V45H53V0Z" fill="#F7DF1E"/>
<path d="M64.8322 37.6053L68.2757 35.5212C68.9402 36.6991 69.5445 37.6958 70.9942 37.6958C72.3837 37.6958 73.26 37.1523 73.26 35.038V20.6594H77.4888V35.0977C77.4888 39.4777 74.9213 41.4714 71.1754 41.4714C67.7925 41.4714 65.8289 39.7194 64.832 37.6049" fill="black"/>
<path d="M79.7857 37.1521L83.2289 35.1586C84.1354 36.6388 85.3135 37.7262 87.3976 37.7262C89.1499 37.7262 90.2672 36.8501 90.2672 35.6418C90.2672 34.1919 89.1193 33.6783 87.1861 32.8328L86.1291 32.3793C83.0781 31.0808 81.0543 29.4495 81.0543 26.006C81.0543 22.8342 83.4708 20.4175 87.2467 20.4175C89.9351 20.4175 91.8684 21.3541 93.2578 23.8008L89.965 25.9155C89.2399 24.6166 88.4549 24.1031 87.2466 24.1031C86.008 24.1031 85.2226 24.8885 85.2226 25.9155C85.2226 27.1841 86.008 27.6979 87.8203 28.4833L88.8775 28.9363C92.4722 30.477 94.496 32.0476 94.496 35.5815C94.496 39.3879 91.5056 41.4719 87.4881 41.4719C83.5613 41.4719 81.0239 39.5991 79.7855 37.1523" fill="black"/>
</svg>
