<svg width="63" height="57" viewBox="0 0 63 57" fill="none" xmlns="http://www.w3.org/2000/svg">
<path d="M19.4997 16.5001H20.9997V27C20.9997 28.6545 22.3453 30 23.9998 30H42.0002C43.6547 30 45.0003 28.6545 45.0003 27V16.5001H46.5003C46.7969 16.5001 47.0869 16.4121 47.3335 16.2472C47.5801 16.0824 47.7723 15.8482 47.8858 15.5741C47.9993 15.3001 48.029 14.9985 47.9712 14.7076C47.9133 14.4167 47.7705 14.1494 47.5608 13.9397L34.0605 0.439797C33.9213 0.30038 33.756 0.189774 33.5741 0.114309C33.3921 0.0388437 33.197 0 33 0C32.803 0 32.6079 0.0388437 32.4259 0.114309C32.244 0.189774 32.0787 0.30038 31.9395 0.439797L18.4392 13.9397C18.2295 14.1494 18.0867 14.4167 18.0288 14.7076C17.971 14.9985 18.0007 15.3001 18.1142 15.5741C18.2277 15.8482 18.4199 16.0824 18.6665 16.2472C18.9131 16.4121 19.2031 16.5001 19.4997 16.5001ZM29.9999 27V19.5001H36.0001V27H29.9999ZM33 3.62127L42.0002 12.6212V19.5001L42.0017 27H39.0001V19.5001C39.0001 17.8456 37.6546 16.5001 36.0001 16.5001H29.9999C28.3454 16.5001 26.9999 17.8456 26.9999 19.5001V27H23.9998V12.6212L33 3.62127Z" fill="black"/>
<path d="M14.5 38V52H11.26V46.26H4.9V52H1.66V38H4.9V43.52H11.26V38H14.5ZM22.7123 52.16C21.579 52.16 20.559 51.9267 19.6523 51.46C18.759 50.98 18.059 50.32 17.5523 49.48C17.0457 48.64 16.7923 47.6867 16.7923 46.62C16.7923 45.5533 17.0457 44.6 17.5523 43.76C18.059 42.92 18.759 42.2667 19.6523 41.8C20.559 41.32 21.579 41.08 22.7123 41.08C23.8457 41.08 24.859 41.32 25.7523 41.8C26.6457 42.2667 27.3457 42.92 27.8523 43.76C28.359 44.6 28.6123 45.5533 28.6123 46.62C28.6123 47.6867 28.359 48.64 27.8523 49.48C27.3457 50.32 26.6457 50.98 25.7523 51.46C24.859 51.9267 23.8457 52.16 22.7123 52.16ZM22.7123 49.6C23.5123 49.6 24.1657 49.3333 24.6723 48.8C25.1923 48.2533 25.4523 47.5267 25.4523 46.62C25.4523 45.7133 25.1923 44.9933 24.6723 44.46C24.1657 43.9133 23.5123 43.64 22.7123 43.64C21.9123 43.64 21.2523 43.9133 20.7323 44.46C20.2123 44.9933 19.9523 45.7133 19.9523 46.62C19.9523 47.5267 20.2123 48.2533 20.7323 48.8C21.2523 49.3333 21.9123 49.6 22.7123 49.6ZM44.4778 41.08C45.8245 41.08 46.8911 41.48 47.6778 42.28C48.4778 43.0667 48.8778 44.2533 48.8778 45.84V52H45.7578V46.32C45.7578 45.4667 45.5778 44.8333 45.2178 44.42C44.8711 43.9933 44.3711 43.78 43.7178 43.78C42.9845 43.78 42.4045 44.02 41.9778 44.5C41.5511 44.9667 41.3378 45.6667 41.3378 46.6V52H38.2178V46.32C38.2178 44.6267 37.5378 43.78 36.1778 43.78C35.4578 43.78 34.8845 44.02 34.4578 44.5C34.0311 44.9667 33.8178 45.6667 33.8178 46.6V52H30.6978V41.24H33.6778V42.48C34.0778 42.0267 34.5645 41.68 35.1378 41.44C35.7245 41.2 36.3645 41.08 37.0578 41.08C37.8178 41.08 38.5045 41.2333 39.1178 41.54C39.7311 41.8333 40.2245 42.2667 40.5978 42.84C41.0378 42.28 41.5911 41.8467 42.2578 41.54C42.9378 41.2333 43.6778 41.08 44.4778 41.08ZM62.3316 46.66C62.3316 46.7 62.3116 46.98 62.2716 47.5H54.1316C54.2782 48.1667 54.6249 48.6933 55.1716 49.08C55.7182 49.4667 56.3982 49.66 57.2116 49.66C57.7716 49.66 58.2649 49.58 58.6916 49.42C59.1316 49.2467 59.5382 48.98 59.9116 48.62L61.5716 50.42C60.5582 51.58 59.0782 52.16 57.1316 52.16C55.9182 52.16 54.8449 51.9267 53.9116 51.46C52.9782 50.98 52.2582 50.32 51.7516 49.48C51.2449 48.64 50.9916 47.6867 50.9916 46.62C50.9916 45.5667 51.2382 44.62 51.7316 43.78C52.2382 42.9267 52.9249 42.2667 53.7916 41.8C54.6716 41.32 55.6516 41.08 56.7316 41.08C57.7849 41.08 58.7382 41.3067 59.5916 41.76C60.4449 42.2133 61.1116 42.8667 61.5916 43.72C62.0849 44.56 62.3316 45.54 62.3316 46.66ZM56.7516 43.44C56.0449 43.44 55.4516 43.64 54.9716 44.04C54.4916 44.44 54.1982 44.9867 54.0916 45.68H59.3916C59.2849 45 58.9916 44.46 58.5116 44.06C58.0316 43.6467 57.4449 43.44 56.7516 43.44Z" fill="black"/>
</svg>
