<svg width="30" height="30" viewBox="0 0 30 30" fill="none" xmlns="http://www.w3.org/2000/svg">
<path d="M30 5.89575L27.2669 27.5871L14.9817 30L2.73023 27.5904L0 5.89575H30Z" fill="#E44D26"/>
<path d="M15 28.1558L24.9271 26.206L27.2626 7.66968H15V28.1558Z" fill="#F16529"/>
<path d="M9.68698 12.9911H15V10.3303H5.58252L5.67236 11.0441L6.59549 18.3765H15V15.7158H10.0302L9.68698 12.9911Z" fill="#EBEBEB"/>
<path d="M10.5334 19.707H6.76331L7.28943 23.8848L14.9827 25.3978L15 25.3945V22.6261L14.9835 22.6292L10.8009 21.8291L10.5334 19.707Z" fill="#EBEBEB"/>
<path d="M2.79111 0H4.6997V1.33592H6.44565V0H8.35435V4.04551H6.44577V2.69084H4.69981V4.04551H2.79122V0H2.79111Z" fill="black"/>
<path d="M10.8641 1.34159H9.18414V0H14.4541V1.34159H12.7731V4.04551H10.8645V1.34159H10.8644H10.8641Z" fill="black"/>
<path d="M15.2905 0H17.2805L18.5047 1.42149L19.7277 0H21.7186V4.04551H19.8178V2.04033L18.5047 3.47873H18.4718L17.1579 2.04033V4.04551H15.2905V0Z" fill="black"/>
<path d="M22.6684 0H24.5776V2.70834H27.2616V4.04551H22.6683V0H22.6684Z" fill="black"/>
<path d="M14.9871 18.3766H19.6118L19.1757 21.8274L14.9869 22.6284V25.3965L22.6863 23.8848L22.7428 23.4353L23.6254 16.4303L23.7171 15.7158H14.9871V18.3766Z" fill="white"/>
<path d="M14.9871 12.9846V12.9911H24.0589L24.1341 12.3931L24.3053 11.0441L24.3951 10.3303H14.9871V12.9847V12.9846Z" fill="white"/>
</svg>
