<svg width="25" height="25" viewBox="0 0 25 25" fill="none" xmlns="http://www.w3.org/2000/svg">
<path d="M8.27498 7.18186C8.16671 7.18186 8.05844 7.13073 7.9811 7.03414C7.68207 6.65914 7.24899 6.44891 6.79529 6.44891C6.34159 6.44891 5.90851 6.66482 5.60948 7.03414C5.46512 7.21595 5.21765 7.22732 5.05267 7.07391C4.88769 6.91482 4.87222 6.64209 5.01658 6.46027C5.46512 5.90345 6.11474 5.57959 6.79529 5.57959C7.47585 5.57959 8.12546 5.89777 8.57401 6.46027C8.71837 6.64209 8.7029 6.91482 8.53792 7.07391C8.46058 7.14209 8.36778 7.18186 8.27498 7.18186Z" fill="#F2A84E"/>
<path d="M19.6999 7.17631C19.5916 7.17631 19.4834 7.12518 19.406 7.02859C19.107 6.65359 18.6739 6.44336 18.2202 6.44336C17.7665 6.44336 17.3334 6.65927 17.0344 7.02859C16.8901 7.2104 16.6426 7.22177 16.4776 7.06268C16.3126 6.90359 16.3023 6.63086 16.4415 6.44904C16.8901 5.89222 17.5397 5.56836 18.2202 5.56836C18.9008 5.56836 19.5504 5.88654 19.9989 6.44904C20.1433 6.63086 20.1278 6.90359 19.9628 7.06268C19.8855 7.14222 19.7927 7.17631 19.6999 7.17631Z" fill="#F2A84E"/>
<path d="M12.5026 0C6.23839 0 1.16003 5.59659 1.16003 12.5C1.16003 12.6875 1.16519 12.875 1.17034 13.0568C0.510414 13.1534 0 13.767 0 14.5227C0 15.3409 0.603216 16.0057 1.34564 16.0057H1.61373C2.9903 21.2045 7.34171 25 12.5026 25C18.7667 25 23.8451 19.4034 23.8451 12.5C23.8451 5.59659 18.7667 0 12.5026 0Z" fill="#FFD46A"/>
<path d="M23.8296 13.0567C23.8348 12.8692 23.84 12.6874 23.84 12.4999C23.84 9.15896 22.649 6.13055 20.7104 3.88623C21.8086 5.84078 22.4376 8.14759 22.4376 10.6135C22.4376 17.7044 17.22 23.4544 10.7857 23.4544C8.54817 23.4544 6.45496 22.7555 4.6814 21.551C6.7179 23.6874 9.47104 24.9999 12.5026 24.9999C17.6634 24.9999 22.0097 21.2044 23.3863 16.0112H23.6544C24.3968 16.0112 25 15.3465 25 14.5283C25.0051 13.7726 24.4896 13.1533 23.8296 13.0567Z" fill="#FCB537"/>
<path d="M12.5953 19.892C10.2185 19.892 8.03248 18.6874 6.75387 16.6761C6.58889 16.4147 6.6456 16.0568 6.88276 15.8749C7.11993 15.6931 7.44474 15.7556 7.60972 16.017C8.69241 17.7272 10.5588 18.7443 12.5953 18.7443C14.6318 18.7443 16.4981 17.7272 17.5808 16.017C17.7458 15.7556 18.0706 15.6931 18.3078 15.8749C18.5449 16.0568 18.6017 16.4147 18.4367 16.6761C17.1581 18.6931 14.972 19.892 12.5953 19.892Z" fill="#2C3C48"/>
<path d="M8.46557 11.017C8.15108 10.2386 7.51177 9.75 6.78997 9.75C6.07333 9.75 5.42887 10.233 5.11437 11.017C5.09375 11.0682 5.08344 11.1193 5.07828 11.1761C4.99064 11.4034 5.03188 11.6705 5.20717 11.8409C5.31029 11.9375 5.43403 11.9886 5.55776 11.9886C5.70212 11.9886 5.85164 11.9205 5.95475 11.7898C6.16613 11.5284 6.47032 11.375 6.79513 11.375C7.11478 11.375 7.42412 11.5284 7.63551 11.7898C7.83142 12.0284 8.16139 12.0511 8.38308 11.8409C8.55838 11.6705 8.59962 11.3977 8.51197 11.1761C8.49651 11.1193 8.4862 11.0682 8.46557 11.017Z" fill="#2C3C48"/>
<path d="M19.9268 11.1703C19.9216 11.1191 19.9113 11.0623 19.8907 11.0112C19.5762 10.2328 18.9369 9.74414 18.2151 9.74414C17.4985 9.74414 16.854 10.2271 16.5395 11.0112C16.5189 11.0623 16.5086 11.1135 16.5034 11.1703C16.4158 11.3976 16.4519 11.6646 16.6323 11.835C16.7354 11.9316 16.8592 11.9828 16.9829 11.9828C17.1273 11.9828 17.2768 11.9146 17.3799 11.7839C17.5913 11.5225 17.8955 11.3691 18.2203 11.3691C18.5399 11.3691 18.8493 11.5225 19.0606 11.7839C19.2566 12.0225 19.5865 12.0453 19.8082 11.835C19.9732 11.6703 20.0144 11.3976 19.9268 11.1703Z" fill="#2C3C48"/>
<path d="M7.85214 16.3691C7.76965 16.4544 7.4036 16.8407 7.10972 17.176C7.00145 17.2953 6.9035 17.4146 6.83647 17.5055C6.32606 18.1873 5.73315 18.9714 5.73315 18.9714C4.99589 20.1362 5.24852 21.7385 6.31059 22.5566C7.36751 23.3691 8.82141 23.085 9.55868 21.9203C9.55868 21.9203 10.4867 20.6987 11.2033 19.7498C11.2291 19.7157 11.2601 19.676 11.2858 19.6419C11.4818 19.3805 11.8066 18.9203 11.9561 18.7044C10.3114 18.5339 8.83172 17.693 7.85214 16.3691Z" fill="#F04C44"/>
<path d="M6.90351 22.2558C6.8571 22.2558 6.8107 22.2388 6.76946 22.2104C6.66119 22.1308 6.63541 21.9661 6.71275 21.8468L8.01714 19.7899C8.08932 19.6706 8.23883 19.6422 8.3471 19.7274C8.45537 19.807 8.48115 19.9718 8.40381 20.0854L7.09942 22.1422C7.05302 22.2161 6.98084 22.2558 6.90351 22.2558Z" fill="#D32B2A"/>
</svg>
