<svg width="30" height="30" viewBox="0 0 30 30" fill="none" xmlns="http://www.w3.org/2000/svg">
<path d="M0 0H30V30H0V0Z" fill="#F7DF1E"/>
<path d="M7.88806 25.0702L10.1838 23.6808C10.6267 24.4661 11.0296 25.1305 11.9961 25.1305C12.9224 25.1305 13.5066 24.7682 13.5066 23.3587V13.7729H16.3258V23.3985C16.3258 26.3185 14.6142 27.6476 12.1169 27.6476C9.86161 27.6476 8.55251 26.4796 7.88794 25.0699" fill="black"/>
<path d="M17.8572 24.7681L20.1526 23.439C20.757 24.4259 21.5424 25.1508 22.9317 25.1508C24.1 25.1508 24.8448 24.5667 24.8448 23.7612C24.8448 22.7946 24.0796 22.4522 22.7908 21.8885L22.0861 21.5862C20.0521 20.7205 18.7029 19.633 18.7029 17.3373C18.7029 15.2228 20.3139 13.6117 22.8312 13.6117C24.6235 13.6117 25.9123 14.2361 26.8385 15.8672L24.6434 17.277C24.16 16.4111 23.6366 16.0688 22.8311 16.0688C22.0054 16.0688 21.4818 16.5924 21.4818 17.277C21.4818 18.1227 22.0054 18.4652 23.2136 18.9888L23.9183 19.2908C26.3148 20.318 27.664 21.3651 27.664 23.721C27.664 26.2586 25.6704 27.6479 22.9921 27.6479C20.3742 27.6479 18.6826 26.3994 17.8571 24.7682" fill="black"/>
</svg>
