<svg width="30" height="30" viewBox="0 0 30 30" fill="none" xmlns="http://www.w3.org/2000/svg">
<path d="M29.9831 6.78681C29.9943 6.82677 30 6.86798 30 6.90941V13.3488C30 13.517 29.9074 13.6724 29.7571 13.7561L24.1934 16.868V23.0355C24.1934 23.118 24.1711 23.1991 24.1287 23.2706C24.0862 23.3421 24.0252 23.4016 23.9517 23.4429L12.3375 29.9375C12.3109 29.9521 12.282 29.9614 12.2529 29.9716C12.242 29.975 12.2318 29.9815 12.2203 29.9844C12.1391 30.0052 12.0538 30.0052 11.9726 29.9844C11.9592 29.981 11.9471 29.9738 11.9345 29.9692C11.9079 29.9597 11.8801 29.9515 11.8548 29.9375L0.24293 23.4428C0.169142 23.4017 0.107829 23.3424 0.0651774 23.2708C0.0225258 23.1993 4.39878e-05 23.1182 0 23.0355L0 3.71738C0 3.67504 0.00609375 3.63394 0.016875 3.5941C0.0205078 3.58056 0.0289453 3.56826 0.0338672 3.55472C0.0428906 3.53013 0.0514453 3.50486 0.0646875 3.48198C0.0737109 3.46672 0.0869531 3.45443 0.0978516 3.44031C0.111797 3.42153 0.124453 3.40218 0.140742 3.38567C0.154687 3.37224 0.172852 3.36222 0.188555 3.3505C0.206133 3.33638 0.221719 3.32113 0.241641 3.30997H0.242227L6.0484 0.0627344C6.12192 0.0216325 6.20527 0 6.2901 0C6.37493 0 6.45827 0.0216325 6.5318 0.0627344L12.338 3.30997H12.3391C12.3585 3.32181 12.3749 3.33638 12.3923 3.34993C12.408 3.36165 12.4256 3.37224 12.4395 3.38522C12.4564 3.40218 12.4685 3.42164 12.4829 3.44031C12.4932 3.45443 12.5072 3.46672 12.5156 3.48198C12.5295 3.50542 12.5373 3.53013 12.547 3.55483C12.5518 3.56826 12.5603 3.58056 12.5639 3.59467C12.575 3.63463 12.5808 3.67595 12.5809 3.71738V15.7831L17.4191 13.077V6.90884C17.4191 6.86786 17.4252 6.82609 17.4361 6.78681C17.4403 6.7727 17.4482 6.7604 17.453 6.74697C17.4627 6.72227 17.4711 6.69688 17.4844 6.67412C17.4934 6.65886 17.5066 6.64657 17.5171 6.63245C17.5315 6.61367 17.5436 6.59432 17.5604 6.57781C17.5745 6.56438 17.592 6.55436 17.6077 6.54264C17.6258 6.52852 17.6415 6.51327 17.6609 6.50211H17.6614L23.4682 3.25488C23.5417 3.21372 23.6251 3.19205 23.7099 3.19205C23.7947 3.19205 23.8781 3.21372 23.9516 3.25488L29.7578 6.50211C29.7783 6.51384 29.794 6.52852 29.8121 6.54196C29.8271 6.55379 29.8447 6.56438 29.8587 6.57724C29.8755 6.59432 29.8876 6.61367 29.902 6.63245C29.913 6.64657 29.9263 6.65886 29.9348 6.67412C29.9487 6.69688 29.9565 6.72227 29.9661 6.74697C29.9716 6.7604 29.9795 6.7727 29.9831 6.78681ZM29.0321 13.0771V7.7223L27.0002 8.85848L24.1932 10.4285V15.7833L29.0327 13.0771H29.0321ZM23.226 22.7638V17.4053L20.4648 18.9371L12.5803 23.3084V28.7171L23.226 22.7636V22.7638ZM0.967852 4.53016V22.7638L11.6123 28.7167V23.309L6.05156 20.2518L6.0498 20.2507L6.04746 20.2495C6.02871 20.239 6.01289 20.2237 5.99543 20.2108C5.9802 20.199 5.96273 20.1897 5.94949 20.1767L5.94832 20.175C5.93262 20.1603 5.92172 20.1421 5.90848 20.1257C5.89629 20.1098 5.88188 20.0963 5.87215 20.0799L5.87156 20.0781C5.86066 20.0606 5.85398 20.0394 5.84613 20.0195C5.83828 20.0018 5.82809 19.9853 5.82316 19.9667V19.9661C5.81719 19.9438 5.81602 19.9202 5.81355 19.8973C5.81121 19.8798 5.80629 19.8622 5.80629 19.8445V7.23646L2.99977 5.66577L0.967852 4.53084V4.53016ZM6.29074 1.01234L1.45301 3.71738L6.28957 6.42232L11.1266 3.7167L6.28957 1.01234H6.29074ZM8.80652 17.8937L11.6129 16.3244V4.53016L9.58125 5.66646L6.77402 7.23634V19.0305L8.80652 17.8937ZM23.7098 4.20448L18.8728 6.90941L23.7098 9.61446L28.5463 6.90884L23.71 4.20448H23.7098ZM23.2259 10.4285L20.4189 8.85848L18.3871 7.7223V13.0771L21.1935 14.6465L23.226 15.7833V10.4285H23.2259ZM12.0957 22.4956L19.1906 18.561L22.7372 16.5949L17.9037 13.8917L12.3386 17.0039L7.26645 19.8404L12.0957 22.4956Z" fill="#FF2D20"/>
</svg>
