<svg width="45" height="45" viewBox="0 0 45 45" fill="none" xmlns="http://www.w3.org/2000/svg">
<path d="M44.9747 10.1802C44.9914 10.2402 45 10.302 45 10.3641V20.0232C45 20.2756 44.8611 20.5086 44.6356 20.6341L36.29 25.302V34.5533C36.2901 34.6771 36.2566 34.7987 36.193 34.906C36.1294 35.0132 36.0378 35.1023 35.9276 35.1644L18.5063 44.9063C18.4663 44.9281 18.4229 44.9421 18.3793 44.9573C18.363 44.9625 18.3477 44.9722 18.3305 44.9766C18.2087 45.0078 18.0807 45.0078 17.9589 44.9766C17.9388 44.9715 17.9207 44.9608 17.9017 44.9537C17.8618 44.9396 17.8202 44.9273 17.7822 44.9063L0.364395 35.1642C0.253712 35.1025 0.161744 35.0135 0.0977661 34.9063C0.0337887 34.799 6.59818e-05 34.6772 0 34.5533L0 5.57608C0 5.51256 0.00914062 5.45092 0.0253125 5.39115C0.0307617 5.37083 0.043418 5.35239 0.0508008 5.33207C0.0643359 5.29519 0.077168 5.25728 0.0970313 5.22296C0.110566 5.20008 0.13043 5.18164 0.146777 5.16047C0.167695 5.13229 0.18668 5.10327 0.211113 5.07851C0.232031 5.05836 0.259277 5.04333 0.282832 5.02575C0.309199 5.00457 0.332578 4.98169 0.362461 4.96496H0.36334L9.0726 0.0941016C9.18288 0.0324487 9.3079 0 9.43515 0C9.56239 0 9.68741 0.0324487 9.7977 0.0941016L18.507 4.96496H18.5087C18.5377 4.98272 18.5623 5.00457 18.5885 5.02489C18.6121 5.04248 18.6384 5.05836 18.6592 5.07782C18.6847 5.10327 18.7028 5.13246 18.7244 5.16047C18.7399 5.18164 18.7608 5.20008 18.7734 5.22296C18.7942 5.25814 18.806 5.29519 18.8205 5.33224C18.8278 5.35239 18.8404 5.37083 18.8459 5.39201C18.8626 5.45194 18.8712 5.51392 18.8713 5.57608V23.6747L26.1287 19.6154V10.3633C26.1287 10.3018 26.1378 10.2391 26.1541 10.1802C26.1605 10.159 26.1722 10.1406 26.1795 10.1205C26.194 10.0834 26.2067 10.0453 26.2266 10.0112C26.2401 9.98829 26.26 9.96985 26.2756 9.94868C26.2972 9.92051 26.3153 9.89148 26.3406 9.86672C26.3617 9.84657 26.3879 9.83154 26.4115 9.81396C26.4387 9.79278 26.4623 9.7699 26.4913 9.75317H26.4922L35.2023 4.88231C35.3126 4.82058 35.4376 4.78808 35.5649 4.78808C35.6921 4.78808 35.8171 4.82058 35.9274 4.88231L44.6367 9.75317C44.6674 9.77076 44.691 9.79278 44.7182 9.81293C44.7407 9.83069 44.7671 9.84657 44.788 9.86587C44.8133 9.89148 44.8314 9.92051 44.853 9.94868C44.8696 9.96985 44.8894 9.98829 44.9023 10.0112C44.923 10.0453 44.9348 10.0834 44.9492 10.1205C44.9575 10.1406 44.9692 10.159 44.9747 10.1802ZM43.5482 19.6156V11.5835L40.5004 13.2877L36.2899 15.6427V23.6749L43.5491 19.6156H43.5482ZM34.839 34.1457V26.1079L30.6972 28.4057L18.8705 34.9626V43.0757L34.839 34.1454V34.1457ZM1.45178 6.79524V34.1457L17.4185 43.075V34.9634L9.07734 30.3777L9.07471 30.376L9.07119 30.3743C9.04307 30.3584 9.01934 30.3356 8.99314 30.3163C8.97029 30.2985 8.9441 30.2845 8.92424 30.265L8.92248 30.2625C8.89893 30.2404 8.88258 30.2131 8.86271 30.1885C8.84443 30.1646 8.82281 30.1445 8.80822 30.1199L8.80734 30.1172C8.791 30.0909 8.78098 30.0591 8.7692 30.0292C8.75742 30.0028 8.74213 29.978 8.73475 29.95V29.9491C8.72578 29.9157 8.72402 29.8803 8.72033 29.846C8.71682 29.8197 8.70943 29.7932 8.70943 29.7668V10.8547L4.49965 8.49866L1.45178 6.79627V6.79524ZM9.43611 1.51851L2.17951 5.57608L9.43436 9.63347L16.6899 5.57505L9.43436 1.51851H9.43611ZM13.2098 26.8406L17.4194 24.4866V6.79524L14.3719 8.49968L10.161 10.8545V28.5457L13.2098 26.8406ZM35.5648 6.30672L28.3092 10.3641L35.5648 14.4217L42.8194 10.3633L35.5649 6.30672H35.5648ZM34.8388 15.6427L30.6283 13.2877L27.5806 11.5835V19.6156L31.7902 21.9698L34.839 23.6749V15.6427H34.8388ZM18.1436 33.7434L28.7859 27.8416L34.1058 24.8923L26.8555 20.8375L18.5078 25.5058L10.8997 29.7606L18.1436 33.7434Z" fill="#FF2D20"/>
</svg>
