<svg width="45" height="45" viewBox="0 0 45 45" fill="none" xmlns="http://www.w3.org/2000/svg">
<path d="M44.6231 32.2116C43.9285 32.2116 43.4372 32.0797 43.149 31.8161C42.8608 31.5524 42.569 31.0397 42.2735 30.2781L36.7981 14.7216L40.3005 4.65821C40.5961 3.86718 40.9988 3.14932 41.5086 2.505C42.0185 1.86067 42.8572 1.53816 44.0247 1.53816V0H37.973V1.53816C38.4607 1.53816 38.8412 1.77982 39.1146 2.26316C39.388 2.74649 39.5247 3.28122 39.5247 3.86717C39.5247 4.07225 39.5173 4.27001 39.5026 4.46045C39.4878 4.65089 39.4286 4.84865 39.3252 5.05372L36.3991 13.5791L33.074 3.86717L32.9742 3.62551L32.8745 3.12022C32.8745 2.71007 33.0149 2.34383 33.2957 2.02166C33.5764 1.6995 33.9607 1.53833 34.4483 1.53833V0.000174141H27.3991V1.53833H27.7981C28.4779 1.53833 28.9878 1.65559 29.3277 1.88994C29.6675 2.12429 29.9336 2.53444 30.1257 3.1204L34.8252 17.0509L30.7242 29.0921C30.5321 29.678 30.1811 30.3445 29.6712 31.0916C29.1614 31.8387 28.271 32.2123 27.0001 32.2123V33.7503H28.4426C28.1509 36.841 27.7442 39.1715 27.2216 40.7377C26.6157 42.5541 25.2414 43.4622 23.0984 43.4622H19.7733C19.1821 43.4622 18.8386 43.3303 18.7425 43.0667C18.6465 42.8031 18.5985 42.2903 18.5985 41.5287V28.3012H20.7487C21.9162 28.3012 22.6624 28.7406 22.9876 29.6196C23.3128 30.4987 23.4753 32.0074 23.4753 34.146H24.0739V20.9624H23.4753C23.4753 23.1009 23.3386 24.6025 23.0652 25.4667C22.7918 26.3309 22.0197 26.763 20.7487 26.763H18.5985V14.7219C18.5985 13.9602 18.6465 13.4474 18.7425 13.1839C18.8385 12.9205 19.1821 12.7884 19.7733 12.7884H22.8989C24.8497 12.7884 26.1021 13.5354 26.6562 15.0296C27.2104 16.5239 27.591 19.0141 27.7979 22.5003H28.3742L27.5984 11.2504H16.2347L15.8497 0.395867H0.399022L0 11.6458H0.576384C0.783278 7.57353 1.12324 4.93681 1.59609 3.73563C2.06894 2.53444 3.23647 1.93385 5.09852 1.93385H6.45079C6.74637 1.93385 6.91995 2.10965 6.97172 2.46109C7.02349 2.81252 7.04933 3.28139 7.04933 3.86735V29.8831C7.04933 30.6448 6.94219 31.2233 6.72791 31.6188C6.51364 32.0143 5.77096 32.2121 4.50007 32.2121H3.32524V33.7501H12.7242V32.2121H11.9262C10.6553 32.2121 9.91631 32.0143 9.7095 31.6188C9.5027 31.2233 9.39916 30.6447 9.39916 29.8831V3.86735C9.39916 3.28139 9.41393 2.86392 9.44346 2.61494C9.47299 2.36595 9.58382 2.13892 9.77604 1.93367H11.1505C13.0125 1.93367 14.18 2.53427 14.6529 3.73545C15.1101 4.89691 15.4357 7.40452 15.6305 11.2501H13.6997V12.7881H14.2761C15.2663 12.7881 15.8426 12.9346 16.0052 13.2275C16.1678 13.5204 16.249 14.1504 16.249 15.1171V41.1328C16.249 42.0997 16.1677 42.7295 16.0052 43.0226C15.8427 43.3157 15.2663 43.462 14.2761 43.462H13.6997V45H28.175L29.0331 33.7501H33.2735V32.2121C32.6824 32.2121 32.2723 31.919 32.0432 31.3331C31.8142 30.7471 31.6997 30.2638 31.6997 29.8829C31.6997 29.6778 31.707 29.4801 31.7218 29.2896C31.7366 29.0992 31.7957 28.9014 31.8991 28.6964L35.4237 18.2373L39.3252 30.2783C39.3252 30.4541 39.3584 30.5567 39.4249 30.5858L39.5247 30.6297C39.5247 31.0398 39.388 31.4061 39.1146 31.7283C38.8412 32.0504 38.4607 32.2116 37.973 32.2116V33.7496H45V32.2116H44.6231Z" fill="black"/>
</svg>
