<svg width="301" height="201" viewBox="0 0 301 201" fill="none" xmlns="http://www.w3.org/2000/svg">
<path d="M21.0695 113.514V24.7963H31.3502" stroke="#263238" stroke-linecap="round" stroke-linejoin="round"/>
<path d="M21.0766 128.019V124.784" stroke="#263238" stroke-linecap="round" stroke-linejoin="round"/>
<path d="M57.7794 24.7963H163.815V139.375H21.0695" stroke="#263238" stroke-linecap="round" stroke-linejoin="round"/>
<path d="M44.7761 24.7963H54.0938" stroke="#263238" stroke-linecap="round" stroke-linejoin="round"/>
<path d="M158.446 28.7325H26.4385V135.443H158.446V28.7325Z" stroke="#263238" stroke-linecap="round" stroke-linejoin="round"/>
<path d="M152.308 36.2185V77.722H32.5764V73.9383" stroke="#263238" stroke-linecap="round" stroke-linejoin="round"/>
<path d="M32.5764 65.0588V32.8518H152.308" stroke="#263238" stroke-linecap="round" stroke-linejoin="round"/>
<path d="M32.5833 71.0242V67.3423" stroke="#263238" stroke-linecap="round" stroke-linejoin="round"/>
<path d="M132.093 82.0854H158.446" stroke="#263238" stroke-linecap="round" stroke-linejoin="round"/>
<path d="M122.72 82.0854H126.447" stroke="#263238" stroke-linecap="round" stroke-linejoin="round"/>
<path d="M26.4385 82.0854H118.265" stroke="#263238" stroke-linecap="round" stroke-linejoin="round"/>
<path d="M85.8088 77.722V75.7284H96.8446V76.8625H92.4455V77.722" stroke="#263238" stroke-linecap="round" stroke-linejoin="round"/>
<path d="M26.6671 117.852C26.6671 117.852 28.496 118.869 29.7845 125.023C29.7845 125.023 32.0014 115.193 34.6894 115.04C37.3773 114.887 36.8092 121.438 36.8092 121.438C36.8092 121.438 37.2526 118.208 39.3586 118.356C41.4646 118.503 39.3586 125.023 39.3586 125.023C39.3586 125.023 41.8872 119.937 44.2773 120.029C46.6673 120.12 42.6908 129.239 42.6908 129.239C42.6908 129.239 48.8288 125.974 51.3158 127.571C53.8029 129.168 49.9303 133.196 49.9303 133.196C49.9303 133.196 58.7354 131.792 60.1001 135.581" stroke="#263238" stroke-linecap="round" stroke-linejoin="round"/>
<path d="M60.1209 131.909C60.1209 131.909 63.9588 130.063 66.9724 130.922C66.9724 130.922 65.0534 128.776 66.9724 127.464C68.8914 126.152 71.3576 130.922 71.3576 130.922C71.3576 130.922 71.6347 122.933 75.4727 123.335C79.3106 123.736 75.4727 130.922 75.4727 130.922C75.4727 130.922 82.3242 126.467 83.966 128.018C85.6079 129.57 82.8715 131.909 82.8715 131.909C82.8715 131.909 86.9796 130.943 89.9931 133.196C89.9931 133.196 94.5862 129.753 99.6919 129.259C99.6919 129.259 96.2973 122.028 97.9461 120.568C99.5949 119.108 102.574 126.879 102.574 126.879C102.574 126.879 103.883 121.824 108.171 121.438C108.171 121.438 104.597 120.009 105.657 117.852C106.717 115.696 111.649 118.361 111.649 118.361C111.649 118.361 109.619 114.562 112.827 113.519C116.034 112.477 117.371 116.698 117.371 116.698C117.371 116.698 118.265 112.273 122.034 112.518C125.802 112.762 124.583 117.857 124.583 117.857C124.583 117.857 128.137 113.789 130.042 114.221C133.845 115.045 132.688 121.443 132.688 121.443C132.688 121.443 138.002 118.732 139.367 119.978C140.842 121.326 133.825 124.789 133.825 124.789C133.825 124.789 139.097 125.216 142.373 127.469" stroke="#263238" stroke-linecap="round" stroke-linejoin="round"/>
<path d="M158.446 119.312C158.446 119.312 157.843 115.243 152.308 115.04C146.773 114.836 153.832 123.94 153.832 123.94C153.832 123.94 149.266 121.168 147.632 122.022C145.997 122.877 152.308 127.571 152.308 127.571C152.308 127.571 149.28 125.537 146.073 126.152C142.865 126.767 147.895 133.323 147.895 133.323C143.154 132.62 138.231 133.042 133.839 134.528" stroke="#263238" stroke-linecap="round" stroke-linejoin="round"/>
<path d="M213.507 173.88V123.187H291.263" stroke="#263238" stroke-linecap="round" stroke-linejoin="round"/>
<path d="M288.437 128.43H219.763V175.65" stroke="#263238" stroke-linecap="round" stroke-linejoin="round"/>
<path d="M233.507 154.184V133.196H238.003V137.523H244.003V135.581H249.365V137.935H256.604V133.196H264.01V136.379H268V134.528H275.15V146.891" stroke="#263238" stroke-linecap="round" stroke-linejoin="round"/>
<path d="M268 136.379V154.184" stroke="#263238" stroke-linecap="round" stroke-linejoin="round"/>
<path d="M264.585 139.044V142.222" stroke="#263238" stroke-linecap="round" stroke-linejoin="round"/>
<path d="M264.585 144.501V157.556" stroke="#263238" stroke-linecap="round" stroke-linejoin="round"/>
<path d="M256.604 137.94V149.668" stroke="#263238" stroke-linecap="round" stroke-linejoin="round"/>
<path d="M256.881 153.533V157.184" stroke="#263238" stroke-linecap="round" stroke-linejoin="round"/>
<path d="M249.365 137.94V144.501" stroke="#263238" stroke-linecap="round" stroke-linejoin="round"/>
<path d="M249.365 148.534V162.356" stroke="#263238" stroke-linecap="round" stroke-linejoin="round"/>
<path d="M244.003 137.524V153.818" stroke="#263238" stroke-linecap="round" stroke-linejoin="round"/>
<path d="M238.003 137.524V143.687" stroke="#263238" stroke-linecap="round" stroke-linejoin="round"/>
<path d="M238.003 146.891V161.543" stroke="#263238" stroke-linecap="round" stroke-linejoin="round"/>
<path d="M233.507 157.184V163.801" stroke="#263238" stroke-linecap="round" stroke-linejoin="round"/>
<path d="M224.231 163.801H278.807" stroke="#263238" stroke-linecap="round" stroke-linejoin="round"/>
<path d="M268 163.801V159.564" stroke="#263238" stroke-linecap="round" stroke-linejoin="round"/>
<path d="M256.881 160.683V163.603" stroke="#263238" stroke-linecap="round" stroke-linejoin="round"/>
<path d="M275.759 139.965H281.052" stroke="#263238" stroke-linecap="round" stroke-linejoin="round"/>
<path d="M224.439 167.493H275.15" stroke="#263238" stroke-linecap="round" stroke-linejoin="round"/>
<path d="M235.322 178.259V173.326H244.716V176.504H252.274V182.704H256.604V173.514H266.199V175.65H272.094" stroke="#263238" stroke-linecap="round" stroke-linejoin="round"/>
<path d="M266.199 175.65V180.939" stroke="#263238" stroke-linecap="round" stroke-linejoin="round"/>
<path d="M256.881 184.941V188.501" stroke="#263238" stroke-linecap="round" stroke-linejoin="round"/>
<path d="M252.274 182.704V187.393" stroke="#263238" stroke-linecap="round" stroke-linejoin="round"/>
<path d="M244.716 176.504V179.195" stroke="#263238" stroke-linecap="round" stroke-linejoin="round"/>
<path d="M288.672 14.9811H122.657V99.1832H288.672V14.9811Z" fill="#92E3A9" stroke="#263238" stroke-linecap="round" stroke-linejoin="round"/>
<path d="M288.672 14.9811H122.657V23.3063H288.672V14.9811Z" fill="#263238"/>
<path d="M189.911 72.7126L186.018 68.7356C186.017 67.9051 185.959 67.0751 185.845 66.2488C185.699 65.8775 183.337 63.1466 183.281 62.5007C183.273 62.1923 183.219 61.8854 183.122 61.5853C183.122 61.5853 181.91 61.8091 181.924 62.3532C181.937 62.8974 182.069 64.7333 182.069 64.7333C182.069 64.7333 178.91 63.3805 178.557 63.0245C178.203 62.6685 174.352 60.5936 173.991 60.2834C173.631 59.9732 172.162 59.9528 171.989 60.2834L172.197 60.6648L170.985 61.0869L171.795 62.8516C171.563 63.2489 171.423 63.6716 171.38 64.1027C171.511 64.3213 171.941 65.6283 171.941 65.6283C171.941 65.6283 171.678 65.8267 171.712 66.5183C171.747 67.21 176.922 70.7444 177.947 71.1259C179.172 71.5036 180.425 71.8279 181.702 72.0972L184.951 75.1842L189.911 72.7126Z" fill="white" stroke="#263238" stroke-linecap="round" stroke-linejoin="round"/>
<path d="M182.062 64.7334C181.458 65.7439 181.303 66.8685 181.619 67.9475" stroke="#263238" stroke-linecap="round" stroke-linejoin="round"/>
<path d="M172.19 60.6649C173.236 60.9599 174.546 62.394 175.148 62.8365C175.694 63.1974 176.277 63.5256 176.894 63.818" stroke="#263238" stroke-linecap="round" stroke-linejoin="round"/>
<path d="M171.788 62.8364C172.647 62.7042 173.229 62.9483 173.209 63.5637C173.188 64.179 175.044 65.1148 175.044 65.1148" stroke="#263238" stroke-linecap="round" stroke-linejoin="round"/>
<path d="M171.934 65.6132C171.934 65.6132 172.537 64.825 173.015 65.186C173.493 65.5471 173.645 66.4727 174.525 66.6659" stroke="#263238" stroke-linecap="round" stroke-linejoin="round"/>
<path d="M240.539 68.3899C240.539 68.3899 226.87 69.0104 223.857 69.9156C221.384 70.6632 203.988 79.0697 203.988 79.0697C203.988 79.0697 193.756 73.4043 190.784 71.4413C190.211 71.2379 189.595 71.1072 188.962 71.0548L187.403 70.3276L183.572 74.2892L184.646 75.3826C184.646 75.3826 184.819 77.1473 185.297 77.5898C191.657 83.4535 203.836 91.6616 205.665 92.4702C207.494 93.2788 223.718 86.2302 223.718 86.2302L226.732 99.1984H275.122C275.122 99.1984 274.997 76.4404 272.96 74.6961C270.924 72.9517 247.577 66.1116 247.577 66.1116L240.539 68.3899Z" fill="#757575" stroke="#263238" stroke-linecap="round" stroke-linejoin="round"/>
<path d="M256.881 60.1563C256.881 60.1563 252.545 62.2923 254.845 69.1171C254.845 69.1171 248.312 72.5448 241.848 69.0866C241.848 69.0866 243.338 63.6451 241.848 62.5517" fill="white"/>
<path d="M256.881 60.1563C256.881 60.1563 252.545 62.2923 254.845 69.1171C254.845 69.1171 248.312 72.5448 241.848 69.0866C241.848 69.0866 243.338 63.6451 241.848 62.5517" stroke="#263238" stroke-linecap="round" stroke-linejoin="round"/>
<path d="M272.094 75.7539C272.094 75.7539 266.199 80.7327 265.513 89.2562" stroke="#263238" stroke-linecap="round" stroke-linejoin="round"/>
<path d="M246.15 46.4811C246.15 46.4811 242.285 46.054 240.934 49.5325C240.147 51.6629 240.465 53.9318 241.827 55.8997L248.935 51.0022L246.15 46.4811Z" fill="#263238"/>
<path d="M255.558 62.2313C260.539 57.8678 264.058 50.5954 256.576 47.6916C242.139 42.0872 237.366 53.0365 239.791 63.2077C240.539 66.3455 246.344 64.947 250.591 63.8129" fill="white"/>
<path d="M255.558 62.2313C260.539 57.8678 264.058 50.5954 256.576 47.6916C242.139 42.0872 237.366 53.0365 239.791 63.2077C240.539 66.3455 246.344 64.947 250.591 63.8129" stroke="#263238" stroke-linecap="round" stroke-linejoin="round"/>
<path d="M245.471 52.7467C245.471 52.7467 247.854 53.2196 248.457 54.1554" stroke="#263238" stroke-linecap="round" stroke-linejoin="round"/>
<path d="M242.021 52.2832C241.74 52.1821 241.428 52.1356 241.115 52.148C240.802 52.1604 240.499 52.2313 240.234 52.354" stroke="#263238" stroke-linecap="round" stroke-linejoin="round"/>
<path d="M245.43 55.1573C245.388 55.4675 245.575 55.737 245.845 55.7574C246.116 55.7777 246.372 55.5387 246.413 55.2488C246.455 54.9589 246.268 54.664 245.998 54.6436C245.728 54.6233 245.471 54.8419 245.43 55.1573Z" fill="#263238"/>
<path d="M240.262 54.2164C240.227 54.5317 240.414 54.8012 240.684 54.8216C240.954 54.8419 241.211 54.6029 241.252 54.313C241.294 54.0231 241.107 53.7333 240.83 53.7129C240.553 53.6926 240.303 53.9062 240.262 54.2164Z" fill="#263238"/>
<path d="M253.334 57.1966C253.334 57.1966 251.097 59.5766 249.593 60.3395C248.622 60.7961 247.452 60.9668 246.316 60.8175C246.316 60.8175 244.397 59.0782 241.599 59.0528C240.874 58.7142 240.05 58.5068 239.195 58.4476L239.354 55.7929C239.354 55.7929 237.227 61.4837 237.428 63.523C237.629 65.5624 244.46 66.9761 247.875 66.4066C251.291 65.837 253.029 61.9363 254.069 58.2696C254.145 57.9645 253.334 57.1966 253.334 57.1966Z" fill="#263238"/>
<path d="M239.61 60.365C239.61 60.365 242.312 61.316 244.716 61.0922" stroke="white" stroke-linecap="round" stroke-linejoin="round"/>
<path d="M255.572 49.9445C256.459 49.436 254.186 47.2492 252.912 47.2949C251.637 47.3407 245.381 47.5136 245.381 47.5136C245.381 47.5136 244.065 42.4585 254.595 45.1895C256.32 45.637 256.874 46.822 258.419 47.4272C259.964 48.0323 262.056 51.2159 261.46 53.9316C260.865 56.6473 258.89 61.4125 255.309 62.8416C255.309 62.8416 254.076 62.75 254.824 62.1245C258.35 59.2105 254.657 53.7282 254.069 58.2595L252.829 57.7153C252.819 57.2177 252.888 56.721 253.036 56.2354C253.3 54.9894 251.422 52.4415 255.572 49.9445Z" fill="#263238"/>
<path d="M255.031 56.8659C255.031 56.8659 257.297 54.8927 258.669 55.564C260.04 56.2353 259.119 58.6153 258.384 59.2104C257.65 59.8054 257.054 59.9376 256.036 60.8886C255.018 61.8396 253.736 61.5192 253.958 60.7564" fill="white"/>
<path d="M255.031 56.8659C255.031 56.8659 257.297 54.8927 258.669 55.564C260.04 56.2353 259.119 58.6153 258.384 59.2104C257.65 59.8054 257.054 59.9376 256.036 60.8886C255.018 61.8396 253.736 61.5192 253.958 60.7564" stroke="#263238" stroke-linecap="round" stroke-linejoin="round"/>
<path d="M248.104 55.4115C248.18 56.5151 247.266 57.4457 246.025 57.4915C244.785 57.5373 243.774 56.6829 243.698 55.5793C243.622 54.4757 244.536 53.5451 245.776 53.4993C247.016 53.4535 248.014 54.3079 248.104 55.4115Z" stroke="#263238" stroke-width="0.5" stroke-miterlimit="10"/>
<path d="M241.716 54.4097C241.8 55.5133 240.878 56.4439 239.673 56.4948C238.467 56.5456 237.421 55.6811 237.338 54.5775C237.255 53.4739 238.183 52.5433 239.416 52.4975C240.65 52.4517 241.64 53.3061 241.716 54.4097Z" stroke="#263238" stroke-width="0.5" stroke-miterlimit="10"/>
<path d="M242.375 53.4636C242.375 53.9722 238.786 56.9778 238.745 57.6389C238.703 58.3 242.084 58.3407 242.084 58.3407" fill="white"/>
<path d="M242.375 53.4636C242.375 53.9722 238.786 56.9778 238.745 57.6389C238.703 58.3 242.084 58.3407 242.084 58.3407" stroke="#263238" stroke-linecap="round" stroke-linejoin="round"/>
<path d="M241.716 54.4095C241.716 54.4095 242.79 54.2112 243.691 55.2741" stroke="#263238" stroke-width="0.5" stroke-miterlimit="10"/>
<path d="M248.118 55.798L249.282 55.9252L255.814 56.2608" stroke="#263238" stroke-width="0.5" stroke-miterlimit="10"/>
<path d="M268 78.4644L266.698 77.2795C266.698 77.2795 255.724 78.2 250.875 83.0008C250.875 83.0008 241.869 79.8782 233.763 81.3988L233.528 83.5297L251.256 91.3157L258.184 89.2001L268 78.4644Z" fill="white" stroke="#263238" stroke-linecap="round" stroke-linejoin="round"/>
<path d="M269.781 77.7474L267.91 86.9015C267.91 86.9015 257.588 90.2274 255.44 92.9025L254.928 92.9533L252.503 93.2025L251.194 92.9177C247.99 92.2331 244.726 91.7097 241.426 91.3514C240.28 91.2215 239.118 91.1891 237.962 91.2547L230.979 83.2653C230.979 83.2653 241.779 82.1668 249.247 84.0434L252.822 83.8603L252.953 83.7789C254.027 83.133 261.55 78.7442 269.781 77.7474Z" fill="#92E3A9"/>
<path opacity="0.3" d="M254.789 90.8174L252.953 83.7738C254.02 83.133 261.544 78.7442 269.774 77.7474L267.903 86.9015C267.903 86.9015 257.581 90.2274 255.433 92.9025L254.921 92.9533L254.789 90.8174Z" fill="black" fill-opacity="0.7"/>
<path opacity="0.3" d="M251.235 91.3157L251.187 92.9126C247.983 92.2279 244.719 91.7046 241.419 91.3462C241.565 89.7308 242.426 88.1947 243.87 86.9711C245.314 85.7476 247.263 84.9035 249.42 84.5671L251.235 91.3157Z" fill="black" fill-opacity="0.7"/>
<path d="M269.781 77.7474L267.91 86.9015C267.91 86.9015 257.588 90.2274 255.44 92.9025L254.928 92.9533L252.503 93.2025L251.194 92.9177C247.99 92.2331 244.726 91.7097 241.426 91.3514C240.28 91.2215 239.118 91.1891 237.962 91.2547L230.979 83.2653C230.979 83.2653 241.779 82.1668 249.247 84.0434L252.822 83.8603L252.953 83.7789C254.027 83.133 261.55 78.7442 269.781 77.7474Z" stroke="#263238" stroke-linecap="round" stroke-linejoin="round"/>
<path d="M254.748 95.135C251.048 94.9621 244.01 90.8021 244.01 90.8021C243.586 90.0258 242.992 89.306 242.25 88.6713C241.245 87.9339 242.582 87.3185 242.582 87.3185C242.582 87.3185 241.412 86.7642 240.747 86.459C240.082 86.1539 241.245 85.3504 241.245 85.3504C241.245 85.3504 246.268 85.8589 246.788 85.7216C247.307 85.5843 252.129 87.8728 252.877 87.9339C253.893 87.9475 254.895 87.7557 255.773 87.3795C256.272 87.0744 257.816 85.1673 258.821 84.796C259.826 84.4248 261.592 84.4299 260.747 85.2283C259.902 86.0268 260.054 87.8067 259.638 88.0559C259.223 88.3051 258.537 90.9801 258.537 91.9006L264.01 95.5724L260.892 98.6899L254.748 95.135Z" fill="white" stroke="#263238" stroke-linecap="round" stroke-linejoin="round"/>
<path d="M242.562 87.3185C243.545 87.3992 244.505 87.5967 245.402 87.9033" stroke="#263238" stroke-linecap="round" stroke-linejoin="round"/>
<path d="M246.289 88.773C246.289 88.773 245.977 89.7037 245.894 89.8461C245.811 89.9885 246.926 90.8988 246.767 91.3158C246.607 91.7328 247.896 92.8415 247.896 92.8415" stroke="#263238" stroke-linecap="round" stroke-linejoin="round"/>
<path d="M245.028 89.846C244.065 89.5062 243.139 89.1134 242.257 88.6713" stroke="#263238" stroke-linecap="round" stroke-linejoin="round"/>
<path d="M242.347 66.6861L244.744 70.2308L254.595 66.2234L256.763 69.7731L246.711 74.4569L244.779 70.7902L240.871 73.5517L239.548 69.0865L242.347 66.6861Z" fill="#757575" stroke="#263238" stroke-linecap="round" stroke-linejoin="round"/>
<path d="M272.988 74.6809C275.378 76.5575 283.878 90.3191 284.696 99.1832H258.8V98.3899L255.974 97.1744C255.974 97.1744 257.726 92.6483 262.721 93.3552L264.176 94.8808L267.397 96.6608C267.397 96.6608 273.05 96.7676 274.692 97.9627" fill="#757575"/>
<path d="M272.988 74.6809C275.378 76.5575 283.878 90.3191 284.696 99.1832H258.8V98.3899L255.974 97.1744C255.974 97.1744 257.726 92.6483 262.721 93.3552L264.176 94.8808L267.397 96.6608C267.397 96.6608 273.05 96.7676 274.692 97.9627" stroke="#263238" stroke-linecap="round" stroke-linejoin="round"/>
<path d="M267.397 96.681C267.397 96.681 270.536 93.3601 275.15 94.7637" stroke="#263238" stroke-linecap="round" stroke-linejoin="round"/>
<path d="M266.199 91.3159C267.206 92.6885 268.104 94.103 268.887 95.5522" stroke="#263238" stroke-linecap="round" stroke-linejoin="round"/>
<path d="M223.718 86.215C223.718 86.215 221.799 78.0068 222.333 75.1691L223.718 86.215Z" fill="#757575"/>
<path d="M223.718 86.215C223.718 86.215 221.799 78.0068 222.333 75.1691" stroke="#263238" stroke-linecap="round" stroke-linejoin="round"/>
<path d="M219.88 78.3678C219.88 78.3678 220.947 82.4007 223.344 84.562L219.88 78.3678Z" fill="#757575"/>
<path d="M219.88 78.3678C219.88 78.3678 220.947 82.4007 223.344 84.562" stroke="#263238" stroke-linecap="round" stroke-linejoin="round"/>
<path d="M203.988 79.0747C203.988 79.0747 207.002 80.9055 205.083 85.4724L203.988 79.0747Z" fill="#757575"/>
<path d="M203.988 79.0747C203.988 79.0747 207.002 80.9055 205.083 85.4724" stroke="#263238" stroke-linecap="round" stroke-linejoin="round"/>
<path d="M244.287 73.6942C244.287 73.789 244.248 73.8816 244.176 73.9603C244.105 74.0391 244.002 74.1003 243.883 74.1364C243.764 74.1724 243.632 74.1815 243.506 74.1627C243.379 74.1438 243.263 74.0978 243.173 74.0304C243.082 73.9631 243.02 73.8774 242.996 73.7843C242.972 73.6913 242.985 73.595 243.036 73.5077C243.086 73.4205 243.171 73.3462 243.279 73.2943C243.387 73.2424 243.513 73.2152 243.642 73.2162C243.728 73.2162 243.812 73.2286 243.891 73.2527C243.969 73.2768 244.04 73.312 244.1 73.3565C244.16 73.401 244.208 73.4537 244.24 73.5117C244.272 73.5696 244.288 73.6317 244.287 73.6942Z" fill="#263238"/>
<path d="M242.582 80.692C242.942 80.692 243.234 80.4779 243.234 80.2139C243.234 79.9499 242.942 79.7359 242.582 79.7359C242.223 79.7359 241.931 79.9499 241.931 80.2139C241.931 80.4779 242.223 80.692 242.582 80.692Z" fill="#263238"/>
<path d="M241.599 95.374C241.958 95.374 242.25 95.16 242.25 94.896C242.25 94.632 241.958 94.4179 241.599 94.4179C241.239 94.4179 240.948 94.632 240.948 94.896C240.948 95.16 241.239 95.374 241.599 95.374Z" fill="#263238"/>
<path d="M157.309 51.755H165.47L169.558 46.5626L165.47 41.3753H157.309L153.229 46.5626L157.309 51.755Z" stroke="#263238" stroke-linecap="round" stroke-linejoin="round"/>
<path d="M156.125 63.1365L152.044 57.9492H143.884" stroke="#263238" stroke-linecap="round" stroke-linejoin="round"/>
<path d="M144.978 46.5626H153.139L157.219 41.3753L153.139 36.1829H144.978L140.898 41.3753L144.978 46.5626Z" stroke="#263238" stroke-linecap="round" stroke-linejoin="round"/>
<path d="M157.309 41.3753H165.47L169.558 36.1829L165.47 30.9956H157.309L153.229 36.1829L157.309 41.3753Z" stroke="#263238" stroke-linecap="round" stroke-linejoin="round"/>
<path d="M156.125 41.3753C156.123 41.215 156.187 41.0579 156.308 40.9242C156.428 40.7904 156.6 40.686 156.802 40.6242C157.003 40.5623 157.225 40.5459 157.44 40.5769C157.654 40.608 157.851 40.6851 158.005 40.7985C158.16 40.9119 158.265 41.0564 158.307 41.2137C158.349 41.3711 158.327 41.5341 158.243 41.682C158.158 41.83 158.016 41.9562 157.834 42.0447C157.652 42.1331 157.438 42.1798 157.219 42.1788C156.929 42.1788 156.651 42.0942 156.445 41.9435C156.24 41.7928 156.125 41.5884 156.125 41.3753Z" fill="#263238"/>
<path d="M140.177 31.2855C140.782 31.2855 141.272 30.9258 141.272 30.482C141.272 30.0382 140.782 29.6785 140.177 29.6785C139.573 29.6785 139.083 30.0382 139.083 30.482C139.083 30.9258 139.573 31.2855 140.177 31.2855Z" fill="#263238"/>
<path d="M155.03 63.1365C155.03 62.9776 155.094 62.8223 155.215 62.6901C155.335 62.558 155.506 62.455 155.706 62.3942C155.906 62.3334 156.126 62.3174 156.338 62.3484C156.551 62.3795 156.746 62.456 156.899 62.5684C157.052 62.6807 157.156 62.8239 157.198 62.9798C157.241 63.1356 157.219 63.2972 157.136 63.444C157.053 63.5909 156.913 63.7163 156.733 63.8046C156.553 63.8929 156.341 63.9401 156.125 63.9401C155.835 63.9401 155.556 63.8554 155.351 63.7047C155.146 63.554 155.03 63.3496 155.03 63.1365Z" fill="#263238"/>
<path d="M143.884 58.7527C144.488 58.7527 144.978 58.393 144.978 57.9492C144.978 57.5054 144.488 57.1457 143.884 57.1457C143.279 57.1457 142.789 57.5054 142.789 57.9492C142.789 58.393 143.279 58.7527 143.884 58.7527Z" fill="#263238"/>
<path d="M177.441 36.3202C177.441 36.16 177.506 36.0035 177.627 35.8704C177.749 35.7373 177.921 35.6337 178.123 35.5726C178.325 35.5116 178.546 35.4959 178.76 35.5275C178.974 35.5591 179.17 35.6366 179.324 35.7502C179.478 35.8638 179.582 36.0084 179.624 36.1656C179.666 36.3228 179.643 36.4855 179.559 36.6332C179.474 36.7808 179.332 36.9067 179.15 36.995C178.968 37.0832 178.754 37.1298 178.536 37.1288C178.392 37.1288 178.249 37.1078 178.115 37.0671C177.982 37.0264 177.861 36.9668 177.76 36.8916C177.658 36.8165 177.577 36.7273 177.523 36.6292C177.468 36.5312 177.44 36.4261 177.441 36.3202Z" fill="#263238"/>
<path d="M151.961 58.7527C152.566 58.7527 153.056 58.393 153.056 57.9492C153.056 57.5054 152.566 57.1457 151.961 57.1457C151.357 57.1457 150.867 57.5054 150.867 57.9492C150.867 58.393 151.357 58.7527 151.961 58.7527Z" fill="#263238"/>
<path d="M168.435 36.3202C168.435 36.1603 168.5 36.0039 168.621 35.871C168.742 35.738 168.914 35.6343 169.115 35.5731C169.317 35.5119 169.538 35.4959 169.752 35.5271C169.965 35.5583 170.162 35.6353 170.316 35.7484C170.47 35.8615 170.575 36.0056 170.617 36.1624C170.66 36.3193 170.638 36.4819 170.555 36.6296C170.471 36.7774 170.33 36.9037 170.149 36.9925C169.968 37.0814 169.755 37.1288 169.537 37.1288C169.245 37.1288 168.965 37.0436 168.758 36.892C168.551 36.7403 168.435 36.5346 168.435 36.3202Z" fill="#263238"/>
<path d="M156.125 51.7549C156.123 51.5946 156.187 51.4375 156.308 51.3038C156.428 51.17 156.6 51.0656 156.802 51.0038C157.003 50.9419 157.225 50.9255 157.44 50.9565C157.654 50.9876 157.851 51.0647 158.005 51.1781C158.16 51.2915 158.265 51.436 158.307 51.5934C158.349 51.7507 158.327 51.9137 158.243 52.0616C158.158 52.2096 158.016 52.3358 157.834 52.4243C157.652 52.5128 157.438 52.5595 157.219 52.5585C156.93 52.5571 156.652 52.472 156.447 52.3216C156.243 52.1712 156.127 51.9676 156.125 51.7549Z" fill="#263238"/>
<path d="M169.558 36.3202H178.543" stroke="#263238" stroke-linecap="round" stroke-linejoin="round"/>
<path d="M157.219 51.755L151.961 57.9493" stroke="#263238" stroke-linecap="round" stroke-linejoin="round"/>
<path d="M144.978 36.1829L140.177 30.4819" stroke="#263238" stroke-linecap="round" stroke-linejoin="round"/>
<path d="M135.57 76.832C136.306 76.3457 137.132 75.9382 138.023 75.6216C138.059 75.7849 138.179 75.9318 138.358 76.0321C138.537 76.1324 138.762 76.1784 138.986 76.1607C139.478 76.1047 140.032 75.7487 140.371 76.0081C140.51 76.1098 140.538 76.2726 140.683 76.3692C141.126 76.6692 141.882 76.0234 142.38 76.2675C142.512 76.3336 142.581 76.4455 142.72 76.5116C142.829 76.5463 142.947 76.5642 143.066 76.5642C143.185 76.5642 143.303 76.5463 143.413 76.5116C144.65 76.3046 145.921 76.2241 147.188 76.2726L153 76.3031L152.557 76.1353" stroke="#263238" stroke-linecap="round" stroke-linejoin="round"/>
<path d="M135.259 80.3919C135.307 80.2248 135.434 80.0754 135.616 79.9695C135.799 79.8637 136.026 79.808 136.259 79.8123C136.492 79.8165 136.715 79.8803 136.89 79.9927C137.066 80.105 137.182 80.2588 137.219 80.4275C137.363 80.3782 137.492 80.3076 137.597 80.2201C137.701 80.1326 137.781 80.03 137.829 79.919C138.203 80.5343 139.36 80.5852 140.281 80.5394L144.389 80.3258C145.622 80.2597 147.063 80.097 147.618 79.3087C148.227 80.1245 148.469 81.0607 148.31 81.9837C148.691 81.3193 149.187 80.6937 149.786 80.1224C149.911 80.4479 150.035 80.7733 150.153 81.0988C153.014 79.6291 156.928 80.5903 160.392 80.2699" stroke="#263238" stroke-linecap="round" stroke-linejoin="round"/>
<path d="M135.626 85.1062C135.613 85.0127 135.647 84.9189 135.723 84.8428C135.798 84.7668 135.909 84.7139 136.035 84.6943C136.073 84.7866 136.137 84.872 136.223 84.9453C136.308 85.0187 136.413 85.0784 136.532 85.1208C136.65 85.1632 136.778 85.1874 136.91 85.1919C137.041 85.1964 137.172 85.1811 137.295 85.1469C137.79 84.9946 138.213 84.7402 138.515 84.4146C138.618 84.4761 138.738 84.5208 138.867 84.5456C138.995 84.5704 139.13 84.5747 139.261 84.5584C139.392 84.542 139.517 84.5053 139.627 84.4507C139.737 84.3961 139.83 84.3248 139.9 84.2417C140.209 84.6091 140.465 84.9995 140.662 85.4063C141.036 84.7045 142.304 84.5926 143.336 84.5977H151.65" stroke="#263238" stroke-linecap="round" stroke-linejoin="round"/>
<path d="M199.887 29.7547C197.903 29.7193 195.957 30.1604 194.345 31.0108C192.35 31.9466 190.452 33.5231 190.95 35.2217C191.449 36.9203 194.179 37.8204 196.583 38.1612C198.65 38.4567 200.753 38.5931 202.859 38.568C203.67 38.577 204.48 38.5138 205.27 38.3798C206.069 38.2137 206.844 37.9906 207.584 37.7136L212.946 35.8625C213.68 35.6082 214.505 35.2827 214.705 34.703C214.955 33.9859 214.117 33.3197 213.32 32.8874C210.31 31.3073 206.598 30.6206 202.928 30.9651" stroke="#263238" stroke-linecap="round" stroke-linejoin="round"/>
<path d="M193.521 33.5587C193.836 33.2987 194.244 33.1085 194.698 33.0094C194.608 33.204 194.608 33.415 194.698 33.6095C194.823 33.7926 195.204 33.8841 195.391 33.7316C195.578 33.579 195.62 33.3349 195.827 33.4112L196.077 33.818C196.416 33.7316 196.68 33.5281 197.012 33.4213C197.391 33.3281 197.794 33.3003 198.19 33.34C201.164 33.4521 204.146 33.3857 207.106 33.1416" stroke="#263238" stroke-linecap="round" stroke-linejoin="round"/>
<path d="M198.37 35.7456C198.413 35.6416 198.489 35.5466 198.591 35.468C198.693 35.3894 198.819 35.3294 198.959 35.2929C198.799 35.4201 198.993 35.6388 199.229 35.6693C199.468 35.6724 199.705 35.6359 199.922 35.5625C200.184 35.5127 200.454 35.4853 200.725 35.4811L205.776 35.2268" stroke="#263238" stroke-linecap="round" stroke-linejoin="round"/>
<path d="M200.524 40.9125C199.063 44.7352 196.034 48.1347 191.848 50.6489C187.662 53.163 182.523 54.6697 177.13 54.964" stroke="#263238" stroke-linecap="round" stroke-linejoin="round"/>
<path d="M177.213 53.8603C176.233 54.3047 175.36 54.8649 174.629 55.5182C175.061 55.4517 175.51 55.4745 175.926 55.584C176.342 55.6936 176.708 55.8855 176.984 56.1387" stroke="#263238" stroke-linecap="round" stroke-linejoin="round"/>
<path d="M198.862 55.0707L199.492 56.0878L200.393 55.3046C200.561 55.3969 200.679 55.5304 200.725 55.681C200.795 55.8234 200.899 55.981 201.093 56.0217C201.286 56.0624 201.529 55.8691 201.383 55.7623C201.511 55.8257 201.656 55.868 201.807 55.8865C201.959 55.9049 202.115 55.899 202.263 55.8691C202.395 55.8691 202.513 55.7979 202.644 55.7725C202.801 55.7473 202.962 55.737 203.122 55.742H212.482" stroke="#263238" stroke-linecap="round" stroke-linejoin="round"/>
<path d="M199.298 60.6649C199.342 60.5834 199.414 60.5117 199.507 60.4567C199.6 60.4017 199.711 60.3653 199.829 60.3509C199.947 60.3366 200.067 60.3449 200.18 60.3749C200.292 60.405 200.391 60.4558 200.469 60.5225C200.5 60.5876 200.547 60.6479 200.608 60.7005C200.691 60.7437 200.793 60.7625 200.895 60.7531C200.996 60.7437 201.089 60.7068 201.155 60.6496C201.307 60.5479 201.404 60.4106 201.564 60.3191C202 60.0699 202.624 60.2631 203.157 60.3699C203.84 60.4748 204.541 60.5023 205.235 60.4513L210.549 60.2479" stroke="#263238" stroke-linecap="round" stroke-linejoin="round"/>
<path d="M199.465 64.9876C199.641 64.991 199.815 64.9508 199.956 64.8733C200.098 64.7959 200.201 64.6857 200.247 64.5604C200.335 64.5713 200.417 64.6014 200.481 64.6467C200.545 64.6921 200.589 64.7506 200.608 64.8147C200.862 64.6992 201.079 64.5448 201.245 64.3621C204.667 64.3926 208.094 64.3926 211.526 64.3621" stroke="#263238" stroke-linecap="round" stroke-linejoin="round"/>
<path d="M199.458 68.217C199.67 68.2813 199.907 68.2858 200.123 68.2294C200.339 68.1731 200.519 68.0599 200.628 67.9119C200.846 68.041 200.997 68.2202 201.058 68.4204C201.194 68.3525 201.349 68.3062 201.511 68.2843C201.673 68.2624 201.84 68.2655 202 68.2933C202.132 68.2933 202.263 68.3594 202.395 68.3848C202.727 68.4473 203.071 68.4696 203.413 68.4509L215.357 68.3238" stroke="#263238" stroke-linecap="round" stroke-linejoin="round"/>
<path d="M167.389 88.778L172.814 88.3915C172.867 88.3966 172.92 88.3919 172.97 88.3778C173.02 88.3637 173.064 88.3406 173.098 88.3108C173.133 88.2809 173.156 88.2452 173.167 88.2069C173.178 88.1686 173.176 88.1289 173.16 88.0914V85.5486C173.173 85.4642 173.144 85.3791 173.077 85.3096C173.032 85.2798 172.98 85.2567 172.922 85.2419C172.865 85.2271 172.805 85.2207 172.744 85.2232C171.567 85.1469 168.913 84.7146 167.895 85.2994C166.877 85.8843 167.396 87.9083 167.389 88.778Z" stroke="#263238" stroke-linecap="round" stroke-linejoin="round"/>
<path d="M168.941 86.5098C169.01 86.7488 169.073 86.9879 169.142 87.232C169.964 87.106 170.807 87.0734 171.643 87.1354" stroke="#263238" stroke-linecap="round" stroke-linejoin="round"/>
<path d="M171.705 89.8765C171.655 89.9338 171.627 90.0004 171.625 90.0687C171.623 90.137 171.647 90.2044 171.695 90.2631C171.742 90.3218 171.811 90.3696 171.894 90.4011C171.977 90.4325 172.07 90.4464 172.162 90.441C172.53 90.3902 172.821 90.0291 173.16 90.141" stroke="#263238" stroke-linecap="round" stroke-linejoin="round"/>
<path d="M167.971 84.0128C168.04 83.937 168.137 83.8776 168.251 83.8417C168.364 83.8058 168.49 83.795 168.612 83.8107C168.734 83.8263 168.847 83.8677 168.937 83.9298C169.028 83.9919 169.092 84.072 169.121 84.1603L170.424 84.0484" stroke="#263238" stroke-linecap="round" stroke-linejoin="round"/>
<path d="M178.778 92.4447C180.626 92.4447 182.473 92.4447 184.321 92.4447C185.757 92.4585 187.192 92.3956 188.616 92.2565C188.775 92.2502 188.927 92.2035 189.045 92.1243C189.143 92.0205 189.185 91.8936 189.163 91.7683V85.5842C189.163 85.513 180.677 85.3147 179.686 85.8182C177.691 86.8455 178.778 90.8631 178.778 92.4447Z" stroke="#263238" stroke-linecap="round" stroke-linejoin="round"/>
<path d="M181.785 87.4152L183.108 87.4406C182.87 88.1013 182.494 88.7309 181.993 89.307C181.813 89.485 181.598 89.7088 181.73 89.9071C182.422 89.9885 183.233 90.0342 183.669 89.6426C184.237 89.1341 183.739 88.3356 184.168 87.7661L184.334 88.9714L184.909 89.3731C185.059 89.4958 185.247 89.5901 185.457 89.6477C185.562 89.6746 185.676 89.6741 185.781 89.6464C185.886 89.6186 185.974 89.5652 186.032 89.4952" stroke="#263238" stroke-linecap="round" stroke-linejoin="round"/>
<path d="M185.637 93.4821C186.073 93.3652 186.253 93.9653 186.704 94.0517C187.154 94.1382 187.396 93.7008 187.778 93.5076C187.958 93.4196 188.176 93.3825 188.391 93.403C188.606 93.4236 188.804 93.5004 188.948 93.6195" stroke="#263238" stroke-linecap="round" stroke-linejoin="round"/>
<path d="M182.062 83.6975C182.478 83.7738 182.312 84.2824 182.623 84.501C182.935 84.7197 183.455 84.501 183.808 84.2925C184.161 84.084 184.805 83.9925 184.937 84.2925" stroke="#263238" stroke-linecap="round" stroke-linejoin="round"/>
<path d="M288.672 99.0662H122.657V107.671H288.672V99.0662Z" fill="#BFBFBF" stroke="#263238" stroke-linecap="round" stroke-linejoin="round"/>
<path d="M257.955 102.453H149.481V104.284H257.955V102.453Z" fill="#263238"/>
<path d="M210.999 103.384C210.999 103.648 210.892 103.907 210.692 104.127C210.492 104.347 210.207 104.518 209.874 104.62C209.541 104.721 209.175 104.747 208.822 104.696C208.468 104.644 208.144 104.517 207.889 104.33C207.634 104.143 207.46 103.904 207.39 103.645C207.32 103.385 207.356 103.116 207.494 102.872C207.632 102.628 207.865 102.419 208.165 102.272C208.465 102.125 208.817 102.046 209.177 102.046C209.66 102.046 210.124 102.187 210.465 102.438C210.807 102.689 210.999 103.029 210.999 103.384Z" fill="#92E3A9" stroke="#263238" stroke-linecap="round" stroke-linejoin="round"/>
<path d="M283.297 101.721H278.807V105.016H283.297V101.721Z" stroke="#263238" stroke-linecap="round" stroke-linejoin="round"/>
<path d="M275.766 101.721H271.277V105.016H275.766V101.721Z" stroke="#263238" stroke-linecap="round" stroke-linejoin="round"/>
<path d="M135.619 101.685H127.798V105.052H135.619V101.685Z" stroke="#263238" stroke-linecap="round" stroke-linejoin="round"/>
<path d="M127.707 19.141H157.219" stroke="white" stroke-linecap="round" stroke-linejoin="round"/>
<path d="M284.467 19.0647C284.469 19.3176 284.368 19.5651 284.177 19.7758C283.987 19.9865 283.715 20.1509 283.397 20.2481C283.079 20.3454 282.729 20.3711 282.391 20.322C282.053 20.2729 281.743 20.1512 281.499 19.9724C281.255 19.7936 281.09 19.5656 281.023 19.3176C280.956 19.0695 280.991 18.8124 281.123 18.5789C281.256 18.3455 281.48 18.1462 281.767 18.0063C282.054 17.8664 282.391 17.7923 282.735 17.7933C283.195 17.7933 283.635 17.9273 283.96 18.1657C284.285 18.4041 284.467 18.7275 284.467 19.0647V19.0647Z" stroke="white" stroke-linecap="round" stroke-linejoin="round"/>
<path d="M277.616 19.1411C277.616 19.3925 277.514 19.6383 277.324 19.8474C277.134 20.0565 276.863 20.2194 276.547 20.3157C276.23 20.4119 275.882 20.4371 275.546 20.388C275.21 20.339 274.901 20.2179 274.659 20.0401C274.417 19.8623 274.252 19.6357 274.185 19.3891C274.118 19.1425 274.153 18.8868 274.284 18.6545C274.415 18.4222 274.637 18.2236 274.922 18.0839C275.206 17.9442 275.541 17.8697 275.884 17.8697C276.343 17.8697 276.784 18.0036 277.108 18.242C277.433 18.4805 277.616 18.8039 277.616 19.1411V19.1411Z" stroke="white" stroke-linecap="round" stroke-linejoin="round"/>
<path d="M270.764 19.2224C270.763 19.4737 270.66 19.719 270.469 19.9274C270.278 20.1358 270.007 20.298 269.69 20.3934C269.374 20.4889 269.026 20.5133 268.69 20.4637C268.355 20.4141 268.047 20.2926 267.805 20.1146C267.564 19.9366 267.4 19.71 267.333 19.4635C267.267 19.217 267.302 18.9617 267.433 18.7296C267.564 18.4976 267.786 18.2994 268.071 18.1599C268.356 18.0204 268.69 17.946 269.032 17.946C269.26 17.946 269.486 17.979 269.697 18.0432C269.907 18.1074 270.099 18.2015 270.26 18.3201C270.42 18.4387 270.548 18.5795 270.634 18.7343C270.721 18.8892 270.765 19.055 270.764 19.2224V19.2224Z" stroke="white" stroke-linecap="round" stroke-linejoin="round"/>
<path d="M139.18 187.398H122.775L113.894 185.333L111.123 184.687L110.312 190.825L13.172 190.958C13.172 190.958 14.6545 188.211 17.0723 184.184C22.2888 175.492 31.849 160.815 40.2107 154.819C46.9999 149.953 63.9589 149.815 63.9589 149.815C65.6902 148.973 67.7216 148.523 69.7989 148.524C72.9164 148.635 96.4844 150.512 97.9461 151.066C98.9638 151.499 99.8371 152.094 100.502 152.806C100.502 152.806 108.76 150.125 116.873 152.541C124.985 154.957 139.18 187.398 139.18 187.398Z" fill="#BFBFBF"/>
<path opacity="0.2" d="M113.894 185.333L111.123 184.687L110.312 190.826L13.172 190.958C13.172 190.958 14.6545 188.212 17.0723 184.184C20.8201 184.118 25.046 183.975 25.046 183.975L27.2213 178.752C27.2213 178.752 30.6367 176.103 34.9041 177.664C34.7618 177.269 34.7915 176.851 34.989 176.469C35.1865 176.087 35.542 175.76 36.0056 175.533C37.6544 174.73 44.4159 177.308 44.4159 177.308C44.4159 177.308 47.6719 172.731 48.7803 169.736C49.8887 166.74 50.6231 173.972 50.6231 173.972C50.6231 173.972 53.3941 170.646 53.3941 169.736C53.3941 168.825 58.5068 178.752 58.5068 178.752C58.5068 178.752 65.2682 179.347 67.0971 179.856C68.926 180.364 87.132 180.873 92.9928 179.856C98.8537 178.839 88.8362 184.942 88.8362 184.942C88.8362 184.942 99.1308 187.484 104.95 185.816C110.769 184.148 113.374 182.363 113.374 182.363C113.374 182.363 113.589 183.599 113.894 185.333Z" fill="black" fill-opacity="0.7"/>
<path d="M139.18 187.398H122.775L113.894 185.333L111.123 184.687L110.312 190.825L13.172 190.958C13.172 190.958 14.6545 188.211 17.0723 184.184C22.2888 175.492 31.849 160.815 40.2107 154.819C46.9999 149.953 63.9589 149.815 63.9589 149.815C65.6902 148.973 67.7216 148.523 69.7989 148.524C72.9164 148.635 96.4844 150.512 97.9461 151.066C98.9638 151.499 99.8371 152.094 100.502 152.806C100.502 152.806 108.76 150.125 116.873 152.541C124.985 154.957 139.18 187.398 139.18 187.398Z" stroke="#263238" stroke-linecap="round" stroke-linejoin="round"/>
<path d="M108.545 171.714C107.103 173.207 105.457 174.589 103.634 175.838" stroke="#263238" stroke-linecap="round" stroke-linejoin="round"/>
<path d="M98.8329 178.803C91.7751 182.63 83.48 185.04 74.7661 185.796" stroke="#263238" stroke-linecap="round" stroke-linejoin="round"/>
<path d="M129.169 177.069C129.169 177.069 131.691 175.92 133.901 176.296C136.111 176.672 137.94 178.274 137.94 178.274C137.94 178.274 156.284 177.161 160.448 177.257C164.611 177.354 173.929 179.358 173.929 179.358C173.929 179.358 178.446 178.686 178.931 178.824C179.416 178.961 177.954 190.246 177.954 190.246H118.376C115.452 190.246 113.284 187.139 111.088 184.697C114.871 174.984 116.806 164.933 116.838 154.83" fill="#BFBFBF"/>
<path opacity="0.2" d="M145.519 190.235H118.39C115.466 190.235 113.298 187.128 111.102 184.687C113.274 179.207 114.819 173.604 115.723 167.935C115.723 167.935 118.604 171.073 116.852 174.709L118.604 171.073C118.604 171.073 120.288 174.968 118.604 178.269C116.921 181.57 115.723 182.516 115.723 182.516C115.723 182.516 117.801 184.509 120.004 183.975C122.207 183.441 124.604 186.676 124.604 186.676C124.604 186.676 129.897 186.823 130.998 186.676C131.504 186.609 138.355 188.344 145.519 190.235Z" fill="black" fill-opacity="0.7"/>
<path d="M129.169 177.069C129.169 177.069 131.691 175.92 133.901 176.296C136.111 176.672 137.94 178.274 137.94 178.274C137.94 178.274 156.284 177.161 160.448 177.257C164.611 177.354 173.929 179.358 173.929 179.358C173.929 179.358 178.446 178.686 178.931 178.824C179.416 178.961 177.954 190.246 177.954 190.246H118.376C115.452 190.246 113.284 187.139 111.088 184.697C114.871 174.984 116.806 164.933 116.838 154.83" stroke="#263238" stroke-linecap="round" stroke-linejoin="round"/>
<path d="M95.1127 141.928V152.79C93.2368 153.728 91.2943 154.592 89.2934 155.379C85.2546 156.95 80.0727 158.507 76.9898 157.622C71.3992 156.01 67.776 149.815 67.776 149.815C73.81 146.439 74.5374 141.928 75.4519 139.782L95.1127 141.928Z" fill="white" stroke="#263238" stroke-linecap="round" stroke-linejoin="round"/>
<path d="M64.8525 150.644C64.8525 150.644 69.9721 158.827 76.1862 160.307C82.4004 161.787 92.9235 156.009 92.9235 156.009" stroke="#263238" stroke-linecap="round" stroke-linejoin="round"/>
<path d="M36.8993 160.546C36.8993 160.546 46.5981 166.089 48.2261 167.956C49.8541 169.822 48.2261 187.398 48.2261 187.398" stroke="#263238" stroke-linecap="round" stroke-linejoin="round"/>
<path d="M23.6951 178.432C29.4105 175.726 33.4285 178.686 36.8993 179.22C40.3701 179.754 48.0459 176.876 53.8029 179.22C59.5598 181.564 59.5598 180.746 59.5598 180.746C59.5598 180.746 65.5869 184.123 62.4763 190.881L13.1512 190.947C13.1512 190.947 9.86051 185.786 20.6746 178.422" fill="#BFBFBF"/>
<path d="M23.6951 178.432C29.4105 175.726 33.4285 178.686 36.8993 179.22C40.3701 179.754 48.0459 176.876 53.8029 179.22C59.5598 181.564 59.5598 180.746 59.5598 180.746C59.5598 180.746 65.5869 184.123 62.4763 190.881L13.1512 190.947C13.1512 190.947 9.86051 185.786 20.6746 178.422" stroke="#263238" stroke-linecap="round" stroke-linejoin="round"/>
<path d="M72.0296 167.971L85.0468 185.45L85.4555 187.413L83.3772 186.055L69.9513 168.703C70.1488 168.436 70.4559 168.222 70.8291 168.09C71.2022 167.959 71.6223 167.917 72.0296 167.971Z" fill="#92E3A9" stroke="#263238" stroke-linecap="round" stroke-linejoin="round"/>
<path d="M59.6706 181.661C60.6537 181.452 61.6635 181.317 62.6842 181.259C63.7857 181.259 70.5609 177.583 72.8609 177.308C75.1609 177.033 79.2968 179.551 81.4028 179.952C83.5088 180.354 83.3772 182.368 84.6103 183.172C85.8434 183.975 84.063 184.88 82.532 183.975C82.6413 184.289 82.6481 184.618 82.5518 184.934C82.4555 185.251 82.2588 185.546 81.9778 185.796C81.9778 185.796 82.3934 186.894 81.9778 187.398H57.5923C57.5923 187.398 57.2251 183.975 59.6706 181.661Z" fill="white" stroke="#263238" stroke-linecap="round" stroke-linejoin="round"/>
<path d="M82.5805 183.975L80.3844 182.384L74.7661 181.061" stroke="#263238" stroke-linecap="round" stroke-linejoin="round"/>
<path d="M82.0332 185.796L78.6733 184.687L74.0802 184.052" stroke="#263238" stroke-linecap="round" stroke-linejoin="round"/>
<path d="M74.0802 186.675L78.6733 186.828L82.0332 187.398" stroke="#263238" stroke-linecap="round" stroke-linejoin="round"/>
<path d="M72.8817 177.308C70.8034 178.645 72.8817 180.054 71.8911 181.061C70.9004 182.068 69.8128 182.368 70.6579 183.975" stroke="#263238" stroke-linecap="round" stroke-linejoin="round"/>
<path d="M102.539 188.247H213.507C213.507 188.966 213.118 189.656 212.425 190.164C211.733 190.672 210.794 190.958 209.814 190.958H111.441C111.055 190.957 110.672 190.913 110.305 190.826L102.401 188.954C102.288 188.929 102.191 188.875 102.127 188.803C102.064 188.73 102.038 188.642 102.055 188.557C102.072 188.471 102.13 188.393 102.219 188.336C102.308 188.279 102.421 188.248 102.539 188.247Z" fill="#92E3A9"/>
<path opacity="0.2" d="M213.507 188.247C213.506 188.966 213.117 189.655 212.426 190.164L212.315 190.236C211.636 190.7 210.742 190.958 209.814 190.958H111.441C111.055 190.957 110.672 190.913 110.305 190.826L102.401 188.954C102.287 188.929 102.189 188.874 102.125 188.8C102.062 188.726 102.037 188.638 102.056 188.552C102.074 188.465 102.135 188.387 102.227 188.331C102.318 188.275 102.434 188.245 102.553 188.247H213.507Z" fill="black" fill-opacity="0.7"/>
<path opacity="0.2" d="M213.507 188.247C213.506 188.966 213.117 189.655 212.426 190.164L212.315 190.236H148.823C148.104 190.236 147.414 190.026 146.905 189.654C146.396 189.281 146.109 188.775 146.107 188.247H213.507Z" fill="black" fill-opacity="0.7"/>
<path d="M102.539 188.247H213.507C213.507 188.966 213.118 189.656 212.425 190.164C211.733 190.672 210.794 190.958 209.814 190.958H111.441C111.055 190.957 110.672 190.913 110.305 190.826L102.401 188.954C102.288 188.929 102.191 188.875 102.127 188.803C102.064 188.73 102.038 188.642 102.055 188.557C102.072 188.471 102.13 188.393 102.219 188.336C102.308 188.279 102.421 188.248 102.539 188.247V188.247Z" stroke="#263238" stroke-linecap="round" stroke-linejoin="round"/>
<path d="M146.107 188.247C146.109 188.775 146.396 189.281 146.905 189.654C147.414 190.026 148.104 190.236 148.823 190.236H159.36" stroke="#263238" stroke-linecap="round" stroke-linejoin="round"/>
<path d="M233.369 154.809V154.876L220.455 187.856C220.263 188.279 219.899 188.65 219.413 188.918C218.927 189.186 218.341 189.338 217.733 189.356H150.465C150.21 189.371 149.955 189.338 149.721 189.262C149.488 189.185 149.285 189.067 149.13 188.917C148.976 188.768 148.875 188.592 148.837 188.407C148.799 188.221 148.825 188.032 148.913 187.856L161.813 154.876C162.004 154.452 162.367 154.081 162.854 153.813C163.341 153.545 163.927 153.392 164.535 153.375H231.803C232.05 153.359 232.298 153.388 232.526 153.459C232.754 153.531 232.954 153.642 233.109 153.784C233.264 153.926 233.369 154.094 233.414 154.273C233.46 154.452 233.444 154.636 233.369 154.809Z" fill="#92E3A9"/>
<path opacity="0.4" d="M233.369 154.809V154.875L220.455 187.855C220.263 188.279 219.899 188.649 219.413 188.917C218.927 189.185 218.341 189.338 217.733 189.356H150.908V189.29L163.801 156.31C163.993 155.886 164.357 155.516 164.843 155.248C165.33 154.98 165.916 154.827 166.523 154.809H233.369Z" fill="white"/>
<path d="M233.369 154.809V154.876L220.455 187.856C220.263 188.279 219.899 188.65 219.413 188.918C218.927 189.186 218.341 189.338 217.733 189.356H150.465C150.21 189.371 149.955 189.338 149.721 189.262C149.488 189.185 149.285 189.067 149.13 188.917C148.976 188.768 148.875 188.592 148.837 188.407C148.799 188.221 148.825 188.032 148.913 187.856L161.813 154.876C162.004 154.452 162.367 154.081 162.854 153.813C163.341 153.545 163.927 153.392 164.535 153.375H231.803C232.05 153.359 232.298 153.388 232.526 153.459C232.754 153.531 232.954 153.642 233.109 153.784C233.264 153.926 233.369 154.094 233.414 154.273C233.46 154.452 233.444 154.636 233.369 154.809Z" stroke="#263238" stroke-linecap="round" stroke-linejoin="round"/>
<path d="M195.98 171.973C195.407 172.839 194.524 173.574 193.426 174.1C192.327 174.626 191.055 174.922 189.745 174.958C186.918 174.958 185.249 173.351 186.025 171.368C186.489 170.353 187.362 169.466 188.529 168.824C189.695 168.181 191.1 167.815 192.558 167.773H192.682C192.552 167.969 192.445 168.173 192.364 168.383C191.567 170.351 193.195 171.943 195.98 171.973Z" fill="white" stroke="#263238" stroke-linecap="round" stroke-linejoin="round"/>
<path d="M151.255 187.739L163.842 155.547C163.955 155.3 164.166 155.084 164.45 154.928C164.733 154.772 165.075 154.683 165.429 154.672H230.632" stroke="#263238" stroke-linecap="round" stroke-linejoin="round"/>
<path d="M120.004 190.958H27.1728L28.2951 189.239C28.2951 189.239 37.0656 189.839 44.014 188.247C47.083 187.545 51.8077 187.23 56.5462 187.271C59.5321 187.301 66.7992 187.322 71.3092 187.306C72.9164 187.306 74.1772 187.306 74.773 187.276C75.0016 187.276 75.2302 187.276 75.4658 187.276C76.7519 187.264 78.0361 187.353 79.2968 187.54C80.5133 187.439 81.7374 187.395 82.9615 187.408C85.1022 187.408 94.3091 187.383 96.8169 187.408C100.121 187.439 103.939 187.917 107.562 188.283L107.659 188.257V188.293C112.037 188.74 116.138 189.046 118.743 188.257L120.004 190.958Z" fill="white"/>
<path opacity="0.4" d="M120.004 190.958H48.046L49.5077 189.112C49.5077 189.112 53.4357 190.795 57.2736 189.62C61.1116 188.445 64.9772 187.805 71.3091 187.296C72.69 187.188 74.0815 187.174 75.4658 187.255C78.222 187.411 80.9322 187.863 83.5088 188.598C83.5088 188.598 87.2844 187.388 96.8169 187.388C100.121 187.418 103.939 187.896 107.562 188.262L107.659 188.237V188.272C112.037 188.72 116.138 189.025 118.743 188.237L120.004 190.958Z" fill="#92E3A9"/>
<path d="M49.5077 189.112L28.3228 189.239L27.2005 190.958H48.046L49.5077 189.112Z" fill="#92E3A9"/>
<path d="M48.6417 190.2L49.5077 189.111C51.3807 189.71 53.4019 190.018 55.4447 190.017C58.5483 189.95 63.4531 187.128 72.8817 187.265" stroke="#263238" stroke-linecap="round" stroke-linejoin="round"/>
<path d="M79.276 187.529C81.0149 187.997 83.488 188.607 83.488 188.607C83.488 188.607 86.6886 187.254 93.7202 187.397" stroke="#263238" stroke-linecap="round" stroke-linejoin="round"/>
<path d="M49.5077 189.112C49.5077 189.112 38.5481 189.253 34.1629 189.324" stroke="#263238" stroke-linecap="round" stroke-linejoin="round"/>
<path d="M82.0263 190.958C82.086 190.626 82.2859 190.317 82.5979 190.073C82.9099 189.83 83.3181 189.664 83.7651 189.6C85.3169 189.412 86.3214 190.82 86.3214 190.82" stroke="#263238" stroke-linecap="round" stroke-linejoin="round"/>
<path d="M83.488 188.608L83.7651 189.6" stroke="#263238" stroke-linecap="round" stroke-linejoin="round"/>
<path d="M85.0468 189.6C85.0468 189.6 89.9793 187.947 94.7455 188.247" stroke="#263238" stroke-linecap="round" stroke-linejoin="round"/>
<path d="M83.0169 189.798C82.5805 189.549 75.1748 187.871 67.5959 189.112" stroke="#263238" stroke-linecap="round" stroke-linejoin="round"/>
<path d="M82.0263 190.485C82.0263 190.485 75.7914 189.615 70.367 190.22" stroke="#263238" stroke-linecap="round" stroke-linejoin="round"/>
<path d="M85.7395 190.23C89.8781 189.383 94.2095 189.168 98.4657 189.6C102.657 190.057 106.892 190.265 111.13 190.22" stroke="#263238" stroke-linecap="round" stroke-linejoin="round"/>
<path d="M120.004 190.958H27.1728L28.2951 189.239C28.2951 189.239 37.0656 189.839 44.014 188.247C47.083 187.545 51.8077 187.23 56.5462 187.271C59.5321 187.301 66.7992 187.322 71.3091 187.306C72.9164 187.306 74.1772 187.306 74.773 187.276C75.0016 187.276 75.2302 187.276 75.4658 187.276C76.7519 187.264 78.0361 187.353 79.2968 187.54C80.5133 187.439 81.7374 187.395 82.9615 187.408C85.1022 187.408 94.3091 187.383 96.8169 187.408C100.121 187.439 103.939 187.917 107.562 188.283L107.659 188.257V188.293C112.037 188.74 116.138 189.046 118.743 188.257L120.004 190.958Z" stroke="#263238" stroke-linecap="round" stroke-linejoin="round"/>
<path d="M95.1127 150.985V152.79C93.2368 153.728 91.2943 154.592 89.2934 155.379C84.8528 152.383 84.2224 146.693 84.2224 146.693L95.1127 150.985Z" fill="#263238"/>
<path d="M76.1862 140.585C70.9627 134.914 72.0296 124.311 78.7425 118.524C88.6076 110.071 114.351 116.245 114.33 128.186C114.31 129.846 114.115 131.502 113.748 133.14C113.409 134.716 111.545 136.308 110.977 137.879C110.409 139.451 110.638 141.948 110.409 143.473C109.896 146.947 103.35 153.838 101.576 154.585C99.0961 155.603 85.691 152.841 82.7675 146.53" fill="white"/>
<path d="M76.1862 140.585C70.9627 134.914 72.0296 124.311 78.7425 118.524C88.6076 110.071 114.351 116.245 114.33 128.186C114.31 129.846 114.115 131.502 113.748 133.14C113.409 134.716 111.545 136.308 110.977 137.879C110.409 139.451 110.638 141.948 110.409 143.473C109.896 146.947 103.35 153.838 101.576 154.585C99.0961 155.603 85.691 152.841 82.7675 146.53" stroke="#263238" stroke-linecap="round" stroke-linejoin="round"/>
<path d="M94.4546 133.577C94.4546 133.577 98.1055 132.6 101.382 133.577" stroke="#263238" stroke-linecap="round" stroke-linejoin="round"/>
<path d="M108.857 133.577C108.857 133.577 111.517 132.6 113.298 133.577" stroke="#263238" stroke-linecap="round" stroke-linejoin="round"/>
<path d="M97.8699 138.134C97.6759 138.82 97.0386 139.309 96.4844 139.222C95.9302 139.136 95.563 138.5 95.757 137.808C95.9509 137.117 96.5883 136.633 97.1771 136.725C97.766 136.817 98.0639 137.457 97.8699 138.134Z" fill="#263238"/>
<path d="M109.619 138.134C109.425 138.82 108.788 139.309 108.234 139.222C107.68 139.136 107.312 138.5 107.506 137.808C107.7 137.117 108.331 136.633 108.927 136.725C109.522 136.817 109.813 137.457 109.619 138.134Z" fill="#263238"/>
<path d="M107.7 134.62C107.7 134.62 105.961 136.832 105.781 138.688C105.601 140.544 108.552 144.389 107.7 145.594C106.848 146.8 103.225 146.739 102.033 146.001" fill="white"/>
<path d="M107.7 134.62C107.7 134.62 105.961 136.832 105.781 138.688C105.601 140.544 108.552 144.389 107.7 145.594C106.848 146.8 103.225 146.739 102.033 146.001" stroke="#263238" stroke-linecap="round" stroke-linejoin="round"/>
<path d="M102.678 148.432C100.284 148.681 97.8428 148.425 95.6392 147.695" stroke="#263238" stroke-linecap="round" stroke-linejoin="round"/>
<path d="M81.4236 135.357C81.4236 135.357 83.1278 134.146 85.1368 134.619C87.1458 135.092 87.513 139.11 87.513 139.11L88.9748 137.966C88.9748 137.966 88.4275 135.693 90.6166 132.504C92.8058 129.315 91.7112 125.562 91.7112 125.562C91.7112 125.562 95.4868 126.498 96.7961 128.644C96.7961 128.644 98.2232 126.366 96.7961 124.621C96.7961 124.621 102.678 125.694 104.139 128.913C104.139 128.913 105.296 126.498 104.902 125.292C104.902 125.292 108.885 126.228 110.347 129.046C110.347 129.046 111.677 126.9 111.102 125.155C111.102 125.155 112.709 126.172 113.326 129.183C114.526 127.347 114.878 125.275 114.33 123.279C114.33 123.279 116.408 125.023 116.741 126.498C116.741 126.498 118.431 122.206 108.545 116.438C98.6597 110.671 81.7353 111.978 79.1028 116.438C79.1028 116.438 79.9757 113.153 81.7353 111.978C81.7353 111.978 76.8859 113.565 76.9898 116.84C76.9898 116.84 72.7085 116.438 70.5194 118.452C71.8611 118.378 73.2102 118.422 74.5374 118.585C74.5374 118.585 68.6905 121.127 69.0576 127.169C69.4248 133.211 74.5374 141.917 74.5374 141.917L78.5417 141.058C78.5417 141.058 79.179 136.949 81.4236 135.357Z" fill="#263238"/>
<path d="M85.8642 136.832C85.8642 136.832 82.7606 132.809 81.1188 132.54C79.4769 132.27 76.3664 133.882 77.0938 136.028C77.8212 138.175 78.3754 141.795 79.2899 142.197C80.2043 142.599 81.6661 145.015 83.1278 144.343C83.3201 144.271 83.4865 144.166 83.6137 144.037C83.741 143.909 83.8255 143.761 83.8605 143.604C83.8955 143.447 83.8801 143.287 83.8154 143.135C83.7507 142.984 83.6386 142.845 83.488 142.731" fill="white"/>
<path d="M85.8642 136.832C85.8642 136.832 82.7606 132.809 81.1188 132.54C79.4769 132.27 76.3664 133.882 77.0938 136.028C77.8212 138.175 78.3754 141.795 79.2899 142.197C80.2043 142.599 81.6661 145.015 83.1278 144.343C83.3201 144.271 83.4865 144.166 83.6137 144.037C83.741 143.909 83.8255 143.761 83.8605 143.604C83.8955 143.447 83.8801 143.287 83.8154 143.135C83.7507 142.984 83.6386 142.845 83.488 142.731" stroke="#263238" stroke-linecap="round" stroke-linejoin="round"/>
<path d="M120.579 167.935C120.265 168.927 119.862 169.902 119.373 170.854" stroke="#263238" stroke-linecap="round" stroke-linejoin="round"/>
<path d="M118.258 172.797C117.154 174.645 115.535 176.303 113.506 177.664" stroke="#263238" stroke-linecap="round" stroke-linejoin="round"/>
<path d="M137.954 178.274C137.004 178.183 135.072 179.063 133.298 180.197" stroke="#263238" stroke-linecap="round" stroke-linejoin="round"/>
<path d="M131.996 181.097C130.61 182.149 129.536 183.263 129.536 183.975" stroke="#263238" stroke-linecap="round" stroke-linejoin="round"/>
<path d="M31.2671 175.533C31.2671 175.533 35.2089 176.337 35.2436 178.818" stroke="#263238" stroke-linecap="round" stroke-linejoin="round"/>
<path d="M46.0369 161.985C46.6913 162.523 47.2866 163.098 47.8173 163.704" stroke="#263238" stroke-linecap="round" stroke-linejoin="round"/>
<path d="M49.376 165.799C50.1514 167.035 50.569 168.375 50.6023 169.735C50.6023 173.921 48.9604 176.347 48.9604 176.347" stroke="#263238" stroke-linecap="round" stroke-linejoin="round"/>
<path d="M69.9721 157.881C71.0173 158.594 72.136 159.247 73.3182 159.834" stroke="#263238" stroke-linecap="round" stroke-linejoin="round"/>
<path d="M76.7959 161.36C80.3359 162.672 84.9151 163.658 89.6675 162.789" stroke="#263238" stroke-linecap="round" stroke-linejoin="round"/>
<g opacity="0.2">
<path opacity="0.2" d="M84.2224 116.651C85.4599 116.513 86.7116 116.454 87.9633 116.474" stroke="white" stroke-linecap="round" stroke-linejoin="round"/>
<path opacity="0.2" d="M89.7853 116.545C93.1729 116.779 97.3434 117.649 99.9343 120.273" stroke="white" stroke-linecap="round" stroke-linejoin="round"/>
<path opacity="0.2" d="M92.4455 114.613C92.4455 114.613 98.7982 114.664 103.35 116.998" stroke="white" stroke-linecap="round" stroke-linejoin="round"/>
<path opacity="0.2" d="M105.137 118.132C105.952 118.757 106.604 119.486 107.063 120.283" stroke="white" stroke-linecap="round" stroke-linejoin="round"/>
<path opacity="0.2" d="M82.5805 118.641C82.5805 118.641 88.8154 120.253 90.9838 123.136" stroke="white" stroke-linecap="round" stroke-linejoin="round"/>
<path opacity="0.2" d="M79.56 120.273C80.911 121.647 81.883 123.202 82.4211 124.85" stroke="white" stroke-linecap="round" stroke-linejoin="round"/>
<path opacity="0.2" d="M82.8091 127.113C82.8174 127.721 82.7408 128.328 82.5805 128.924" stroke="white" stroke-linecap="round" stroke-linejoin="round"/>
<path opacity="0.2" d="M75.3618 122.15C75.0409 122.748 74.7748 123.361 74.5652 123.986" stroke="white" stroke-linecap="round" stroke-linejoin="round"/>
<path opacity="0.2" d="M74.0733 125.76C73.7095 127.346 73.6814 128.964 73.9901 130.556" stroke="white" stroke-linecap="round" stroke-linejoin="round"/>
</g>
<path d="M157.122 200H244.55V190.958H1V200H50.242" fill="white"/>
<path d="M157.122 200H244.55V190.958H1V200H50.242" stroke="#263238" stroke-linecap="round" stroke-linejoin="round"/>
<path d="M150.846 200H138.432" stroke="#263238" stroke-linecap="round" stroke-linejoin="round"/>
</svg>
