<svg width="30" height="25" viewBox="0 0 30 25" fill="none" xmlns="http://www.w3.org/2000/svg">
<path d="M24.3153 0.00388139C22.1453 -0.0323449 20.4438 0.185013 19.2109 0.655954C17.6327 1.23557 16.2518 2.53972 15.0682 4.56839C15.0189 4.45971 14.9202 4.33292 14.7723 4.18801C14.2298 3.46349 13.8106 2.93821 13.5147 2.61217C13.2188 2.28614 12.8119 1.92387 12.2941 1.52538C11.7762 1.1269 11.1968 0.818972 10.5556 0.601615C9.0761 0.0582208 7.276 -0.104797 5.15534 0.11256C2.29492 0.619728 0.642774 2.03255 0.198915 4.35103C-0.34358 5.83631 0.223574 7.50272 1.90037 9.35026C3.084 10.6906 3.77445 11.4695 3.97172 11.6868C4.31694 12.0491 5.19233 12.9004 6.59788 14.2408C8.00344 15.5812 8.9528 16.5231 9.44598 17.0664C11.8625 19.8559 13.3667 21.794 13.9585 22.8808C14.0079 22.9532 14.1928 23.3064 14.5134 23.9404C14.8339 24.5743 15.0189 24.9275 15.0682 25C16.0546 21.8121 18.9643 18.117 23.7974 13.9148C29.4196 9.16913 31.2197 5.45593 29.1977 2.77519C28.3593 1.39859 26.7318 0.474823 24.3153 0.00388139Z" fill="#FF0716"/>
</svg>
