<svg width="30" height="33" viewBox="0 0 30 33" fill="none" xmlns="http://www.w3.org/2000/svg">
<path d="M28.5663 26.0743C25.4276 26.0409 22.3846 25.0515 19.892 23.254C17.3994 21.4564 15.591 18.9472 14.7369 16.1012C13.8828 13.2553 14.029 10.2253 15.1535 7.46403C16.278 4.70278 18.3205 2.35846 20.9759 0.781361C19.6342 0.45272 18.2538 0.284894 16.8675 0.28186C12.3939 0.28186 8.10363 1.95632 4.94037 4.93687C1.7771 7.91743 0 11.9599 0 16.1751C0 20.3902 1.7771 24.4327 4.94037 27.4133C8.10363 30.3938 12.3939 32.0683 16.8675 32.0683C19.4017 32.0661 21.902 31.5189 24.1779 30.4684C26.4537 29.4178 28.445 27.8917 30 26.0062C29.5236 26.0518 29.0451 26.0745 28.5663 26.0743Z" fill="black"/>
</svg>
