<svg width="299" height="140" viewBox="0 0 299 140" fill="none" xmlns="http://www.w3.org/2000/svg">
<path fill-rule="evenodd" clip-rule="evenodd" d="M256.856 44.5018C257.554 44.861 258.18 45.2824 258.717 45.7551L261.086 45.4545L262.663 47.9902L260.708 48.9646C260.834 49.5575 260.845 50.1593 260.74 50.7541L262.72 51.6995L261.233 54.2534L258.853 53.9889C258.333 54.4697 257.722 54.8998 257.035 55.2676L257.466 56.905L253.788 57.9917L252.395 56.6333C251.524 56.7165 250.64 56.7165 249.768 56.6333L248.397 58.0026L244.718 56.9774L245.102 55.3365C244.403 54.9782 243.777 54.5566 243.242 54.0831L240.872 54.3802L239.296 51.8444L241.245 50.87C241.13 50.2689 241.13 49.6599 241.245 49.0588L239.259 48.1568L240.746 45.6211L243.126 45.8819C243.647 45.402 244.259 44.972 244.944 44.6032L244.513 42.9513L248.192 41.8646L249.605 43.2085C250.476 43.1211 251.359 43.1151 252.232 43.1904L253.599 41.8248L257.303 42.8499L256.919 44.4909L256.856 44.5018ZM252.732 47.2367C251.947 47.0194 251.086 46.9675 250.258 47.0875C249.43 47.2075 248.673 47.494 248.081 47.9107C247.489 48.3275 247.09 48.8559 246.934 49.429C246.778 50.0021 246.872 50.5943 247.204 51.1306C247.536 51.6669 248.092 52.1233 248.8 52.4421C249.508 52.7609 250.338 52.9278 251.183 52.9216C252.029 52.9154 252.853 52.7365 253.552 52.4074C254.25 52.0783 254.791 51.6139 255.107 51.0729C255.316 50.7135 255.421 50.3291 255.415 49.9418C255.409 49.5545 255.292 49.1718 255.072 48.8156C254.851 48.4593 254.531 48.1365 254.13 47.8656C253.728 47.5947 253.253 47.381 252.732 47.2367Z" fill="#EBEBEB"/>
<path fill-rule="evenodd" clip-rule="evenodd" d="M36.864 55.5248C38.1237 56.175 39.2528 56.9376 40.2216 57.7925L44.5093 57.2528L47.3415 61.8243L43.7895 63.5993C44.0155 64.6724 44.0314 65.7617 43.8367 66.8377L47.4204 68.5439L44.7353 73.1589L40.4528 72.6554C39.5126 73.5255 38.4061 74.3042 37.1635 74.9701L37.9464 77.926L31.3151 79.9003L28.7614 77.466C27.2048 77.6212 25.6251 77.6334 24.0639 77.5022L21.5837 79.9691L14.8894 78.1108L15.5777 75.144C14.3179 74.4938 13.1889 73.7313 12.2201 72.8763L7.93762 73.4161L5.10542 68.8446L8.63648 67.0841C8.41128 66.0109 8.39361 64.9219 8.58394 63.8456L5.00558 62.1503L7.69591 57.5389L11.9941 58.0171C12.9386 57.1483 14.0445 56.3689 15.2835 55.6987L14.5006 52.7319L21.1318 50.7794L23.6908 53.2137C25.2474 53.0585 26.8271 53.0463 28.3884 53.1775L30.8632 50.707L37.5575 52.5617L36.864 55.5248ZM29.413 60.4731C27.9934 60.0796 26.4365 59.9853 24.9391 60.2019C23.4418 60.4185 22.0712 60.9365 21.0009 61.6901C19.9306 62.4438 19.2085 63.3994 18.926 64.436C18.6435 65.4727 18.8134 66.5437 19.414 67.5138C20.0147 68.4839 21.0192 69.3094 22.3004 69.8858C23.5817 70.4623 25.0821 70.7639 26.612 70.7524C28.1419 70.7409 29.6325 70.4169 30.8952 69.8213C32.158 69.2257 33.1361 68.3853 33.706 67.4065C34.4682 66.0945 34.4443 64.6276 33.6395 63.3277C32.8346 62.0278 31.3146 61.0012 29.413 60.4731Z" fill="#EBEBEB"/>
<path fill-rule="evenodd" clip-rule="evenodd" d="M19.2716 32.3847C19.9677 32.744 20.5915 33.1654 21.1264 33.638L23.4963 33.341L25.0726 35.8767L23.1232 36.8512C23.2412 37.4522 23.2412 38.0614 23.1232 38.6624L25.1041 39.6078L23.6171 42.1436L21.242 41.8791C20.7191 42.3602 20.106 42.7914 19.4187 43.1615L19.8548 44.7952L16.1767 45.8819L14.7632 44.538C13.9016 44.6159 13.029 44.6159 12.1674 44.538L10.796 45.9037L7.1178 44.8785L7.50138 43.2375C6.80406 42.8792 6.18013 42.4576 5.64653 41.9842L3.27147 42.2812L1.6951 39.7455L3.64979 38.7711C3.52275 38.177 3.51391 37.5737 3.62352 36.9779L1.6373 36.0361L3.12434 33.4823L5.50465 33.7467C6.02571 33.2657 6.63708 32.8345 7.32273 32.4644L6.89185 30.8307L10.57 29.7439L11.9835 31.0915C12.8539 31.0029 13.7376 30.9956 14.6108 31.0697L15.9822 29.7041L19.6604 30.7292L19.2821 32.3702L19.2716 32.3847ZM15.1468 35.1196C14.3614 34.9017 13.5 34.849 12.6713 34.9684C11.8426 35.0878 11.0838 35.3739 10.4908 35.7905C9.89784 36.207 9.49726 36.7354 9.33971 37.3089C9.18215 37.8823 9.27468 38.4751 9.60561 39.0123C9.93653 39.5495 10.491 40.007 11.199 40.3271C11.9069 40.6472 12.7366 40.8154 13.5832 40.8105C14.4298 40.8056 15.2552 40.6278 15.9553 40.2997C16.6554 39.9715 17.1987 39.5076 17.5166 38.9667C17.728 38.6068 17.8344 38.2218 17.8297 37.8336C17.825 37.4454 17.7092 37.0616 17.4891 36.7043C17.269 36.347 16.9488 36.0231 16.5469 35.7511C16.1449 35.4792 15.6692 35.2646 15.1468 35.1196Z" fill="#F0F0F0"/>
<path fill-rule="evenodd" clip-rule="evenodd" d="M67.5348 12.2656C69.5707 12.7814 71.497 13.4832 73.2622 14.3521L78.6219 12.4757L84.9694 17.75L81.2912 21.0355C82.201 22.3933 82.8459 23.8282 83.2091 25.3028L88.9156 26.5888L87.996 33.4134L82.0373 33.9496C81.2892 35.3543 80.2712 36.6835 79.0107 37.9017L81.7326 41.5966L74.0767 45.9725L69.3161 43.4368C67.3509 44.066 65.2728 44.5119 63.1367 44.7626L61.2713 48.7002L51.3718 48.0626L50.6204 43.962C48.5844 43.4462 46.6581 42.7445 44.8929 41.8755L39.5332 43.7483L33.1857 38.474L36.8639 35.1885C35.9541 33.8307 35.3092 32.3958 34.946 30.9212L29.2396 29.6352L30.1276 22.8105L36.0863 22.2744C36.8319 20.8692 37.8462 19.5389 39.1024 18.3187L36.3805 14.6274L44.0364 10.2515L48.797 12.7872C50.7665 12.1567 52.8503 11.7119 54.9922 11.465L56.8575 7.52744L66.7571 8.17586L67.5348 12.2837V12.2656ZM60.5042 20.8218C58.4035 20.6869 56.2919 20.9845 54.4365 21.6769C52.5812 22.3694 51.0653 23.4256 50.0808 24.712C49.0962 25.9984 48.687 27.4572 48.9051 28.9039C49.1232 30.3505 49.9588 31.7202 51.306 32.8395C52.6533 33.9588 54.4518 34.7775 56.4741 35.1921C58.4963 35.6068 60.6515 35.5986 62.6671 35.1688C64.6827 34.739 66.4681 33.9067 67.7975 32.7773C69.1269 31.6479 69.9406 30.2721 70.1358 28.8238C70.266 27.8623 70.1202 26.8926 69.7065 25.97C69.2929 25.0474 68.6196 24.1901 67.7251 23.4469C66.8307 22.7038 65.7326 22.0895 64.4935 21.6391C63.2545 21.1886 61.8989 20.9109 60.5042 20.8218Z" fill="#E0E0E0"/>
<path d="M25.9817 125.181C32.5394 122.221 34.2051 116.552 34.1368 111.416C34.1368 110.561 34.2944 109.662 33.7217 108.902C33.1489 108.141 31.7775 107.608 30.6373 107.949C29.6967 108.231 29.2658 108.963 28.7193 109.564C27.9907 110.369 26.947 111.016 25.7085 111.43C24.8993 111.698 23.9062 111.854 23.1285 111.546C22.0776 111.122 21.9672 110.097 22.004 109.253C22.0776 107.669 22.1476 106.086 22.2142 104.504C22.3219 103.654 22.226 102.797 21.9305 101.968C21.7738 101.558 21.4769 101.179 21.0646 100.864C20.6523 100.549 20.1366 100.307 19.5606 100.157C18.3784 99.9107 16.8966 100.353 16.6128 101.179C16.554 101.53 16.5294 101.883 16.5393 102.236C16.5403 102.414 16.465 102.587 16.3228 102.735C16.1806 102.882 15.9779 102.998 15.7406 103.066C15.4823 103.082 15.2223 103.053 14.985 102.981C14.7478 102.908 14.5412 102.796 14.3849 102.653C13.1886 101.731 12.2194 100.679 11.5159 99.5412C10.8135 98.4046 9.91745 97.3296 8.84661 96.3389C7.71163 95.3826 6.1195 94.6146 4.33295 94.5277C2.5464 94.4408 0.617981 95.1508 0.129307 96.3389C-0.359366 97.5271 0.617981 98.7623 1.70567 99.7477C3.31541 101.217 5.22509 102.517 7.37533 103.609C7.79398 103.776 8.12518 104.029 8.32116 104.334C8.56812 104.906 7.75892 105.453 6.93395 105.627C5.99339 105.822 4.98452 105.739 4.01242 105.801C3.04033 105.862 1.9684 106.138 1.57956 106.757C1.05411 107.619 2.07349 108.547 3.09813 109.159C5.16489 110.391 7.52115 111.371 10.0657 112.057C11.004 112.25 11.8835 112.559 12.6614 112.97C13.3865 113.419 13.8069 114.19 13.3393 114.781C12.8716 115.371 11.7156 115.545 10.754 115.407C9.82682 115.217 8.92499 114.972 8.05843 114.676C6.35595 114.208 4.13853 114.252 3.00355 115.244C2.65307 115.583 2.42294 115.974 2.33168 116.386C2.24041 116.797 2.29056 117.218 2.47809 117.614C2.87056 118.4 3.48887 119.125 4.29617 119.744C6.94585 122.017 10.4212 123.767 14.3691 124.815C18.3153 125.822 21.9988 126.137 25.987 125.217" fill="#FF725E"/>
<path d="M1.96838 95.2196L2.08924 95.3029L2.4518 95.5311C2.77233 95.734 3.23998 96.031 3.83375 96.4258C5.50936 97.5386 7.06203 98.7362 8.47878 100.008C9.3773 100.809 10.3126 101.718 11.29 102.704C12.2673 103.689 13.2919 104.754 14.3166 105.895C15.3972 107.083 16.3814 108.312 17.2644 109.575C17.7268 110.231 18.1314 110.919 18.5412 111.618C18.9511 112.318 19.3715 113.028 19.7918 113.748C21.4028 116.44 22.7905 119.193 23.9482 121.993C24.8798 124.283 25.4938 126.629 25.782 128.999C25.9704 130.597 25.9528 132.203 25.7295 133.799C25.6454 134.36 25.5666 134.798 25.4983 135.095C25.4667 135.237 25.4457 135.349 25.4247 135.432C25.4212 135.471 25.4212 135.51 25.4247 135.548C25.4424 135.512 25.4565 135.474 25.4667 135.436C25.4667 135.353 25.5193 135.24 25.5561 135.099C25.6401 134.806 25.7347 134.375 25.8346 133.806C26.0921 132.207 26.1344 130.596 25.9607 128.992C25.6967 126.612 25.0966 124.256 24.1689 121.957C23.0193 119.147 21.635 116.386 20.023 113.687C19.5957 112.962 19.1788 112.254 18.7724 111.56C18.3573 110.861 17.9475 110.169 17.4851 109.507C16.5933 108.239 15.6005 107.007 14.511 105.815C13.4601 104.674 12.4407 103.616 11.4634 102.631C10.486 101.646 9.53494 100.74 8.62065 99.9396C7.18282 98.6698 5.60152 97.4803 3.89155 96.3824C3.28727 95.9948 2.80386 95.7014 2.47282 95.5094L2.09975 95.2884C2.01567 95.2413 1.97364 95.216 1.96838 95.2196Z" fill="#263238"/>
<path d="M17.4063 109.499C17.4687 109.382 17.5128 109.261 17.5377 109.137C17.6112 108.902 17.7058 108.565 17.8056 108.141C18.0106 107.297 18.2418 106.127 18.4835 104.837C18.7252 103.548 18.9774 102.381 19.2034 101.541C19.3137 101.124 19.4083 100.784 19.4766 100.548C19.524 100.43 19.5522 100.308 19.5607 100.186C19.4811 100.301 19.4228 100.423 19.3873 100.548C19.2927 100.776 19.1718 101.113 19.0405 101.53C18.7777 102.367 18.515 103.533 18.2575 104.826C18.0001 106.12 17.8056 107.253 17.648 108.137C17.5692 108.532 17.5009 108.862 17.4536 109.137C17.4176 109.256 17.4017 109.378 17.4063 109.499Z" fill="#263238"/>
<path d="M1.42722 107.195C1.63589 107.23 1.84875 107.25 2.06302 107.257C2.47287 107.29 3.07189 107.333 3.80228 107.406C5.2683 107.536 7.28605 107.768 9.49296 108.087C11.6999 108.405 13.6966 108.764 15.0996 109.043C15.8142 109.181 16.3869 109.304 16.781 109.387C16.9833 109.439 17.1929 109.477 17.4063 109.499C17.2144 109.433 17.016 109.376 16.8126 109.329C16.4237 109.228 15.8562 109.09 15.1469 108.938C13.7334 108.626 11.7524 108.257 9.54025 107.934C7.65147 107.654 5.74339 107.44 3.82329 107.293C3.0824 107.235 2.48338 107.21 2.07353 107.199C1.85882 107.183 1.64228 107.182 1.42722 107.195Z" fill="#263238"/>
<path d="M23.964 121.75C24.0106 121.711 24.0495 121.667 24.0796 121.62L24.3686 121.229C24.6155 120.888 24.9571 120.392 25.367 119.78C26.1867 118.541 27.2376 116.806 28.3568 114.882C29.476 112.959 30.5112 111.216 31.2888 109.97L32.2189 108.492L32.4711 108.09C32.5237 107.996 32.5499 107.945 32.5394 107.945C32.4961 107.986 32.4592 108.03 32.4291 108.076L32.1401 108.467C31.8879 108.807 31.5516 109.304 31.1417 109.916C30.322 111.155 29.2711 112.89 28.1466 114.813C27.0221 116.737 25.9975 118.479 25.2146 119.725C24.8362 120.334 24.521 120.834 24.2845 121.203L24.0376 121.605C24.004 121.651 23.9793 121.7 23.964 121.75Z" fill="#263238"/>
<path d="M2.80386 116.722C2.80386 116.722 2.87217 116.751 3.00879 116.788L3.62357 116.936L5.89354 117.479C7.8062 117.936 10.4387 118.588 13.3445 119.312C16.2503 120.037 18.8933 120.671 20.8217 121.102C21.7886 121.319 22.5662 121.486 23.1127 121.595L23.738 121.718C23.8851 121.747 23.964 121.758 23.964 121.75C23.8972 121.725 23.8267 121.704 23.7538 121.689L23.139 121.537L20.8743 120.997C18.9616 120.54 16.3291 119.888 13.4233 119.164C10.5176 118.439 7.86926 117.802 5.94609 117.371C4.97925 117.157 4.19632 116.987 3.6551 116.878L3.02455 116.755C2.95274 116.739 2.87882 116.728 2.80386 116.722Z" fill="#263238"/>
<path d="M239.217 86.9568L207.516 86.8554C206.609 86.854 205.711 86.729 204.874 86.4877C204.037 86.2463 203.277 85.8934 202.638 85.4491C202 85.0048 201.495 84.4779 201.152 83.8986C200.81 83.3194 200.637 82.6992 200.643 82.0738L200.979 27.4364C200.984 26.812 201.168 26.1943 201.519 25.6187C201.87 25.0431 202.382 24.5209 203.026 24.0819C203.671 23.6429 204.434 23.2957 205.273 23.0601C206.112 22.8246 207.01 22.7053 207.915 22.7091L239.616 22.8069C241.445 22.8117 243.196 23.3163 244.485 24.21C245.775 25.1037 246.497 26.3135 246.494 27.574L246.158 82.215C246.155 82.8409 245.973 83.4602 245.623 84.0374C245.272 84.6147 244.76 85.1386 244.115 85.5791C243.47 86.0196 242.706 86.3681 241.865 86.6045C241.025 86.8409 240.125 86.9606 239.217 86.9568Z" fill="#455A64"/>
<path d="M239.574 24.7087H233.426C233.226 24.7106 233.029 24.7397 232.845 24.7942C232.662 24.8488 232.496 24.9279 232.357 25.0268C232.218 25.1258 232.108 25.2427 232.035 25.3708C231.961 25.499 231.925 25.6359 231.929 25.7737V26.5417C231.933 26.8197 231.778 27.0878 231.498 27.2878C231.218 27.4878 230.834 27.6036 230.431 27.6103L218.446 27.5704C218.244 27.5672 218.046 27.5363 217.862 27.4798C217.678 27.4232 217.513 27.342 217.375 27.2409C217.237 27.1397 217.13 27.0207 217.059 26.8907C216.988 26.7607 216.956 26.6224 216.964 26.4837V25.7085C216.971 25.5699 216.938 25.4318 216.867 25.302C216.796 25.1722 216.689 25.0534 216.551 24.9524C216.413 24.8514 216.248 24.7701 216.065 24.7134C215.881 24.6566 215.683 24.6255 215.482 24.6218H213.317H207.936C207.302 24.6194 206.674 24.7031 206.086 24.8682C205.499 25.0333 204.965 25.2765 204.514 25.584C204.063 25.8914 203.705 26.2571 203.459 26.6601C203.213 27.0631 203.085 27.4955 203.081 27.9327L202.75 81.2659C202.747 82.1492 203.253 82.9971 204.157 83.6233C205.06 84.2495 206.287 84.6029 207.569 84.6058L239.206 84.7072C240.487 84.7111 241.718 84.3648 242.629 83.7442C243.54 83.1236 244.057 82.2793 244.067 81.3963L244.393 28.0631C244.397 27.6244 244.276 27.1894 244.037 26.783C243.797 26.3766 243.443 26.007 242.995 25.6953C242.547 25.3835 242.014 25.1359 241.427 24.9666C240.84 24.7973 240.21 24.7096 239.574 24.7087Z" fill="white"/>
<path d="M239.054 60.9984H207.747V62.4437H239.054V60.9984Z" fill="#455A64"/>
<path d="M237.94 66.6821C237.94 66.7329 231.256 66.7765 223.017 66.7765C214.778 66.7765 208.089 66.7329 208.089 66.6821C208.089 66.6313 214.773 66.5878 223.017 66.5878C231.261 66.5878 237.94 66.6313 237.94 66.6821Z" fill="#455A64"/>
<path d="M237.94 32.4464C237.94 32.5008 231.256 32.5407 223.017 32.5407C214.778 32.5407 208.089 32.5008 208.089 32.4464C208.089 32.392 214.773 32.3521 223.017 32.3521C231.261 32.3521 237.94 32.3847 237.94 32.4464Z" fill="#455A64"/>
<path d="M237.94 69.312C237.94 69.3628 231.256 69.4064 223.017 69.4064C214.778 69.4064 208.089 69.3628 208.089 69.312C208.089 69.2612 214.773 69.2177 223.017 69.2177C231.261 69.2177 237.94 69.2576 237.94 69.312Z" fill="#455A64"/>
<path d="M237.94 71.931C237.94 71.9818 231.256 72.0254 223.017 72.0254C214.778 72.0254 208.089 71.9818 208.089 71.931C208.089 71.8802 214.773 71.8367 223.017 71.8367C231.261 71.8367 237.94 71.8875 237.94 71.931Z" fill="#455A64"/>
<path d="M237.94 74.5682C237.94 74.619 231.256 74.6625 223.017 74.6625C214.778 74.6625 208.089 74.619 208.089 74.5682C208.089 74.5174 214.773 74.4739 223.017 74.4739C231.261 74.4739 237.94 74.5138 237.94 74.5682Z" fill="#455A64"/>
<path d="M237.94 77.1945C237.94 77.2489 231.256 77.2888 223.017 77.2888C214.778 77.2888 208.089 77.2489 208.089 77.1945C208.089 77.14 214.773 77.1001 223.017 77.1001C231.261 77.1001 237.94 77.1437 237.94 77.1945Z" fill="#455A64"/>
<path d="M238.366 80.1757C238.366 80.2265 231.682 80.2701 223.443 80.2701C215.204 80.2701 208.514 80.2265 208.514 80.1757C208.514 80.1249 215.198 80.0814 223.443 80.0814C231.687 80.0814 238.366 80.1213 238.366 80.1757Z" fill="#455A64"/>
<path d="M239.474 35.4348H208.089V56.3688H239.474V35.4348Z" fill="#E0E0E0"/>
<path d="M210.522 54.5757L219.208 43.8026L226.306 50.6889L230.62 47.0302L237.041 54.5757H210.522Z" fill="#FF725E"/>
<path d="M229.333 41.7088C229.333 42.0169 229.2 42.318 228.952 42.5742C228.704 42.8303 228.351 43.03 227.938 43.1479C227.525 43.2658 227.071 43.2966 226.633 43.2365C226.194 43.1764 225.792 43.0281 225.476 42.8102C225.16 42.5924 224.945 42.3148 224.858 42.0127C224.77 41.7105 224.815 41.3974 224.986 41.1127C225.157 40.8281 225.447 40.5848 225.818 40.4137C226.19 40.2425 226.627 40.1512 227.074 40.1512C227.672 40.1521 228.246 40.3166 228.67 40.6085C229.093 40.9004 229.332 41.296 229.333 41.7088Z" fill="#FF725E"/>
<path d="M237.041 54.6337C237.041 54.6337 237.041 54.6047 237.041 54.5468C237.041 54.4888 237.041 54.4055 237.041 54.3041C237.041 54.0795 237.041 53.7679 237.041 53.3622C237.041 52.5327 237.041 51.33 237.005 49.805C237.005 46.7477 236.968 42.3935 236.942 37.1663L237.068 37.2532H210.553C210.516 37.275 210.832 37.0576 210.7 37.1518V41.861C210.7 43.4005 210.7 44.9075 210.7 46.3709C210.7 49.3051 210.7 52.0763 210.7 54.6265L210.569 54.5359L229.743 54.583L235.155 54.6047H236.59H236.957H237.089H236.973H236.616H235.208L229.827 54.6265L210.569 54.6736H210.438V54.583C210.438 52.0473 210.438 49.2616 210.438 46.3275C210.438 44.8785 210.438 43.357 210.438 41.8175V37.1083C210.301 37.1989 210.616 36.9779 210.59 37.0033H237.104H237.157V37.1554C237.125 42.408 237.104 46.7803 237.089 49.8521C237.089 51.3663 237.089 52.5617 237.057 53.3876C237.057 53.7861 237.057 54.094 237.057 54.3113C237.057 54.4091 237.057 54.4852 237.057 54.5468C237.058 54.5761 237.053 54.6054 237.041 54.6337Z" fill="#455A64"/>
<path d="M74.497 4.18392V52.4421C74.497 54.7529 77.2142 56.6261 80.566 56.6261L186.309 56.6261C189.66 56.6261 192.378 54.7529 192.378 52.4421V4.18392C192.378 1.8732 189.66 0 186.309 0L80.566 0C77.2142 0 74.497 1.8732 74.497 4.18392Z" fill="#455A64"/>
<path d="M82.5574 1.78589V54.8402L181.002 54.8402V1.78589L82.5574 1.78589Z" fill="white"/>
<path d="M186.45 26.1396C187.074 26.1396 187.684 26.267 188.202 26.5059C188.721 26.7447 189.125 27.0841 189.363 27.4813C189.602 27.8784 189.664 28.3154 189.543 28.7371C189.421 29.1587 189.121 29.5459 188.68 29.8499C188.239 30.1539 187.677 30.3609 187.066 30.4447C186.454 30.5286 185.82 30.4856 185.244 30.3211C184.668 30.1566 184.176 29.878 183.829 29.5206C183.483 29.1631 183.298 28.7429 183.298 28.313C183.298 27.7366 183.63 27.1838 184.221 26.7762C184.812 26.3686 185.614 26.1396 186.45 26.1396Z" fill="#263238"/>
<path d="M77.8914 20.2277V36.3983C77.8914 36.6424 78.1784 36.8403 78.5324 36.8403H78.5535C78.9075 36.8403 79.1945 36.6424 79.1945 36.3983V20.2277C79.1945 19.9836 78.9075 19.7858 78.5535 19.7858H78.5324C78.1784 19.7858 77.8914 19.9836 77.8914 20.2277Z" fill="#263238"/>
<path d="M158.769 5.77054H127.463V7.21686H158.769V5.77054Z" fill="#455A64"/>
<path d="M117.989 30.5952H86.6822V32.0415H117.989V30.5952Z" fill="#455A64"/>
<path d="M166.394 11.1464C166.394 11.2008 157.682 11.2408 146.952 11.2408C136.222 11.2408 127.484 11.2008 127.484 11.1464C127.484 11.092 136.196 11.0521 146.952 11.0521C157.708 11.0521 166.394 11.0956 166.394 11.1464Z" fill="#455A64"/>
<path d="M166.394 14.3016C166.394 14.3524 157.682 14.3959 146.952 14.3959C136.222 14.3959 127.484 14.3524 127.484 14.3016C127.484 14.2508 136.196 14.2072 146.952 14.2072C157.708 14.2072 166.394 14.2471 166.394 14.3016Z" fill="#455A64"/>
<path d="M166.394 17.4531C166.394 17.5039 157.682 17.5475 146.952 17.5475C136.222 17.5475 127.484 17.5039 127.484 17.4531C127.484 17.4023 136.196 17.3588 146.952 17.3588C157.708 17.3588 166.394 17.4023 166.394 17.4531Z" fill="#455A64"/>
<path d="M166.394 20.6046C166.394 20.659 157.682 20.6989 146.952 20.6989C136.222 20.6989 127.484 20.659 127.484 20.6046C127.484 20.5502 136.196 20.5103 146.952 20.5103C157.708 20.5103 166.394 20.5538 166.394 20.6046Z" fill="#455A64"/>
<path d="M166.394 23.7525C166.394 23.8033 157.682 23.8469 146.952 23.8469C136.222 23.8469 127.484 23.8033 127.484 23.7525C127.484 23.7017 136.196 23.6582 146.952 23.6582C157.708 23.6582 166.394 23.7054 166.394 23.7525Z" fill="#455A64"/>
<path d="M157.855 26.9113C157.855 26.9621 151.051 27.0056 142.659 27.0056C134.268 27.0056 127.463 26.9621 127.463 26.9113C127.463 26.8605 134.262 26.817 142.659 26.817C151.056 26.817 157.855 26.8605 157.855 26.9113Z" fill="#455A64"/>
<path d="M138.098 36.279C138.098 36.3298 126.664 36.3733 112.561 36.3733C98.4577 36.3733 87.0238 36.3298 87.0238 36.279C87.0238 36.2282 98.4577 36.1846 112.561 36.1846C126.664 36.1846 138.098 36.2245 138.098 36.279Z" fill="#455A64"/>
<path d="M138.098 38.9052C138.098 38.9596 126.664 38.9995 112.561 38.9995C98.4577 38.9995 87.0238 38.9596 87.0238 38.9052C87.0238 38.8508 98.4577 38.8109 112.561 38.8109C126.664 38.8109 138.098 38.8544 138.098 38.9052Z" fill="#455A64"/>
<path d="M138.098 41.5351C138.098 41.5859 126.664 41.6295 112.561 41.6295C98.4577 41.6295 87.0238 41.5859 87.0238 41.5351C87.0238 41.4843 98.4577 41.4408 112.561 41.4408C126.664 41.4408 138.098 41.4807 138.098 41.5351Z" fill="#455A64"/>
<path d="M138.098 44.1614C138.098 44.2158 126.664 44.2557 112.561 44.2557C98.4577 44.2557 87.0238 44.2158 87.0238 44.1614C87.0238 44.107 98.4577 44.067 112.561 44.067C126.664 44.067 138.098 44.1106 138.098 44.1614Z" fill="#455A64"/>
<path d="M138.098 46.7913C138.098 46.8421 126.664 46.8856 112.561 46.8856C98.4577 46.8856 87.0238 46.8421 87.0238 46.7913C87.0238 46.7405 98.4577 46.6969 112.561 46.6969C126.664 46.6969 138.098 46.7405 138.098 46.7913Z" fill="#455A64"/>
<path d="M118.409 5.02795H87.0238V25.9621H118.409V5.02795Z" fill="#FF725E"/>
<path d="M89.4567 24.1726L98.1425 13.3994L105.241 20.2821L109.555 16.627L115.976 24.1726H89.4567Z" fill="#E0E0E0"/>
<path d="M108.268 11.302C108.269 11.6103 108.137 11.9118 107.89 12.1684C107.642 12.425 107.29 12.6253 106.877 12.7437C106.464 12.8622 106.01 12.8935 105.571 12.8338C105.132 12.7741 104.729 12.6261 104.413 12.4084C104.096 12.1907 103.88 11.9131 103.793 11.6109C103.705 11.3086 103.75 10.9953 103.921 10.7104C104.091 10.4256 104.381 10.1821 104.753 10.0108C105.124 9.83947 105.561 9.74802 106.008 9.74802C106.607 9.74802 107.181 9.91163 107.604 10.203C108.028 10.4943 108.267 10.8896 108.268 11.302Z" fill="#E0E0E0"/>
<path d="M115.976 24.2305C115.976 24.2305 115.976 24.1979 115.976 24.1436C115.976 24.0893 115.976 24.0023 115.976 23.9009C115.976 23.6763 115.976 23.3612 115.976 22.9591C115.976 22.1259 115.976 20.9269 115.945 19.4018C115.945 16.3445 115.908 11.9903 115.882 6.76312L116.008 6.85006H89.4934C89.4566 6.87179 89.7719 6.65807 89.6405 6.75225V9.11771C89.6405 9.90016 89.6405 10.679 89.6405 11.4469V15.9569C89.6405 18.8911 89.6405 21.6622 89.6405 24.2124L89.5092 24.1219L108.683 24.1653L114.09 24.1907H115.524H115.898H116.029H115.913H115.556H114.148L108.767 24.2161L89.5092 24.2595H89.3778V24.169C89.3778 21.6332 89.3778 18.8476 89.3778 15.9134C89.3778 14.4475 89.3778 12.9442 89.3778 11.4035V6.69429C89.2412 6.78486 89.5565 6.56389 89.5302 6.58562H116.045H116.176V6.67618C116.15 11.9251 116.129 16.301 116.113 19.3728C116.113 20.887 116.087 22.0824 116.081 22.9083C116.081 23.3032 116.081 23.6328 116.081 23.8321C116.081 23.9299 116.081 24.006 116.081 24.0675C116.078 24.1291 116.04 24.1874 115.976 24.2305Z" fill="#455A64"/>
<path d="M167.355 33.37H145.144V48.1858H167.355V33.37Z" fill="#FF725E"/>
<path d="M146.868 46.9179L153.01 39.2963L158.039 44.1685L161.092 41.5784L165.632 46.9179H146.868Z" fill="#E0E0E0"/>
<path d="M160.178 37.8111C160.178 38.026 160.085 38.2361 159.912 38.4148C159.739 38.5936 159.493 38.7329 159.205 38.8151C158.917 38.8974 158.6 38.9189 158.294 38.8769C157.988 38.835 157.707 38.7315 157.487 38.5795C157.266 38.4275 157.116 38.2339 157.055 38.0231C156.994 37.8123 157.026 37.5938 157.145 37.3952C157.264 37.1966 157.466 37.0269 157.726 36.9075C157.985 36.7881 158.29 36.7243 158.601 36.7243C159.019 36.7243 159.42 36.8388 159.716 37.0426C160.012 37.2464 160.178 37.5229 160.178 37.8111Z" fill="#E0E0E0"/>
<path d="M165.632 46.9578C165.632 46.9578 165.632 46.936 165.632 46.8998C165.632 46.8636 165.632 46.7984 165.632 46.7259C165.632 46.5666 165.632 46.3637 165.632 46.0594C165.632 45.4726 165.632 44.6104 165.632 43.5237C165.632 41.3502 165.606 38.2784 165.585 34.5799L165.674 34.6415H146.91C146.884 34.6415 147.11 34.5038 147.015 34.5726V37.898C147.015 38.9848 147.015 40.0486 147.015 41.0894C147.015 43.1651 147.015 45.1248 147.015 46.9288L146.926 46.8672L160.44 46.936H164.266H165.285H165.637C165.637 46.936 165.611 46.936 165.558 46.936H165.306H164.308L160.498 46.9542L146.873 46.9868H146.779V46.9216C146.779 45.1103 146.779 43.1578 146.779 41.0822V34.6197C146.684 34.6813 146.91 34.5255 146.889 34.5437H165.653H165.748V34.6052C165.748 38.3219 165.711 41.4154 165.7 43.5889C165.7 44.6756 165.7 45.5088 165.674 46.092C165.674 46.3746 165.674 46.5919 165.674 46.7477C165.674 46.8165 165.674 46.8708 165.674 46.9143C165.674 46.9578 165.637 46.9614 165.632 46.9578Z" fill="#455A64"/>
<path d="M183.345 62.3495H33.8793C29.651 62.3495 26.2234 64.7125 26.2234 67.6274V132.19C26.2234 135.105 29.651 137.468 33.8793 137.468H183.345C187.573 137.468 191.001 135.105 191.001 132.19V67.6274C191.001 64.7125 187.573 62.3495 183.345 62.3495Z" fill="#263238"/>
<path d="M19.3347 131.915H197.858V132.042C197.858 133.752 196.873 135.392 195.119 136.601C193.365 137.81 190.986 138.49 188.505 138.49H28.6878C26.2072 138.49 23.8282 137.81 22.0741 136.601C20.3201 135.392 19.3347 133.752 19.3347 132.042V131.915Z" fill="#263238"/>
<path d="M186.119 65.3344H30.6477V128.771H186.119V65.3344Z" fill="#E0E0E0"/>
<path d="M92.3677 131.915L94.5852 134.346H125.755L127.815 131.915H92.3677Z" fill="#455A64"/>
<path d="M178.973 69.5618H35.834V128.749H178.973V69.5618Z" fill="#FAFAFA"/>
<path d="M41.945 72.4779C41.9461 72.6421 41.8764 72.8028 41.7448 72.9397C41.6132 73.0766 41.4257 73.1835 41.2059 73.2468C40.9861 73.3102 40.744 73.3271 40.5102 73.2955C40.2765 73.2639 40.0616 73.1852 39.8928 73.0694C39.724 72.9535 39.6088 72.8057 39.562 72.6447C39.5151 72.4837 39.5386 72.3167 39.6296 72.1649C39.7205 72.0131 39.8747 71.8833 40.0727 71.792C40.2707 71.7007 40.5035 71.652 40.7417 71.652C41.06 71.652 41.3652 71.7389 41.5908 71.8937C41.8163 72.0484 41.9437 72.2585 41.945 72.4779Z" fill="#455A64"/>
<path d="M46.8422 72.4779C46.8433 72.6423 46.7734 72.8031 46.6416 72.9401C46.5098 73.0771 46.3219 73.184 46.1018 73.2472C45.8817 73.3104 45.6394 73.3272 45.4055 73.2953C45.1716 73.2634 44.9567 73.1843 44.7881 73.0681C44.6195 72.9518 44.5048 72.8037 44.4585 72.6425C44.4122 72.4812 44.4365 72.3141 44.5282 72.1624C44.62 72.0107 44.775 71.8811 44.9737 71.7903C45.1724 71.6994 45.4057 71.6513 45.6442 71.652C45.9619 71.652 46.2666 71.739 46.4913 71.8939C46.716 72.0488 46.8422 72.2588 46.8422 72.4779Z" fill="#455A64"/>
<path d="M51.7448 72.4779C51.7458 72.6421 51.6761 72.8028 51.5445 72.9397C51.413 73.0766 51.2254 73.1835 51.0056 73.2468C50.7858 73.3102 50.5437 73.3271 50.31 73.2955C50.0762 73.2639 49.8613 73.1852 49.6925 73.0694C49.5237 72.9535 49.4086 72.8057 49.3617 72.6447C49.3148 72.4837 49.3384 72.3167 49.4293 72.1649C49.5202 72.0131 49.6744 71.8833 49.8724 71.792C50.0704 71.7007 50.3033 71.652 50.5415 71.652C50.6992 71.6515 50.8556 71.6725 51.0016 71.7138C51.1475 71.7551 51.2802 71.8159 51.392 71.8926C51.5038 71.9693 51.5925 72.0605 51.6531 72.161C51.7136 72.2614 51.7448 72.3691 51.7448 72.4779Z" fill="#455A64"/>
<path d="M178.973 76.1005C178.973 76.1549 146.921 76.1948 107.406 76.1948C67.892 76.1948 35.834 76.1549 35.834 76.1005C35.834 76.0461 67.8868 76.0062 107.406 76.0062C146.926 76.0062 178.973 76.0497 178.973 76.1005Z" fill="#455A64"/>
<path d="M191.001 131.966H26.2234V132.328H191.001V131.966Z" fill="#455A64"/>
<path d="M78.874 104.859H47.5674V106.304H78.874V104.859Z" fill="#455A64"/>
<path d="M119.313 84.8123H88.0064V86.2586H119.313V84.8123Z" fill="#455A64"/>
<path d="M165.879 90.1918C165.879 90.2426 148.444 90.2861 126.943 90.2861C105.441 90.2861 88.0064 90.2426 88.0064 90.1918C88.0064 90.141 105.436 90.0938 126.943 90.0938C148.45 90.0938 165.879 90.1374 165.879 90.1918Z" fill="#455A64"/>
<path d="M165.879 93.3436C165.879 93.3946 148.444 93.4383 126.943 93.4383C105.441 93.4383 88.0064 93.3946 88.0064 93.3436C88.0064 93.2926 105.436 93.249 126.943 93.249C148.45 93.249 165.879 93.3036 165.879 93.3436Z" fill="#455A64"/>
<path d="M165.879 96.4948C165.879 96.5492 148.444 96.5892 126.943 96.5892C105.441 96.5892 88.0064 96.5492 88.0064 96.4948C88.0064 96.4404 105.436 96.4005 126.943 96.4005C148.45 96.4005 165.879 96.444 165.879 96.4948Z" fill="#455A64"/>
<path d="M165.879 99.65C165.879 99.7008 148.444 99.7443 126.943 99.7443C105.441 99.7443 88.0064 99.7008 88.0064 99.65C88.0064 99.5992 105.436 99.552 126.943 99.552C148.45 99.552 165.879 99.5955 165.879 99.65Z" fill="#455A64"/>
<path d="M165.879 102.801C165.879 102.852 148.444 102.896 126.943 102.896C105.441 102.896 88.0064 102.852 88.0064 102.801C88.0064 102.751 105.436 102.707 126.943 102.707C148.45 102.707 165.879 102.747 165.879 102.801Z" fill="#455A64"/>
<path d="M118.404 105.953C118.404 106.004 111.599 106.047 103.208 106.047C94.8163 106.047 88.0064 106.004 88.0064 105.953C88.0064 105.902 94.8374 105.859 103.208 105.859C111.578 105.859 118.404 105.902 118.404 105.953Z" fill="#455A64"/>
<path d="M165.306 112.071C165.306 112.126 153.846 112.166 139.717 112.166C125.587 112.166 114.127 112.126 114.127 112.071C114.127 112.017 125.582 111.977 139.717 111.977C153.851 111.977 165.306 112.021 165.306 112.071Z" fill="#455A64"/>
<path d="M165.306 115.418C165.306 115.469 153.846 115.513 139.717 115.513C125.587 115.513 114.127 115.469 114.127 115.418C114.127 115.368 125.582 115.324 139.717 115.324C153.851 115.324 165.306 115.368 165.306 115.418Z" fill="#455A64"/>
<path d="M165.306 118.766C165.306 118.816 153.846 118.86 139.717 118.86C125.587 118.86 114.127 118.816 114.127 118.766C114.127 118.715 125.582 118.671 139.717 118.671C153.851 118.671 165.306 118.711 165.306 118.766Z" fill="#455A64"/>
<path d="M165.306 122.113C165.306 122.164 153.846 122.207 139.717 122.207C125.587 122.207 114.127 122.164 114.127 122.113C114.127 122.062 125.582 122.018 139.717 122.018C153.851 122.018 165.306 122.058 165.306 122.113Z" fill="#455A64"/>
<path d="M78.9529 111.752C78.9529 111.803 72.122 111.847 63.7147 111.847C55.3074 111.847 48.4765 111.803 48.4765 111.752C48.4765 111.702 55.3074 111.658 63.7147 111.658C72.122 111.658 78.9529 111.698 78.9529 111.752Z" fill="#455A64"/>
<path d="M78.9529 114.379C78.9529 114.433 72.122 114.473 63.7147 114.473C55.3074 114.473 48.4765 114.433 48.4765 114.379C48.4765 114.324 55.3074 114.285 63.7147 114.285C72.122 114.285 78.9529 114.314 78.9529 114.379Z" fill="#455A64"/>
<path d="M78.9529 117.009C78.9529 117.06 72.122 117.103 63.7147 117.103C55.3074 117.103 48.4765 117.06 48.4765 117.009C48.4765 116.958 55.3074 116.914 63.7147 116.914C72.122 116.914 78.9529 116.958 78.9529 117.009Z" fill="#455A64"/>
<path d="M78.9529 119.635C78.9529 119.689 72.122 119.729 63.7147 119.729C55.3074 119.729 48.4765 119.689 48.4765 119.635C48.4765 119.581 55.3074 119.541 63.7147 119.541C72.122 119.541 78.9529 119.584 78.9529 119.635Z" fill="#455A64"/>
<path d="M78.9529 122.283C78.9529 122.334 72.122 122.377 63.7147 122.377C55.3074 122.377 48.4765 122.334 48.4765 122.283C48.4765 122.232 55.3074 122.189 63.7147 122.189C72.122 122.189 78.9529 122.214 78.9529 122.283Z" fill="#455A64"/>
<path d="M78.9529 80.0959H47.5674V101.03H78.9529V80.0959Z" fill="#E0E0E0"/>
<path d="M50.0002 99.2368L58.686 88.4637L65.7849 95.3499L70.1041 91.6949L76.5199 99.2368H50.0002Z" fill="#FF725E"/>
<path d="M68.8116 86.37C68.8116 86.678 68.6791 86.9792 68.4308 87.2354C68.1825 87.4915 67.8296 87.6912 67.4168 87.8091C67.0039 87.927 66.5496 87.9578 66.1113 87.8977C65.673 87.8376 65.2704 87.6893 64.9544 87.4714C64.6384 87.2536 64.4232 86.976 64.3361 86.6739C64.2489 86.3717 64.2936 86.0585 64.4646 85.7739C64.6357 85.4892 64.9252 85.246 65.2968 85.0748C65.6684 84.9036 66.1052 84.8123 66.5521 84.8123C67.1514 84.8123 67.7261 84.9764 68.1498 85.2685C68.5735 85.5606 68.8116 85.9568 68.8116 86.37Z" fill="#FF725E"/>
<path d="M76.52 99.2949C76.5177 99.2671 76.5177 99.2393 76.52 99.2115C76.52 99.1463 76.52 99.0666 76.52 98.9652C76.52 98.7442 76.52 98.4291 76.52 98.0234C76.52 97.1938 76.52 95.9948 76.4832 94.4697C76.4832 91.4124 76.4464 87.0582 76.4201 81.8274L76.5462 81.918H50.0318C49.995 81.9397 50.3102 81.7223 50.1789 81.8165V86.5257C50.1789 88.0616 50.1789 89.5686 50.1789 91.0357C50.1789 93.9662 50.1789 96.7374 50.1789 99.2876L50.0475 99.2007L69.2214 99.2441L74.6336 99.2695H76.0681H76.5672C76.5672 99.2695 76.5305 99.2695 76.4516 99.2695H76.0943H74.6861L69.3055 99.2949L50.0475 99.3383H49.9214V99.2478C49.9214 96.712 49.9214 93.9264 49.9214 90.9958C49.9214 89.5287 49.9214 88.0218 49.9214 86.4859V81.7767L50.0738 81.6716H76.5883H76.7196V81.7586C76.7196 87.0111 76.6671 91.3834 76.6513 94.4553C76.6513 95.9731 76.6513 97.1648 76.6198 97.9908C76.6198 98.3892 76.6198 98.6971 76.6198 98.9181C76.6198 99.0159 76.6198 99.092 76.6198 99.15C76.6198 99.2079 76.5252 99.2985 76.52 99.2949Z" fill="#455A64"/>
<path d="M110.196 110.474H87.9854V125.289H110.196V110.474Z" fill="#E0E0E0"/>
<path d="M89.7089 124.022L95.8515 116.4L100.88 121.272L103.933 118.682L108.478 124.022H89.7089Z" fill="#FF725E"/>
<path d="M103.019 114.915C103.019 115.13 102.926 115.34 102.753 115.519C102.58 115.697 102.334 115.837 102.046 115.919C101.758 116.001 101.441 116.023 101.135 115.981C100.829 115.939 100.548 115.835 100.328 115.683C100.107 115.531 99.9571 115.338 99.8963 115.127C99.8354 114.916 99.8667 114.697 99.986 114.499C100.105 114.3 100.307 114.131 100.567 114.011C100.826 113.892 101.131 113.828 101.442 113.828C101.86 113.828 102.261 113.943 102.557 114.146C102.853 114.35 103.019 114.627 103.019 114.915Z" fill="#FF725E"/>
<path d="M108.478 124.065C108.476 124.045 108.476 124.024 108.478 124.004C108.478 123.96 108.478 123.902 108.478 123.83C108.478 123.674 108.478 123.467 108.478 123.163C108.478 122.576 108.478 121.714 108.452 120.646C108.452 118.472 108.452 115.4 108.41 111.702L108.499 111.763H89.7299C89.7299 111.763 89.9296 111.626 89.835 111.694V118.215C89.835 120.291 89.835 122.25 89.835 124.058L89.7405 123.993L103.313 124.025L107.138 124.043H108.152H107.154H103.35L89.7194 124.076H89.6301V124.014C89.6301 122.203 89.6301 120.247 89.6301 118.171C89.6301 117.135 89.6301 116.067 89.6301 114.98V111.662C89.5355 111.723 89.7562 111.568 89.7352 111.586H108.504H108.594V111.647C108.594 115.364 108.557 118.458 108.546 120.635C108.546 121.721 108.546 122.551 108.546 123.134C108.546 123.417 108.546 123.634 108.546 123.79C108.546 123.859 108.546 123.913 108.546 123.956C108.534 123.995 108.511 124.032 108.478 124.065Z" fill="#455A64"/>
<path d="M295.666 132.063L290.412 131.632L289.177 138.421L296.864 139.105L296.98 138.689C297.474 136.827 299.287 129.205 298.961 127.905C298.598 126.456 295.666 132.063 295.666 132.063Z" fill="#FF725E"/>
<path d="M298.504 127.419C298.599 127.419 298.236 129.977 297.695 133.11C297.154 136.244 296.644 138.78 296.549 138.772C296.455 138.765 296.822 136.237 297.358 133.081C297.894 129.926 298.409 127.412 298.504 127.419Z" fill="#263238"/>
<path d="M296.759 131.745C296.707 131.795 296.434 131.723 296.181 131.556C295.929 131.39 295.824 131.194 295.898 131.161C295.971 131.129 296.192 131.234 296.423 131.39C296.654 131.545 296.817 131.701 296.759 131.745Z" fill="#263238"/>
<path d="M297.18 131.34C297.138 131.398 296.828 131.34 296.523 131.18C296.218 131.021 296.05 130.817 296.118 130.781C296.187 130.745 296.444 130.843 296.728 130.992C297.012 131.14 297.227 131.282 297.18 131.34Z" fill="#263238"/>
<path d="M296.87 136.722C296.87 136.751 296.738 136.841 296.476 136.972C296.142 137.129 295.83 137.307 295.546 137.504C295.277 137.701 295.082 137.939 294.978 138.2C294.905 138.403 294.926 138.537 294.873 138.544C294.82 138.551 294.726 138.417 294.742 138.182C294.779 137.873 294.963 137.581 295.267 137.352C295.568 137.136 295.924 136.96 296.318 136.834C296.649 136.733 296.843 136.693 296.87 136.722Z" fill="#263238"/>
<path d="M295.777 131.643C295.861 131.618 296.029 131.752 296.092 131.951C296.155 132.15 296.092 132.313 295.997 132.313C295.903 132.313 295.819 132.169 295.761 131.991C295.703 131.814 295.687 131.669 295.777 131.643Z" fill="#263238"/>
<path d="M295.251 131.701C295.341 131.701 295.388 131.89 295.356 132.121C295.325 132.353 295.215 132.527 295.125 132.513C295.036 132.498 294.983 132.313 295.02 132.096C295.057 131.879 295.157 131.701 295.251 131.701Z" fill="#263238"/>
<path d="M292.461 138.961L263.335 136.925L202.939 137.856L218.997 128.93L259.305 127.597L294.547 130.944L292.461 138.961Z" fill="#263238"/>
<path d="M243.231 133.386C243.231 133.44 237.562 133.48 230.568 133.48C223.574 133.48 217.91 133.44 217.91 133.386C217.91 133.331 223.574 133.292 230.568 133.292C237.562 133.292 243.231 133.335 243.231 133.386Z" fill="#455A64"/>
<path d="M240.415 128.22L242.485 137.2H246.458L243.436 128.122L240.415 128.22Z" fill="black"/>
<path d="M255.79 137.32L255.201 133.697L245.328 134.422L246.09 139.725H246.705C249.447 139.631 260.624 139.116 262.384 138.602C264.37 138.012 255.79 137.32 255.79 137.32Z" fill="#FF725E"/>
<path d="M262.589 138.222C262.589 138.287 258.911 138.624 254.366 138.976C249.82 139.327 246.121 139.559 246.111 139.494C246.1 139.429 249.789 139.095 254.329 138.744C258.869 138.392 262.579 138.171 262.589 138.222Z" fill="#263238"/>
<path d="M256.073 138.048C255.984 138.022 256.026 137.823 256.205 137.617C256.383 137.41 256.63 137.294 256.699 137.334C256.767 137.374 256.662 137.548 256.499 137.736C256.336 137.925 256.168 138.073 256.073 138.048Z" fill="#263238"/>
<path d="M256.751 138.222C256.662 138.222 256.672 137.986 256.83 137.743C256.988 137.501 257.219 137.349 257.298 137.381C257.377 137.414 257.298 137.609 257.14 137.834C256.982 138.059 256.841 138.254 256.751 138.222Z" fill="#263238"/>
<path d="M249.074 139.251C249.043 139.273 248.875 139.19 248.633 139.045C248.336 138.856 248.014 138.688 247.671 138.541C247.332 138.405 246.949 138.329 246.557 138.32C246.258 138.32 246.069 138.359 246.032 138.32C245.995 138.28 246.174 138.193 246.521 138.149C246.972 138.105 247.432 138.169 247.824 138.33C248.197 138.485 248.525 138.687 248.791 138.925C249.011 139.11 249.111 139.229 249.074 139.251Z" fill="#263238"/>
<path d="M256 137.363C256.058 137.414 255.905 137.555 255.637 137.646C255.369 137.737 255.112 137.73 255.112 137.668C255.112 137.606 255.275 137.516 255.511 137.436C255.748 137.356 255.947 137.309 256 137.363Z" fill="#263238"/>
<path d="M255.79 137.023C255.79 137.088 255.553 137.161 255.222 137.19C254.891 137.219 254.618 137.19 254.613 137.124C254.607 137.059 254.865 136.986 255.18 136.957C255.495 136.928 255.769 136.961 255.79 137.023Z" fill="#263238"/>
<path d="M198.021 95.8825L206.428 95.7775C206.544 95.1073 206.707 92.4955 206.707 92.4955C206.707 92.4955 210.227 92.2673 210.485 89.8692C210.742 87.4712 210.632 81.9216 210.632 81.9216C208.703 81.2501 206.548 80.9459 204.392 81.0401C202.235 81.1344 200.154 81.6237 198.363 82.4577L197.837 82.7113L198.021 95.8825Z" fill="#B78876"/>
<path d="M209.471 86.0186C209.379 85.9514 209.328 85.8627 209.328 85.7705C209.328 85.6782 209.379 85.5895 209.471 85.5223C209.543 85.4694 209.636 85.4327 209.739 85.4169C209.842 85.4011 209.949 85.407 210.047 85.4337C210.145 85.4605 210.229 85.5069 210.288 85.5669C210.347 85.6269 210.379 85.6979 210.379 85.7705C210.379 85.843 210.347 85.914 210.288 85.974C210.229 86.0341 210.145 86.0805 210.047 86.1072C209.949 86.134 209.842 86.1398 209.739 86.124C209.636 86.1082 209.543 86.0715 209.471 86.0186Z" fill="#263238"/>
<path d="M210.359 85.5048C210.301 85.5447 209.975 85.3488 209.497 85.327C209.019 85.3052 208.651 85.4613 208.604 85.4177C208.556 85.3742 208.641 85.3234 208.798 85.2508C209.013 85.1577 209.265 85.1144 209.518 85.1274C209.77 85.1383 210.01 85.2059 210.201 85.3197C210.359 85.4104 210.396 85.4866 210.359 85.5048Z" fill="#263238"/>
<path d="M204.81 85.5585C204.885 85.6199 204.929 85.6967 204.934 85.777C204.939 85.8572 204.905 85.9364 204.837 86.0019C204.77 86.0674 204.673 86.1157 204.561 86.139C204.45 86.1624 204.33 86.1595 204.221 86.1309C204.147 86.1112 204.079 86.0799 204.024 86.0395C203.97 85.9991 203.929 85.9506 203.906 85.8977C203.883 85.8448 203.877 85.7889 203.89 85.7344C203.903 85.6798 203.934 85.628 203.98 85.5829C204.026 85.5378 204.087 85.5006 204.158 85.4742C204.228 85.4478 204.306 85.4328 204.386 85.4305C204.466 85.4281 204.546 85.4384 204.62 85.4606C204.693 85.4828 204.758 85.5163 204.81 85.5585Z" fill="#263238"/>
<path d="M205.104 85.5737C205.046 85.6136 204.721 85.4176 204.237 85.3959C203.754 85.3741 203.396 85.5301 203.344 85.4866C203.291 85.443 203.381 85.3922 203.544 85.3196C203.758 85.2264 204.01 85.1831 204.262 85.1961C204.515 85.2092 204.755 85.2779 204.947 85.3922C205.104 85.4793 205.152 85.5591 205.104 85.5737Z" fill="#263238"/>
<path d="M206.807 88.3876C207.059 88.3305 207.324 88.3036 207.59 88.3079C207.716 88.3079 207.821 88.2862 207.831 88.2427C207.844 88.1554 207.82 88.0675 207.763 87.9892L207.442 87.3009C207.134 86.714 206.912 86.1072 206.78 85.4897C207.175 86.0494 207.485 86.6358 207.705 87.2393C207.81 87.4784 207.905 87.7066 208.005 87.9312C208.076 88.0455 208.089 88.1733 208.041 88.2935C208.02 88.3258 207.988 88.3544 207.948 88.377C207.908 88.3996 207.861 88.4156 207.81 88.4239C207.739 88.4306 207.666 88.4306 207.595 88.4239C207.331 88.4419 207.065 88.4297 206.807 88.3876Z" fill="#263238"/>
<path d="M205.215 88.6884C204.731 88.46 206.544 89.2502 207.527 89.2574C207.347 89.4246 207.092 89.5452 206.801 89.5998C206.51 89.6544 206.201 89.6398 205.924 89.5583C204.905 89.2502 205.215 88.6884 205.215 88.6884Z" fill="white"/>
<path d="M206.728 92.4593C205.116 92.4105 203.561 92.0322 202.262 91.3725C202.262 91.3725 203.181 93.1475 206.681 93.0787L206.728 92.4593Z" fill="#A36957"/>
<path d="M210.884 81.0558C211.084 81.0512 211.28 81.0151 211.456 80.9503C211.633 80.8855 211.785 80.7936 211.902 80.6818C212.019 80.57 212.097 80.4412 212.131 80.3053C212.164 80.1694 212.152 80.03 212.095 79.8979C212.038 79.7657 211.938 79.6443 211.803 79.5429C211.667 79.4416 211.5 79.363 211.313 79.3132C211.127 79.2634 210.926 79.2438 210.727 79.2557C210.528 79.2677 210.336 79.311 210.164 79.3822C210.582 79.1453 210.922 78.8503 211.163 78.5165C211.278 78.3487 211.317 78.1604 211.273 77.9772C211.228 77.7939 211.104 77.6243 210.916 77.4913C210.696 77.3874 210.44 77.3265 210.175 77.315C209.909 77.3036 209.644 77.3419 209.408 77.4261C208.667 77.6471 208.084 78.0781 207.306 78.2593C206.528 78.4404 205.698 78.3498 204.884 78.3752C203.976 78.387 203.097 78.5962 202.372 78.9729C202.015 79.1631 201.728 79.4084 201.534 79.689C201.339 79.9695 201.243 80.2776 201.253 80.5885C200.112 80.4943 198.851 80.4834 197.953 80.9725C197.591 81.1943 197.305 81.4684 197.116 81.7753C196.926 82.0821 196.837 82.4141 196.855 82.7475C196.942 83.4132 197.172 84.0663 197.538 84.6855C197.601 84.867 197.719 85.0373 197.884 85.1854L198.31 86.9097L199.86 86.8879L199.76 83.3017C199.76 83.3017 199.603 81.7875 201.494 81.9216C203.386 82.0556 205.945 83.5227 209.618 83.1496C210.218 83.1277 210.804 83.0126 211.331 82.8127C211.586 82.7019 211.794 82.5461 211.932 82.3614C212.071 82.1767 212.135 81.9698 212.119 81.7622C212.087 81.5568 211.94 81.3681 211.71 81.2361C211.479 81.1042 211.183 81.0395 210.884 81.0558Z" fill="#263238"/>
<path d="M198.504 84.8413C198.426 84.8232 195.914 84.5986 196.15 86.6525C196.387 88.7065 199.303 87.8552 199.303 87.7972C199.303 87.7393 198.504 84.8413 198.504 84.8413Z" fill="#B78876"/>
<path d="M198.315 87.1198C198.315 87.1198 198.263 87.1451 198.179 87.1777C198.061 87.2206 197.924 87.231 197.795 87.2067C197.594 87.1333 197.426 87.0246 197.306 86.8916C197.186 86.7587 197.119 86.6062 197.112 86.4497C197.082 86.2748 197.111 86.0976 197.196 85.9317C197.216 85.8658 197.259 85.8044 197.321 85.7526C197.384 85.7008 197.463 85.6603 197.553 85.6346C197.612 85.6208 197.675 85.6215 197.733 85.6367C197.791 85.652 197.839 85.6807 197.869 85.7179C197.916 85.7723 197.9 85.8121 197.916 85.8157C197.932 85.8194 197.979 85.7795 197.942 85.6962C197.922 85.6454 197.875 85.6015 197.811 85.5731C197.769 85.554 197.721 85.541 197.672 85.5348C197.622 85.5286 197.571 85.5293 197.522 85.5368C197.396 85.5603 197.281 85.6061 197.189 85.6696C197.097 85.7332 197.03 85.8123 196.996 85.8991C196.889 86.0827 196.851 86.2821 196.886 86.4786C196.892 86.661 196.976 86.8381 197.127 86.9877C197.279 87.1372 197.491 87.2525 197.737 87.319C197.819 87.331 197.903 87.33 197.984 87.3162C198.065 87.3024 198.141 87.2761 198.205 87.2393C198.315 87.1669 198.326 87.1234 198.315 87.1198Z" fill="#A36957"/>
<path d="M191.201 131.701C192.777 133.32 202.335 143.239 213.748 136.026C228.287 126.847 239.784 118.805 239.784 118.805L244.104 136.972L257.639 136.465C257.639 136.465 252.385 109.416 249.032 106.956C245.307 104.21 241.881 104.442 212.623 120.359L191.201 131.701Z" fill="#455A64"/>
<path d="M239.616 100.896L252.259 94.5349L252.879 95.2196L240.32 101.657L239.616 100.896Z" fill="#263238"/>
<path d="M242.743 100.7C242.743 100.7 244.435 97.6575 244.844 97.0091C245.254 96.3607 245.869 95.2305 246.111 95.1979C246.352 95.1653 247.235 95.2703 246.111 97.2047C244.986 99.1391 247.477 97.9582 247.477 97.9582L249.91 96.7555C249.91 96.7555 251.833 100.718 250.74 101.914C249.881 102.806 248.916 103.649 247.855 104.431L242.743 100.7Z" fill="#B78876"/>
<path d="M242.885 100.345C242.632 99.9505 226.553 109.738 223.353 110.072L213.979 101.657C213.979 101.657 212.035 99.5267 207.858 95.8825C205.157 93.5315 197.716 94.0206 195.772 96.8859C192.451 101.754 192.409 107.166 190.638 117.697L189.866 124.819C189.7 126.334 189.733 127.857 189.966 129.368C190.25 131.132 190.828 132.991 192.015 132.726L213.459 120.508L214.147 114.958C218.656 118.11 220.059 118.769 222.402 118.515C228.303 117.885 248.959 105.08 248.959 105.08C248.959 105.08 243.131 100.744 242.885 100.345Z" fill="#FF725E"/>
<path d="M246.19 106.859C245.771 106.685 245.385 106.477 245.039 106.239C244.16 105.698 243.337 105.116 242.574 104.497C241.807 103.88 241.105 103.226 240.473 102.541C240.191 102.264 239.953 101.968 239.763 101.657C240.082 101.91 240.371 102.18 240.63 102.464C241.156 102.968 241.891 103.656 242.779 104.374C243.667 105.091 244.529 105.707 245.17 106.141C245.534 106.364 245.875 106.603 246.19 106.859Z" fill="#263238"/>
<path d="M222.444 113.408C222.453 112.841 222.551 112.276 222.738 111.723C222.841 111.16 223.032 110.607 223.306 110.072C223.298 110.639 223.199 111.204 223.012 111.756C222.91 112.319 222.719 112.873 222.444 113.408Z" fill="#263238"/>
<path d="M224.494 113.06C224.169 112.6 223.929 112.113 223.779 111.611C223.547 111.126 223.397 110.624 223.332 110.115C223.657 110.576 223.897 111.062 224.047 111.564C224.278 112.049 224.428 112.551 224.494 113.06Z" fill="#263238"/>
<path d="M201.279 103.135C201.471 103.281 201.647 103.437 201.804 103.602L203.202 104.913C204.384 106.018 206.034 107.54 207.879 109.202L212.634 113.455L214.068 114.748C214.263 114.901 214.438 115.065 214.594 115.237C214.383 115.099 214.188 114.95 214.011 114.792C213.648 114.498 213.138 114.067 212.508 113.538C211.252 112.47 209.534 110.984 207.689 109.318C205.845 107.652 204.216 106.116 203.076 104.989C202.503 104.428 202.025 103.968 201.741 103.645C201.568 103.484 201.413 103.313 201.279 103.135Z" fill="#263238"/>
<path d="M198.536 110.293C197.98 110.076 197.472 109.805 197.028 109.488C196.523 109.216 196.076 108.897 195.699 108.539C196.257 108.756 196.767 109.029 197.212 109.347C197.718 109.616 198.164 109.934 198.536 110.293Z" fill="#263238"/>
<path d="M196.697 114.375C196.149 115.158 195.441 115.882 194.595 116.527C194.826 116.12 195.143 115.739 195.536 115.397C195.85 115.02 196.241 114.676 196.697 114.375Z" fill="#263238"/>
<path d="M199.282 120.009C199.224 120.042 198.757 119.715 198.231 119.284C197.877 119.038 197.589 118.751 197.38 118.436C197.438 118.403 197.905 118.729 198.431 119.161C198.786 119.406 199.074 119.693 199.282 120.009Z" fill="#263238"/>
<path d="M194.28 123.62C193.948 123.888 193.55 124.112 193.103 124.283C192.706 124.505 192.256 124.676 191.773 124.79C192.105 124.522 192.504 124.298 192.95 124.127C193.347 123.905 193.797 123.734 194.28 123.62Z" fill="#263238"/>
<path d="M201.274 124.576C200.717 124.408 200.235 124.142 199.876 123.804C199.449 123.502 199.147 123.127 198.998 122.718C199.072 122.692 199.456 123.17 200.081 123.674C200.706 124.177 201.321 124.529 201.274 124.576Z" fill="#263238"/>
<path d="M207.795 121.164C207.411 121.51 206.958 121.817 206.449 122.076C205.997 122.381 205.484 122.64 204.926 122.844C205.309 122.498 205.762 122.191 206.271 121.932C206.722 121.626 207.235 121.367 207.795 121.164Z" fill="#263238"/>
<path d="M194.374 127.754C193.477 127.47 192.763 126.966 192.372 126.34C192.435 126.311 192.83 126.659 193.381 127.043C193.933 127.427 194.422 127.717 194.374 127.754Z" fill="#263238"/>
<path d="M208.956 117.936C208.053 118.293 207.012 118.447 205.976 118.379C206.958 118.197 207.953 118.05 208.956 117.936Z" fill="#263238"/>
<path d="M204.101 114.129C203.992 114.57 203.816 115.002 203.575 115.418C203.404 115.836 203.199 116.248 202.96 116.65H202.903C202.903 116.628 202.934 116.621 202.945 116.621C202.955 116.621 202.945 116.621 202.945 116.661H202.887C202.949 116.226 203.086 115.798 203.297 115.386C203.457 114.938 203.729 114.512 204.101 114.129Z" fill="#263238"/>
<path d="M206.155 111.714C205.585 111.549 205.053 111.327 204.579 111.054C204.058 110.832 203.588 110.557 203.186 110.238C203.746 110.406 204.268 110.628 204.736 110.898C205.266 111.119 205.744 111.394 206.155 111.714Z" fill="#263238"/>
<path d="M201.951 106.388C201.793 106.747 201.528 107.08 201.174 107.366C200.889 107.686 200.514 107.963 200.07 108.181C200.306 107.847 200.602 107.535 200.953 107.253C201.228 106.935 201.563 106.644 201.951 106.388Z" fill="#263238"/>
<path d="M195.551 105.663C195.463 105.256 195.463 104.842 195.551 104.435C195.558 104.024 195.654 103.616 195.835 103.225C195.93 103.631 195.93 104.044 195.835 104.45C195.834 104.862 195.738 105.271 195.551 105.663Z" fill="#263238"/>
<path d="M193.056 113.647C192.913 113.214 192.856 112.769 192.887 112.325C192.834 111.883 192.869 111.438 192.992 111.003C193.196 111.877 193.217 112.768 193.056 113.647Z" fill="#263238"/>
<path d="M192.709 121.305C192.47 121.07 192.311 120.801 192.241 120.519C192.086 120.253 192.014 119.968 192.031 119.682C192.432 120.181 192.664 120.735 192.709 121.305Z" fill="#263238"/>
<path d="M201.557 99.6896C201.14 100.02 200.687 100.327 200.202 100.61C199.781 100.938 199.323 101.242 198.83 101.519C199.116 101.119 199.518 100.764 200.013 100.476C200.442 100.142 200.968 99.8741 201.557 99.6896Z" fill="#263238"/>
<path d="M197.8 98.8239C197.687 98.4291 197.665 98.0243 197.737 97.6249C197.716 97.2225 197.787 96.8203 197.948 96.4331C198.058 96.8281 198.079 97.2326 198.011 97.6321C198.029 98.0345 197.958 98.4363 197.8 98.8239Z" fill="#263238"/>
<path d="M207.006 97.9626C206.019 97.5507 205.064 97.1018 204.148 96.6179C205.254 96.8874 206.239 97.3509 207.006 97.9626Z" fill="#263238"/>
<path d="M205.004 102.483C204.859 102.068 204.8 101.641 204.831 101.215C204.774 100.79 204.808 100.361 204.931 99.9432C205.137 100.781 205.162 101.636 205.004 102.479V102.483Z" fill="#263238"/>
<path d="M210.396 105.127C209.335 104.982 208.283 104.808 207.243 104.605C208.346 104.559 209.443 104.741 210.396 105.127Z" fill="#263238"/>
<path d="M210.763 102.432C210.578 101.726 210.578 101.004 210.763 100.298C210.901 100.645 210.953 101.005 210.916 101.363C210.957 101.723 210.905 102.085 210.763 102.432Z" fill="#263238"/>
<path d="M214.872 106.956C214.705 106.518 214.629 106.065 214.646 105.612C214.574 105.162 214.592 104.708 214.699 104.261C214.935 105.15 214.994 106.057 214.872 106.956Z" fill="#263238"/>
<path d="M211.714 108.486C211.657 108.522 211.231 108.254 210.763 107.891C210.296 107.529 209.959 107.203 210.017 107.166C210.075 107.13 210.501 107.398 210.968 107.765C211.436 108.131 211.772 108.453 211.714 108.486Z" fill="#263238"/>
<path d="M215.708 110.572C215.212 110.688 214.692 110.747 214.168 110.746C213.647 110.809 213.113 110.809 212.592 110.746C213.084 110.625 213.604 110.566 214.126 110.572C214.649 110.504 215.185 110.504 215.708 110.572Z" fill="#263238"/>
<path d="M218.714 111.629C218.491 110.843 218.447 110.038 218.582 109.242C218.811 110.028 218.856 110.834 218.714 111.629Z" fill="#263238"/>
<path d="M221.677 115.596C221.047 115.679 220.4 115.679 219.77 115.596C219.129 115.579 218.499 115.477 217.915 115.295C218.547 115.293 219.179 115.332 219.801 115.411C220.434 115.43 221.062 115.492 221.677 115.596Z" fill="#263238"/>
<path d="M226.774 113.766C226.557 114.589 226.16 115.384 225.597 116.125C225.659 115.71 225.813 115.304 226.054 114.922C226.204 114.513 226.447 114.123 226.774 113.766Z" fill="#263238"/>
<path d="M230.447 110.565C229.354 110.486 228.289 110.281 227.294 109.959C228.385 110.043 229.45 110.248 230.447 110.565Z" fill="#263238"/>
<path d="M233.4 111.778C233.087 112.093 232.702 112.371 232.26 112.601C231.875 112.876 231.43 113.107 230.941 113.286C231.25 112.968 231.636 112.688 232.081 112.459C232.465 112.185 232.911 111.955 233.4 111.778Z" fill="#263238"/>
<path d="M234.582 108.782C234.291 108.424 234.112 108.028 234.057 107.619C233.906 107.219 233.881 106.802 233.983 106.395C234.151 106.784 234.265 107.183 234.325 107.587C234.465 107.979 234.551 108.379 234.582 108.782Z" fill="#263238"/>
<path d="M240.205 108.094C239.124 108.838 238.031 109.573 236.926 110.3C237.76 109.402 238.882 108.647 240.205 108.094Z" fill="#263238"/>
<path d="M240.762 106.706C240.158 106.648 239.572 106.525 239.022 106.344C238.439 106.226 237.886 106.046 237.383 105.812C237.984 105.872 238.569 105.994 239.117 106.174C239.7 106.294 240.255 106.474 240.762 106.706Z" fill="#263238"/>
<path d="M240.226 105.218C239.958 104.917 239.772 104.586 239.674 104.239C239.49 103.91 239.392 103.56 239.385 103.207C239.643 103.509 239.821 103.84 239.91 104.185C240.1 104.514 240.207 104.864 240.226 105.218Z" fill="#263238"/>
<path d="M210.811 115.654C210.748 115.686 210.285 115.328 209.823 114.857C209.49 114.589 209.23 114.283 209.056 113.951C209.451 114.174 209.786 114.444 210.044 114.748C210.372 115.018 210.631 115.324 210.811 115.654Z" fill="#263238"/>
<path d="M250.871 133.904C250.849 133.853 250.835 133.801 250.829 133.748C250.808 133.639 250.777 133.487 250.735 133.291C250.661 132.882 250.546 132.292 250.404 131.538C250.104 130.017 249.679 127.811 249.043 125.097C248.407 122.384 247.561 119.164 246.358 115.628C246.235 115.185 246.024 114.754 245.732 114.35C245.402 113.95 244.976 113.593 244.471 113.292C243.401 112.681 242.033 112.375 240.646 112.437C239.939 112.464 239.248 112.594 238.618 112.817C237.985 113.063 237.382 113.345 236.815 113.658L233.2 115.509C228.335 118.026 223.779 120.493 219.712 122.808C215.645 125.123 212.098 127.289 209.129 129.126C207.626 130.017 206.024 130.73 204.4 130.846C203.655 130.905 202.901 130.841 202.198 130.662C201.614 130.51 201.064 130.301 200.564 130.042C199.881 129.684 199.248 129.282 198.673 128.843L198.226 128.503C198.171 128.465 198.122 128.424 198.079 128.379C198.139 128.411 198.194 128.447 198.242 128.488L198.709 128.818C199.301 129.243 199.942 129.633 200.627 129.984C201.124 130.231 201.667 130.431 202.24 130.578C202.927 130.746 203.661 130.802 204.384 130.741C205.961 130.622 207.537 129.915 209.008 129.024C211.956 127.18 215.492 124.989 219.559 122.674C223.627 120.359 228.172 117.874 233.043 115.357L236.658 113.506C237.238 113.187 237.855 112.901 238.502 112.651C239.164 112.415 239.891 112.279 240.635 112.252C242.09 112.189 243.524 112.512 244.645 113.154C245.176 113.469 245.622 113.845 245.964 114.266C246.265 114.685 246.482 115.13 246.61 115.589C247.803 119.135 248.622 122.363 249.237 125.076C249.852 127.789 250.246 130.002 250.514 131.527C250.635 132.284 250.729 132.875 250.798 133.288C250.798 133.483 250.845 133.65 250.861 133.748C250.871 133.799 250.875 133.852 250.871 133.904Z" fill="#263238"/>
<path d="M257.009 133.701C256.838 133.737 256.661 133.756 256.483 133.759C256.142 133.784 255.648 133.813 255.038 133.842C253.814 133.9 252.127 133.962 250.262 134.016L245.485 134.157L244.035 134.193C243.861 134.208 243.684 134.208 243.51 134.193C243.68 134.155 243.857 134.133 244.035 134.128C244.377 134.099 244.871 134.067 245.48 134.03C246.705 133.962 248.391 133.893 250.257 133.835L255.038 133.715L256.489 133.694C256.662 133.681 256.836 133.684 257.009 133.701Z" fill="#263238"/>
<path d="M243.541 115.973C242.345 117.315 240.786 118.487 238.949 119.425C238.896 119.381 240 118.675 241.282 117.722C242.564 116.769 243.462 115.94 243.541 115.973Z" fill="#263238"/>
<path d="M244.051 117.074C243.342 117.447 242.594 117.782 241.813 118.077C241.078 118.429 240.305 118.741 239.501 119.012C240.151 118.586 240.878 118.221 241.665 117.925C242.404 117.572 243.206 117.286 244.051 117.074Z" fill="#263238"/>
<path d="M288.321 134.635C288.214 134.643 288.107 134.643 288 134.635L287.075 134.599L283.712 134.378L272.63 133.581C268.301 133.27 264.391 132.922 261.549 132.824C260.13 132.773 258.974 132.777 258.18 132.799L257.266 132.824C257.158 132.833 257.049 132.833 256.94 132.824C257.046 132.806 257.153 132.794 257.261 132.788C257.466 132.766 257.786 132.748 258.175 132.723C259.302 132.672 260.431 132.661 261.559 132.69C264.418 132.755 268.332 133.081 272.657 133.393L283.739 134.237L287.096 134.516L288.005 134.599C288.112 134.603 288.218 134.615 288.321 134.635Z" fill="#455A64"/>
<path d="M287.653 138.685C287.58 138.685 287.816 136.874 288.179 134.625C288.541 132.375 288.909 130.582 288.983 130.589C289.056 130.596 288.82 132.4 288.457 134.646C288.095 136.892 287.727 138.689 287.653 138.685Z" fill="#455A64"/>
</svg>
