<svg width="30" height="30" viewBox="0 0 30 30" fill="none" xmlns="http://www.w3.org/2000/svg">
<path d="M26.25 8.33333V6.66667L22.5 10L18.75 6.66667V8.33333L22.5 11.6667L26.25 8.33333ZM27.5 0H2.5C1.125 0 0 1.5 0 3.33333V26.6667C0 28.5 1.125 30 2.5 30H27.5C28.875 30 29.9875 28.5 29.9875 26.6667L30 3.33333C30 1.5 28.875 0 27.5 0ZM10 5C12.075 5 13.75 7.23333 13.75 10C13.75 12.7667 12.075 15 10 15C7.925 15 6.25 12.7667 6.25 10C6.25 7.23333 7.925 5 10 5ZM17.5 25H2.5V23.3333C2.5 20 7.5 18.1667 10 18.1667C12.5 18.1667 17.5 20 17.5 23.3333V25ZM27.5 15H17.5V5H27.5V15Z" fill="black"/>
</svg>
