<svg width="30" height="30" viewBox="0 0 30 30" fill="none" xmlns="http://www.w3.org/2000/svg">
<path d="M5.76562 20.5312L9.46875 24.2344L6.60937 28.9688C6.60937 28.9688 3.60937 28.6406 0.75 30L5.4375 25.3125C5.67188 25.3125 5.85937 25.2656 6.04687 25.0781C6.375 24.75 6.375 24.2813 6.04687 23.9531C5.71875 23.625 5.25 23.625 4.92187 23.9531C4.73437 24.1406 4.6875 24.375 4.6875 24.5625L0 29.25C1.35938 26.3438 1.03125 23.3906 1.03125 23.3906L5.76562 20.5312Z" fill="#94989B"/>
<path d="M28.8281 1.17194C30.375 2.71882 30.375 5.20319 28.8281 6.75007L26.6719 8.90632C26.6719 8.90632 25.8281 11.2501 21.5625 15.5157C17.25 19.7813 14.9062 20.6251 14.9062 20.6251L10.3593 25.1719L4.8281 19.5938L9.37497 15.0469C9.37497 15.0469 10.2187 12.7032 14.4843 8.43757C18.75 4.17194 21.0937 3.32819 21.0937 3.32819L23.2968 1.12507C24.8437 -0.374932 27.3281 -0.374932 28.8281 1.17194Z" fill="#3E4347"/>
<path d="M21.0975 3.35108L21.8264 2.6217L27.3951 8.19045L26.6658 8.91936L21.0975 3.35108Z" fill="#94989B"/>
<path d="M8.62685 15.8212L9.35528 15.0913L14.9287 20.6554L14.2008 21.3847L8.62685 15.8212Z" fill="#94989B"/>
</svg>
