<svg width="20" height="30" viewBox="0 0 20 30" fill="none" xmlns="http://www.w3.org/2000/svg">
<path d="M19.9446 1.92488C19.9446 0.985915 18.7812 0 17.5623 0H2.38227C1.16343 0 0 0.985915 0 1.92488V28.0751C0 29.061 1.16343 30 2.38227 30H17.6177C18.7812 30 20 29.0141 20 28.0751V1.92488H19.9446Z" fill="#5C6D6D"/>
<path d="M19.3906 27.6995C19.3906 28.6385 18.2825 29.5775 17.1745 29.5775H2.77008C1.66205 29.5775 0.554016 28.6385 0.554016 27.6995V2.34742C0.554016 1.40845 1.66205 0.469482 2.77008 0.469482H17.1745C18.2825 0.469482 19.3906 1.40845 19.3906 2.34742V27.6995Z" fill="#212528"/>
<path d="M16.3434 2.58216C16.6494 2.58216 16.8974 2.37196 16.8974 2.11267C16.8974 1.85338 16.6494 1.64319 16.3434 1.64319C16.0374 1.64319 15.7894 1.85338 15.7894 2.11267C15.7894 2.37196 16.0374 2.58216 16.3434 2.58216Z" fill="#94989B"/>
<path d="M11.6343 2.11267C11.6343 2.25352 11.5789 2.34741 11.4681 2.34741H8.47645C8.36564 2.34741 8.31024 2.25352 8.31024 2.11267C8.31024 2.01877 8.36564 1.87793 8.47645 1.87793H11.4681C11.5789 1.87793 11.6343 2.01877 11.6343 2.11267Z" fill="#94989B"/>
<path d="M1.66199 3.75586H18.2825V26.2911H1.66199V3.75586Z" fill="#3E4347"/>
<path d="M12.0775 28.2629C12.0775 28.4507 11.9113 28.6385 11.6343 28.6385H8.31022C8.08861 28.6385 7.867 28.4977 7.867 28.2629V27.5587C7.867 27.3709 8.03321 27.1831 8.31022 27.1831H11.6343C11.8559 27.1831 12.0775 27.324 12.0775 27.5587V28.2629Z" fill="#94989B"/>
<path d="M5.54006 6.90141C5.54006 7.13616 5.31845 7.277 5.09685 7.277H3.26859C2.99158 7.277 2.82538 7.08921 2.82538 6.90141V5.35212C2.82538 5.11738 3.04698 4.97653 3.26859 4.97653H5.09685C5.37385 4.97653 5.54006 5.16433 5.54006 5.35212V6.90141Z" fill="#42ADE2"/>
<path d="M9.41829 6.90141C9.41829 7.13616 9.19669 7.277 8.97508 7.277H7.14683C6.86982 7.277 6.70361 7.08921 6.70361 6.90141V5.35212C6.70361 5.11738 6.92522 4.97653 7.14683 4.97653H8.97508C9.25209 4.97653 9.41829 5.16433 9.41829 5.35212V6.90141Z" fill="#C7E755"/>
<path d="M13.2964 6.90141C13.2964 7.13616 13.0748 7.277 12.8532 7.277H11.0249C10.7479 7.277 10.5817 7.08921 10.5817 6.90141V5.35212C10.5817 5.11738 10.8033 4.97653 11.0249 4.97653H12.8532C13.1302 4.97653 13.2964 5.16433 13.2964 5.35212V6.90141Z" fill="#F2B200"/>
<path d="M17.1745 6.90141C17.1745 7.13616 16.9529 7.277 16.7312 7.277H14.903C14.626 7.277 14.4598 7.08921 14.4598 6.90141V5.35212C14.4598 5.11738 14.6814 4.97653 14.903 4.97653H16.7312C17.0083 4.97653 17.1745 5.16433 17.1745 5.35212V6.90141Z" fill="#42ADE2"/>
<path d="M5.54006 24.9765C5.54006 25.2113 5.31845 25.3521 5.09685 25.3521H3.26859C2.99158 25.3521 2.82538 25.1643 2.82538 24.9765V23.4272C2.82538 23.1925 3.04698 23.0516 3.26859 23.0516H5.09685C5.37385 23.0516 5.54006 23.2394 5.54006 23.4272V24.9765Z" fill="#C7E755"/>
<path d="M9.41829 24.9765C9.41829 25.2113 9.19669 25.3521 8.97508 25.3521H7.14683C6.86982 25.3521 6.70361 25.1643 6.70361 24.9765V23.4272C6.70361 23.1925 6.92522 23.0516 7.14683 23.0516H8.97508C9.25209 23.0516 9.41829 23.2394 9.41829 23.4272V24.9765Z" fill="#FF435E"/>
<path d="M13.2964 24.9765C13.2964 25.2113 13.0748 25.3521 12.8532 25.3521H11.0249C10.7479 25.3521 10.5817 25.1643 10.5817 24.9765V23.4272C10.5817 23.1925 10.8033 23.0516 11.0249 23.0516H12.8532C13.1302 23.0516 13.2964 23.2394 13.2964 23.4272V24.9765Z" fill="#42ADE2"/>
<path d="M17.1745 24.9765C17.1745 25.2113 16.9529 25.3521 16.7312 25.3521H14.903C14.626 25.3521 14.4598 25.1643 14.4598 24.9765V23.4272C14.4598 23.1925 14.6814 23.0516 14.903 23.0516H16.7312C17.0083 23.0516 17.1745 23.2394 17.1745 23.4272V24.9765Z" fill="#C28FEF"/>
<path d="M5.54006 15.9155C5.54006 16.1502 5.31845 16.2911 5.09685 16.2911H3.26859C2.99158 16.2911 2.82538 16.1033 2.82538 15.9155V14.3662C2.82538 14.1314 3.04698 13.9906 3.26859 13.9906H5.09685C5.37385 13.9906 5.54006 14.1784 5.54006 14.3662V15.9155Z" fill="#C7E755"/>
<path d="M9.41829 15.9155C9.41829 16.1502 9.19669 16.2911 8.97508 16.2911H7.14683C6.86982 16.2911 6.70361 16.1033 6.70361 15.9155V14.3662C6.70361 14.1314 6.92522 13.9906 7.14683 13.9906H8.97508C9.25209 13.9906 9.41829 14.1784 9.41829 14.3662V15.9155Z" fill="#C28FEF"/>
<path d="M13.2964 15.9155C13.2964 16.1502 13.0748 16.2911 12.8532 16.2911H11.0249C10.7479 16.2911 10.5817 16.1033 10.5817 15.9155V14.3662C10.5817 14.1314 10.8033 13.9906 11.0249 13.9906H12.8532C13.1302 13.9906 13.2964 14.1784 13.2964 14.3662V15.9155Z" fill="#42ADE2"/>
<path d="M5.54006 12.9108C5.54006 13.1455 5.31845 13.2864 5.09685 13.2864H3.26859C2.99158 13.2864 2.82538 13.0986 2.82538 12.9108V11.3615C2.82538 11.1267 3.04698 10.9859 3.26859 10.9859H5.09685C5.37385 10.9859 5.54006 11.1737 5.54006 11.3615V12.9108Z" fill="#FF435E"/>
<path d="M9.41829 12.9108C9.41829 13.1455 9.19669 13.2864 8.97508 13.2864H7.14683C6.86982 13.2864 6.70361 13.0986 6.70361 12.9108V11.3615C6.70361 11.1267 6.92522 10.9859 7.14683 10.9859H8.97508C9.25209 10.9859 9.41829 11.1737 9.41829 11.3615V12.9108Z" fill="#F2B200"/>
<path d="M13.2964 12.9108C13.2964 13.1455 13.0748 13.2864 12.8532 13.2864H11.0249C10.7479 13.2864 10.5817 13.0986 10.5817 12.9108V11.3615C10.5817 11.1267 10.8033 10.9859 11.0249 10.9859H12.8532C13.1302 10.9859 13.2964 11.1737 13.2964 11.3615V12.9108Z" fill="#C7E755"/>
<path d="M17.1745 12.9108C17.1745 13.1455 16.9529 13.2864 16.7312 13.2864H14.903C14.626 13.2864 14.4598 13.0986 14.4598 12.9108V11.3615C14.4598 11.1267 14.6814 10.9859 14.903 10.9859H16.7312C17.0083 10.9859 17.1745 11.1737 17.1745 11.3615V12.9108Z" fill="#F2B200"/>
<path d="M5.54006 9.90608C5.54006 10.1408 5.31845 10.2817 5.09685 10.2817H3.26859C2.99158 10.2817 2.82538 10.0939 2.82538 9.90608V8.35679C2.82538 8.12205 3.04698 7.9812 3.26859 7.9812H5.09685C5.37385 7.9812 5.54006 8.16899 5.54006 8.35679V9.90608Z" fill="#C28FEF"/>
<path d="M9.41829 9.90608C9.41829 10.1408 9.19669 10.2817 8.97508 10.2817H7.14683C6.86982 10.2817 6.70361 10.0939 6.70361 9.90608V8.35679C6.70361 8.12205 6.92522 7.9812 7.14683 7.9812H8.97508C9.25209 7.9812 9.41829 8.16899 9.41829 8.35679V9.90608Z" fill="#42ADE2"/>
<path d="M13.2964 9.90608C13.2964 10.1408 13.0748 10.2817 12.8532 10.2817H11.0249C10.7479 10.2817 10.5817 10.0939 10.5817 9.90608V8.35679C10.5817 8.12205 10.8033 7.9812 11.0249 7.9812H12.8532C13.1302 7.9812 13.2964 8.16899 13.2964 8.35679V9.90608Z" fill="#FF435E"/>
<path d="M17.1745 9.90608C17.1745 10.1408 16.9529 10.2817 16.7312 10.2817H14.903C14.626 10.2817 14.4598 10.0939 14.4598 9.90608V8.35679C14.4598 8.12205 14.6814 7.9812 14.903 7.9812H16.7312C17.0083 7.9812 17.1745 8.16899 17.1745 8.35679V9.90608Z" fill="#C28FEF"/>
</svg>
