<svg width="23" height="22" viewBox="0 0 23 22" fill="none" xmlns="http://www.w3.org/2000/svg">
<path fill-rule="evenodd" clip-rule="evenodd" d="M17.5 3.75C17.5 2.75544 17.1049 1.80161 16.4017 1.09835C15.6984 0.395088 14.7446 0 13.75 0H8.75C7.75544 0 6.80161 0.395088 6.09835 1.09835C5.39509 1.80161 5 2.75544 5 3.75H3.75C2.75544 3.75 1.80161 4.14509 1.09835 4.84835C0.395088 5.55161 0 6.50544 0 7.5V17.5C0 18.4946 0.395088 19.4484 1.09835 20.1517C1.80161 20.8549 2.75544 21.25 3.75 21.25H18.75C19.7446 21.25 20.6984 20.8549 21.4017 20.1517C22.1049 19.4484 22.5 18.4946 22.5 17.5V7.5C22.5 6.50544 22.1049 5.55161 21.4017 4.84835C20.6984 4.14509 19.7446 3.75 18.75 3.75H17.5ZM13.75 2.5H8.75C8.41848 2.5 8.10054 2.6317 7.86612 2.86612C7.6317 3.10054 7.5 3.41848 7.5 3.75H15C15 3.41848 14.8683 3.10054 14.6339 2.86612C14.3995 2.6317 14.0815 2.5 13.75 2.5ZM3.75 6.25H18.75C19.0815 6.25 19.3995 6.3817 19.6339 6.61612C19.8683 6.85054 20 7.16848 20 7.5V17.5C20 17.8315 19.8683 18.1495 19.6339 18.3839C19.3995 18.6183 19.0815 18.75 18.75 18.75H3.75C3.41848 18.75 3.10054 18.6183 2.86612 18.3839C2.6317 18.1495 2.5 17.8315 2.5 17.5V7.5C2.5 7.16848 2.6317 6.85054 2.86612 6.61612C3.10054 6.3817 3.41848 6.25 3.75 6.25Z" fill="black"/>
</svg>
