<svg width="30" height="30" viewBox="0 0 30 30" fill="none" xmlns="http://www.w3.org/2000/svg">
<path d="M24.666 9.7236C24.3467 9.60049 24.0247 9.48643 23.7004 9.38154C23.7548 9.13129 23.805 8.88406 23.8495 8.64118C24.5805 4.65276 24.1027 1.43961 22.4704 0.381683C20.9053 -0.632512 18.3458 0.425017 15.7609 2.95352C15.5061 3.20317 15.257 3.46 15.0138 3.72379C14.851 3.54838 14.6853 3.37637 14.5168 3.20786C11.8077 0.504309 9.09223 -0.635146 7.46168 0.425807C5.89805 1.44316 5.43504 4.46375 6.09316 8.24367C6.15864 8.61803 6.23257 8.99046 6.31488 9.3606C5.93051 9.48336 5.55961 9.61402 5.20465 9.75311C2.0284 10.9978 0 12.9483 0 14.9716C0 17.0612 2.17758 19.1572 5.48578 20.4281C5.75398 20.5307 6.02442 20.6258 6.29684 20.7133C6.20836 21.1119 6.12982 21.5133 6.06129 21.9169C5.43387 25.6312 5.92383 28.5804 7.48324 29.5913C9.09387 30.6353 11.7971 29.5623 14.4293 26.9761C14.6427 26.7659 14.8515 26.5497 15.0553 26.3277C15.3187 26.6133 15.5891 26.8906 15.8663 27.1593C18.416 29.6253 20.9341 30.621 22.492 29.6074C24.1011 28.5604 24.6241 25.3921 23.9452 21.5375C23.8917 21.2355 23.8317 20.9351 23.7653 20.6363C23.9551 20.5731 24.1414 20.5081 24.3231 20.4404C27.7623 19.1597 30 17.0892 30 14.9716C30 12.941 27.9061 10.9773 24.666 9.7236ZM23.9201 19.0732C23.756 19.1341 23.5877 19.193 23.4162 19.2503C23.0365 17.8993 22.5241 16.4629 21.8971 14.9786C22.4954 13.5297 22.9881 12.1116 23.3571 10.7694C23.664 10.8693 23.9618 10.9745 24.2489 11.0855C27.0251 12.1598 28.7184 13.7479 28.7184 14.9716C28.7184 16.275 26.8896 17.9672 23.9201 19.0732ZM22.688 21.8173C22.9882 23.5217 23.031 25.0627 22.8321 26.2675C22.6535 27.3501 22.2942 28.0717 21.8498 28.3608C20.9045 28.9759 18.8827 28.1764 16.7021 26.0674C16.4444 25.8176 16.1928 25.5598 15.9478 25.2943C16.7932 24.2552 17.638 23.0472 18.4625 21.7056C19.9129 21.561 21.283 21.3244 22.5255 21.0016C22.5867 21.2791 22.6411 21.5512 22.688 21.8173ZM10.2277 28.2545C9.30398 28.6211 8.56828 28.6316 8.12355 28.3434C7.17727 27.73 6.78387 25.362 7.32047 22.1856C7.38426 21.8102 7.45729 21.4369 7.53949 21.0661C8.76832 21.3717 10.1285 21.5914 11.5822 21.7239C12.4124 23.0367 13.2816 24.2433 14.1575 25.2999C13.9714 25.5024 13.7808 25.6997 13.586 25.8916C12.422 27.0351 11.2556 27.8465 10.2277 28.2545ZM5.90039 19.0651C4.43754 18.5031 3.22945 17.7728 2.40141 16.9758C1.65727 16.2596 1.28168 15.5485 1.28168 14.9716C1.28168 13.7438 2.91023 12.1777 5.62652 11.1133C5.95617 10.9842 6.30117 10.8624 6.65918 10.7481C7.03465 12.1205 7.52707 13.5555 8.12133 15.0066C7.51934 16.4792 7.01988 17.9371 6.64078 19.3258C6.39212 19.2457 6.14525 19.1588 5.90039 19.0651ZM7.35094 7.96694C6.78715 4.7285 7.16156 2.2856 8.10387 1.67248C9.10746 1.01944 11.3268 1.95052 13.6659 4.28502C13.8185 4.43759 13.9685 4.59326 14.1161 4.75194C13.2444 5.80394 12.3832 7.00161 11.5604 8.30663C10.1495 8.45362 8.79891 8.68965 7.55719 9.0059C7.48068 8.66162 7.41191 8.31524 7.35094 7.96707V7.96694ZM20.2916 11.5585C19.9983 10.9891 19.6941 10.4269 19.3793 9.87218C20.3365 10.0082 21.2536 10.1888 22.1148 10.4096C21.8563 11.341 21.534 12.3148 21.1547 13.3132C20.8774 12.7219 20.5897 12.1369 20.2916 11.5585ZM15.0144 5.78142C15.6055 6.50123 16.1975 7.30482 16.7798 8.17676C15.5986 8.11406 14.4154 8.11379 13.2341 8.17597C13.817 7.31206 14.4141 6.50953 15.0144 5.78142ZM9.70336 11.5684C9.40903 12.1421 9.12664 12.7235 8.85645 13.312C8.48332 12.3172 8.16398 11.3389 7.90324 10.3943C8.75918 10.1791 9.67195 10.0031 10.623 9.86954C10.3047 10.4276 9.99805 10.994 9.70336 11.5683V11.5684ZM10.6504 20.1761C9.66774 20.0529 8.74125 19.886 7.88555 19.6765C8.15039 18.715 8.47676 17.716 8.85797 16.6998C9.12924 17.2888 9.41279 17.8705 9.7084 18.4445C10.0124 19.0346 10.3271 19.6125 10.6504 20.1761ZM15.0498 24.2632C14.4423 23.5267 13.8364 22.7118 13.2448 21.8353C13.8192 21.8606 14.4048 21.8735 15 21.8735C15.6115 21.8735 16.2159 21.8581 16.8109 21.8284C16.2267 22.7206 15.6369 23.5367 15.0498 24.2632ZM21.1668 16.6479C21.5678 17.6753 21.9057 18.6691 22.1741 19.6141C21.3043 19.8372 20.3652 20.0169 19.3757 20.1503C19.6927 19.5853 19.9998 19.0133 20.2966 18.4346C20.5984 17.8464 20.8885 17.2507 21.1668 16.6479ZM19.1865 17.7149C18.7321 18.6022 18.2521 19.4726 17.7473 20.3248C16.833 20.3976 15.9166 20.4338 15 20.4332C14.0664 20.4332 13.1583 20.4006 12.2838 20.3368C11.7659 19.4866 11.2767 18.6146 10.8175 17.7228H10.8176C10.3605 16.8358 9.93347 15.9295 9.53754 15.006C9.93246 14.0823 10.3581 13.1756 10.8137 12.2878L10.8136 12.2879C11.269 11.4 11.7542 10.5317 12.2682 9.68514C13.1604 9.60928 14.0753 9.56976 14.9999 9.56976H15C15.9288 9.56976 16.8449 9.60967 17.7368 9.68607C18.2456 10.5314 18.7278 11.3966 19.1823 12.2802C19.6394 13.166 20.0707 14.0682 20.4756 14.9856C20.0749 15.9123 19.6449 16.8226 19.1865 17.7149ZM21.8303 1.62954C22.8348 2.28073 23.2255 4.9067 22.5943 8.35036C22.554 8.57006 22.5088 8.79384 22.4596 9.02078C21.2148 8.69782 19.8633 8.45771 18.4482 8.30847C17.6239 6.9891 16.7698 5.78958 15.9123 4.75115C16.137 4.50768 16.3671 4.27052 16.6023 4.0399C18.8171 1.8736 20.8871 1.01826 21.8303 1.62954ZM15 11.9606C16.4795 11.9606 17.6789 13.3087 17.6789 14.9716C17.6789 16.6345 16.4795 17.9826 15 17.9826C13.5205 17.9826 12.3211 16.6345 12.3211 14.9716C12.3211 13.3087 13.5205 11.9606 15 11.9606Z" fill="#00D8FF"/>
</svg>
