<svg width="30" height="30" viewBox="0 0 30 30" fill="none" xmlns="http://www.w3.org/2000/svg">
<path d="M15 0C6.71484 0 0 6.23437 0 13.9286C0 17.25 1.25391 20.2902 3.33984 22.6808C2.60742 26.0558 0.158203 29.0625 0.128906 29.096C0 29.25 -0.0351562 29.4777 0.0410156 29.6786C0.117188 29.8795 0.28125 30 0.46875 30C4.35352 30 7.26563 27.8705 8.70703 26.558C10.623 27.3817 12.75 27.8571 15 27.8571C23.2852 27.8571 30 21.6228 30 13.9286C30 6.23437 23.2852 0 15 0ZM7.51172 18.2143H6.79688C6.53906 18.2143 6.32812 17.9732 6.32812 17.6786V16.6071C6.32812 16.3125 6.53906 16.0714 6.79688 16.0714H7.51758C7.86914 16.0714 8.12695 15.8371 8.12695 15.6295C8.12695 15.5424 8.08008 15.4487 8.00391 15.375L6.7207 14.1161C6.22266 13.6339 5.94141 12.9442 5.94141 12.2344C5.94141 10.808 7.05469 9.64955 8.42578 9.64955H9.14062C9.39844 9.64955 9.60938 9.89062 9.60938 10.1853V11.2567C9.60938 11.5513 9.39844 11.7924 9.14062 11.7924H8.41992C8.06836 11.7924 7.81055 12.0268 7.81055 12.2344C7.81055 12.3214 7.85742 12.4152 7.93359 12.4888L9.2168 13.7478C9.71484 14.2299 9.99609 14.9196 9.99609 15.6295C10.002 17.0558 8.88281 18.2143 7.51172 18.2143ZM18.75 17.6786C18.75 17.9732 18.5391 18.2143 18.2812 18.2143H17.3438C17.0859 18.2143 16.875 17.9732 16.875 17.6786V13.1116L15.4219 16.8482C15.252 17.2433 14.7539 17.2433 14.584 16.8482L13.125 13.1116V17.6786C13.125 17.9732 12.9141 18.2143 12.6562 18.2143H11.7188C11.4609 18.2143 11.25 17.9732 11.25 17.6786V10.7143C11.25 10.125 11.6719 9.64286 12.1875 9.64286H13.125C13.4824 9.64286 13.8047 9.87054 13.9629 10.2321L15 12.6027L16.0371 10.2321C16.1953 9.87054 16.5234 9.64286 16.875 9.64286H17.8125C18.3281 9.64286 18.75 10.125 18.75 10.7143V17.6786ZM21.5801 18.2143H20.8594C20.6016 18.2143 20.3906 17.9732 20.3906 17.6786V16.6071C20.3906 16.3125 20.6016 16.0714 20.8594 16.0714H21.5801C21.9316 16.0714 22.1895 15.8371 22.1895 15.6295C22.1895 15.5424 22.1426 15.4487 22.0664 15.375L20.7832 14.1161C20.2852 13.6339 20.0039 12.9442 20.0039 12.2344C20.0039 10.808 21.1172 9.64955 22.4883 9.64955H23.2031C23.4609 9.64955 23.6719 9.89062 23.6719 10.1853V11.2567C23.6719 11.5513 23.4609 11.7924 23.2031 11.7924H22.4824C22.1309 11.7924 21.873 12.0268 21.873 12.2344C21.873 12.3214 21.9199 12.4152 21.9961 12.4888L23.2793 13.7478C23.7773 14.2299 24.0586 14.9196 24.0586 15.6295C24.0645 17.0558 22.9512 18.2143 21.5801 18.2143Z" fill="black"/>
</svg>
