<svg width="342" height="311" viewBox="0 0 342 311" fill="none" xmlns="http://www.w3.org/2000/svg">
<path d="M147.241 219.483C180.105 209.422 201.19 201.802 225.19 201.536C225.19 201.536 259.374 205.665 273.519 201.536C314.879 189.442 318.481 145.399 296.151 112.883C273.028 79.2088 231.413 88.8186 231.413 88.8186C181.604 97.394 148.373 87.9345 130.993 80.0575C117.065 73.763 100.232 76.1057 89.5008 86.52C87.0835 88.7673 85.192 91.462 83.9465 94.4323C68.6605 133.676 86.2663 172.026 92.5467 195.445C94.8665 204.127 114.368 229.544 147.241 219.483Z" stroke="#263238" stroke-linecap="round" stroke-linejoin="round" stroke-dasharray="2 2"/>
<path d="M162.461 57.1427C161.131 71.8358 159.736 86.7322 160.085 101.416C160.905 136.991 164.715 172.451 167.129 207.946C168.572 229.101 173.032 251.459 168.487 272.482C164.234 292.188 147.496 308.455 125.571 309.914C101.439 311.523 84.0031 290.402 86.6341 269.158C88.605 253.245 98.8083 238.543 99.4118 222.506C100.213 200.918 73.3 203.702 55.8073 189.796C35.2215 173.459 14.8998 151.737 8.92116 126.418C7.19547 119.142 6.75226 111.389 9.62842 104.396C22.6513 72.8171 77.9302 64.887 99.4118 91.7271C121.544 119.398 112.821 159.641 149.042 163.416C185.263 167.191 220.814 152.727 255.696 144.55C290.577 136.372 329.476 156.502 323.441 199.256C317.406 242.009 261.061 240.806 234.903 211.208C208.744 181.61 220.814 121.281 226.18 97.3498C229.131 84.2303 236.713 72.4546 243.361 60.7496C248.595 51.52 255.196 41.8838 253.499 30.9833C248.491 -1.15236 191.26 -10.2405 173.862 17.4925C173.843 17.5279 165.007 28.9234 162.461 57.1427Z" stroke="#263238" stroke-linecap="round" stroke-linejoin="round" stroke-dasharray="2 2"/>
<path d="M169.977 186.428C161.158 186.428 152.701 183.144 146.465 177.298C140.23 171.452 136.727 163.523 136.727 155.256C136.727 146.988 140.23 139.06 146.465 133.214C152.701 127.368 161.158 124.084 169.977 124.084C178.795 124.084 187.253 127.368 193.488 133.214C199.724 139.06 203.227 146.988 203.227 155.256C203.227 163.523 199.724 171.452 193.488 177.298C187.253 183.144 178.795 186.428 169.977 186.428Z" fill="#263238" stroke="#263238" stroke-miterlimit="10"/>
<path d="M164.705 174.095H172.806V155.097H178.464L179.058 148.731H172.806V145.089C172.806 143.595 173.126 143.003 174.692 143.003H179.067V136.399H173.466C167.44 136.399 164.724 138.883 164.724 143.639V148.714H160.518V155.159H164.724L164.705 174.095Z" fill="#92E3A9"/>
<path d="M183.009 129.706C186.127 131.102 188.966 132.989 191.402 135.285" stroke="white" stroke-width="0.75" stroke-linecap="round" stroke-linejoin="round"/>
<path d="M151.258 133.026C151.947 132.513 152.673 132.027 153.427 131.558C157.449 129.085 162.043 127.55 166.826 127.079C171.609 126.609 176.443 127.217 180.925 128.853" stroke="white" stroke-width="0.75" stroke-linecap="round" stroke-linejoin="round"/>
<path d="M166.299 183.36C161.943 182.859 157.755 181.473 154.029 179.299C150.302 177.125 147.127 174.214 144.723 170.771V170.771C141.327 165.917 139.605 160.201 139.792 154.398C139.98 148.596 142.067 142.988 145.77 138.335" stroke="white" stroke-width="0.75" stroke-linecap="round" stroke-linejoin="round"/>
<path d="M177.464 182.697C175.5 183.18 173.487 183.475 171.457 183.576" stroke="white" stroke-width="0.75" stroke-linecap="round" stroke-linejoin="round"/>
<path d="M191.402 135.285C192.835 136.637 194.123 138.118 195.249 139.705V139.705C197.427 142.815 198.929 146.297 199.669 149.952C200.409 153.607 200.373 157.363 199.563 161.005C198.753 164.647 197.184 168.104 194.947 171.176C192.71 174.249 189.849 176.878 186.527 178.913C184.345 180.25 181.991 181.319 179.52 182.096" stroke="white" stroke-width="0.75" stroke-linecap="round" stroke-linejoin="round"/>
<path d="M307.75 186.428C298.931 186.428 290.474 183.144 284.238 177.298C278.003 171.452 274.499 163.523 274.499 155.256C274.499 146.988 278.003 139.06 284.238 133.214C290.474 127.368 298.931 124.084 307.75 124.084C316.568 124.084 325.026 127.368 331.261 133.214C337.497 139.06 341 146.988 341 155.256C341 163.523 337.497 171.452 331.261 177.298C325.026 183.144 316.568 186.428 307.75 186.428Z" fill="#263238" stroke="#263238" stroke-miterlimit="10"/>
<path d="M291.935 179.364C288.992 177.668 286.382 175.509 284.222 172.981" stroke="white" stroke-width="0.75" stroke-linecap="round" stroke-linejoin="round"/>
<path d="M323.885 179.214C323.13 179.655 322.357 180.096 321.555 180.458C317.278 182.512 312.538 183.58 307.73 183.572C302.922 183.564 298.186 182.482 293.916 180.414" stroke="white" stroke-width="0.75" stroke-linecap="round" stroke-linejoin="round"/>
<path d="M314.643 127.676C318.918 128.605 322.925 130.4 326.383 132.933C329.841 135.467 332.667 138.678 334.663 142.342V142.342C337.489 147.507 338.553 153.361 337.71 159.111C336.866 164.862 334.156 170.229 329.948 174.487" stroke="white" stroke-width="0.75" stroke-linecap="round" stroke-linejoin="round"/>
<path d="M303.44 127.216C305.451 126.944 307.485 126.865 309.513 126.978" stroke="white" stroke-width="0.75" stroke-linecap="round" stroke-linejoin="round"/>
<path d="M284.222 172.975C282.947 171.48 281.835 169.869 280.902 168.166C279.09 164.857 277.992 161.246 277.67 157.539C277.348 153.832 277.809 150.102 279.026 146.562C280.244 143.022 282.194 139.742 284.765 136.909C287.336 134.077 290.478 131.747 294.01 130.054V130.054C296.329 128.94 298.792 128.111 301.337 127.587" stroke="white" stroke-width="0.75" stroke-linecap="round" stroke-linejoin="round"/>
<path d="M307.75 141.243C312.625 141.243 313.2 141.243 315.124 141.341C316.28 141.354 317.426 141.554 318.509 141.933C319.294 142.22 320.007 142.657 320.603 143.215C321.198 143.773 321.664 144.442 321.97 145.177C322.371 146.194 322.581 147.268 322.593 148.351C322.677 150.119 322.696 150.694 322.696 155.256C322.696 159.818 322.696 160.357 322.593 162.16C322.581 163.244 322.371 164.318 321.97 165.334C321.668 166.072 321.204 166.742 320.608 167.301C320.011 167.86 319.297 168.295 318.509 168.579C317.426 168.957 316.28 169.158 315.124 169.171C313.238 169.251 312.625 169.268 307.75 169.268C302.874 169.268 302.309 169.268 300.385 169.171C299.228 169.158 298.083 168.957 297 168.579C296.211 168.303 295.496 167.869 294.906 167.306C294.321 166.748 293.876 166.074 293.605 165.334C293.204 164.318 292.994 163.244 292.982 162.16C292.888 160.392 292.869 159.818 292.869 155.256C292.869 150.694 292.869 150.155 292.982 148.351C292.994 147.268 293.204 146.194 293.605 145.177C293.896 144.434 294.363 143.763 294.972 143.215C295.559 142.647 296.274 142.209 297.066 141.933C298.149 141.554 299.295 141.354 300.451 141.341C302.337 141.261 302.95 141.243 307.816 141.243H307.75ZM307.816 138.167C302.865 138.167 302.252 138.167 300.272 138.264C298.76 138.294 297.265 138.563 295.849 139.06C294.635 139.492 293.535 140.164 292.624 141.031C291.695 141.886 290.977 142.921 290.521 144.064C289.987 145.39 289.7 146.792 289.672 148.21C289.578 150.031 289.559 150.614 289.559 155.282C289.559 159.95 289.559 160.507 289.672 162.355C289.7 163.775 289.987 165.18 290.521 166.51C290.991 167.644 291.707 168.673 292.624 169.533C293.542 170.393 294.64 171.065 295.849 171.505C297.265 172.001 298.76 172.27 300.272 172.301C302.224 172.38 302.837 172.398 307.816 172.398C312.795 172.398 313.389 172.398 315.36 172.301C316.871 172.269 318.366 172 319.782 171.505C320.992 171.065 322.09 170.393 323.007 169.533C323.925 168.673 324.641 167.644 325.11 166.51C325.644 165.18 325.931 163.775 325.959 162.355C326.053 160.534 326.072 159.95 326.072 155.282C326.072 150.614 326.072 150.057 325.959 148.21C325.932 146.792 325.645 145.39 325.11 144.064C324.655 142.921 323.937 141.886 323.008 141.031C322.096 140.164 320.996 139.492 319.782 139.06C318.366 138.564 316.871 138.295 315.36 138.264C313.408 138.185 312.785 138.167 307.816 138.167Z" fill="#92E3A9"/>
<path d="M307.75 146.477C305.901 146.489 304.097 147.015 302.566 147.987C301.034 148.959 299.844 150.334 299.146 151.939C298.447 153.544 298.271 155.307 298.64 157.006C299.009 158.705 299.906 160.263 301.218 161.485C302.53 162.706 304.198 163.536 306.013 163.87C307.828 164.204 309.707 164.026 311.414 163.36C313.122 162.694 314.58 161.569 315.606 160.127C316.632 158.684 317.18 156.989 317.18 155.256C317.18 152.928 316.193 150.695 314.437 149.048C312.681 147.402 310.299 146.477 307.816 146.477H307.75ZM307.75 161.002C306.547 161.002 305.371 160.668 304.371 160.041C303.37 159.415 302.591 158.524 302.13 157.482C301.67 156.44 301.55 155.294 301.784 154.188C302.019 153.081 302.598 152.065 303.449 151.268C304.3 150.47 305.383 149.927 306.563 149.707C307.743 149.487 308.966 149.6 310.077 150.032C311.189 150.463 312.139 151.194 312.807 152.132C313.475 153.07 313.832 154.172 313.832 155.3C313.833 156.049 313.677 156.791 313.372 157.484C313.066 158.176 312.618 158.805 312.053 159.335C311.488 159.864 310.817 160.284 310.079 160.571C309.34 160.857 308.549 161.003 307.75 161.002Z" fill="#92E3A9"/>
<path d="M319.698 146.129C319.698 146.534 319.569 146.93 319.329 147.266C319.088 147.603 318.747 147.865 318.347 148.02C317.947 148.175 317.507 148.216 317.083 148.137C316.659 148.058 316.269 147.863 315.963 147.577C315.657 147.29 315.448 146.925 315.364 146.528C315.28 146.131 315.323 145.719 315.489 145.345C315.654 144.971 315.935 144.651 316.294 144.426C316.654 144.201 317.077 144.081 317.51 144.081C318.09 144.081 318.646 144.297 319.057 144.681C319.467 145.065 319.698 145.586 319.698 146.129Z" fill="#92E3A9"/>
<path d="M169.977 300.322C161.158 300.322 152.701 297.037 146.465 291.191C140.23 285.346 136.727 277.417 136.727 269.15C136.727 260.881 140.229 252.952 146.465 247.105C152.7 241.257 161.157 237.971 169.977 237.969C178.796 237.971 187.254 241.257 193.489 247.105C199.724 252.952 203.227 260.881 203.227 269.15C203.227 277.417 199.724 285.346 193.488 291.191C187.253 297.037 178.795 300.322 169.977 300.322Z" fill="#263238" stroke="#263238" stroke-miterlimit="10"/>
<path d="M154.314 244.914C157.263 243.23 160.501 242.036 163.885 241.384" stroke="white" stroke-width="0.75" stroke-linecap="round" stroke-linejoin="round"/>
<path d="M139.895 271.651C139.82 270.829 139.782 269.989 139.782 269.15C139.778 264.641 140.924 260.197 143.124 256.188C145.324 252.179 148.513 248.721 152.428 246.102" stroke="white" stroke-width="0.75" stroke-linecap="round" stroke-linejoin="round"/>
<path d="M193.024 287.423C190.194 290.568 186.665 293.095 182.684 294.827C178.703 296.559 174.366 297.454 169.977 297.448C163.789 297.449 157.749 295.669 152.675 292.349C147.6 289.029 143.735 284.329 141.602 278.883" stroke="white" stroke-width="0.75" stroke-linecap="round" stroke-linejoin="round"/>
<path d="M198.569 278.308C197.911 280.108 197.061 281.841 196.032 283.48" stroke="white" stroke-width="0.75" stroke-linecap="round" stroke-linejoin="round"/>
<path d="M163.885 241.447C165.89 241.062 167.931 240.87 169.977 240.872V240.872C177.98 240.872 185.656 243.853 191.315 249.158C196.974 254.464 200.153 261.659 200.153 269.162C200.154 271.606 199.818 274.04 199.153 276.403" stroke="white" stroke-width="0.75" stroke-linecap="round" stroke-linejoin="round"/>
<path d="M34.2786 186.428C29.9097 186.431 25.5829 185.627 21.5456 184.062C17.5082 182.498 13.8394 180.202 10.7488 177.307C7.65822 174.412 5.20649 170.975 3.53373 167.191C1.86098 163.407 0.999998 159.352 1 155.256C0.999998 151.16 1.86098 147.104 3.53373 143.321C5.20649 139.537 7.65822 136.099 10.7488 133.204C13.8394 130.31 17.5082 128.014 21.5456 126.449C25.5829 124.884 29.9097 124.08 34.2786 124.084C43.0971 124.084 51.5545 127.368 57.7901 133.214C64.0258 139.06 67.5289 146.988 67.5289 155.256C67.5289 163.523 64.0258 171.452 57.7901 177.298C51.5545 183.144 43.0971 186.428 34.2786 186.428Z" fill="#263238" stroke="#263238" stroke-miterlimit="10"/>
<path d="M18.587 131.029C21.5356 129.344 24.774 128.149 28.1585 127.499" stroke="white" stroke-width="0.75" stroke-linecap="round" stroke-linejoin="round"/>
<path d="M4.15912 157.767C4.08368 156.936 4.04597 156.105 4.04597 155.256C4.04241 150.747 5.18822 146.304 7.3879 142.295C9.58758 138.286 12.7774 134.827 16.6916 132.208" stroke="white" stroke-width="0.75" stroke-linecap="round" stroke-linejoin="round"/>
<path d="M57.2974 173.556C54.4665 176.692 50.941 179.213 46.9658 180.943C42.9906 182.673 38.6612 183.57 34.2787 183.572C28.089 183.579 22.0466 181.802 16.9708 178.481C11.8951 175.16 8.03139 170.456 5.90369 165.007" stroke="white" stroke-width="0.75" stroke-linecap="round" stroke-linejoin="round"/>
<path d="M62.8328 164.415C62.1807 166.219 61.3306 167.955 60.2961 169.595" stroke="white" stroke-width="0.75" stroke-linecap="round" stroke-linejoin="round"/>
<path d="M28.1586 127.509C30.1631 127.124 32.2042 126.932 34.2504 126.934V126.934C42.2536 126.934 49.929 129.915 55.5881 135.22C61.2472 140.526 64.4265 147.721 64.4265 155.224C64.4283 157.668 64.0923 160.102 63.4269 162.465" stroke="white" stroke-width="0.75" stroke-linecap="round" stroke-linejoin="round"/>
<path d="M16.5312 165.688C19.8546 167.694 23.7247 168.759 27.6776 168.755C41.1719 168.755 48.7914 158.067 48.3388 148.484C49.7583 147.514 50.9842 146.317 51.9599 144.947C50.6341 145.494 49.2297 145.854 47.7918 146.017C49.3087 145.168 50.4422 143.829 50.9792 142.251C49.552 143.041 47.9931 143.6 46.3679 143.904C45.2749 142.811 43.828 142.085 42.251 141.84C40.6739 141.595 39.0548 141.844 37.6439 142.549C36.2331 143.254 35.1093 144.374 34.4464 145.738C33.7835 147.102 33.6185 148.632 33.9768 150.093C31.087 149.957 28.26 149.253 25.6799 148.025C23.0998 146.797 20.8244 145.074 19.0019 142.967C18.0726 144.468 17.7874 146.245 18.2042 147.936C18.621 149.627 19.7086 151.106 21.2463 152.073C20.0895 152.03 18.9608 151.727 17.9552 151.189C17.9325 152.778 18.5024 154.324 19.5665 155.56C20.6306 156.797 22.122 157.646 23.783 157.961C22.7123 158.231 21.5904 158.27 20.5013 158.076C20.9653 159.43 21.8694 160.614 23.0869 161.462C24.3044 162.31 25.7744 162.78 27.2909 162.806C25.7883 163.927 24.0643 164.758 22.2178 165.253C20.3713 165.748 18.4388 165.895 16.5312 165.688Z" fill="#92E3A9"/>
<path d="M169.977 65.3026C161.158 65.3026 152.701 62.0184 146.465 56.1725C140.23 50.3266 136.727 42.3979 136.727 34.1306C136.727 25.8632 140.23 17.9345 146.465 12.0886C152.701 6.24272 161.158 2.95854 169.977 2.95854C178.795 2.95854 187.253 6.24272 193.488 12.0886C199.724 17.9345 203.227 25.8632 203.227 34.1306C203.227 42.3979 199.724 50.3266 193.488 56.1725C187.253 62.0184 178.795 65.3026 169.977 65.3026Z" fill="#263238" stroke="#263238" stroke-miterlimit="10"/>
<path fill-rule="evenodd" clip-rule="evenodd" d="M189.139 33.3703C189.181 28.9154 187.334 24.6272 184.004 21.4489C180.674 18.2706 176.134 16.4627 171.382 16.4229C166.63 16.383 162.056 18.1145 158.666 21.2364C155.276 24.3583 153.347 28.6149 153.305 33.0697C153.305 33.3084 153.305 33.556 153.305 33.7947C153.303 36.8309 154.19 39.8092 155.87 42.4054L152.673 51.3787L162.593 48.417C165.311 49.8193 168.371 50.5359 171.473 50.4967C174.575 50.4576 177.613 49.664 180.289 48.1937C182.966 46.7234 185.19 44.6267 186.743 42.1088C188.295 39.591 189.124 36.7383 189.148 33.83C189.148 33.6974 189.148 33.5118 189.139 33.3703ZM171.222 47.8071C168.278 47.8139 165.397 47.005 162.942 45.482L157.152 47.2501L159.038 42.043C157.187 39.6573 156.196 36.7801 156.209 33.83C156.209 33.3792 156.209 32.946 156.284 32.4774C156.732 29.0238 158.522 25.8459 161.311 23.5512C164.1 21.2566 167.694 20.0062 171.405 20.039C175.116 20.0718 178.683 21.3856 181.426 23.7291C184.169 26.0727 185.894 29.2817 186.272 32.7426C186.31 33.108 186.329 33.4705 186.329 33.83C186.309 37.5636 184.708 41.1369 181.879 43.7645C179.049 46.3921 175.223 47.8589 171.24 47.8424L171.222 47.8071Z" fill="#92E3A9"/>
<path fill-rule="evenodd" clip-rule="evenodd" d="M179.445 37.1628C179.001 36.9594 176.851 35.9693 176.446 35.8367C176.04 35.7041 175.748 35.6333 175.503 36.04C175.258 36.4467 174.362 37.3661 174.117 37.6313C173.871 37.8965 173.598 37.9407 173.174 37.7374C171.879 37.2598 170.685 36.5715 169.647 35.7041C168.684 34.8859 167.861 33.9349 167.204 32.8839C166.959 32.4772 167.204 32.2562 167.402 32.0529C167.6 31.8496 167.836 31.5755 168.063 31.3368L168.223 31.1423C168.317 30.992 168.393 30.8506 168.496 30.6561C168.56 30.5461 168.593 30.4231 168.593 30.298C168.593 30.173 168.56 30.0499 168.496 29.94C168.383 29.7366 167.553 27.721 167.138 26.9076C166.723 26.0943 166.403 26.2269 166.195 26.2269C165.988 26.2269 165.648 26.2269 165.356 26.2269C165.132 26.2311 164.912 26.2788 164.709 26.3671C164.506 26.4553 164.325 26.5822 164.177 26.7397C163.685 27.1765 163.294 27.7047 163.031 28.2907C162.768 28.8767 162.638 29.5076 162.65 30.1433C162.654 30.6167 162.73 31.0871 162.876 31.5401C163.217 32.5617 163.747 33.5192 164.441 34.3691C164.658 34.6343 167.478 38.8955 171.985 40.5576C176.493 42.2196 176.446 41.6361 177.257 41.5654C177.868 41.4571 178.448 41.2286 178.959 40.8949C179.469 40.5611 179.898 40.1298 180.218 39.6293C180.508 39.0194 180.597 38.342 180.472 37.6844C180.18 37.4722 179.888 37.3661 179.445 37.1628Z" fill="#92E3A9"/>
<path d="M154.314 9.89534C157.263 8.21088 160.501 7.01653 163.885 6.36511" stroke="white" stroke-width="0.75" stroke-linecap="round" stroke-linejoin="round"/>
<path d="M139.895 36.6325C139.82 35.8103 139.782 34.9704 139.782 34.1306C139.778 29.6222 140.924 25.1784 143.124 21.1693C145.324 17.1603 148.513 13.7021 152.428 11.0831" stroke="white" stroke-width="0.75" stroke-linecap="round" stroke-linejoin="round"/>
<path d="M193.024 52.4307C190.192 55.5734 186.663 58.0981 182.682 59.8282C178.701 61.5584 174.365 62.4522 169.977 62.4471V62.4471C163.789 62.4481 157.749 60.6682 152.675 57.348C147.6 54.0279 143.735 49.3275 141.602 43.8818" stroke="white" stroke-width="0.75" stroke-linecap="round" stroke-linejoin="round"/>
<path d="M198.569 43.2895C197.909 45.0911 197.059 46.8266 196.032 48.4701" stroke="white" stroke-width="0.75" stroke-linecap="round" stroke-linejoin="round"/>
<path d="M163.885 6.38383C165.89 5.99915 167.931 5.80661 169.977 5.80918V5.80918C177.98 5.80918 185.656 8.78973 191.315 14.0951C196.974 19.4005 200.153 26.5962 200.153 34.0992C200.154 36.5429 199.818 38.9766 199.153 41.3396" stroke="white" stroke-width="0.75" stroke-linecap="round" stroke-linejoin="round"/>
<path d="M239.09 246.718C260.927 246.718 278.63 230.122 278.63 209.649C278.63 189.177 260.927 172.58 239.09 172.58C217.252 172.58 199.549 189.177 199.549 209.649C199.549 230.122 217.252 246.718 239.09 246.718Z" fill="#92E3A9" stroke="#263238" stroke-miterlimit="10"/>
<path opacity="0.3" d="M239.09 246.718C260.927 246.718 278.63 230.122 278.63 209.649C278.63 189.177 260.927 172.58 239.09 172.58C217.252 172.58 199.549 189.177 199.549 209.649C199.549 230.122 217.252 246.718 239.09 246.718Z" fill="white" stroke="#263238" stroke-miterlimit="10"/>
<path d="M239.09 172.584C239.09 172.584 219.088 170.55 215.901 179.824C212.714 189.098 226.161 187.453 224.039 191.759C221.917 196.064 213.072 201.669 216.608 207.999C220.145 214.329 226.51 221.26 219.437 218.944C212.365 216.627 210.601 215.956 212.016 223.249C213.43 230.543 220.852 232.532 232.875 231.533C244.898 230.534 243.833 235.847 250.547 236.51C257.261 237.173 263.985 233.522 263.985 224.239C263.985 214.957 255.856 216.955 263.278 212.313C270.699 207.672 269.294 195.737 267.172 192.095C265.05 188.452 260.807 190.106 260.807 185.464C260.807 180.823 250.604 171.965 239.09 172.584Z" fill="#263238" stroke="#263238" stroke-miterlimit="10"/>
<path d="M228.085 176.908C228.085 176.908 220.682 175.98 220.927 180.373C221.173 184.767 234.016 193.334 246.115 193.572C258.214 193.811 259.44 188.012 257.714 186.854" stroke="white" stroke-width="0.75" stroke-linecap="round" stroke-linejoin="round"/>
<path d="M235.742 180.593C235.742 180.593 229.82 181.283 230.556 185.013C231.291 188.744 234.997 190.565 240.683 192.652" stroke="white" stroke-width="0.75" stroke-linecap="round" stroke-linejoin="round"/>
<path d="M265.362 203.269C265.362 203.269 264.871 209.06 257.224 212.764C249.576 216.468 242.682 222.003 249.283 224.796C255.884 227.59 259.656 230.808 257.186 231.506" stroke="white" stroke-width="0.75" stroke-linecap="round" stroke-linejoin="round"/>
<path d="M227.594 220.394C227.594 220.394 224.633 226.874 220.192 225.698C215.75 224.522 214.26 221.278 217.231 221.278C220.201 221.278 220.437 222.666 220.437 222.666" stroke="white" stroke-width="0.75" stroke-linecap="round" stroke-linejoin="round"/>
<path d="M251.17 193.872C251.17 193.872 257.233 193.783 256.243 199.335C255.253 204.887 249.576 205.356 248.095 209.52" stroke="white" stroke-width="0.75" stroke-linecap="round" stroke-linejoin="round"/>
<path d="M239.09 246.756C247.964 246.766 256.582 243.962 263.542 238.8C260.769 236.881 255.828 233.495 252.952 231.727C248.793 229.128 243.248 221.039 235.846 222.48C229.905 223.647 214.006 230.065 207.952 232.558C211.651 236.987 216.377 240.567 221.772 243.027C227.168 245.487 233.09 246.763 239.09 246.756Z" fill="white" stroke="#263238" stroke-miterlimit="10"/>
<path d="M234.639 221.26C234.639 221.26 223.681 224.239 222.267 232.859C220.852 241.479 231.282 235.264 231.282 235.264C231.282 235.264 236.76 242.805 241.711 240.488C246.662 238.172 247.369 230.207 244.54 224.902C241.711 219.598 234.639 221.26 234.639 221.26Z" fill="white" stroke="#263238" stroke-miterlimit="10"/>
<path d="M234.346 214.93C234.404 217.754 233.994 220.57 233.13 223.276C231.744 227.28 227.227 232.797 231.244 235.272C235.261 237.748 240.41 229.871 241.749 223.258C243.088 216.645 244.059 208.742 244.059 208.742L234.346 214.93Z" fill="white"/>
<g style="mix-blend-mode:multiply" opacity="0.5">
<path d="M233.413 222.392C234.708 222.831 236.052 223.128 237.42 223.276C238.646 223.408 239.137 223.161 239.306 222.869C239.156 224.522 238.58 229.057 236.572 232.399C235.959 233.425 235.459 234.291 235.063 235.051C238.043 233.168 240.825 227.917 241.768 223.285C243.107 216.681 244.04 208.795 244.04 208.795L234.327 214.983C234.374 217.48 234.067 219.971 233.413 222.392Z" fill="#92E3A9"/>
</g>
<path d="M234.346 214.93C234.404 217.754 233.994 220.57 233.13 223.276C231.744 227.28 227.227 232.797 231.244 235.272C235.261 237.748 240.41 229.871 241.749 223.258C243.088 216.645 244.059 208.742 244.059 208.742L234.346 214.93Z" stroke="#263238" stroke-miterlimit="10"/>
<path d="M228.415 189.292C228.415 189.292 225.02 202.553 225.02 207.495C225.02 212.437 229.867 218.484 236.015 218.988C243.861 219.58 246.747 209.696 248.444 204.065C249.915 199.176 250.915 194.95 251.16 193.907C239.231 198.133 228.415 189.292 228.415 189.292Z" fill="white"/>
<g style="mix-blend-mode:multiply" opacity="0.5">
<path d="M251.17 193.872C249.983 194.297 248.754 194.608 247.501 194.8C246.945 198.168 245.238 206.452 241.325 211.544C238.005 215.867 234.45 217.432 232.432 217.998C233.556 218.523 234.774 218.847 236.025 218.953C243.871 219.545 246.756 209.661 248.454 204.03" fill="#92E3A9"/>
</g>
<path d="M228.415 189.292C228.415 189.292 225.02 202.553 225.02 207.495C225.02 212.437 229.867 218.484 236.015 218.988C243.861 219.58 246.747 209.696 248.444 204.065C249.915 199.176 250.915 194.95 251.16 193.907C239.231 198.133 228.415 189.292 228.415 189.292Z" stroke="#263238" stroke-miterlimit="10"/>
<path d="M234.884 198.681C234.452 200.124 233.774 201.491 232.875 202.73C231.649 204.171 229.028 202.872 229.801 203.738C230.228 204.245 230.763 204.665 231.372 204.969C231.98 205.273 232.65 205.456 233.337 205.506" stroke="#263238" stroke-linecap="round" stroke-linejoin="round"/>
<path d="M228.952 208.247C228.952 208.247 231.263 211.422 236.034 209.834" stroke="#263238" stroke-linecap="round" stroke-linejoin="round"/>
<path d="M232.639 197.653C232.498 198.438 232.008 199.021 231.546 198.942C231.084 198.862 230.819 198.174 230.961 197.388C231.102 196.603 231.593 196.029 232.055 196.1C232.517 196.17 232.781 196.868 232.639 197.653Z" fill="#263238"/>
<path d="M240.41 199.73C240.202 200.507 239.674 201.054 239.222 200.948C238.769 200.842 238.562 200.136 238.76 199.36C238.958 198.583 239.486 198.045 239.948 198.142C240.41 198.239 240.608 198.963 240.41 199.73Z" fill="#263238"/>
<path d="M229.48 193.762C229.48 193.762 230.716 191.028 234.412 192.615" stroke="#263238" stroke-linecap="round" stroke-linejoin="round"/>
<path d="M238.712 194.941C238.712 194.941 242.107 193.936 243.031 197.102" stroke="#263238" stroke-linecap="round" stroke-linejoin="round"/>
<path d="M101.449 246.721C123.286 246.721 140.989 230.125 140.989 209.652C140.989 189.18 123.286 172.584 101.449 172.584C79.6113 172.584 61.9086 189.18 61.9086 209.652C61.9086 230.125 79.6113 246.721 101.449 246.721Z" fill="#92E3A9" stroke="#263238" stroke-miterlimit="10"/>
<path opacity="0.3" d="M101.449 246.721C123.286 246.721 140.989 230.125 140.989 209.652C140.989 189.18 123.286 172.584 101.449 172.584C79.6113 172.584 61.9086 189.18 61.9086 209.652C61.9086 230.125 79.6113 246.721 101.449 246.721Z" fill="white" stroke="#263238" stroke-miterlimit="10"/>
<path d="M76.7139 238.535C84.468 244.391 94.295 247.285 104.228 246.64C114.162 245.994 123.468 241.855 130.286 235.051C125.835 229.676 116.716 220.464 106.569 220.464C95.3099 220.464 81.9381 233.062 76.7139 238.535Z" fill="white" stroke="#263238" stroke-miterlimit="10"/>
<path d="M97.0732 217.724C97.0732 217.724 90.3684 218.44 89.7932 223.293C89.218 228.147 93.2352 236.227 93.6218 237.12C94.0084 238.013 102.627 229.942 105.881 229.942C109.134 229.942 117.565 234.247 117.565 234.247C117.565 234.247 114.887 224.186 110.096 220.411C105.306 216.636 98.4028 216.283 97.0732 217.724Z" fill="white" stroke="#263238" stroke-miterlimit="10"/>
<path opacity="0.5" d="M88.2562 199.901C88.2562 199.901 85.38 197.205 83.8523 199.362C82.3247 201.519 83.6543 204.03 85.7384 205.648C87.8224 207.265 91.104 207.416 91.104 206.187C91.104 204.958 88.2562 199.901 88.2562 199.901Z" fill="#92E3A9" stroke="#263238" stroke-miterlimit="10"/>
<path d="M88.2562 199.901C88.2562 199.901 85.38 197.205 83.8523 199.362C82.3247 201.519 83.6543 204.03 85.7384 205.648C87.8224 207.265 91.104 207.416 91.104 206.187C91.104 204.958 88.2562 199.901 88.2562 199.901Z" stroke="#263238" stroke-miterlimit="10"/>
<path d="M112.982 193.651C112.982 193.651 114.321 190.415 116.235 193.828C118.149 197.24 114.509 200.29 114.509 200.29L112.982 193.651Z" fill="white" stroke="#263238" stroke-miterlimit="10"/>
<path d="M91.1323 206.222C91.1323 206.222 94.9609 219.156 95.9228 223.647C96.8847 228.138 101.288 234.609 104.542 232.488C107.795 230.366 107.616 226.379 105.692 222.966C104.426 220.607 103.4 218.142 102.628 215.602L91.1323 206.222Z" fill="white"/>
<g style="mix-blend-mode:multiply" opacity="0.5">
<path d="M105.692 222.931C104.426 220.572 103.4 218.106 102.628 215.567L91.1323 206.222C91.1323 206.222 94.2725 216.831 95.5739 222.135C97.2359 223.352 99.1261 224.267 101.147 224.832C102.894 225.279 104.758 225.08 106.352 224.275C106.163 223.814 105.942 223.365 105.692 222.931Z" fill="#92E3A9"/>
</g>
<path d="M91.1323 206.222C91.1323 206.222 94.9609 219.156 95.9228 223.647C96.8847 228.138 101.288 234.609 104.542 232.488C107.795 230.366 107.616 226.379 105.692 222.966C104.426 220.607 103.4 218.142 102.628 215.602L91.1323 206.222Z" stroke="#263238" stroke-miterlimit="10"/>
<path d="M84.2577 192.749C84.2577 192.749 93.2634 213.082 97.1014 217.724C100.939 222.365 111.246 222.754 115.688 215.956C120.13 209.157 115.113 199.972 114.349 195.834C113.585 191.697 111.52 184.881 112.812 183.626C114.104 182.37 119.517 181.468 117.414 178.233C115.311 174.997 112.237 176.615 111.859 174.281C111.482 171.947 113.387 166.192 106.296 165.299C99.2043 164.406 86.7473 172.301 81.7776 178.41C76.808 184.518 75.2238 190.053 84.2577 192.749Z" fill="#263238" stroke="#263238" stroke-miterlimit="10"/>
<path d="M87.0868 186.64C87.0868 186.64 81.1836 186.225 84.1447 180.903C87.1057 175.581 106.862 168.411 107.107 172.345C107.352 176.279 102.91 177.437 102.91 177.437" stroke="white" stroke-width="0.75" stroke-linecap="round" stroke-linejoin="round"/>
<path d="M95.0268 181.601C95.0268 181.601 90.5853 180.673 92.0658 177.667C93.5463 174.661 104.41 173.247 102.439 175.121C101.27 176.219 99.9397 177.154 98.4877 177.897" stroke="white" stroke-width="0.75" stroke-linecap="round" stroke-linejoin="round"/>
<path d="M109.332 204.967C109.332 204.967 106.079 209.803 100.902 207.473" stroke="white" stroke-width="0.75" stroke-linecap="round" stroke-linejoin="round"/>
<path d="M114.321 195.799C113.604 191.936 111.709 185.703 112.567 183.891C111.992 182.591 110.011 179.559 104.165 179.276C96.6867 178.914 88.6429 182.865 87.1058 186.64C85.5687 190.415 89.2181 188.408 90.5572 191.131C91.8962 193.854 88.4448 197.063 89.2181 199.035C89.9914 201.006 93.6219 208.759 93.6219 208.759C94.1972 206.602 102.826 203.004 102.826 203.004C104.074 203.313 105.366 203.436 106.654 203.367C108.38 203.19 107.418 201.749 107.418 201.749L116.254 202.244C115.5 199.636 114.604 197.364 114.321 195.799Z" fill="white"/>
<g style="mix-blend-mode:multiply" opacity="0.5">
<path d="M93.9142 188.081C93.5559 184.545 91.0852 183.847 89.4444 183.785C88.4256 184.545 87.617 185.525 87.0869 186.64C85.5592 190.415 89.1992 188.408 90.5383 191.131C91.8773 193.854 88.4259 197.063 89.1992 199.035C89.9725 201.006 93.603 208.759 93.603 208.759C93.7916 208.07 94.7912 207.23 96.0737 206.417C94.1877 203.897 91.8867 200.829 90.5854 199.052C88.1336 195.649 94.4706 193.562 93.9142 188.081Z" fill="#92E3A9"/>
</g>
<path d="M114.321 195.799C113.604 191.936 111.709 185.703 112.567 183.891C111.992 182.591 110.011 179.559 104.165 179.276C96.6867 178.914 88.6429 182.865 87.1058 186.64C85.5687 190.415 89.2181 188.408 90.5572 191.131C91.8962 193.854 88.4448 197.063 89.2181 199.035C89.9914 201.006 93.6219 208.759 93.6219 208.759C94.1972 206.602 102.826 203.004 102.826 203.004C104.074 203.313 105.366 203.436 106.654 203.367C108.38 203.19 107.418 201.749 107.418 201.749L116.254 202.244C115.5 199.636 114.604 197.364 114.321 195.799Z" stroke="#263238" stroke-miterlimit="10"/>
<path d="M98.0823 194.93C98.3275 195.927 98.0823 196.836 97.6013 196.942C97.1204 197.048 96.4792 196.324 96.2434 195.318C96.0077 194.312 96.2434 193.412 96.7244 193.306C97.2053 193.2 97.8465 193.924 98.0823 194.93Z" fill="#263238"/>
<path d="M109.493 192.729C109.738 193.735 109.493 194.635 109.012 194.741C108.531 194.847 107.89 194.123 107.644 193.117C107.399 192.111 107.644 191.211 108.135 191.105C108.625 190.999 109.247 191.723 109.493 192.729Z" fill="#263238"/>
<path d="M93.6218 190.225C93.6218 190.225 94.3857 186.28 98.7989 187.895" stroke="#263238" stroke-linecap="round" stroke-linejoin="round"/>
<path d="M110.662 186.101C107.399 184.121 106.249 186.985 106.249 186.985C106.249 186.985 104.183 189.107 105.023 193.023" stroke="#263238" stroke-linecap="round" stroke-linejoin="round"/>
<path d="M94.1971 200.824L99.7514 198.681" stroke="#263238" stroke-width="0.5" stroke-linecap="round" stroke-linejoin="round"/>
<path d="M107.616 197.065L112.208 196.701" stroke="#263238" stroke-width="0.5" stroke-linecap="round" stroke-linejoin="round"/>
<path d="M248.336 130.262C269.568 125.473 282.638 105.454 277.529 85.5501C272.42 65.6457 251.067 53.3928 229.835 58.1825C208.604 62.9721 195.534 82.9905 200.643 102.895C205.752 122.799 227.105 135.052 248.336 130.262Z" fill="#92E3A9" stroke="#263238" stroke-miterlimit="10"/>
<path opacity="0.3" d="M248.336 130.262C269.568 125.473 282.638 105.454 277.529 85.5501C272.42 65.6457 251.067 53.3928 229.835 58.1825C208.604 62.9721 195.534 82.9905 200.643 102.895C205.752 122.799 227.105 135.052 248.336 130.262Z" fill="white" stroke="#263238" stroke-miterlimit="10"/>
<path d="M272.859 86.8433C278.186 73.38 270.383 58.2512 255.431 53.0522C240.48 47.8532 224.041 54.5527 218.714 68.016C213.388 81.4793 221.191 96.6081 236.142 101.807C251.094 107.006 267.533 100.307 272.859 86.8433Z" fill="#263238" stroke="#263238" stroke-miterlimit="10"/>
<path d="M272.651 72.2776C273.958 76.6577 273.873 81.3004 272.406 85.6358" stroke="white" stroke-width="0.75" stroke-linecap="round" stroke-linejoin="round"/>
<path d="M270.652 89.1456C270.652 89.1456 268.898 91.2549 267.898 92.4287" stroke="white" stroke-width="0.75" stroke-linecap="round" stroke-linejoin="round"/>
<path d="M229.65 61.0236C229.65 61.0236 225.652 65.4439 228.151 70.872" stroke="white" stroke-width="0.75" stroke-linecap="round" stroke-linejoin="round"/>
<path d="M239.09 131.298C246.376 131.31 253.522 129.424 259.732 125.852C255.121 121.865 243.116 111.937 237.458 111.503C231.536 111.053 214.251 116.242 208.715 117.966C212.423 122.143 217.067 125.503 222.317 127.807C227.566 130.111 233.293 131.303 239.09 131.298Z" fill="white" stroke="#263238" stroke-miterlimit="10"/>
<path d="M244.927 116.18C245.087 115.738 245.228 115.296 245.379 114.934C242.343 113.042 239.486 111.663 237.458 111.504C234.997 111.48 232.541 111.744 230.15 112.29C229.103 114.943 228.83 117.595 227.981 122.112C226.83 128.221 228.556 130.016 233.347 127.682C238.137 125.348 243.012 121.564 244.927 116.18Z" fill="white" stroke="#263238" stroke-miterlimit="10"/>
<path d="M233.431 104.855C233.431 104.855 234.582 106.836 233.243 111.503C231.904 116.171 228.528 123.88 230.093 125.348C231.659 126.815 241.098 120.132 241.475 115.102C241.852 110.071 241.862 100.011 241.862 100.011L233.431 104.855Z" fill="white"/>
<g style="mix-blend-mode:multiply" opacity="0.5">
<path d="M233.875 107.879L239.929 112.299L239.467 119.372C240.54 118.144 241.234 116.664 241.475 115.093C241.862 110.063 241.862 100.002 241.862 100.002L233.431 104.847C233.841 105.808 233.993 106.849 233.875 107.879Z" fill="#92E3A9"/>
</g>
<path d="M233.431 104.855C233.431 104.855 234.582 106.836 233.243 111.503C231.904 116.171 228.528 123.88 230.093 125.348C231.659 126.815 241.098 120.132 241.475 115.102C241.852 110.071 241.862 100.011 241.862 100.011L233.431 104.855Z" stroke="#263238" stroke-miterlimit="10"/>
<path d="M223.822 82.7626C223.822 82.7626 222.483 79.527 220.758 81.8786C219.032 84.2302 221.135 87.0857 222.097 87.0857C223.059 87.0857 223.822 82.7626 223.822 82.7626Z" fill="white" stroke="#263238" stroke-miterlimit="10"/>
<path d="M228.254 72.3395C228.254 72.3395 222.7 82.577 221.361 89.5876C220.022 96.5982 225.576 107.189 231.131 107.189C236.685 107.189 245.276 99.1089 245.276 99.1089C245.276 99.1089 253.319 99.2858 254.47 96.775C255.62 94.2643 254.281 92.284 252.169 92.284H247.954C247.954 92.284 246.803 92.8232 247.379 87.7929C247.954 82.7626 249.679 80.4287 249.679 80.4287C249.679 80.4287 235.138 81.4984 228.254 72.3395Z" fill="white"/>
<g style="mix-blend-mode:multiply" opacity="0.5">
<path d="M242.984 95.8644C241.819 98.6437 239.902 101.091 237.421 102.965C234.941 104.839 231.984 106.075 228.839 106.553H228.782C229.507 106.95 230.329 107.166 231.168 107.18C236.723 107.18 245.313 99.1001 245.313 99.1001C245.313 99.1001 253.357 99.2769 254.508 96.7662C255.658 94.2554 254.319 92.2751 252.207 92.2751H247.991C247.991 92.2751 246.841 92.8144 247.416 87.7841C247.991 82.7538 249.717 80.4199 249.717 80.4199C249.717 80.4199 248.774 80.4817 247.218 80.4199H247.152" fill="#92E3A9"/>
</g>
<path d="M228.254 72.3395C228.254 72.3395 222.7 82.577 221.361 89.5876C220.022 96.5982 225.576 107.189 231.131 107.189C236.685 107.189 245.276 99.1089 245.276 99.1089C245.276 99.1089 253.319 99.2858 254.47 96.775C255.62 94.2643 254.281 92.284 252.169 92.284H247.954C247.954 92.284 246.803 92.8232 247.379 87.7929C247.954 82.7626 249.679 80.4287 249.679 80.4287C249.679 80.4287 235.138 81.4984 228.254 72.3395Z" stroke="#263238" stroke-miterlimit="10"/>
<path d="M229.273 83.7939C229.047 84.7294 228.575 85.4266 228.226 85.356C227.877 85.2854 227.783 84.4734 228.009 83.5203C228.236 82.5671 228.707 81.8876 229.056 81.9582C229.405 82.0288 229.48 82.8496 229.273 83.7939Z" fill="#263238"/>
<path d="M238.279 87.5599C238.052 88.4954 237.581 89.2014 237.232 89.122C236.883 89.0426 236.789 88.2394 237.015 87.2951C237.241 86.3508 237.713 85.6536 238.062 85.733C238.411 85.8124 238.505 86.6244 238.279 87.5599Z" fill="#263238"/>
<path d="M230.744 86.1751C230.744 86.1751 226.529 89.0483 227.104 89.7644C228.677 91.0328 230.611 91.8438 232.668 92.0983C234.393 92.0983 234.007 90.1269 234.007 90.1269" stroke="#263238" stroke-linecap="round" stroke-linejoin="round"/>
<path d="M227.679 94.4385C229.787 95.5135 232.198 95.9513 234.582 95.6917C235.566 95.6014 236.513 95.2945 237.345 94.7959C238.178 94.2974 238.872 93.6215 239.372 92.8235" stroke="#263238" stroke-linecap="round" stroke-linejoin="round"/>
<path d="M228.066 79.5248C228.066 79.5248 229.216 77.1962 231.517 79.8864" stroke="#263238" stroke-linecap="round" stroke-linejoin="round"/>
<path d="M237.835 82.7624C237.835 82.7624 241.673 81.6856 241.673 85.2688" stroke="#263238" stroke-linecap="round" stroke-linejoin="round"/>
<path d="M107.77 130.79C129.315 127.442 143.929 108.346 140.411 88.1381C136.893 67.9297 116.574 54.2615 95.029 57.6092C73.4835 60.957 58.8695 80.053 62.3877 100.261C65.9059 120.47 86.2241 134.138 107.77 130.79Z" fill="#92E3A9" stroke="#263238" stroke-miterlimit="10"/>
<path opacity="0.3" d="M107.77 130.79C129.315 127.442 143.929 108.346 140.411 88.1381C136.893 67.9297 116.574 54.2615 95.029 57.6092C73.4835 60.957 58.8695 80.053 62.3877 100.261C65.9059 120.47 86.2241 134.138 107.77 130.79Z" fill="white" stroke="#263238" stroke-miterlimit="10"/>
<path d="M74.243 113.029C73.5641 115.566 70.471 115.212 71.414 118.333C77.7323 125.267 86.5565 129.773 96.1973 130.988C105.838 132.203 115.618 130.043 123.666 124.919C126.495 121.781 128.192 118.483 128.268 115.831C128.522 107.733 119.394 101.686 118.904 97.7875C118.413 93.8888 122.355 85.0747 122.355 85.0747C122.355 85.0747 129.258 84.1464 131.729 78.3735C134.199 72.6005 124.807 59.6137 116.414 55.6796C108.021 51.7455 93.9707 55.2199 87.0679 64.697C80.1651 74.1742 88.5484 82.5021 84.1069 86.8958C79.6653 91.2896 68.0758 91.5195 66.8405 100.307C65.6051 109.095 74.9786 110.253 74.243 113.029Z" fill="#263238" stroke="#263238" stroke-miterlimit="10"/>
<path d="M116.442 64.498C116.442 64.498 118.941 70.2356 109.21 73.6216C99.4778 77.0075 91.9715 75.1864 89.4631 81.1803C86.9547 87.1742 88.9067 91.3559 89.1896 94.4412C89.4725 97.5266 81.6456 97.0404 76.9306 100.957C72.2156 104.873 81.6456 109.559 84.1634 112.167C86.6812 114.775 86.106 118.682 81.655 119.991" stroke="white" stroke-width="0.75" stroke-linecap="round" stroke-linejoin="round"/>
<path d="M86.9642 76.4948C86.9642 76.4948 90.5759 68.1492 96.1397 66.8408C101.703 65.5324 107.823 69.4488 111.992 65.7976C116.16 62.1465 115.33 59.5473 112.265 57.461" stroke="white" stroke-width="0.75" stroke-linecap="round" stroke-linejoin="round"/>
<path d="M120.61 67.8841C120.61 67.8841 130.352 73.8868 127.013 78.5812C123.675 83.2756 122.562 77.538 122.562 77.538" stroke="white" stroke-width="0.75" stroke-linecap="round" stroke-linejoin="round"/>
<path d="M80.0048 125.366C87.3913 129.841 96.1593 131.878 104.92 131.154C113.681 130.431 121.934 126.987 128.371 121.37C125.46 118.863 122.373 116.541 119.13 114.421C112.963 110.487 108.031 109.117 104.579 109.329C104.579 109.329 101.864 110.487 96.6865 115.111C93.3106 118.125 85.2008 122.608 80.0048 125.366Z" fill="white" stroke="#263238" stroke-miterlimit="10"/>
<path d="M113.698 115.685C113.701 114.147 113.466 112.616 113.001 111.141C110.389 109.917 107.498 109.31 104.579 109.373C104.579 109.373 102.42 110.257 98.2991 113.793C98.2119 114.447 98.1679 115.106 98.1671 115.765C98.1671 121.838 101.637 126.754 105.928 126.754C110.219 126.754 113.698 121.759 113.698 115.685Z" fill="white" stroke="#263238" stroke-miterlimit="10"/>
<path d="M102.599 97.5355C102.599 97.5355 102.599 104.016 101.864 110.027C101.128 116.039 102.109 122.51 106.795 122.97C111.482 123.43 110.737 113.033 110.247 108.869C109.956 106.256 109.956 103.623 110.247 101.01L102.599 97.5355Z" fill="white"/>
<g style="mix-blend-mode:multiply" opacity="0.5">
<path d="M101.722 111.424L110.049 103.857C110.049 103.618 110.049 103.388 110.049 103.176L108.351 100.214L102.571 97.562C102.571 97.562 102.571 104.042 101.835 110.054C101.807 110.487 101.76 110.956 101.722 111.424Z" fill="#92E3A9"/>
</g>
<path d="M102.599 97.5355C102.599 97.5355 102.599 104.016 101.864 110.027C101.128 116.039 102.109 122.51 106.795 122.97C111.482 123.43 110.737 113.033 110.247 108.869C109.956 106.256 109.956 103.623 110.247 101.01L102.599 97.5355Z" stroke="#263238" stroke-miterlimit="10"/>
<path d="M119.375 68.6356C119.375 68.6356 119.866 71.6414 111.482 75.3456C103.099 79.0498 98.9026 82.0468 98.1671 85.5123C97.4315 88.9778 97.1769 90.3747 97.1769 90.3747C97.1769 90.3747 95.4512 87.1302 92.245 88.748C89.0388 90.3658 91.9998 96.6161 94.9609 96.846C97.9219 97.0759 98.6574 96.1476 98.6574 96.1476C98.6574 96.1476 108.276 105.165 113.944 105.165C119.611 105.165 121.836 100.082 123.072 91.02C124.269 82.3208 119.375 68.6356 119.375 68.6356Z" fill="white"/>
<g style="mix-blend-mode:multiply" opacity="0.5">
<path d="M100.864 87.1831C101.163 84.2709 102.268 81.4825 104.07 79.0939C100.553 81.251 98.6386 83.2843 98.1671 85.5122C97.4221 88.9865 97.1769 90.3745 97.1769 90.3745C97.1769 90.3745 95.4512 87.13 92.245 88.7479C89.0388 90.3657 91.9998 96.616 94.9609 96.8459C97.9219 97.0757 98.6574 96.1475 98.6574 96.1475C98.6574 96.1475 108.276 105.165 113.944 105.165C112.261 104.381 110.679 103.42 109.229 102.301C105.871 100.002 100.591 92.9295 100.864 87.1831Z" fill="#92E3A9"/>
</g>
<path d="M119.375 68.6356C119.375 68.6356 119.866 71.6414 111.482 75.3456C103.099 79.0498 98.9026 82.0468 98.1671 85.5123C97.4315 88.9778 97.1769 90.3747 97.1769 90.3747C97.1769 90.3747 95.4512 87.1302 92.245 88.748C89.0388 90.3658 91.9998 96.6161 94.9609 96.846C97.9219 97.0759 98.6574 96.1476 98.6574 96.1476C98.6574 96.1476 108.276 105.165 113.944 105.165C119.611 105.165 121.836 100.082 123.072 91.02C124.269 82.3208 119.375 68.6356 119.375 68.6356Z" stroke="#263238" stroke-miterlimit="10"/>
<path d="M117.668 82.6655C117.388 83.3823 117.272 84.1461 117.327 84.9076C117.383 85.6691 117.608 86.4113 117.989 87.0859C119.281 89.3579 119.932 90.1093 119.451 90.7193C119.313 90.929 119.132 91.1112 118.919 91.2554C118.706 91.3995 118.464 91.5029 118.209 91.5596C117.953 91.6162 117.688 91.6251 117.428 91.5856C117.169 91.546 116.92 91.459 116.697 91.3294" stroke="#263238" stroke-linecap="round" stroke-linejoin="round"/>
<path d="M116.697 96.7627C116.697 96.7627 111.982 98.4296 110.388 95.2458" stroke="#263238" stroke-linecap="round" stroke-linejoin="round"/>
<path d="M112.01 86.0751C112.01 87.037 111.718 87.8402 111.36 87.8402C111.001 87.8402 110.718 87.0635 110.718 86.0751C110.718 85.0866 111.001 84.31 111.36 84.31C111.718 84.31 112.01 85.1131 112.01 86.0751Z" fill="#263238"/>
<path d="M119.932 85.8422C120.291 85.8422 120.582 85.0638 120.582 84.1036C120.582 83.1434 120.291 82.365 119.932 82.365C119.572 82.365 119.281 83.1434 119.281 84.1036C119.281 85.0638 119.572 85.8422 119.932 85.8422Z" fill="#263238"/>
<path d="M107.324 80.9987C107.324 80.9987 108.267 78.5732 112.171 79.0319" stroke="#263238" stroke-linecap="round" stroke-linejoin="round"/>
<path d="M117.829 78.5696C117.829 78.5696 118.96 76.0027 121.384 78.1197" stroke="#263238" stroke-linecap="round" stroke-linejoin="round"/>
</svg>
