<svg width="30" height="30" viewBox="0 0 30 30" fill="none" xmlns="http://www.w3.org/2000/svg">
<path d="M29.7488 21.4744C29.2857 21.4744 28.9581 21.3865 28.766 21.2107C28.5739 21.035 28.3794 20.6931 28.1823 20.1854L24.5321 9.81438L26.867 3.10547C27.0641 2.57812 27.3325 2.09955 27.6724 1.67C28.0123 1.24045 28.5714 1.02544 29.3498 1.02544V0H25.3153V1.02544C25.6405 1.02544 25.8941 1.18655 26.0764 1.50877C26.2587 1.83099 26.3498 2.18748 26.3498 2.57812C26.3498 2.71483 26.3449 2.84667 26.335 2.97363C26.3252 3.10059 26.2858 3.23243 26.2168 3.36915L24.266 9.05274L22.0493 2.57812L21.9828 2.41701L21.9163 2.08015C21.9163 1.80671 22.01 1.56255 22.1971 1.34778C22.3842 1.133 22.6405 1.02556 22.9656 1.02556V0.000116094H18.2661V1.02556H18.5321C18.9853 1.02556 19.3252 1.10373 19.5518 1.25996C19.7784 1.41619 19.9557 1.68963 20.0838 2.08027L23.2168 11.3673L20.4828 19.3947C20.3547 19.7853 20.1207 20.2296 19.7808 20.7277C19.4409 21.2258 18.8473 21.4749 18 21.4749V22.5002H18.9617C18.7673 24.5607 18.4961 26.1143 18.1478 27.1584C17.7438 28.3694 16.8276 28.9748 15.399 28.9748H13.1822C12.7881 28.9748 12.5591 28.8869 12.495 28.7111C12.431 28.5354 12.399 28.1935 12.399 27.6858V18.8675H13.8325C14.6108 18.8675 15.1083 19.1604 15.3251 19.7464C15.5419 20.3324 15.6502 21.3383 15.6502 22.764H16.0492V13.9749H15.6502C15.6502 15.4006 15.5591 16.4017 15.3768 16.9778C15.1945 17.554 14.6798 17.842 13.8325 17.842H12.399V9.81461C12.399 9.30677 12.431 8.96492 12.495 8.78929C12.559 8.61366 12.7881 8.52561 13.1822 8.52561H15.266C16.5664 8.52561 17.4014 9.02358 17.7708 10.0197C18.1403 11.0159 18.394 12.676 18.5319 15.0002H18.9162L18.399 7.50029H10.8232L10.5665 0.263911H0.266015L0 7.76385H0.384256C0.522185 5.04902 0.748825 3.29121 1.06406 2.49042C1.37929 1.68963 2.15765 1.28923 3.39901 1.28923H4.30053C4.49758 1.28923 4.6133 1.40644 4.64781 1.64073C4.68233 1.87502 4.69955 2.1876 4.69955 2.57823V19.9221C4.69955 20.4299 4.62813 20.8155 4.48528 21.0792C4.34242 21.3429 3.84731 21.4747 3.00005 21.4747H2.21683V22.5001H8.48282V21.4747H7.95079C7.10353 21.4747 6.61087 21.3429 6.473 21.0792C6.33513 20.8155 6.26611 20.4298 6.26611 19.9221V2.57823C6.26611 2.1876 6.27595 1.90928 6.29564 1.74329C6.31533 1.5773 6.38921 1.42595 6.51736 1.28912H7.43364C8.675 1.28912 9.4533 1.68951 9.76859 2.4903C10.0734 3.26461 10.2905 4.93635 10.4203 7.50006H9.13315V8.52538H9.5174C10.1775 8.52538 10.5617 8.62307 10.6701 8.81833C10.7785 9.01359 10.8327 9.43362 10.8327 10.0781V27.4219C10.8327 28.0664 10.7785 28.4864 10.6701 28.6817C10.5618 28.8771 10.1775 28.9747 9.5174 28.9747H9.13315V30H18.7833L19.3554 22.5001H22.1823V21.4747C21.7882 21.4747 21.5148 21.2794 21.3621 20.8887C21.2094 20.4981 21.1331 20.1759 21.1331 19.9219C21.1331 19.7852 21.138 19.6534 21.1479 19.5264C21.1577 19.3995 21.1971 19.2676 21.2661 19.1309L23.6158 12.1582L26.2168 20.1855C26.2168 20.3027 26.2389 20.3711 26.2833 20.3905L26.3498 20.4198C26.3498 20.6932 26.2587 20.9374 26.0764 21.1522C25.8941 21.3669 25.6405 21.4744 25.3153 21.4744V22.4997H30V21.4744H29.7488Z" fill="black"/>
</svg>
