<svg width="32" height="32" viewBox="0 0 32 32" fill="none" xmlns="http://www.w3.org/2000/svg">
<path d="M30.1218 1.47987C30.1218 1.47987 28.5383 3.0435 26.3167 3.325C26.3167 3.325 22.8187 -1.46047 17.8137 2.6997C15.567 4.63865 15.3623 8.73576 15.7454 10.2063C15.7454 10.2063 8.95334 10.8631 3.02909 2.35514C3.02909 2.35514 0.373685 7.9851 4.76586 12.4891C4.76586 12.4891 3.46726 12.7398 2.23363 11.4884C2.23363 11.4884 1.65022 17.3061 6.96164 18.9328C6.96164 18.9328 6.60435 19.6834 4.45944 18.9328C4.45944 18.9328 4.81672 23.6867 9.87259 24.375C9.87259 24.375 7.1412 27.8153 1 27.3777C1 27.3777 11.1491 36.6979 22.1292 25.438C28.2576 19.0574 28.0535 9.86176 27.9512 8.48579C27.9512 8.48579 30.3718 6.23381 31 4.79479C31 4.79479 29.126 5.54545 27.5939 5.54545C27.5939 5.54545 29.6364 4.2318 30.1218 1.47987Z" fill="#61B2E4"/>
<path d="M30.1218 1.47987C30.1218 1.47987 28.5383 3.0435 26.3167 3.325C26.3167 3.325 22.8187 -1.46047 17.8137 2.6997C15.567 4.63865 15.3623 8.73576 15.7454 10.2063C15.7454 10.2063 8.95334 10.8631 3.02909 2.35514C3.02909 2.35514 0.373685 7.9851 4.76586 12.4891C4.76586 12.4891 3.46726 12.7398 2.23363 11.4884C2.23363 11.4884 1.65022 17.3061 6.96164 18.9328C6.96164 18.9328 6.60435 19.6834 4.45944 18.9328C4.45944 18.9328 4.81672 23.6867 9.87259 24.375C9.87259 24.375 7.1412 27.8153 1 27.3777C1 27.3777 11.1491 36.6979 22.1292 25.438C28.2576 19.0574 28.0535 9.86176 27.9512 8.48579C27.9512 8.48579 30.3718 6.23381 31 4.79479C31 4.79479 29.126 5.54545 27.5939 5.54545C27.5939 5.54545 29.6364 4.2318 30.1218 1.47987V1.47987Z" stroke="black" stroke-width="2" stroke-miterlimit="10" stroke-linecap="round" stroke-linejoin="round"/>
</svg>
