<svg width="100" height="45" viewBox="0 0 100 45" fill="none" xmlns="http://www.w3.org/2000/svg">
<path d="M36 0H45L22.5 45L0 0H17.2125L22.5 10.4348L27.675 0H36Z" fill="#41B883"/>
<path d="M0 0L22.5 45L45 0H36L22.5 27L8.8875 0H0Z" fill="#41B883"/>
<path d="M9.00001 0L22.556 27L36 0H27.7096L22.556 10.3846L17.2905 0H9.00001Z" fill="#35495E"/>
<path d="M91.999 14.5854C91.5201 14.4007 91.0371 14.2296 90.5505 14.0723C90.6323 13.6969 90.7075 13.3261 90.7743 12.9618C91.8708 6.97914 91.154 2.15941 88.7055 0.572525C86.358 -0.948768 82.5187 0.637525 78.6413 4.43029C78.2592 4.80475 77.8856 5.19 77.5207 5.58568C77.2765 5.32257 77.028 5.06456 76.7753 4.81179C72.7115 0.756463 68.6383 -0.952719 66.1925 0.638711C63.8471 2.16475 63.1526 6.69563 64.1397 12.3655C64.238 12.927 64.3489 13.4857 64.4723 14.0409C63.8958 14.225 63.3394 14.421 62.807 14.6297C58.0426 16.4967 55 19.4225 55 22.4574C55 25.5919 58.2664 28.7358 63.2287 30.6422C63.631 30.7961 64.0366 30.9387 64.4453 31.0699C64.3125 31.6679 64.1947 32.2699 64.0919 32.8753C63.1508 38.4468 63.8857 42.8706 66.2249 44.3869C68.6408 45.9529 72.6957 44.3435 76.6439 40.4642C76.9641 40.1488 77.2772 39.8245 77.583 39.4915C77.978 39.92 78.3837 40.336 78.7994 40.739C82.624 44.4379 86.4012 45.9315 88.738 44.411C91.1517 42.8406 91.9362 38.0882 90.9177 32.3063C90.8375 31.8533 90.7475 31.4026 90.6479 30.9545C90.9327 30.8597 91.2122 30.7621 91.4846 30.6605C96.6435 28.7396 100 25.6337 100 22.4574C100 19.4115 96.8591 16.4659 91.999 14.5854ZM90.8801 28.6098C90.634 28.7012 90.3816 28.7895 90.1243 28.8755C89.5547 26.849 88.7862 24.6943 87.8456 22.4679C88.7431 20.2946 89.4821 18.1674 90.0357 16.1541C90.496 16.3039 90.9427 16.4617 91.3734 16.6283C95.5376 18.2397 98.0777 20.6218 98.0777 22.4574C98.0777 24.4126 95.3344 26.9508 90.8801 28.6098ZM89.032 32.7259C89.4823 35.2825 89.5465 37.5941 89.2482 39.4012C88.9803 41.0251 88.4413 42.1076 87.7748 42.5412C86.3567 43.4639 83.324 42.2646 80.0532 39.1011C79.6666 38.7264 79.2893 38.3397 78.9217 37.9414C80.1898 36.3828 81.457 34.5709 82.6938 32.5584C84.8693 32.3415 86.9245 31.9866 88.7883 31.5024C88.8801 31.9187 88.9616 32.3268 89.032 32.7259ZM70.3415 42.3818C68.956 42.9316 67.8524 42.9474 67.1853 42.5152C65.7659 41.5951 65.1758 38.043 65.9807 33.2783C66.0764 32.7153 66.1859 32.1554 66.3092 31.5992C68.1525 32.0576 70.1928 32.3871 72.3733 32.5859C73.6186 34.555 74.9223 36.365 76.2363 37.9499C75.9571 38.2536 75.6712 38.5495 75.379 38.8374C73.633 40.5527 71.8834 41.7697 70.3415 42.3818ZM63.8506 28.5977C61.6563 27.7547 59.8442 26.6591 58.6021 25.4636C57.4859 24.3895 56.9225 23.3228 56.9225 22.4574C56.9225 20.6157 59.3654 18.2665 63.4398 16.67C63.9343 16.4764 64.4518 16.2936 64.9888 16.1221C65.552 18.1808 66.2906 20.3333 67.182 22.51C66.279 24.7188 65.5298 26.9057 64.9612 28.9887C64.5882 28.8686 64.2179 28.7382 63.8506 28.5977ZM66.0264 11.9504C65.1807 7.09275 65.7423 3.42841 67.1558 2.50872C68.6612 1.52916 71.9901 2.92579 75.4989 6.42753C75.7277 6.65639 75.9528 6.88989 76.1741 7.12791C74.8666 8.70591 73.5748 10.5024 72.3406 12.4599C70.2242 12.6804 68.1984 13.0345 66.3358 13.5088C66.221 12.9924 66.1179 12.4729 66.0264 11.9506V11.9504ZM85.4374 17.3378C84.9975 16.4836 84.5412 15.6403 84.0689 14.8083C85.5047 15.0124 86.8804 15.2832 88.1722 15.6144C87.7844 17.0116 87.301 18.4722 86.732 19.9698C86.3161 19.0829 85.8845 18.2053 85.4374 17.3378ZM77.5216 8.67212C78.4083 9.75185 79.2963 10.9572 80.1698 12.2651C78.3979 12.1711 76.6231 12.1707 74.8512 12.264C75.7255 10.9681 76.6211 9.76429 77.5216 8.67212ZM69.555 17.3526C69.1135 18.2132 68.69 19.0852 68.2847 19.968C67.725 18.4758 67.246 17.0084 66.8549 15.5914C68.1388 15.2686 69.5079 15.0047 70.9346 14.8043C70.457 15.6414 69.9971 16.491 69.555 17.3524V17.3526ZM70.9755 30.2642C69.5016 30.0793 68.1119 29.829 66.8283 29.5148C67.2256 28.0726 67.7151 26.574 68.287 25.0497C68.6939 25.9332 69.1192 26.8058 69.5626 27.6667C70.0186 28.5519 70.4907 29.4188 70.9755 30.2642ZM77.5747 36.3948C76.6635 35.29 75.7547 34.0676 74.8671 32.753C75.7288 32.7909 76.6072 32.8103 77.5 32.8103C78.4172 32.8103 79.3239 32.7872 80.2163 32.7425C79.3401 34.0809 78.4554 35.305 77.5747 36.3948ZM86.7501 24.9719C87.3517 26.5129 87.8586 28.0036 88.2612 29.4212C86.9565 29.7559 85.5478 30.0253 84.0635 30.2255C84.5391 29.378 84.9997 28.52 85.445 27.6519C85.8977 26.7696 86.3328 25.876 86.7501 24.9719ZM83.7798 26.5724C83.0981 27.9033 82.3782 29.209 81.621 30.4873C80.2495 30.5964 78.875 30.6507 77.5 30.6499C76.0996 30.6499 74.7374 30.6009 73.4257 30.5052C72.6488 29.2299 71.9151 27.922 71.2262 26.5843H71.2264C70.5407 25.2536 69.9002 23.8942 69.3063 22.509C69.8987 21.1234 70.5372 19.7633 71.2206 18.4317L71.2204 18.4319C71.9035 17.0999 72.6313 15.7976 73.4024 14.5277C74.7406 14.4139 76.1129 14.3546 77.4998 14.3546H77.5C78.8932 14.3546 80.2673 14.4145 81.6052 14.5291C82.3685 15.7971 83.0917 17.0949 83.7735 18.4203C84.4591 19.7489 85.1061 21.1024 85.7134 22.4783C85.1123 23.8684 84.4674 25.234 83.7798 26.5724ZM87.7454 2.44431C89.2522 3.4211 89.8383 7.36006 88.8915 12.5255C88.831 12.8551 88.7632 13.1908 88.6894 13.5312C86.8222 13.0467 84.7949 12.6866 82.6724 12.4627C81.4359 10.4836 80.1546 8.68437 78.8685 7.12673C79.2055 6.76152 79.5506 6.40578 79.9035 6.05985C83.2257 2.81041 86.3307 1.52738 87.7454 2.44431ZM77.5 17.9409C79.7192 17.9409 81.5184 19.9631 81.5184 22.4574C81.5184 24.9517 79.7192 26.9739 77.5 26.9739C75.2808 26.9739 73.4816 24.9517 73.4816 22.4574C73.4816 19.9631 75.2808 17.9409 77.5 17.9409Z" fill="#00D8FF"/>
</svg>
