<svg width="308" height="208" viewBox="0 0 308 208" fill="none" xmlns="http://www.w3.org/2000/svg">
<g filter="url(#filter0_d)">
<path d="M304 175.757H4V175.891H304V175.757Z" fill="#EBEBEB"/>
<path d="M273.94 184.395H254.068V184.529H273.94V184.395Z" fill="#EBEBEB"/>
<path d="M202.732 185.855H197.518V185.989H202.732V185.855Z" fill="#EBEBEB"/>
<path d="M253.468 179.413H241.954V179.547H253.468V179.413Z" fill="#EBEBEB"/>
<path d="M61.39 180.315H35.476V180.449H61.39V180.315Z" fill="#EBEBEB"/>
<path d="M70.534 180.315H66.736V180.449H70.534V180.315Z" fill="#EBEBEB"/>
<path d="M139.09 182.58H82.882V182.714H139.09V182.58Z" fill="#EBEBEB"/>
<path d="M146.2 151.814H30.346C29.4384 151.813 28.5685 151.489 27.9273 150.915C27.2861 150.34 26.926 149.561 26.926 148.749V3.03844C26.9339 2.23106 27.2975 1.45908 27.9379 0.890175C28.5782 0.321268 29.4436 0.00138307 30.346 0H146.2C147.109 0 147.98 0.322948 148.623 0.897799C149.265 1.47265 149.626 2.25232 149.626 3.06528V148.749C149.626 149.562 149.265 150.342 148.623 150.917C147.98 151.492 147.109 151.814 146.2 151.814ZM30.346 0.107366C29.4782 0.108788 28.6465 0.418223 28.0334 0.967751C27.4203 1.51728 27.076 2.262 27.076 3.03844V148.749C27.076 149.526 27.4203 150.27 28.0334 150.82C28.6465 151.369 29.4782 151.679 30.346 151.68H146.2C147.068 151.679 147.901 151.37 148.515 150.82C149.129 150.271 149.474 149.526 149.476 148.749V3.03844C149.474 2.2615 149.129 1.5168 148.515 0.967423C147.901 0.418048 147.068 0.108785 146.2 0.107366H30.346Z" fill="#EBEBEB"/>
<path d="M275.986 151.814H160.126C159.218 151.813 158.347 151.49 157.705 150.915C157.063 150.341 156.702 149.562 156.7 148.749V3.03844C156.709 2.23057 157.074 1.4586 157.716 0.889839C158.357 0.32108 159.223 0.00136799 160.126 0H275.986C276.887 0.00279391 277.751 0.323303 278.39 0.892059C279.029 1.46082 279.392 2.23199 279.4 3.03844V148.749C279.4 149.56 279.041 150.338 278.401 150.913C277.761 151.487 276.893 151.812 275.986 151.814ZM160.126 0.107366C159.258 0.108785 158.425 0.418048 157.811 0.967423C157.197 1.5168 156.852 2.2615 156.85 3.03844V148.749C156.852 149.526 157.197 150.271 157.811 150.82C158.425 151.37 159.258 151.679 160.126 151.68H275.986C276.854 151.679 277.687 151.37 278.301 150.82C278.915 150.271 279.26 149.526 279.262 148.749V3.03844C279.26 2.2615 278.915 1.5168 278.301 0.967423C277.687 0.418048 276.854 0.108785 275.986 0.107366H160.126Z" fill="#EBEBEB"/>
<path d="M82.6 174.007H41.158C45.652 170.314 56.23 170.539 56.23 170.539C56.23 170.539 48.892 163.49 51.598 158.965C54.304 154.44 61.552 164.36 61.552 164.36C61.552 164.36 52.438 149.603 55.828 145.926C59.218 142.248 68.332 162.084 68.332 162.084C68.332 162.084 62.794 141.089 66.124 140.493C69.454 139.897 72.934 160.404 72.934 160.404C72.934 160.404 71.734 141.658 74.536 142.195C77.338 142.731 76 167.189 76 167.189C76 167.189 78.82 154.708 80.02 158.691C81.22 162.675 78.82 171.205 78.82 171.205C79.7294 171.157 80.6251 171.42 81.3266 171.94C82.0281 172.46 82.4831 173.199 82.6 174.007Z" fill="#E0E0E0"/>
<path d="M104.344 174.007H158.158C152.326 169.213 138.586 169.508 138.586 169.508C138.586 169.508 148.114 160.345 144.586 154.477C141.058 148.61 131.668 161.456 131.668 161.456C131.668 161.456 143.5 142.291 139.096 137.513C134.692 132.736 122.866 158.503 122.866 158.503C122.866 158.503 130.066 131.238 125.728 130.465C121.39 129.692 116.89 156.318 116.89 156.318C116.89 156.318 118.444 131.979 114.802 132.671C111.16 133.364 112.93 165.133 112.93 165.133C112.93 165.133 109.27 148.926 107.704 154.096C106.138 159.266 109.27 170.346 109.27 170.346C105.682 170.41 104.644 172.616 104.344 174.007Z" fill="#E0E0E0"/>
<path d="M153.688 174.007H195.13C190.636 170.314 180.058 170.539 180.058 170.539C180.058 170.539 187.396 163.49 184.69 158.965C181.984 154.44 174.736 164.36 174.736 164.36C174.736 164.36 183.85 149.603 180.46 145.926C177.07 142.248 167.956 162.084 167.956 162.084C167.956 162.084 173.494 141.089 170.164 140.493C166.834 139.897 163.354 160.404 163.354 160.404C163.354 160.404 164.554 141.658 161.752 142.195C158.95 142.731 160.306 167.189 160.306 167.189C160.306 167.189 157.486 154.708 156.286 158.691C155.086 162.675 157.486 171.205 157.486 171.205C156.574 171.153 155.673 171.414 154.968 171.934C154.263 172.455 153.805 173.196 153.688 174.007Z" fill="#E0E0E0"/>
<path d="M72.754 174.007C70.918 148.776 66.496 84.2119 67.12 56.8982L64.174 56.7211C64.174 56.7211 61.234 139.006 62.842 174.007H72.754Z" fill="#E0E0E0"/>
<path d="M66.334 68.1823L73.9 62.6798L74.656 59.2656L79.198 53.0653L80.176 52.7485L75.694 59.7595L75.514 62.1108L82.324 60.9942L85.174 56.2862L88.18 54.1765L88.63 54.8744L86.068 56.9197L83.968 61.9444L74.644 64.0434L64.918 74.592L66.334 68.1823Z" fill="#E0E0E0"/>
<path d="M64.852 63.0664L64.486 65.3747L56.308 58.3692L51.268 57.478L47.38 55.0784L47.644 54.8476L51.34 56.9519L55.432 57.1237L51.556 52.813L47.74 50.3275L47.998 50.1825L51.826 52.3996L58.126 58.1061L57.502 52.8882L56.044 50.6711L55.9 50.0591L57.736 52.4748L62.524 51.0629L62.926 51.3314L58.012 52.8935L58.9 58.6483L64.852 63.0664Z" fill="#E0E0E0"/>
<path d="M92.074 54.08C92.26 53.1459 90.604 52.4695 88.816 52.3675C87.499 52.2909 86.192 52.1113 84.91 51.8307C85.078 51.4979 84.958 51.0952 85.198 50.5155C85.72 49.2486 85.438 48.395 83.872 47.2945C82.306 46.194 80.728 46.4088 77.272 46.7577C73.816 47.1066 74.32 45.727 71.224 44.401C68.128 43.0751 57.346 43.628 55.36 44.8627C54.16 45.6035 49.51 45.1687 48.22 46.9832C46.93 48.7976 39.304 48.3145 40.312 49.925C41.32 51.5354 42.538 51.573 42.334 54.2196C42.13 56.8661 44.812 55.9804 47.488 56.9735C50.164 57.9666 49.804 56.1038 51.556 55.9857C53.308 55.8676 52.822 55.7066 54.622 54.9604C56.422 54.2142 56.17 55.1537 59.026 56.4367C60.598 57.1453 61.18 56.2864 61.666 55.363C61.96 55.9589 61.63 56.8285 62.218 57.8378C62.692 58.643 64.582 58.8255 66.382 58.6752C68.356 62.025 69.202 59.2121 71.674 59.4697C74.284 59.722 78.208 57.8593 80.044 57.6821C81.88 57.5049 82.006 57.0647 83.902 58.3853C85.798 59.7059 93.988 57.1292 94.762 55.8032C95.536 54.4772 91.888 55.0141 92.074 54.08Z" fill="#E0E0E0"/>
<path d="M125.8 174.007C124.06 149.34 121 101.723 121.462 80.4755L118.942 80.3252C118.942 80.3252 116.752 141.459 117.574 174.007H125.8Z" fill="#E0E0E0"/>
<path d="M120.772 90.1278L127.24 85.4198L127.888 82.4995L131.77 77.201L132.604 76.9272L128.776 82.9182L128.62 84.9367L134.446 83.9758L136.882 79.9549L139.456 78.1458L139.84 78.7417L137.65 80.4918L135.85 84.7917L127.876 86.5847L119.554 95.6034L120.772 90.1278Z" fill="#E0E0E0"/>
<path d="M119.5 85.7527L119.188 87.7228L112.192 81.7319L107.884 80.9696L104.56 78.9189L104.788 78.7203L107.944 80.5186L111.442 80.6689L108.13 76.9809L104.866 74.8551L105.088 74.7316L108.364 76.6266L113.752 81.5064L113.218 77.0454L111.964 75.145L111.844 74.6243L113.416 76.6911L117.514 75.4832L117.856 75.714L113.656 77.0507L114.412 81.9734L119.5 85.7527Z" fill="#E0E0E0"/>
<path d="M142.786 78.0652C142.942 77.2653 141.526 76.6963 140.002 76.5996C138.873 76.5316 137.752 76.3735 136.654 76.1272C136.798 75.8427 136.696 75.4938 136.9 74.9999C137.35 73.9263 137.11 73.1908 135.772 72.246C134.434 71.3012 133.078 71.4891 130.144 71.7951C127.21 72.101 127.624 70.9147 124.972 69.782C122.32 68.6493 113.104 69.1217 111.406 70.1738C110.386 70.8073 106.402 70.4422 105.298 71.9937C104.194 73.5451 97.654 73.1479 98.518 74.4953C99.382 75.8427 100.414 75.9071 100.246 78.1618C100.078 80.4165 102.358 79.6649 104.65 80.5131C106.942 81.3613 106.636 79.7723 108.13 79.6703C109.624 79.5683 109.216 79.4341 110.752 78.7953C112.288 78.1564 112.078 78.9563 114.52 80.0568C115.864 80.6634 116.362 79.928 116.782 79.1603C117.028 79.6703 116.746 80.4165 117.25 81.2754C117.652 81.9679 119.272 82.1236 120.808 81.9948C122.494 84.8614 123.208 82.4672 125.338 82.6765C127.564 82.8912 130.924 81.313 132.496 81.1466C134.068 80.9802 134.17 80.6097 135.796 81.7478C137.422 82.8859 144.424 80.6742 145.084 79.5361C145.744 78.398 142.6 78.8651 142.786 78.0652Z" fill="#E0E0E0"/>
<path d="M105.892 149.404C105.334 145.872 94.828 73.2446 92.446 28.1833H88.51C88.51 28.1833 90.724 119.224 97.318 152.41L105.892 149.404Z" fill="#E6E6E6"/>
<path d="M56.152 174.007H160.63C149.296 168.478 122.632 168.821 122.632 168.821C122.632 168.821 141.13 158.262 134.308 151.498C127.486 144.734 109.222 159.55 109.222 159.55C109.222 159.55 132.19 137.465 123.622 131.957C115.054 126.449 92.104 156.147 92.104 156.147C92.104 156.147 106.054 124.721 97.666 123.83C89.278 122.939 80.5 153.629 80.5 153.629C80.5 153.629 83.5 125.574 76.45 126.374C69.4 127.174 72.808 163.786 72.808 163.786C72.808 163.786 65.704 145.109 62.668 151.063C59.632 157.016 65.716 169.793 65.716 169.793C58.738 169.863 56.728 172.407 56.152 174.007Z" fill="#F0F0F0"/>
<path d="M92.542 43.2629L102.058 35.3339L102.718 30.728L108.142 22.1065L109.408 21.6073L104.146 31.297V34.4428L113.098 32.4082L116.422 25.918L120.208 22.8581L120.874 23.7492L117.67 26.6803L115.384 33.541L103.186 37.0894L91.294 51.9058L92.542 43.2629Z" fill="#E6E6E6"/>
<path d="M90.046 36.5793L89.794 39.6714L78.202 31.0124L71.404 30.2286L65.986 27.3458L66.322 27.0184L71.446 29.52L76.912 29.4287L71.314 23.996L65.986 20.9952L66.322 20.7805L71.638 23.427L80.596 30.5131L79.24 23.6149L77.074 20.7805L76.822 19.9806L79.516 23.0512L85.744 20.7805L86.302 21.1079L79.924 23.5881L81.682 31.1734L90.046 36.5793Z" fill="#E6E6E6"/>
<path d="M125.38 22.4178C125.53 21.1616 123.262 20.4047 120.874 20.4047C119.112 20.3991 117.354 20.259 115.618 19.986C115.804 19.5243 115.618 18.9928 115.864 18.2037C116.434 16.4805 115.978 15.3639 113.776 14.0272C111.574 12.6905 109.498 13.0985 104.968 13.8554C100.438 14.6123 100.942 12.7227 96.682 11.2089C92.422 9.695 78.136 11.3001 75.616 13.0985C74.104 14.1721 67.858 13.9789 66.322 16.502C64.786 19.025 54.562 19.0197 56.062 21.0328C57.562 23.0459 59.2 23.0512 59.2 26.5782C59.2 30.1051 62.668 28.7255 66.334 29.7991C70 30.8728 69.334 28.4571 71.65 28.1565C73.966 27.8558 73.306 27.684 75.628 26.546C77.95 25.4079 77.704 26.6748 81.628 28.1565C83.794 28.9724 84.484 27.786 85.042 26.546C85.486 27.319 85.144 28.5054 86.026 29.7991C86.734 30.8352 89.272 30.9211 91.648 30.5775C94.612 34.8722 95.458 31.1144 98.776 31.211C102.268 31.3345 107.308 28.5644 109.738 28.1565C112.168 27.7485 112.282 27.1794 114.946 28.7792C117.61 30.3789 128.242 26.299 129.136 24.4846C130.03 22.6701 125.23 23.6793 125.38 22.4178Z" fill="#F0F0F0"/>
<path d="M259.6 27.4211C259.6 26.4572 259.172 25.5328 258.41 24.8512C257.648 24.1696 256.615 23.7867 255.538 23.7867C255.143 23.7865 254.751 23.8389 254.374 23.9424C254.552 22.8496 254.465 21.7352 254.12 20.6751C253.774 19.6149 253.177 18.6336 252.37 17.798C251.563 16.9624 250.565 16.2919 249.442 15.8321C248.32 15.3722 247.1 15.1339 245.866 15.1331C245.334 15.1342 244.804 15.1791 244.282 15.2673C243.436 14.0203 242.158 13.0535 240.644 12.5131C239.129 11.9727 237.459 11.8879 235.886 12.2717C234.312 12.6554 232.921 13.4868 231.923 14.6402C230.924 15.7937 230.372 17.2065 230.35 18.6654H230.224C229.297 18.641 228.374 18.7833 227.51 19.0837C226.646 19.3842 225.858 19.8368 225.192 20.4147C224.527 20.9927 223.998 21.6841 223.637 22.4482C223.276 23.2123 223.09 24.0335 223.09 24.8631C223.09 25.6927 223.276 26.5138 223.637 27.2779C223.998 28.042 224.527 28.7335 225.192 29.3114C225.858 29.8893 226.646 30.3419 227.51 30.6424C228.374 30.9429 229.297 31.0851 230.224 31.0607H255.652C256.71 31.0342 257.715 30.6388 258.453 29.9589C259.19 29.2791 259.602 28.3685 259.6 27.4211Z" fill="#F5F5F5"/>
<path d="M171.952 61.3485C171.952 60.8715 171.847 60.3992 171.643 59.9586C171.438 59.5179 171.139 59.1176 170.762 58.7806C170.385 58.4435 169.937 58.1763 169.444 57.9943C168.951 57.8122 168.423 57.7189 167.89 57.7196C167.496 57.7198 167.104 57.7704 166.726 57.8699C166.904 56.7757 166.817 55.66 166.47 54.5987C166.124 53.5373 165.525 52.5553 164.716 51.7194C163.907 50.8835 162.907 50.2133 161.782 49.7545C160.658 49.2957 159.436 49.059 158.2 49.0606C157.669 49.0617 157.138 49.1066 156.616 49.1948C155.764 47.9555 154.485 46.9968 152.972 46.4627C151.46 45.9287 149.794 45.8479 148.225 46.2326C146.657 46.6173 145.27 47.4468 144.273 48.5964C143.276 49.7461 142.723 51.1541 142.696 52.609H142.6C141.673 52.5846 140.75 52.7268 139.886 53.0273C139.022 53.3278 138.234 53.7804 137.568 54.3583C136.903 54.9362 136.374 55.6277 136.013 56.3918C135.652 57.1559 135.466 57.9771 135.466 58.8067C135.466 59.6363 135.652 60.4574 136.013 61.2215C136.374 61.9856 136.903 62.6771 137.568 63.255C138.234 63.8329 139.022 64.2855 139.886 64.586C140.75 64.8865 141.673 65.0287 142.6 65.0043H168.028C169.086 64.9735 170.088 64.574 170.822 63.8909C171.555 63.2079 171.96 62.2955 171.952 61.3485Z" fill="#F5F5F5"/>
<path d="M266.29 106.125C266.29 105.161 265.862 104.237 265.1 103.555C264.338 102.874 263.305 102.491 262.228 102.491C261.833 102.491 261.441 102.543 261.064 102.647C261.242 101.554 261.155 100.439 260.81 99.3792C260.464 98.319 259.867 97.3377 259.06 96.5021C258.253 95.6665 257.255 94.996 256.132 94.5362C255.01 94.0763 253.79 93.838 252.556 93.8372C252.025 93.8383 251.494 93.8832 250.972 93.9714C250.126 92.7244 248.848 91.7576 247.334 91.2172C245.819 90.6768 244.149 90.592 242.576 90.9758C241.002 91.3595 239.611 92.1909 238.613 93.3443C237.614 94.4978 237.062 95.9106 237.04 97.3695H236.914C235.078 97.3695 233.316 98.0222 232.018 99.184C230.719 100.346 229.99 101.921 229.99 103.564C229.99 105.208 230.719 106.783 232.018 107.945C233.316 109.107 235.078 109.759 236.914 109.759H262.342C263.399 109.733 264.404 109.338 265.141 108.66C265.878 107.981 266.29 107.072 266.29 106.125Z" fill="#F5F5F5"/>
<path d="M63.286 89.7305C63.2844 89.1486 63.0254 88.591 62.5655 88.1795C62.1056 87.7681 61.4824 87.5363 60.832 87.5349C60.592 87.5365 60.3536 87.569 60.124 87.6315C60.2314 86.9723 60.1793 86.3002 59.9714 85.6606C59.7634 85.0209 59.4045 84.4287 58.9187 83.9239C58.433 83.419 57.8318 83.0134 57.1557 82.7343C56.4797 82.4552 55.7445 82.3092 55 82.3062C54.6799 82.3056 54.3604 82.3326 54.046 82.3867C53.5297 81.6424 52.7583 81.0673 51.8469 80.7472C50.9355 80.427 49.9329 80.3789 48.9884 80.6101C48.044 80.8413 47.2084 81.3393 46.6061 82.03C46.0037 82.7206 45.667 83.5669 45.646 84.4428H45.568C44.4541 84.4428 43.3858 84.8387 42.5982 85.5434C41.8105 86.2481 41.368 87.2039 41.368 88.2006C41.368 89.1972 41.8105 90.153 42.5982 90.8577C43.3858 91.5624 44.4541 91.9583 45.568 91.9583H60.898C61.5436 91.9429 62.1564 91.7003 62.6034 91.2832C63.0505 90.8662 63.2957 90.3083 63.286 89.7305Z" fill="#F5F5F5"/>
<path d="M193.438 20.7913C193.438 20.4492 193.349 20.1119 193.177 19.8061C193.006 19.5004 192.757 19.2347 192.45 19.0303C192.144 18.8259 191.788 18.6884 191.412 18.6288C191.035 18.5692 190.648 18.5891 190.282 18.6869C190.39 18.0264 190.337 17.3529 190.128 16.7122C189.919 16.0714 189.559 15.4783 189.071 14.9732C188.583 14.4681 187.98 14.0628 187.301 13.7847C186.623 13.5066 185.886 13.3623 185.14 13.3616C184.818 13.3637 184.497 13.3906 184.18 13.4421C183.664 12.6978 182.892 12.1227 181.981 11.8026C181.069 11.4824 180.067 11.4344 179.122 11.6655C178.178 11.8967 177.342 12.3947 176.74 13.0854C176.138 13.776 175.801 14.6224 175.78 15.4982H175.708C174.594 15.4982 173.526 15.8941 172.738 16.5988C171.951 17.3035 171.508 18.2593 171.508 19.256C171.508 20.2526 171.951 21.2084 172.738 21.9131C173.526 22.6178 174.594 23.0138 175.708 23.0138H191.08C191.72 22.9928 192.325 22.7483 192.766 22.3329C193.207 21.9175 193.448 21.364 193.438 20.7913Z" fill="#F5F5F5"/>
<path d="M154 200C218.25 200 270.334 197.279 270.334 193.923C270.334 190.567 218.25 187.846 154 187.846C89.7505 187.846 37.666 190.567 37.666 193.923C37.666 197.279 89.7505 200 154 200Z" fill="#F5F5F5"/>
<path d="M227.35 185.205C227.35 185.205 225.4 185.114 225.208 180.374C225.016 175.633 228.448 174.329 231.088 174.914C231.088 174.914 230.704 171.516 232.414 171.645C234.124 171.774 234.01 174.034 234.01 174.034C234.01 174.034 234.61 169.202 236.932 169.202C239.254 169.202 236.932 174.898 236.932 174.898C236.932 174.898 240.166 173.507 241.354 174.898C242.542 176.288 239.872 177.915 239.872 177.915C239.872 177.915 244.072 179.139 242.308 183.025C242.308 183.025 245.23 183.433 246.046 185.173C246.046 185.173 245.812 181.657 246.868 181.893C247.924 182.129 247.684 185.21 247.684 185.21C247.684 185.21 249.436 181.828 250.954 183.02C252.472 184.212 250.258 187.084 250.258 187.084C250.258 187.084 253.18 185.817 253.642 187.497C254.104 189.177 252.01 189.806 252.01 189.806C252.01 189.806 255.046 189.177 255.046 192.296C255.046 192.296 260.89 191.797 262.294 194.599H227.494L227.35 185.205Z" fill="#407BFF"/>
<path opacity="0.4" d="M227.35 185.205C227.35 185.205 225.4 185.114 225.208 180.374C225.016 175.633 228.448 174.329 231.088 174.914C231.088 174.914 230.704 171.516 232.414 171.645C234.124 171.774 234.01 174.034 234.01 174.034C234.01 174.034 234.61 169.202 236.932 169.202C239.254 169.202 236.932 174.898 236.932 174.898C236.932 174.898 240.166 173.507 241.354 174.898C242.542 176.288 239.872 177.915 239.872 177.915C239.872 177.915 244.072 179.139 242.308 183.025C242.308 183.025 245.23 183.433 246.046 185.173C246.046 185.173 245.812 181.657 246.868 181.893C247.924 182.129 247.684 185.21 247.684 185.21C247.684 185.21 249.436 181.828 250.954 183.02C252.472 184.212 250.258 187.084 250.258 187.084C250.258 187.084 253.18 185.817 253.642 187.497C254.104 189.177 252.01 189.806 252.01 189.806C252.01 189.806 255.046 189.177 255.046 192.296C255.046 192.296 260.89 191.797 262.294 194.599H227.494L227.35 185.205Z" fill="white"/>
<path d="M209.566 136.354C208.726 148.701 204.166 194.331 204.166 194.331L237.112 194.605L227.848 112.154L242.632 108.117L245.734 100.102L258.22 93.7836L264.322 85.3984L261.964 84.8615L255.226 92.6026L247.366 94.1325L250.732 86.9981H247L237.64 103.522L228.04 105.282L227.164 75.2201C217.516 79.2517 214.432 72.536 214.432 72.536C214.432 72.536 211.936 119.594 210.532 123.148C209.11 122.44 207.787 121.584 206.59 120.598C203.334 118.005 200.506 115.012 198.19 111.708L197.59 110.822H194.59L209.566 136.354Z" fill="#407BFF"/>
<g opacity="0.2">
<path opacity="0.2" d="M209.566 136.354C208.726 148.701 204.166 194.331 204.166 194.331L237.112 194.605L227.848 112.154L242.632 108.117L245.734 100.102L258.22 93.7836L264.322 85.3984L261.964 84.8615L255.226 92.6026L247.366 94.1325L250.732 86.9981H247L237.64 103.522L228.04 105.282L227.164 75.2201C217.516 79.2517 214.432 72.536 214.432 72.536C214.432 72.536 211.936 119.594 210.532 123.148C209.11 122.44 207.787 121.584 206.59 120.598C203.334 118.005 200.506 115.012 198.19 111.708L197.59 110.822H194.59L209.566 136.354Z" fill="black"/>
</g>
<path opacity="0.1" d="M244.294 97.8743L240.28 104.799L227.722 107.644C227.722 107.644 227.764 105.878 227.968 103.613L228.022 105.309L237.622 103.549L247 87.025H250.744L247.378 94.1594L255.238 92.6295L261.976 84.8884L262.306 84.9582L257.116 91.9853L244.294 97.8743Z" fill="black"/>
<path d="M226.216 153.833L229.18 194.541L223.954 194.498V162.369L226.216 153.833Z" fill="#407BFF"/>
<path d="M209.566 136.354L194.566 110.849H197.566L198.166 111.735C200.482 115.039 203.31 118.032 206.566 120.625C207.763 121.611 209.086 122.467 210.508 123.175C211.912 119.621 214.408 72.5627 214.408 72.5627C214.892 73.483 215.597 74.2967 216.472 74.9461C217.348 75.5955 218.372 76.0648 219.472 76.3205C219.612 91.5199 219.754 106.719 219.898 121.919C220.96 119.771 221.884 117.683 221.974 115.434C222.292 121.661 222.718 128.355 222.688 134.502L216.916 153.554L215.8 194.428L204.184 194.331C204.184 194.331 208.726 148.701 209.566 136.354Z" fill="#407BFF"/>
<path d="M172.486 56.7211C167.686 58.2564 164.368 62.8033 164.518 67.3717C164.656 69.6595 165.51 71.8666 166.981 73.7419C168.452 75.6172 170.482 77.0854 172.84 77.9794C175.223 78.8184 177.805 79.1015 180.344 78.8019C182.883 78.5023 185.296 77.63 187.354 76.267C187.564 80.6528 190.912 85.4198 195.586 86.7458C197.947 87.3785 200.466 87.3648 202.818 86.7067C205.17 86.0485 207.249 84.7759 208.786 83.0524C221.386 90.1332 265.486 92.7582 273.238 62.6047C274.834 56.3775 270.958 49.7853 265.276 45.9148C259.594 42.0443 252.37 40.4606 245.284 39.6822C238.558 30.0999 223.642 24.8658 211.084 26.3689C198.526 27.8721 187.408 36.3593 183.742 47.1871C170.968 47.2407 172.3 57.4888 172.486 56.7211Z" fill="#407BFF"/>
<g opacity="0.2">
<path opacity="0.2" d="M172.486 56.7211C167.686 58.2564 164.368 62.8033 164.518 67.3717C164.656 69.6595 165.51 71.8666 166.981 73.7419C168.452 75.6172 170.482 77.0854 172.84 77.9794C175.223 78.8184 177.805 79.1015 180.344 78.8019C182.883 78.5023 185.296 77.63 187.354 76.267C187.564 80.6528 190.912 85.4198 195.586 86.7458C197.947 87.3785 200.466 87.3648 202.818 86.7067C205.17 86.0485 207.249 84.7759 208.786 83.0524C221.386 90.1332 265.486 92.7582 273.238 62.6047C274.834 56.3775 270.958 49.7853 265.276 45.9148C259.594 42.0443 252.37 40.4606 245.284 39.6822C238.558 30.0999 223.642 24.8658 211.084 26.3689C198.526 27.8721 187.408 36.3593 183.742 47.1871C170.968 47.2407 172.3 57.4888 172.486 56.7211Z" fill="black"/>
</g>
<path d="M188.044 116.035C188.761 116.985 189.766 117.733 190.94 118.191C192.115 118.649 193.412 118.798 194.678 118.621C195.944 118.443 197.127 117.947 198.089 117.189C199.051 116.432 199.752 115.445 200.11 114.344C203.11 116.223 207.706 115.761 210.73 113.931C212.255 113.007 213.43 111.69 214.097 110.154C214.765 108.618 214.894 106.937 214.467 105.334C214.04 103.731 213.078 102.283 211.709 101.181C210.339 100.08 208.627 99.3773 206.8 99.1679C206.655 97.6722 206.122 96.2274 205.244 94.948C204.366 93.6686 203.167 92.5898 201.742 91.7973C200.249 90.9784 198.57 90.4682 196.828 90.3038C195.086 90.1394 193.325 90.325 191.674 90.8471C189.741 90.5649 187.761 90.6987 185.898 91.2373C184.034 91.776 182.341 92.704 180.958 93.9446C178.936 95.7 177.592 98.1909 177.826 100.703C178.06 103.216 180.112 105.626 182.878 106.104C182.383 107.014 182.103 108.005 182.053 109.016C182.004 110.027 182.186 111.037 182.59 111.982C183.484 113.85 185.896 115.321 188.044 116.035Z" fill="#407BFF"/>
<path opacity="0.2" d="M188.044 116.035C188.761 116.985 189.766 117.733 190.94 118.191C192.115 118.649 193.412 118.798 194.678 118.621C195.944 118.443 197.127 117.947 198.089 117.189C199.051 116.432 199.752 115.445 200.11 114.344C203.11 116.223 207.706 115.761 210.73 113.931C212.255 113.007 213.43 111.69 214.097 110.154C214.765 108.618 214.894 106.937 214.467 105.334C214.04 103.731 213.078 102.283 211.709 101.181C210.339 100.08 208.627 99.3773 206.8 99.1679C206.655 97.6722 206.122 96.2274 205.244 94.948C204.366 93.6686 203.167 92.5898 201.742 91.7973C200.249 90.9784 198.57 90.4682 196.828 90.3038C195.086 90.1394 193.325 90.325 191.674 90.8471C189.741 90.5649 187.761 90.6987 185.898 91.2373C184.034 91.776 182.341 92.704 180.958 93.9446C178.936 95.7 177.592 98.1909 177.826 100.703C178.06 103.216 180.112 105.626 182.878 106.104C182.383 107.014 182.103 108.005 182.053 109.016C182.004 110.027 182.186 111.037 182.59 111.982C183.484 113.85 185.896 115.321 188.044 116.035Z" fill="black"/>
<path d="M251.536 70.4478C250.325 70.0739 249.02 70.0164 247.773 70.282C246.527 70.5477 245.391 71.1255 244.498 71.9478C243.606 72.7701 242.993 73.8029 242.733 74.9253C242.473 76.0476 242.575 77.2132 243.028 78.2854C239.38 78.3874 236.002 81.238 234.814 84.3247C234.214 85.8807 234.157 87.5633 234.651 89.1488C235.146 90.7344 236.168 92.1477 237.582 93.2007C238.996 94.2538 240.735 94.8967 242.567 95.044C244.4 95.1912 246.239 94.8359 247.84 94.0252C248.962 95.1426 250.359 96.0107 251.922 96.5605C253.484 97.1103 255.168 97.3267 256.84 97.1924C258.584 97.0442 260.27 96.55 261.773 95.7458C263.277 94.9417 264.562 93.8477 265.534 92.5435C267.269 91.7334 268.764 90.5656 269.895 89.1365C271.026 87.7074 271.76 86.058 272.038 84.3247C272.476 81.8392 271.882 79.1229 270.004 77.2386C268.126 75.3544 264.874 74.5545 262.342 75.6281C262.123 74.639 261.681 73.7002 261.042 72.8694C260.404 72.0386 259.582 71.3333 258.628 70.7967C256.654 69.7499 253.732 69.868 251.536 70.4478Z" fill="#407BFF"/>
<path opacity="0.1" d="M251.536 70.4478C250.325 70.0739 249.02 70.0164 247.773 70.282C246.527 70.5477 245.391 71.1255 244.498 71.9478C243.606 72.7701 242.993 73.8029 242.733 74.9253C242.473 76.0476 242.575 77.2132 243.028 78.2854C239.38 78.3874 236.002 81.238 234.814 84.3247C234.214 85.8807 234.157 87.5633 234.651 89.1488C235.146 90.7344 236.168 92.1477 237.582 93.2007C238.996 94.2538 240.735 94.8967 242.567 95.044C244.4 95.1912 246.239 94.8359 247.84 94.0252C248.962 95.1426 250.359 96.0107 251.922 96.5605C253.484 97.1103 255.168 97.3267 256.84 97.1924C258.584 97.0442 260.27 96.55 261.773 95.7458C263.277 94.9417 264.562 93.8477 265.534 92.5435C267.269 91.7334 268.764 90.5656 269.895 89.1365C271.026 87.7074 271.76 86.058 272.038 84.3247C272.476 81.8392 271.882 79.1229 270.004 77.2386C268.126 75.3544 264.874 74.5545 262.342 75.6281C262.123 74.639 261.681 73.7002 261.042 72.8694C260.404 72.0386 259.582 71.3333 258.628 70.7967C256.654 69.7499 253.732 69.868 251.536 70.4478Z" fill="black"/>
<path d="M229.27 193.413C229.27 193.413 217.168 186.397 219.466 185.205C221.764 184.013 229.828 191.03 229.828 191.03C229.828 191.03 220.912 179.359 223.114 177.018C225.316 174.678 231.25 186.531 231.25 186.531C231.25 186.531 227.218 172.982 230.05 171.5C232.882 170.018 233.932 185.076 233.932 185.076C233.932 185.076 235.042 168.757 240.262 168.971C245.482 169.186 237.862 185.076 237.862 185.076C237.862 185.076 245.224 175.633 247.834 178.312C250.444 180.991 239.524 188.512 239.524 188.512C239.524 188.512 247.69 185.082 248.236 187.626C248.782 190.171 239.236 192.882 239.236 192.882C239.236 192.882 242.302 193.671 243.016 194.594H226.708C226.708 194.594 226.444 193.902 229.27 193.413Z" fill="#407BFF"/>
<path opacity="0.6" d="M229.27 193.413C229.27 193.413 217.168 186.397 219.466 185.205C221.764 184.013 229.828 191.03 229.828 191.03C229.828 191.03 220.912 179.359 223.114 177.018C225.316 174.678 231.25 186.531 231.25 186.531C231.25 186.531 227.218 172.982 230.05 171.5C232.882 170.018 233.932 185.076 233.932 185.076C233.932 185.076 235.042 168.757 240.262 168.971C245.482 169.186 237.862 185.076 237.862 185.076C237.862 185.076 245.224 175.633 247.834 178.312C250.444 180.991 239.524 188.512 239.524 188.512C239.524 188.512 247.69 185.082 248.236 187.626C248.782 190.171 239.236 192.882 239.236 192.882C239.236 192.882 242.302 193.671 243.016 194.594H226.708C226.708 194.594 226.444 193.902 229.27 193.413Z" fill="white"/>
<path d="M72.802 166.218C72.76 166.024 68.704 147.198 64.744 144.691C60.898 142.264 57.544 145.598 57.424 145.765L56.974 145.416C57.01 145.373 60.808 141.577 65.086 144.283C69.25 146.908 73.222 165.359 73.39 166.142L72.802 166.218Z" fill="#407BFF"/>
<path d="M71.296 167.769C71.296 167.64 69.796 154.697 65.134 150.725C64.006 149.764 62.902 149.388 61.852 149.608C59.356 150.118 57.814 153.731 57.802 153.769L57.238 153.581C57.304 153.42 58.906 149.662 61.714 149.082C62.974 148.824 64.264 149.243 65.548 150.333C70.348 154.445 71.836 167.179 71.896 167.715L71.296 167.769Z" fill="#407BFF"/>
<path d="M68.5 146.752C68.5 146.752 71.212 146.264 71.734 148.363C72.256 150.462 67.222 157.118 67.222 157.118C67.222 157.118 62.65 156.329 62.65 150.95C62.65 145.571 67.6 145.555 68.5 146.752Z" fill="#407BFF"/>
<path opacity="0.2" d="M68.5 146.752C68.5 146.752 71.212 146.264 71.734 148.363C72.256 150.462 67.222 157.118 67.222 157.118C67.222 157.118 62.65 156.329 62.65 150.95C62.65 145.571 67.6 145.555 68.5 146.752Z" fill="white"/>
<path d="M61.498 150.811C61.498 150.811 62.59 149.737 61.156 149.474C59.722 149.211 53.104 150.311 54.07 156.217C54.07 156.217 62.014 156.276 62.578 153.892C63.142 151.509 61.498 150.811 61.498 150.811Z" fill="#407BFF"/>
<path opacity="0.2" d="M61.498 150.811C61.498 150.811 62.59 149.737 61.156 149.474C59.722 149.211 53.104 150.311 54.07 156.217C54.07 156.217 62.014 156.276 62.578 153.892C63.142 151.509 61.498 150.811 61.498 150.811Z" fill="white"/>
<path d="M71.698 140.692C71.698 140.692 71.392 139.618 72.46 139.897C73.528 140.176 77.59 143.043 74.554 146.725C74.554 146.725 69.154 144.202 69.754 142.431C70.354 140.659 71.698 140.692 71.698 140.692Z" fill="#407BFF"/>
<path opacity="0.2" d="M71.698 140.692C71.698 140.692 71.392 139.618 72.46 139.897C73.528 140.176 77.59 143.043 74.554 146.725C74.554 146.725 69.154 144.202 69.754 142.431C70.354 140.659 71.698 140.692 71.698 140.692Z" fill="white"/>
<path d="M171.508 170.077L170.908 169.933C170.98 169.712 177.904 147.665 190.426 141.728L190.708 142.2C178.432 148.035 171.574 169.857 171.508 170.077Z" fill="#407BFF"/>
<path d="M171.622 167.587L171.076 167.361C171.202 167.13 183.148 143.768 179.032 136.349L179.566 136.112C183.814 143.757 172.12 166.62 171.622 167.587Z" fill="#407BFF"/>
<path d="M171.154 169.278L170.554 169.122C170.962 167.909 180.556 139.398 186.694 135.892L187.018 136.343C181.09 139.741 171.25 168.982 171.154 169.278Z" fill="#407BFF"/>
<path d="M181.192 137.267C181.192 137.267 182.992 137.691 183.25 136.73C183.508 135.769 178 131.088 172.45 133.659C172.45 133.659 173.29 138.308 176.842 139.564C180.394 140.82 181.192 137.267 181.192 137.267Z" fill="#407BFF"/>
<path opacity="0.2" d="M181.192 137.267C181.192 137.267 182.992 137.691 183.25 136.73C183.508 135.769 178 131.088 172.45 133.659C172.45 133.659 173.29 138.308 176.842 139.564C180.394 140.82 181.192 137.267 181.192 137.267Z" fill="white"/>
<path d="M185.374 136.091C185.374 136.091 183.526 136.231 183.46 135.221C183.394 134.212 189.73 130.481 194.674 133.879C194.674 133.879 192.934 138.324 189.19 139.027C185.446 139.731 185.374 136.091 185.374 136.091Z" fill="#407BFF"/>
<path opacity="0.2" d="M185.374 136.091C185.374 136.091 183.526 136.231 183.46 135.221C183.394 134.212 189.73 130.481 194.674 133.879C194.674 133.879 192.934 138.324 189.19 139.027C185.446 139.731 185.374 136.091 185.374 136.091Z" fill="white"/>
<path d="M191.236 140.552C191.236 140.552 190.42 139.29 191.878 139.312C193.336 139.333 199.57 141.61 197.248 147.198C197.248 147.198 189.448 145.775 189.448 143.343C189.448 140.912 191.236 140.552 191.236 140.552Z" fill="#407BFF"/>
<path opacity="0.2" d="M191.236 140.552C191.236 140.552 190.42 139.29 191.878 139.312C193.336 139.333 199.57 141.61 197.248 147.198C197.248 147.198 189.448 145.775 189.448 143.343C189.448 140.912 191.236 140.552 191.236 140.552Z" fill="white"/>
<path d="M185.446 143.708C185.446 143.708 185.788 142.635 186.556 143.365C187.324 144.095 189.238 148.379 184.558 150.215C184.558 150.215 181.288 145.62 182.788 144.31C184.288 143 185.446 143.708 185.446 143.708Z" fill="#407BFF"/>
<path opacity="0.2" d="M185.446 143.708C185.446 143.708 185.788 142.635 186.556 143.365C187.324 144.095 189.238 148.379 184.558 150.215C184.558 150.215 181.288 145.62 182.788 144.31C184.288 143 185.446 143.708 185.446 143.708Z" fill="white"/>
<path d="M59.158 144.074C59.158 144.074 59.758 143.086 58.636 143.134C57.514 143.182 52.798 145.051 54.724 149.286C54.724 149.286 60.652 148.035 60.586 146.173C60.52 144.31 59.158 144.074 59.158 144.074Z" fill="#407BFF"/>
<path opacity="0.2" d="M59.158 144.074C59.158 144.074 59.758 143.086 58.636 143.134C57.514 143.182 52.798 145.051 54.724 149.286C54.724 149.286 60.652 148.035 60.586 146.173C60.52 144.31 59.158 144.074 59.158 144.074Z" fill="white"/>
<path d="M164.608 180.658C164.608 180.658 160.648 180.519 160.258 173.374C159.868 166.228 166.858 164.323 172.204 165.198C172.204 165.198 171.418 160.109 174.898 160.296C178.378 160.484 178.138 163.882 178.138 163.882C178.138 163.882 179.338 156.667 184.072 156.662C188.806 156.657 184.072 165.198 184.072 165.198C184.072 165.198 190.642 163.115 193.072 165.198C195.502 167.281 190.072 169.718 190.072 169.718C190.072 169.718 198.586 171.548 195.028 177.378C195.028 177.378 200.962 177.99 202.624 180.599C202.624 180.599 202.15 175.333 204.286 175.687C206.422 176.042 205.942 180.658 205.942 180.658C205.942 180.658 209.506 175.585 212.59 177.378C215.674 179.171 211.168 183.466 211.168 183.466C211.168 183.466 217.102 181.565 218.05 184.083C218.998 186.601 214.726 187.546 214.726 187.546C214.726 187.546 220.9 186.601 220.9 191.277C220.9 191.277 232.768 190.525 235.618 194.723H164.848L164.608 180.658Z" fill="#407BFF"/>
<path opacity="0.4" d="M164.608 180.658C164.608 180.658 160.648 180.519 160.258 173.374C159.868 166.228 166.858 164.323 172.204 165.198C172.204 165.198 171.418 160.109 174.898 160.296C178.378 160.484 178.138 163.882 178.138 163.882C178.138 163.882 179.338 156.667 184.072 156.662C188.806 156.657 184.072 165.198 184.072 165.198C184.072 165.198 190.642 163.115 193.072 165.198C195.502 167.281 190.072 169.718 190.072 169.718C190.072 169.718 198.586 171.548 195.028 177.378C195.028 177.378 200.962 177.99 202.624 180.599C202.624 180.599 202.15 175.333 204.286 175.687C206.422 176.042 205.942 180.658 205.942 180.658C205.942 180.658 209.506 175.585 212.59 177.378C215.674 179.171 211.168 183.466 211.168 183.466C211.168 183.466 217.102 181.565 218.05 184.083C218.998 186.601 214.726 187.546 214.726 187.546C214.726 187.546 220.9 186.601 220.9 191.277C220.9 191.277 232.768 190.525 235.618 194.723H164.848L164.608 180.658Z" fill="white"/>
<path d="M82.036 180.658C82.036 180.658 84.958 180.519 85.246 173.374C85.534 166.228 80.392 164.323 76.432 165.198C76.432 165.198 77.032 160.109 74.446 160.296C71.86 160.484 72.046 163.882 72.046 163.882C72.046 163.882 71.17 156.667 67.666 156.662C64.162 156.657 67.666 165.198 67.666 165.198C67.666 165.198 62.824 163.115 61.066 165.198C59.308 167.281 63.292 169.718 63.292 169.718C63.292 169.718 57.01 171.548 59.638 177.378C59.638 177.378 55.258 177.99 54.034 180.599C54.034 180.599 54.382 175.333 52.834 175.687C51.286 176.042 51.634 180.658 51.634 180.658C51.634 180.658 49.012 175.585 46.732 177.378C44.452 179.171 47.782 183.466 47.782 183.466C47.782 183.466 43.408 181.565 42.706 184.083C42.004 186.601 45.16 187.546 45.16 187.546C45.16 187.546 40.606 186.601 40.606 191.277C40.606 191.277 31.852 190.525 29.746 194.723H81.946L82.036 180.658Z" fill="#407BFF"/>
<path opacity="0.4" d="M82.036 180.658C82.036 180.658 84.958 180.519 85.246 173.374C85.534 166.228 80.392 164.323 76.432 165.198C76.432 165.198 77.032 160.109 74.446 160.296C71.86 160.484 72.046 163.882 72.046 163.882C72.046 163.882 71.17 156.667 67.666 156.662C64.162 156.657 67.666 165.198 67.666 165.198C67.666 165.198 62.824 163.115 61.066 165.198C59.308 167.281 63.292 169.718 63.292 169.718C63.292 169.718 57.01 171.548 59.638 177.378C59.638 177.378 55.258 177.99 54.034 180.599C54.034 180.599 54.382 175.333 52.834 175.687C51.286 176.042 51.634 180.658 51.634 180.658C51.634 180.658 49.012 175.585 46.732 177.378C44.452 179.171 47.782 183.466 47.782 183.466C47.782 183.466 43.408 181.565 42.706 184.083C42.004 186.601 45.16 187.546 45.16 187.546C45.16 187.546 40.606 186.601 40.606 191.277C40.606 191.277 31.852 190.525 29.746 194.723H81.946L82.036 180.658Z" fill="white"/>
<path d="M55.984 193.531C55.984 193.531 68.08 186.515 65.8 185.334C63.52 184.153 55.42 191.153 55.42 191.153C55.42 191.153 64.336 179.483 62.134 177.142C59.932 174.801 53.998 186.655 53.998 186.655C53.998 186.655 58.03 173.105 55.198 171.623C52.366 170.142 51.304 185.205 51.304 185.205C51.304 185.205 50.2 168.88 44.974 169.1C39.748 169.32 47.374 185.205 47.374 185.205C47.374 185.205 40 175.752 37.384 178.436C34.768 181.12 45.688 188.635 45.688 188.635C45.688 188.635 37.522 185.205 37 187.76C36.478 190.316 46 193.016 46 193.016C46 193.016 42.928 193.805 42.22 194.723H58.546C58.546 194.723 58.804 194.025 55.984 193.531Z" fill="#407BFF"/>
<path opacity="0.6" d="M55.984 193.531C55.984 193.531 68.08 186.515 65.8 185.334C63.52 184.153 55.42 191.153 55.42 191.153C55.42 191.153 64.336 179.483 62.134 177.142C59.932 174.801 53.998 186.655 53.998 186.655C53.998 186.655 58.03 173.105 55.198 171.623C52.366 170.142 51.304 185.205 51.304 185.205C51.304 185.205 50.2 168.88 44.974 169.1C39.748 169.32 47.374 185.205 47.374 185.205C47.374 185.205 40 175.752 37.384 178.436C34.768 181.12 45.688 188.635 45.688 188.635C45.688 188.635 37.522 185.205 37 187.76C36.478 190.316 46 193.016 46 193.016C46 193.016 42.928 193.805 42.22 194.723H58.546C58.546 194.723 58.804 194.025 55.984 193.531Z" fill="white"/>
<path d="M62.038 194.723C62.038 194.723 75.958 148.894 78.49 147.198C81.022 145.502 95.464 140.719 95.464 140.719C95.464 140.719 130.594 145.969 135.874 145.448C141.154 144.927 158.122 142.007 160.558 145.448C162.994 148.889 172.6 169.568 172.6 169.568L186.094 174.662L194.644 194.723H62.038Z" fill="#407BFF"/>
<path opacity="0.6" d="M194.644 194.723H62.044C62.044 194.723 75.898 149.093 78.478 147.203C79.3788 146.676 80.3282 146.218 81.316 145.834C86.332 143.746 95.452 140.729 95.452 140.729C95.452 140.729 130.582 145.979 135.862 145.459C141.142 144.938 158.11 142.012 160.546 145.459C161.062 146.194 161.908 147.708 162.916 149.64C166.648 156.753 172.6 169.562 172.6 169.562L186.094 174.662L194.644 194.723Z" fill="white"/>
<path opacity="0.1" d="M162.928 149.63L157.69 154.268L144.04 151.385L128.596 154.257L129.586 159.599L123.964 165.59L125.962 159.599L121.6 153.023C121.6 153.023 103.828 153.989 99.19 153.023C96.28 152.416 87.478 148.583 81.346 145.824C86.362 143.735 95.482 140.719 95.482 140.719C95.482 140.719 130.612 145.969 135.892 145.448C141.172 144.927 158.14 142.002 160.576 145.448C161.074 146.183 161.92 147.697 162.928 149.63Z" fill="black"/>
<path opacity="0.1" d="M194.644 194.723H62.044C62.044 194.723 75.898 149.093 78.478 147.203L69.934 182.763L74.206 188.668L84.706 181.539L92.8 185.533L103.972 183.514L105.082 178.683L120.91 169.369L110.974 177.604L114.472 186.998L129.682 189.344H146.482L153.4 185.205L151.084 176.777L147.586 171.892L165.316 171.854L157.768 176.036L160.552 183.461L169.09 187.004L179.014 181.523L183.058 191.98L194.644 194.723Z" fill="black"/>
<path d="M176.92 194.723H198.898C198.898 194.723 194.524 188.732 192.658 189.494C190.228 190.482 188.428 185.055 185.74 186.338C184.792 186.794 185.26 188.244 184.66 188.829C183.676 189.795 182.422 189.607 181.234 190.139C178.9 191.18 178.072 192.554 176.92 194.723Z" fill="#407BFF"/>
<path opacity="0.2" d="M176.92 194.723H198.898C198.898 194.723 194.524 188.732 192.658 189.494C190.228 190.482 188.428 185.055 185.74 186.338C184.792 186.794 185.26 188.244 184.66 188.829C183.676 189.795 182.422 189.607 181.234 190.139C178.9 191.18 178.072 192.554 176.92 194.723Z" fill="black"/>
<path d="M196.498 193.054C196.498 193.054 195.052 185.565 196.048 184.464C197.044 183.364 197.218 188.55 197.218 188.55C197.218 188.55 200.566 177.727 202.708 177.673C204.85 177.62 200.2 187.063 200.2 187.063C200.2 187.063 209.356 173.674 212.014 174.92C214.672 176.165 202.414 188.034 202.414 188.034C202.414 188.034 209.11 182.875 210.586 184.336C212.062 185.796 203.152 190.241 203.152 190.241C203.152 190.241 207.082 189.451 207.076 190.622C207.07 191.792 200.428 193.719 196.498 193.054Z" fill="#407BFF"/>
<path opacity="0.2" d="M196.498 193.054C196.498 193.054 195.052 185.565 196.048 184.464C197.044 183.364 197.218 188.55 197.218 188.55C197.218 188.55 200.566 177.727 202.708 177.673C204.85 177.62 200.2 187.063 200.2 187.063C200.2 187.063 209.356 173.674 212.014 174.92C214.672 176.165 202.414 188.034 202.414 188.034C202.414 188.034 209.11 182.875 210.586 184.336C212.062 185.796 203.152 190.241 203.152 190.241C203.152 190.241 207.082 189.451 207.076 190.622C207.07 191.792 200.428 193.719 196.498 193.054Z" fill="white"/>
<path d="M195.178 191.985C195.178 191.985 188.296 190.869 187.63 189.87C186.964 188.872 191.488 190.214 191.488 190.214C191.488 190.214 183.088 184.845 183.634 183.342C184.18 181.839 191.032 187.75 191.032 187.75C191.032 187.75 182.032 177.636 183.874 176.143C185.716 174.651 192.508 186.483 192.508 186.483C192.508 186.483 189.94 180.39 191.614 179.778C193.288 179.166 194.614 186.595 194.614 186.595C194.614 186.595 195.04 183.654 196.048 183.987C197.056 184.319 196.864 189.451 195.178 191.985Z" fill="#407BFF"/>
<path opacity="0.2" d="M195.178 191.985C195.178 191.985 188.296 190.869 187.63 189.87C186.964 188.872 191.488 190.214 191.488 190.214C191.488 190.214 183.088 184.845 183.634 183.342C184.18 181.839 191.032 187.75 191.032 187.75C191.032 187.75 182.032 177.636 183.874 176.143C185.716 174.651 192.508 186.483 192.508 186.483C192.508 186.483 189.94 180.39 191.614 179.778C193.288 179.166 194.614 186.595 194.614 186.595C194.614 186.595 195.04 183.654 196.048 183.987C197.056 184.319 196.864 189.451 195.178 191.985Z" fill="white"/>
<path d="M194.662 191.164C194.662 191.164 188.014 185.21 188.134 183.648C188.254 182.086 192.106 186.676 192.106 186.676C192.106 186.676 187.42 174.968 189.322 173.696C191.224 172.423 193.714 183.648 193.714 183.648C193.714 183.648 192.454 166.298 195.754 165.933C199.054 165.568 196.426 183.273 196.426 183.273C196.426 183.273 198.826 174.785 201.19 175.258C203.554 175.73 198.67 184.851 198.67 184.851C198.67 184.851 201.67 181.893 202.492 182.956C203.314 184.019 198.694 189.5 194.662 191.164Z" fill="#407BFF"/>
<path opacity="0.1" d="M194.662 191.164C194.662 191.164 188.014 185.21 188.134 183.648C188.254 182.086 192.106 186.676 192.106 186.676C192.106 186.676 187.42 174.968 189.322 173.696C191.224 172.423 193.714 183.648 193.714 183.648C193.714 183.648 192.454 166.298 195.754 165.933C199.054 165.568 196.426 183.273 196.426 183.273C196.426 183.273 198.826 174.785 201.19 175.258C203.554 175.73 198.67 184.851 198.67 184.851C198.67 184.851 201.67 181.893 202.492 182.956C203.314 184.019 198.694 189.5 194.662 191.164Z" fill="white"/>
<path d="M186.604 194.723H204.118C204.118 194.723 200.632 189.951 199.144 190.557C197.212 191.347 195.778 187.02 193.636 188.045C192.88 188.405 193.246 189.559 192.772 190.026C191.986 190.799 190.972 190.649 190.042 191.073C188.2 191.899 187.522 192.995 186.604 194.723Z" fill="#407BFF"/>
<path d="M77.2 194.723H55.24C55.24 194.723 59.62 188.732 61.486 189.494C63.886 190.482 65.686 185.055 68.398 186.338C69.346 186.794 68.884 188.244 69.484 188.829C70.468 189.795 71.722 189.607 72.91 190.139C75.244 191.18 76.072 192.554 77.2 194.723Z" fill="#407BFF"/>
<path opacity="0.2" d="M77.2 194.723H55.24C55.24 194.723 59.62 188.732 61.486 189.494C63.886 190.482 65.686 185.055 68.398 186.338C69.346 186.794 68.884 188.244 69.484 188.829C70.468 189.795 71.722 189.607 72.91 190.139C75.244 191.18 76.072 192.554 77.2 194.723Z" fill="black"/>
<path d="M57.646 193.054C57.646 193.054 59.086 185.565 58.09 184.464C57.094 183.364 56.89 188.55 56.89 188.55C56.89 188.55 53.572 177.727 51.43 177.69C49.288 177.652 53.974 187.079 53.974 187.079C53.974 187.079 44.8 173.674 42.154 174.92C39.508 176.165 51.754 188.034 51.754 188.034C51.754 188.034 45.052 182.875 43.576 184.336C42.1 185.796 51.016 190.241 51.016 190.241C51.016 190.241 47.086 189.452 47.092 190.622C47.098 191.792 53.71 193.719 57.646 193.054Z" fill="#407BFF"/>
<path opacity="0.2" d="M57.646 193.054C57.646 193.054 59.086 185.565 58.09 184.464C57.094 183.364 56.89 188.55 56.89 188.55C56.89 188.55 53.572 177.727 51.43 177.69C49.288 177.652 53.974 187.079 53.974 187.079C53.974 187.079 44.8 173.674 42.154 174.92C39.508 176.165 51.754 188.034 51.754 188.034C51.754 188.034 45.052 182.875 43.576 184.336C42.1 185.796 51.016 190.241 51.016 190.241C51.016 190.241 47.086 189.452 47.092 190.622C47.098 191.792 53.71 193.719 57.646 193.054Z" fill="white"/>
<path d="M64.39 193.408C64.39 193.408 69.628 189.258 69.622 188.093C69.616 186.928 66.52 190.182 66.52 190.182C66.52 190.182 70.6 181.684 69.256 180.664C67.912 179.644 65.482 187.889 65.482 187.889C65.482 187.889 67.282 175.07 64.882 174.646C62.482 174.222 63.49 187.487 63.49 187.487C63.49 187.487 62.152 181.088 60.37 181.345C58.588 181.603 61.744 188.566 61.744 188.566C61.744 188.566 59.674 186.247 59.002 187.004C58.33 187.76 61.486 192.018 64.39 193.408Z" fill="#407BFF"/>
<path opacity="0.2" d="M64.39 193.408C64.39 193.408 69.628 189.258 69.622 188.093C69.616 186.928 66.52 190.182 66.52 190.182C66.52 190.182 70.6 181.684 69.256 180.664C67.912 179.644 65.482 187.889 65.482 187.889C65.482 187.889 67.282 175.07 64.882 174.646C62.482 174.222 63.49 187.487 63.49 187.487C63.49 187.487 62.152 181.088 60.37 181.345C58.588 181.603 61.744 188.566 61.744 188.566C61.744 188.566 59.674 186.247 59.002 187.004C58.33 187.76 61.486 192.018 64.39 193.408Z" fill="white"/>
<path d="M67.54 194.723H50.02C50.02 194.723 53.512 189.951 55 190.557C56.932 191.347 58.366 187.02 60.508 188.045C61.264 188.405 60.892 189.559 61.366 190.026C62.152 190.799 63.166 190.649 64.102 191.073C65.962 191.899 66.622 192.995 67.54 194.723Z" fill="#407BFF"/>
<path d="M108.922 91.7972C108.922 91.7972 88.75 88.9842 84.922 90.4605C81.094 91.9368 79.804 97.246 79.804 97.246C79.804 97.246 79.114 98.3196 81.202 98.4592C81.202 98.4592 72.664 117.49 75.364 121.135C78.064 124.78 105.256 126.24 108.964 124.452C112.672 122.665 121.474 93.1554 108.922 91.7972Z" fill="#263238"/>
<path d="M120.802 109.953C120.802 109.953 123.472 115.498 124.072 116.271C124.672 117.044 137.962 122.509 137.962 122.509C139.039 122.375 140.131 122.375 141.208 122.509C142.846 122.74 145.102 123.357 145.306 123.583C145.51 123.808 142.84 127.282 142.84 127.282C142.84 127.282 137.53 127.577 136.84 125.698C136.84 125.698 123.526 121.274 121.978 120.115C120.43 118.955 116.122 112.105 116.122 112.105L120.802 109.953Z" fill="#E4897B"/>
<path d="M116.98 97.8097C119.476 99.141 123.382 113.474 124.222 115.176C125.062 116.878 135.262 121.017 135.262 121.017L130.738 124.893C130.738 124.893 120.4 120.786 119.116 119.637C117.832 118.488 112.672 106.576 112.672 106.576L116.98 97.8097Z" fill="#407BFF"/>
<path d="M116.152 130.567C116.152 130.567 158.224 125.161 160.444 133.417C162.79 142.151 129.01 148.04 108.844 148.658C88.678 149.275 82.846 145.308 86.086 122.987L113.326 122.928L116.152 130.567Z" fill="#263238"/>
<path opacity="0.2" d="M116.152 130.567C116.152 130.567 158.224 125.161 160.444 133.417C162.79 142.151 129.01 148.04 108.844 148.658C88.678 149.275 82.846 145.308 86.086 122.987L113.326 122.928L116.152 130.567Z" fill="black"/>
<path d="M154.15 143.365C154.128 143.379 154.102 143.387 154.075 143.387C154.048 143.387 154.022 143.379 154 143.365C153.98 143.353 153.966 143.335 153.959 143.314C153.953 143.294 153.954 143.272 153.964 143.252C154.03 143.053 154.696 141.314 155.374 141.132C155.446 141.116 155.521 141.118 155.591 141.137C155.662 141.156 155.725 141.191 155.776 141.239C155.87 141.309 155.942 141.4 155.985 141.502C156.027 141.605 156.038 141.716 156.016 141.824C155.907 142.149 155.687 142.434 155.386 142.64C155.002 142.918 154.588 143.161 154.15 143.365ZM154.318 143.032C154.947 142.785 155.458 142.345 155.758 141.792C155.776 141.718 155.769 141.642 155.739 141.571C155.71 141.501 155.658 141.439 155.59 141.395C155.571 141.374 155.545 141.358 155.516 141.351C155.488 141.343 155.457 141.343 155.428 141.352C155.371 141.373 155.319 141.402 155.272 141.438C154.85 141.914 154.527 142.454 154.318 143.032Z" fill="#407BFF"/>
<path d="M154.114 143.392C154.092 143.398 154.068 143.398 154.046 143.392C154.023 143.387 154.003 143.375 153.988 143.359C153.922 143.306 152.992 142.254 153.142 141.545C153.183 141.368 153.299 141.212 153.466 141.11C153.536 141.048 153.628 141.009 153.726 141.001C153.825 140.992 153.923 141.013 154.006 141.062C154.492 141.373 154.432 142.78 154.192 143.316V143.37L154.114 143.392ZM153.58 141.325C153.497 141.391 153.44 141.48 153.418 141.577C153.322 142.028 153.79 142.704 154.018 143.027C154.174 142.425 154.126 141.416 153.838 141.26C153.808 141.26 153.748 141.201 153.604 141.293L153.556 141.325H153.58Z" fill="#407BFF"/>
<path d="M139.576 147.788L148.396 147.794L152.626 147.799L153.13 143.81L149.218 143.343L139.654 142.2L139.576 147.788Z" fill="#E4897B"/>
<path d="M152.2 143.333L151.126 147.88C151.113 147.939 151.113 148.001 151.127 148.06C151.141 148.119 151.168 148.176 151.207 148.226C151.245 148.276 151.295 148.318 151.352 148.351C151.409 148.384 151.473 148.406 151.54 148.416L154.072 148.824C154.072 148.824 157.438 149.592 158.386 149.05C161.146 147.472 163.786 137.46 162.682 136.703C162.274 136.434 161.56 136.842 161.206 137.17C160.072 138.206 157.654 141.094 156.694 141.953C155.578 142.951 153.592 142.978 152.722 142.941C152.596 142.937 152.473 142.975 152.377 143.047C152.281 143.12 152.218 143.221 152.2 143.333Z" fill="#263238"/>
<path opacity="0.2" d="M139.576 147.788L148.396 147.794L149.218 143.343L139.654 142.2L139.576 147.788Z" fill="black"/>
<path d="M106.27 130.293V131.292C106.271 131.624 106.415 131.943 106.672 132.183C106.929 132.423 107.279 132.565 107.65 132.58H148.684C149.066 132.569 149.429 132.43 149.703 132.192C149.977 131.954 150.142 131.633 150.166 131.292V130.293H106.27Z" fill="#263238"/>
<path opacity="0.2" d="M106.27 130.293V131.292C106.271 131.624 106.415 131.943 106.672 132.183C106.929 132.423 107.279 132.565 107.65 132.58H148.684C149.066 132.569 149.429 132.43 149.703 132.192C149.977 131.954 150.142 131.633 150.166 131.292V130.293H106.27Z" fill="white"/>
<path opacity="0.2" d="M121.6 130.293V131.292C121.603 131.624 121.748 131.943 122.006 132.183C122.264 132.423 122.615 132.565 122.986 132.58H148.702C149.084 132.569 149.447 132.43 149.721 132.192C149.995 131.954 150.16 131.633 150.184 131.292V130.293H121.6Z" fill="white"/>
<path d="M122.968 131.662H150.076C150.511 131.643 150.93 131.509 151.281 131.278C151.633 131.047 151.9 130.729 152.05 130.363L158.266 112.916C158.339 112.765 158.367 112.601 158.349 112.438C158.33 112.274 158.266 112.118 158.162 111.983C158.057 111.849 157.916 111.74 157.752 111.667C157.587 111.595 157.405 111.561 157.222 111.569H130.114C129.675 111.597 129.254 111.74 128.905 111.979C128.555 112.218 128.291 112.544 128.146 112.916L121.93 130.341C121.857 130.49 121.829 130.653 121.847 130.814C121.865 130.976 121.93 131.13 122.034 131.263C122.138 131.395 122.279 131.502 122.443 131.572C122.606 131.642 122.787 131.673 122.968 131.662Z" fill="#263238"/>
<path opacity="0.2" d="M122.968 131.662H150.076C150.511 131.643 150.93 131.509 151.281 131.278C151.633 131.047 151.9 130.729 152.05 130.363L158.266 112.916C158.339 112.765 158.367 112.601 158.349 112.438C158.33 112.274 158.266 112.118 158.162 111.983C158.057 111.849 157.916 111.74 157.752 111.667C157.587 111.595 157.405 111.561 157.222 111.569H130.114C129.675 111.597 129.254 111.74 128.905 111.979C128.555 112.218 128.291 112.544 128.146 112.916L121.93 130.341C121.857 130.49 121.829 130.653 121.847 130.814C121.865 130.976 121.93 131.13 122.034 131.263C122.138 131.395 122.279 131.502 122.443 131.572C122.606 131.642 122.787 131.673 122.968 131.662Z" fill="white"/>
<path opacity="0.2" d="M124 131.662H150.088C150.523 131.643 150.942 131.509 151.293 131.278C151.645 131.047 151.912 130.729 152.062 130.363L158.278 112.916C158.351 112.765 158.379 112.601 158.361 112.438C158.343 112.274 158.278 112.118 158.174 111.983C158.069 111.849 157.928 111.74 157.764 111.667C157.599 111.595 157.417 111.561 157.234 111.569H131.134C130.695 111.597 130.274 111.74 129.925 111.979C129.575 112.218 129.311 112.544 129.166 112.916L122.95 130.341C122.877 130.491 122.848 130.655 122.867 130.817C122.886 130.98 122.951 131.135 123.057 131.268C123.163 131.401 123.305 131.507 123.47 131.576C123.636 131.645 123.818 131.675 124 131.662Z" fill="white"/>
<path opacity="0.2" d="M139.852 122.396C139.516 123.556 140.164 124.501 141.298 124.501C142.432 124.501 143.614 123.556 143.95 122.396C144.286 121.237 143.638 120.292 142.51 120.292C141.382 120.292 140.2 121.253 139.852 122.396Z" fill="white"/>
<path opacity="0.2" d="M152.2 143.333L151.126 147.88C151.113 147.939 151.113 148.001 151.127 148.06C151.141 148.119 151.168 148.176 151.207 148.226C151.245 148.276 151.295 148.318 151.352 148.351C151.409 148.384 151.473 148.406 151.54 148.416L154.072 148.824C154.072 148.824 157.438 149.592 158.386 149.05C161.146 147.472 163.786 137.46 162.682 136.703C162.274 136.434 161.56 136.842 161.206 137.17C160.072 138.206 157.654 141.094 156.694 141.953C155.578 142.951 153.592 142.978 152.722 142.941C152.596 142.937 152.473 142.975 152.377 143.047C152.281 143.12 152.218 143.221 152.2 143.333Z" fill="white"/>
<path d="M94.156 126.149L85.648 126.245L85.81 123.771L94.156 123.61V126.149Z" fill="black"/>
<path d="M110.944 123.282L113.488 123.234L114.4 125.907L110.944 125.95V123.282Z" fill="black"/>
<path d="M109.858 123.304V125.961L95.464 126.133V123.583L109.858 123.304Z" fill="black"/>
<path d="M101.566 125.499L101.524 124.463C101.507 124.197 101.608 123.935 101.804 123.735C102.001 123.534 102.277 123.41 102.574 123.389L105.178 123.293C105.323 123.288 105.467 123.31 105.603 123.357C105.738 123.404 105.861 123.475 105.964 123.567C106.182 123.76 106.309 124.022 106.318 124.297L106.36 125.327C106.375 125.594 106.273 125.856 106.076 126.056C105.879 126.257 105.602 126.38 105.304 126.401L102.706 126.498H102.658C102.368 126.488 102.093 126.379 101.889 126.193C101.686 126.008 101.57 125.759 101.566 125.499ZM105.286 125.966C105.458 125.951 105.618 125.877 105.73 125.758C105.842 125.64 105.898 125.487 105.886 125.333L105.844 124.302C105.835 124.142 105.76 123.991 105.634 123.878C105.575 123.824 105.504 123.782 105.425 123.754C105.347 123.726 105.262 123.713 105.178 123.717L102.574 123.813C102.401 123.827 102.241 123.901 102.129 124.02C102.016 124.139 101.961 124.292 101.974 124.447L102.016 125.483C102.016 125.561 102.033 125.638 102.067 125.709C102.101 125.781 102.15 125.846 102.212 125.901C102.274 125.955 102.347 125.998 102.428 126.027C102.509 126.056 102.595 126.07 102.682 126.068L105.286 125.966Z" fill="white"/>
<path d="M102.01 125.161H103.318C103.397 125.16 103.473 125.131 103.528 125.081C103.584 125.031 103.616 124.963 103.618 124.893C103.618 124.821 103.586 124.753 103.53 124.703C103.474 124.652 103.398 124.624 103.318 124.624H102.01C101.93 124.624 101.854 124.652 101.798 124.703C101.742 124.753 101.71 124.821 101.71 124.893C101.712 124.963 101.744 125.031 101.8 125.081C101.856 125.131 101.931 125.16 102.01 125.161Z" fill="white"/>
<path d="M116.98 97.8097C116.98 97.8097 113.698 116.379 115.072 123.041L84.718 123.83C84.718 123.83 88.318 104.649 93.088 97.4125C93.088 97.391 101.014 85.5486 116.98 97.8097Z" fill="#407BFF"/>
<path opacity="0.6" d="M116.98 97.8097C116.98 97.8097 113.698 116.379 115.072 123.041L84.718 123.83C84.718 123.83 88.318 104.649 93.088 97.4125C93.088 97.391 101.014 85.5486 116.98 97.8097Z" fill="white"/>
<path d="M99.172 93.6761C99.172 93.6761 104.206 98.0781 107.116 97.3588C110.026 96.6394 111.118 95.3135 111.118 95.3135C111.118 95.3135 108.778 94.3955 109.036 93.8962C109.066 93.8426 109.138 93.7406 109.24 93.5902C110.11 92.4092 113.194 88.6407 113.194 88.6407L106.594 85.3177C106.594 85.3177 106.054 86.4612 105.394 87.8247C104.5 89.6392 103.384 91.8348 102.994 92.2428C102.31 92.9622 99.172 93.6761 99.172 93.6761Z" fill="#E4897B"/>
<path opacity="0.2" d="M105.364 87.8247C105.778 89.9184 106.798 92.3824 109.24 93.5902C110.11 92.4092 113.194 88.6407 113.194 88.6407L106.594 85.3177C106.594 85.3177 106.03 86.4612 105.364 87.8247Z" fill="black"/>
<path d="M104.038 83.7449C103.67 84.7863 103.489 85.8736 103.504 86.9658C103.63 88.2972 101.974 88.7427 101.764 87.9375C101.764 87.9375 101.794 89.8969 103.216 89.6016C103.216 89.6016 103.216 90.9598 104.488 90.9813C105.57 89.646 106.131 88.0294 106.084 86.3807C105.886 83.7986 104.038 83.7449 104.038 83.7449Z" fill="#263238"/>
<path d="M115.444 77.2171C113.284 78.017 113.644 82.5048 117.244 86.3431C119.446 84.6468 120.448 80.7279 119.926 79.1819C119.086 76.7071 117.322 76.5246 115.444 77.2171Z" fill="#263238"/>
<path d="M118.6 88.1415C118.406 88.6544 118.178 89.1563 117.916 89.6446C115.786 93.5259 109.66 94.2828 106.948 90.4445L106.918 90.4069C105.118 87.8194 105.796 85.409 106.546 81.2272C106.711 80.2552 107.15 79.3368 107.821 78.5588C108.493 77.7808 109.375 77.1689 110.385 76.7809C111.394 76.3929 112.498 76.2417 113.591 76.3415C114.684 76.4413 115.731 76.7888 116.632 77.3513C120.166 79.5791 119.956 84.5716 118.6 88.1415Z" fill="#E4897B"/>
<path d="M113.128 83.7448C113.044 84.083 113.176 84.3943 113.416 84.4427C113.656 84.491 113.926 84.2601 114.016 83.9058C114.106 83.5515 113.974 83.2563 113.728 83.208C113.482 83.1596 113.236 83.4334 113.128 83.7448Z" fill="#263238"/>
<path d="M117.4 84.6199C117.316 84.9527 117.448 85.2641 117.694 85.3124C117.94 85.3607 118.204 85.1353 118.294 84.7756C118.384 84.4159 118.246 84.126 118 84.0777C117.754 84.0294 117.472 84.2817 117.4 84.6199Z" fill="#263238"/>
<path d="M115.954 84.4965C116.147 85.6088 116.508 86.6924 117.028 87.7174C116.731 87.8297 116.409 87.8821 116.087 87.871C115.765 87.8598 115.449 87.7854 115.162 87.653L115.954 84.4965Z" fill="#DE5753"/>
<path d="M112.264 82.3223C112.215 82.3167 112.169 82.298 112.132 82.2687C112.09 82.2297 112.067 82.1777 112.067 82.1237C112.067 82.0697 112.09 82.0178 112.132 81.9788C112.4 81.7651 112.721 81.6125 113.069 81.534C113.417 81.4555 113.781 81.4534 114.13 81.5278C114.158 81.5341 114.184 81.5452 114.206 81.5605C114.229 81.5757 114.248 81.5949 114.263 81.6169C114.277 81.6388 114.287 81.6631 114.291 81.6884C114.295 81.7137 114.293 81.7394 114.286 81.764C114.268 81.8152 114.229 81.8582 114.176 81.8842C114.124 81.9102 114.062 81.9171 114.004 81.9036C113.728 81.848 113.441 81.8527 113.167 81.9172C112.894 81.9816 112.642 82.104 112.432 82.274C112.409 82.2917 112.382 82.305 112.353 82.3133C112.325 82.3216 112.294 82.3247 112.264 82.3223Z" fill="#263238"/>
<path d="M119.65 83.7449C119.609 83.7344 119.571 83.7146 119.54 83.6874C119.51 83.6601 119.488 83.6263 119.476 83.5892C119.419 83.3416 119.297 83.1096 119.121 82.9119C118.945 82.7142 118.719 82.5563 118.462 82.4512C118.406 82.4329 118.36 82.3957 118.334 82.3476C118.308 82.2994 118.305 82.2441 118.324 82.1935C118.344 82.1433 118.386 82.1022 118.44 82.0791C118.494 82.056 118.555 82.0528 118.612 82.07C118.941 82.1974 119.231 82.3935 119.458 82.642C119.684 82.8905 119.841 83.1841 119.914 83.498C119.921 83.5234 119.923 83.5498 119.918 83.5757C119.914 83.6016 119.904 83.6265 119.889 83.6489C119.874 83.6714 119.854 83.6909 119.831 83.7065C119.807 83.722 119.78 83.7333 119.752 83.7396C119.719 83.7476 119.684 83.7494 119.65 83.7449Z" fill="#263238"/>
<path d="M114.274 89.7144C113.637 89.6585 113.031 89.4451 112.522 89.0981C112.013 88.751 111.623 88.2841 111.394 87.7496C111.383 87.7119 111.388 87.6718 111.41 87.6377C111.431 87.6037 111.466 87.5783 111.508 87.5671C111.551 87.5569 111.597 87.5618 111.636 87.5807C111.675 87.5997 111.704 87.6313 111.718 87.6691C111.718 87.7282 112.21 89.0917 114.328 89.4192C114.371 89.427 114.409 89.449 114.435 89.4809C114.46 89.5127 114.471 89.552 114.466 89.5909C114.459 89.63 114.434 89.6649 114.398 89.688C114.362 89.7111 114.318 89.7206 114.274 89.7144Z" fill="#263238"/>
<path d="M119.506 80.5615C119.506 80.5615 120.898 79.606 120.844 78.4894C120.796 77.784 120.546 77.1016 120.117 76.5082C119.688 75.9148 119.095 75.4305 118.396 75.102C117.069 74.4148 115.567 74.045 114.034 74.0283C108.718 73.7492 105.826 75.1772 104.914 77.7163C104.35 78.6182 104.362 80.2931 104.866 81.8606C104.869 81.8694 104.869 81.8787 104.866 81.8875C105.138 82.7821 105.61 83.6183 106.252 84.3461C109.492 81.8338 110.698 80.0515 110.188 78.8705C110.296 78.8437 111.904 77.5553 112.618 77.5231C113.65 77.4748 115.552 78.3498 117.094 79.1711C117.94 79.6167 118.81 78.9027 118.81 78.9027L119.506 80.5615Z" fill="#263238"/>
<path d="M103.51 84.1045C103.543 84.6314 103.692 85.1473 103.949 85.6226C104.205 86.0979 104.564 86.5233 105.004 86.8745C106.204 87.7979 107.464 86.9926 107.698 85.6774C107.914 84.491 107.554 82.5746 106.09 82.1558C104.626 81.7371 103.426 82.8 103.51 84.1045Z" fill="#E4897B"/>
<path d="M103.504 86.9282C103.504 86.9282 105.472 80.0837 110.338 77.5337C115.204 74.9838 120.25 76.7661 120.25 76.7661C120.197 76.0796 120.087 75.3977 119.92 74.7261C119.776 74.5114 117.364 73.7706 117.364 73.7706C117.364 73.7706 115.99 71.9615 114.082 71.3817C112.174 70.8019 106.474 70.6355 104.482 72.1225C102.49 73.6095 101.176 76.6372 102.016 76.6909C102.856 76.7446 103.498 76.7446 103.498 76.7446C103.498 76.7446 101.926 81.6029 102.598 82.333C102.604 82.3276 101.44 85.7096 103.504 86.9282Z" fill="#407BFF"/>
<path d="M113.266 149.635C113.282 149.616 113.303 149.601 113.327 149.591C113.351 149.582 113.378 149.578 113.404 149.581C113.427 149.584 113.449 149.594 113.464 149.61C113.48 149.626 113.488 149.646 113.488 149.667C113.536 149.871 113.848 151.686 113.344 152.131C113.289 152.174 113.222 152.203 113.151 152.216C113.08 152.23 113.006 152.226 112.936 152.206C112.816 152.184 112.705 152.134 112.614 152.06C112.523 151.986 112.456 151.892 112.42 151.788C112.348 151.456 112.394 151.112 112.552 150.805C112.745 150.394 112.984 150.002 113.266 149.635ZM113.266 150.005C112.847 150.489 112.635 151.09 112.666 151.702C112.688 151.774 112.734 151.839 112.797 151.888C112.859 151.938 112.937 151.97 113.02 151.981C113.047 151.992 113.077 151.995 113.106 151.99C113.135 151.985 113.161 151.973 113.182 151.954C113.225 151.914 113.258 151.867 113.278 151.814C113.403 151.217 113.405 150.604 113.284 150.005H113.266Z" fill="#407BFF"/>
<path d="M126.694 140.75L118.33 143.236L114.31 144.433L115.24 148.357L119.122 147.697L128.596 146.076L126.694 140.75Z" fill="#E4897B"/>
<path d="M116.326 148.561L115.726 143.945C115.719 143.882 115.697 143.821 115.663 143.766C115.628 143.711 115.581 143.662 115.525 143.624C115.469 143.586 115.404 143.558 115.336 143.543C115.267 143.528 115.196 143.526 115.126 143.537L112.6 143.869C112.6 143.869 109.138 144.095 108.43 144.873C106.366 147.155 107.38 157.403 108.712 157.789C109.198 157.929 109.726 157.338 109.948 156.93C110.656 155.626 111.934 152.201 112.534 151.117C113.242 149.855 115.114 149.265 115.954 149.055C116.072 149.026 116.174 148.961 116.242 148.87C116.311 148.779 116.34 148.67 116.326 148.561Z" fill="#263238"/>
<path d="M113.284 149.603C113.303 149.59 113.326 149.583 113.35 149.583C113.374 149.583 113.397 149.59 113.416 149.603C113.494 149.603 114.868 150.139 115.102 150.853C115.135 150.942 115.147 151.035 115.137 151.128C115.126 151.22 115.094 151.31 115.042 151.39C115.011 151.473 114.95 151.544 114.868 151.592C114.787 151.64 114.689 151.661 114.592 151.653C113.992 151.584 113.32 150.311 113.254 149.742V149.683C113.252 149.669 113.253 149.654 113.259 149.64C113.264 149.626 113.272 149.613 113.284 149.603ZM114.832 151.213C114.868 151.119 114.868 151.017 114.832 150.923C114.688 150.483 113.92 150.08 113.53 149.903C113.704 150.499 114.262 151.353 114.61 151.39C114.646 151.39 114.718 151.39 114.796 151.261L114.826 151.213H114.832Z" fill="#407BFF"/>
<path opacity="0.2" d="M126.694 140.75L118.33 143.236L119.122 147.697L128.596 146.076L126.694 140.75Z" fill="black"/>
<path d="M120.574 148.39L122.962 148.588L121.534 141.207L118.792 142.495L120.574 148.39Z" fill="#407BFF"/>
<path opacity="0.6" d="M120.574 148.39L122.962 148.588L121.534 141.207L118.792 142.495L120.574 148.39Z" fill="white"/>
<path opacity="0.2" d="M116.326 148.561L115.726 143.945C115.719 143.882 115.697 143.821 115.663 143.766C115.628 143.711 115.581 143.662 115.525 143.624C115.469 143.586 115.404 143.558 115.336 143.543C115.267 143.528 115.196 143.526 115.126 143.537L112.6 143.869C112.6 143.869 109.138 144.095 108.43 144.873C106.366 147.155 107.38 157.403 108.712 157.789C109.198 157.929 109.726 157.338 109.948 156.93C110.656 155.626 111.934 152.201 112.534 151.117C113.242 149.855 115.114 149.265 115.954 149.055C116.072 149.026 116.174 148.961 116.242 148.87C116.311 148.779 116.34 148.67 116.326 148.561Z" fill="white"/>
<path d="M147.592 142.764C147.592 142.764 108.448 129.16 96.466 131.431C84.484 133.702 84.418 139.317 90.466 144.551C96.514 149.785 105.622 147.772 105.622 147.772C105.622 147.772 98.488 143.95 98.986 141.588C99.484 139.226 104.02 144.626 104.02 144.626C104.02 144.626 127.672 149.801 147.22 148.438L147.592 142.764Z" fill="#263238"/>
<path d="M148.066 142.194L145.87 141.293L144.604 148.663L147.664 148.218L148.066 142.194Z" fill="#407BFF"/>
<path opacity="0.6" d="M148.066 142.194L145.87 141.293L144.604 148.663L147.664 148.218L148.066 142.194Z" fill="white"/>
<path d="M96.688 92.2482C96.688 92.2482 101.986 105.132 101.71 108.026C101.434 110.919 90.52 132.596 90.52 132.596L81.52 135.817C81.52 135.817 83.374 103.978 96.688 92.2482Z" fill="#407BFF"/>
<path opacity="0.2" d="M96.688 92.2482C96.688 92.2482 101.986 105.132 101.71 108.026C101.434 110.919 90.52 132.596 90.52 132.596L81.52 135.817C81.52 135.817 83.374 103.978 96.688 92.2482Z" fill="black"/>
<path d="M115.81 129.649C115.81 129.649 112.978 123.642 112.072 120.313C111.166 116.985 114.334 99.8872 112.63 94.1486L116.98 97.8097L115.138 119.175L115.81 129.649Z" fill="#407BFF"/>
<path opacity="0.2" d="M115.81 129.649C115.81 129.649 112.978 123.642 112.072 120.313C111.166 116.985 114.334 99.8872 112.63 94.1486L116.98 97.8097L115.138 119.175L115.81 129.649Z" fill="black"/>
<path d="M83.692 120.314C83.692 120.314 102.466 123.534 99.496 92.8495L96.442 92.6133C96.442 92.6133 98.302 104.273 94.876 111.901C91.45 119.53 83.374 119.175 83.374 119.175L83.692 120.314Z" fill="#263238"/>
<path d="M101.602 106.678L95.302 93.5904L93.4 95.8397C93.4 95.8397 93.064 92.667 94.168 91.7437C95.272 90.8203 98.368 91.9745 99.568 92.2483C100.768 92.5221 101.602 106.678 101.602 106.678Z" fill="#407BFF"/>
<path d="M111.532 94.3527C111.532 94.3527 113.962 100.795 113.566 110.876C113.17 120.958 115.198 120.12 115.198 120.12L115.486 119.17C115.486 119.17 114.352 119.052 114.442 115.654C114.532 112.256 115.042 98.5399 113.566 94.9378L111.532 94.3527Z" fill="#263238"/>
<path d="M112.804 106.292C112.804 106.292 113.404 96.6287 110.368 93.7996C110.368 93.7996 112.642 93.0373 113.566 93.7996C114.49 94.5619 114.718 101.922 112.906 106.683" fill="#407BFF"/>
<path d="M97.558 110.243C97.558 110.243 100.306 115.949 100.924 116.744C101.542 117.538 115.216 123.185 115.216 123.185C116.325 123.048 117.449 123.048 118.558 123.185C120.244 123.422 122.566 124.055 122.758 124.297C122.95 124.538 120.22 128.103 120.22 128.103C120.22 128.103 114.754 128.403 114.076 126.492C114.076 126.492 100.372 121.94 98.782 120.748C97.192 119.556 92.8 112.46 92.8 112.46L97.558 110.243Z" fill="#E4897B"/>
<path d="M94.156 97.4393C97.084 97.4393 101.194 113.431 101.956 115.6C102.718 117.769 114.862 122.396 114.862 122.396L111.004 126.482C111.004 126.482 97.876 122.241 96.334 120.292C94.792 118.343 90.118 107.247 89.902 104.681C89.686 102.115 92.2 97.434 94.156 97.4393Z" fill="#407BFF"/>
</g>
<defs>
<filter id="filter0_d" x="0" y="0" width="308" height="208" filterUnits="userSpaceOnUse" color-interpolation-filters="sRGB">
<feFlood flood-opacity="0" result="BackgroundImageFix"/>
<feColorMatrix in="SourceAlpha" type="matrix" values="0 0 0 0 0 0 0 0 0 0 0 0 0 0 0 0 0 0 127 0"/>
<feOffset dy="4"/>
<feGaussianBlur stdDeviation="2"/>
<feColorMatrix type="matrix" values="0 0 0 0 0 0 0 0 0 0 0 0 0 0 0 0 0 0 0.25 0"/>
<feBlend mode="normal" in2="BackgroundImageFix" result="effect1_dropShadow"/>
<feBlend mode="normal" in="SourceGraphic" in2="effect1_dropShadow" result="shape"/>
</filter>
</defs>
</svg>
